<?xml version="1.0" encoding="UTF-8"?>
<svg id="Layer_1" data-name="Layer 1" xmlns="http://www.w3.org/2000/svg" viewBox="0 0 283.46 283.46">
  <defs>
    <style>
      .cls-1 {
        fill: none;
      }

      .cls-2 {
        font-size: 73.94px;
        letter-spacing: -.03em;
      }

      .cls-3 {
        fill: #f25d55;
      }

      .cls-4, .cls-5 {
        fill: #fff;
      }

      .cls-6 {
        fill: #d1c1c1;
      }

      .cls-7 {
        fill: #6d8cf2;
      }

      .cls-8 {
        fill: #606060;
      }

      .cls-9 {
        font-size: 36.46px;
        letter-spacing: 0em;
      }

      .cls-5 {
        font-family: DINCondensed-Bold, 'DIN Condensed';
        font-weight: 700;
      }
    </style>
  </defs>
  <text class="cls-5" transform="translate(141.73 212.67) scale(.83 1)"><tspan class="cls-2" x="0" y="0">38</tspan><tspan class="cls-9" x="51.31" y="0">.390</tspan></text>
  <polygon class="cls-1" points="118.07 78.38 118.1 78.23 117.91 78.23 118.07 78.38"/>
  <path class="cls-1" d="M73.81,75.98l.74-1.58,1.4,2.88,1.39,.95h3.84l1.9-1,.38,.97,.18,.03h15.31l.17-1.52-1.12-2.17,.79-2.27,2.73-1.81,2.42,1.58,4.13-1.71,1.07,1.63,1.4-.28,.13,1.48,1.12-.1-.28,2.73,1.02,1.2,2.55-1.48,2.85,2.72h.19l.81-4.2,3.94,2.5,4.59-1.66-.23-2.78,5.79-1.86-.46-1.48,1.2-1.15-1.35-1.86,.13-3.71,3.47-1.2,3.06-3.98,2.14,.41,1.3-.28,2.73-2.22,.64,.61,3.47-4.08,4.33-5.7c-.1-.16-.2-.31-.29-.48-.29-.49-.51-1.02-.67-1.59-.16-.57-.29-1.29-.37-2.18-.12-.89-.2-2.01-.24-3.36-.04-1.35-.06-3.07-.06-5.14,0-1.72,.02-3.14,.06-4.25,.04-1.11,.12-2.06,.24-2.85,.08-.74,.21-1.38,.4-1.92,.18-.54,.42-1.11,.7-1.7,.82-1.63,1.91-2.88,3.27-3.77,1.37-.89,2.9-1.33,4.62-1.33s3.24,.46,4.59,1.37c1.34,.91,2.42,2.16,3.24,3.73,.29,.59,.53,1.16,.73,1.7,.2,.54,.37,1.18,.49,1.92,.08,.79,.14,1.74,.18,2.85,.04,1.11,.06,2.53,.06,4.25,0,1.63-.02,2.97-.06,4.03,0,.02,0,.04,0,.05l.57-1.51,2.45-2.04,.2-.03,.51,2.04,5.19,2.45,2.88,.51,5.65,5.93-.51,3.71,1.52,2.2v-6.05h9.17v3.72l-4.56,19.45-.28,2.73-6.21,3.62-.33,4.56h80.66V0H41V78.23h29.12l.96-1.46,2.73-.79Zm125.65-13.24l4.43-18.6h3.26l-4.61,18.6h3.04v-7.4h3.08v7.4h1.48v3.5h-1.48v3.87h-3.08v-3.87h-6.12v-3.5Z"/>
  <polygon class="cls-1" points="87.63 78.84 91.48 86.53 95.97 81.9 98.56 81.8 98.95 78.23 83.64 78.23 87.63 78.84"/>
  <polygon class="cls-1" points="79 79.37 81.18 78.23 77.34 78.23 79 79.37"/>
  <polygon class="cls-1" points="191.72 47.65 191.72 50.64 189.31 50.64 191.19 53.37 191.24 54.9 190.22 55.64 191.01 59.81 191.98 60.42 191.1 61.95 191.52 62.53 195.09 47.65 191.72 47.65"/>
  <path class="cls-1" d="M161.31,41.87c.82,0,1.53-.34,2.14-1.04,.61-.69,.92-1.6,.92-2.74v-9.76c0-1.13-.31-2.04-.92-2.74-.61-.69-1.33-1.04-2.14-1.04s-1.53,.35-2.14,1.04c-.61,.69-.92,1.6-.92,2.74v9.76c0,1.13,.31,2.05,.92,2.74,.61,.69,1.32,1.04,2.14,1.04Z"/>
  <polygon class="cls-3" points="186.74 78.86 186.79 78.23 118.1 78.23 118.07 78.38 117.91 78.23 98.95 78.23 98.56 81.8 95.97 81.9 91.48 86.53 87.63 78.84 83.64 78.23 81.18 78.23 79 79.37 77.34 78.23 70.12 78.23 68.39 80.85 64.54 81.31 62.6 80.47 61.2 82.41 60.74 86.35 57.74 86.49 58.62 87.83 56.91 88.75 59.36 90.69 55.8 93.8 57 94.64 55.29 98.39 55.19 100.32 55.37 100.32 56.67 100.46 55.88 102.17 60 104.25 63.16 102.31 62.93 105.27 64.33 106.52 64.94 105.78 65.44 106.62 66.05 105.88 67.07 107 67.81 106.49 68.19 107.51 70 106.9 70.61 108.48 69.49 109.5 72.36 110.84 71.9 112.09 72.97 112.55 74.22 112.17 75.06 112.78 75.44 115.38 73.73 115.51 73.78 113.65 71.51 114.67 69.52 113.93 69.34 116.86 66.92 119.31 66.97 121.9 67.71 121.9 67.07 123.43 66.38 126.39 63.23 127.36 65.49 129.07 64.15 129.35 62.11 132.46 62.52 134.12 59.69 136.25 57.47 136.25 60.17 143.44 57.67 144.64 58.18 145.75 62.77 144.64 63.23 143.9 61.93 142.93 62.62 141.91 65.26 141.22 67.68 138.72 69.82 138.11 71.81 141.73 71.02 146.72 67.96 146.49 68.24 150.11 60.09 150.34 53.23 154.32 51.52 153.94 48.06 157.6 47.68 159.31 49.16 162.78 53.13 164.69 55.5 168.25 59.91 170.06 64.77 174.88 66.71 175.52 73.28 173.89 75.27 174.78 75.27 174.88 74.02 177.98 70.64 179.23 69.34 186.04 75.6 187.75 72.87 189.32 70.05 188.49 66.99 189.69 65.74 190.7 66.12 192.69 63.29 193.02 63.29 196.74 60.33 198.36 61.02 201.47 58.2 204.67 60.46 206.15 61.94 204.81 63.14 206.01 61.01 207.86 56.75 208.78 56.11 210.44 59.82 212.3 59.72 214.16 57.97 214.44 57.59 218.42 61.06 223.05 61.52 224.71 60.17 227.54 63.23 233.98 67.3 238.24 68.96 243.1 72.17 243.1 72.63 246.77 74.53 246.59 82.13 242.23 85.36 244.17 83.61 245.42 85.64 244.91 86.2 246.77 87.73 246.9 89.67 249.35 92.91 250.97 91.89 253.34 95.83 258.07 97.74 256.17 98.35 257.65 100.06 256.81 100.44 258.62 103.16 258.29 104.74 259.87 106.14 257.14 107.26 257.88 109.71 255.05 111.56 256.17 111.79 254.18 116.66 254.36 119.03 250.46 121.11 251.2 123.28 249.27 125.93 248.62 125.14 245.06 123.33 243.58 123.43 239.73 119.86 238.25 120.75 237.64 120.52 234.92 122.94 232.75 120.9 230.15 122.2 228.24 123.5 228.06 123.73 229.54 126.55 229.77 126.32 232.37 128.69 232.88 130.12 232.5 130.63 230 134.93 228.52 134.8 229.77 137.45 231.02 137.4 235.84 138.8 235.79 140 237.32 142.96 237.04 144.86 237.41 147.97 232.73 151.53 233.57 152 232.09 153.62 232.6 151.26 228.88 152.37 228.38 152 225.17 152.96 224.28 153.89 223.82 156.66 224.51 158.42 225.81 156.05 227.52 154.94 230.96 155.82 232.07 158.88 229.53 161.53 230.27 163.98 229.62 165.09 231.38 166.21 231.25 171.64 226.21 174.87 225.93 176.86 227.18 178.67 224.81 183.86 230 186.13 230.89 187.56 226.95 186.59 224.91 183.72 223.33 183.72 221.7 182.6 220.63 184.64 220.26 185.33 219.11 186.81 220.22 188.05 218.14 188.7 219.25 191.01 214.8 193.15 213.78 194.96 216.56 196.11 217.17 197.08 215.77 196.85 220.07 198.66 221.19 199.77 220.12 199.44 222.29 201.1 223.54 200.55 225.53 203.6 226.88 207.55 225.63 208.16 227.16 203.01 233.04 203.39 233.93 208.81 239.12 210.9 236.67 210.01 235.66 212 236.3 215.01 234.95 214.27 233.24 215.85 232.45 217.24 233.19 217.7 232.35 220.2 222.29 219.79 220.21 222.16 215.39 225.22 216 224.53 213.55 227.35 212.66 231.33 216.51 234.11 215.31 232.76 212.71 230.54 212.48 233.19 209.7 235 209.84 236.7 204.41 238.36 200.85 241.57 200.57 244.26 199.37 243.57 196.64 242.18 195.67 241.21 193.02 243.02 193.53 244.17 191.54 246.34 190.57 247.96 188.4 247.22 185.17 246.16 184.56 248.57 180.58 243.02 178.49 243.3 177.52 247.27 174.93 251.91 173.81 252.19 173.02 249.13 167.27 245.61 160.97 245.23 160.33 238.71 151.72 236.77 150.57 227.6 145.24 223.42 142.42 217.13 139.46 216.72 137.47 213.38 135.3 213.94 132.34 212.79 131.37 212.33 129 214.7 127.89 215.16 126.03 214.14 123.58 210.47 120.57 210.7 119.46 209.68 118.49 209.08 119.09 205.97 118.12 204.03 118.77 203.8 115.02 198.84 113.59 200.32 111.45 199.86 110.05 202.91 104.78 204.49 105.67 205.61 104.52 206.73 105.63 207.47 104.79 208.25 105.4 207.97 104.29 210.42 102.35 210.1 100.82 208.34 99.85 210.7 97.25 206.73 93.54 200.43 91.96 199.23 92.47 199.1 91.58 197.01 92.7 195.07 91.3 191.92 88.85 190.85 89.46 189.5 88.49 188.58 89.38 186.49 88.36 186.72 86.78 184.27 82.93 184.32 81.23 186.74 78.86"/>
  <g>
    <path class="cls-4" d="M151.21,182.21c1.88,0,3.17-.27,3.88-.81,.71-.54,1.07-1.8,1.07-3.77v-6.8c0-1.08-.28-1.97-.83-2.66-.55-.69-1.29-1.04-2.23-1.04-1.1,0-1.89,.42-2.35,1.26-.47,.84-.7,1.65-.7,2.44v4.29h-6.24v-4.36c0-1.53,.24-2.98,.73-4.36,.49-1.38,1.16-2.56,2.02-3.55,.86-.99,1.85-1.77,3-2.37,1.14-.59,2.36-.89,3.67-.89,1.71,0,3.13,.41,4.25,1.22s1.97,1.64,2.54,2.48c.41,.59,.76,1.18,1.07,1.77,.31,.59,.56,1.31,.76,2.14,.37,1.63,.55,4.04,.55,7.25,0,1.82-.03,3.3-.09,4.44-.06,1.13-.21,2.07-.46,2.81-.29,.79-.68,1.46-1.19,2-.51,.54-1.21,1.13-2.11,1.77,.98,.74,1.72,1.43,2.23,2.07,.51,.64,.89,1.38,1.13,2.22,.25,.89,.39,1.94,.43,3.14,.04,1.21,.06,2.75,.06,4.62,0,1.73-.03,3.15-.09,4.29-.06,1.13-.15,2.07-.28,2.81-.12,.79-.29,1.45-.49,2-.2,.54-.47,1.11-.79,1.7-.77,1.38-1.76,2.53-2.96,3.44-1.2,.91-2.78,1.37-4.74,1.37-.98,0-2.02-.2-3.12-.59-1.1-.39-2.1-1.04-3-1.92s-1.64-2.04-2.23-3.48c-.59-1.43-.89-3.18-.89-5.25v-4.29h6.24v3.92c0,1.18,.27,2.16,.83,2.92,.55,.76,1.29,1.15,2.23,1.15s1.68-.38,2.23-1.15c.55-.76,.83-1.79,.83-3.07v-7.54c0-2.07-.33-3.43-.98-4.07-.37-.39-.87-.64-1.5-.74-.63-.1-1.46-.15-2.48-.15v-6.66Z"/>
    <path class="cls-4" d="M165.03,173.78c0-1.43,.04-2.65,.12-3.66,.08-1.01,.22-1.89,.43-2.62s.44-1.41,.7-2c.26-.59,.6-1.21,1.01-1.85,.81-1.28,1.83-2.28,3.06-3,1.22-.71,2.55-1.07,3.97-1.07s2.75,.36,3.97,1.07c1.22,.72,2.24,1.71,3.06,3,.41,.64,.75,1.26,1.04,1.85,.28,.59,.53,1.26,.73,2,.2,.74,.34,1.62,.4,2.62,.06,1.01,.09,2.23,.09,3.66,0,1.58-.02,2.91-.06,3.99-.04,1.08-.16,2.05-.37,2.88-.21,.84-.52,1.59-.95,2.26-.43,.67-1.01,1.37-1.74,2.11,.73,.69,1.31,1.38,1.74,2.07s.74,1.5,.95,2.44c.2,.94,.33,2.08,.37,3.44,.04,1.36,.06,3.02,.06,4.99,0,1.63-.03,2.97-.09,4.03-.06,1.06-.15,1.99-.28,2.77-.12,.79-.3,1.46-.52,2-.22,.54-.5,1.11-.83,1.7-.69,1.28-1.67,2.38-2.94,3.29s-2.81,1.37-4.65,1.37-3.38-.46-4.65-1.37c-1.26-.91-2.24-2.01-2.94-3.29-.33-.59-.6-1.16-.83-1.7-.22-.54-.4-1.21-.52-2-.12-.79-.21-1.71-.28-2.77-.06-1.06-.09-2.4-.09-4.03,0-1.97,.02-3.63,.06-4.99,.04-1.36,.16-2.5,.37-3.44,.2-.94,.52-1.75,.95-2.44,.43-.69,1.01-1.38,1.74-2.07-.73-.74-1.31-1.44-1.74-2.11-.43-.67-.74-1.42-.95-2.26-.2-.84-.33-1.8-.37-2.88-.04-1.08-.06-2.41-.06-3.99Zm12.35-2.96c0-1.04-.31-1.91-.92-2.62-.61-.71-1.33-1.07-2.14-1.07s-1.53,.36-2.14,1.07c-.61,.72-.92,1.59-.92,2.62v7.69c0,1.04,.31,1.91,.92,2.62s1.32,1.07,2.14,1.07,1.53-.36,2.14-1.07,.92-1.59,.92-2.62v-7.69Zm0,20.7c0-1.04-.31-1.91-.92-2.62-.61-.71-1.33-1.07-2.14-1.07s-1.53,.36-2.14,1.07c-.61,.71-.92,1.59-.92,2.62v10.35c0,1.04,.31,1.91,.92,2.62,.61,.72,1.32,1.07,2.14,1.07s1.53-.36,2.14-1.07c.61-.71,.92-1.59,.92-2.62v-10.35Z"/>
    <path class="cls-4" d="M185.44,212.67v-3.72h3.08v3.72h-3.08Z"/>
    <path class="cls-4" d="M194.45,197.65c.92,0,1.56-.13,1.92-.4,.35-.27,.53-.89,.53-1.86v-3.35c0-.53-.14-.97-.41-1.31-.27-.34-.64-.51-1.1-.51-.54,0-.93,.21-1.16,.62-.23,.41-.35,.81-.35,1.2v2.12h-3.08v-2.15c0-.75,.12-1.47,.36-2.15,.24-.68,.57-1.26,1-1.75,.42-.49,.92-.88,1.48-1.17,.56-.29,1.17-.44,1.81-.44,.84,0,1.54,.2,2.1,.6,.55,.4,.97,.81,1.25,1.22,.2,.29,.38,.58,.53,.88,.15,.29,.28,.64,.38,1.06,.18,.8,.27,1.99,.27,3.57,0,.9-.01,1.63-.04,2.19-.03,.56-.11,1.02-.23,1.39-.14,.39-.34,.72-.59,.98s-.6,.56-1.04,.88c.48,.36,.85,.71,1.1,1.02,.25,.32,.44,.68,.56,1.09,.12,.44,.19,.95,.21,1.55,.02,.6,.03,1.36,.03,2.28,0,.85-.01,1.56-.04,2.12-.03,.56-.08,1.02-.14,1.39-.06,.39-.14,.72-.24,.98s-.23,.55-.39,.84c-.38,.68-.87,1.25-1.46,1.7-.59,.45-1.37,.67-2.34,.67-.48,0-1-.1-1.54-.29s-1.04-.51-1.48-.95c-.44-.44-.81-1.01-1.1-1.71-.29-.71-.44-1.57-.44-2.59v-2.11h3.08v1.93c0,.58,.14,1.06,.41,1.44,.27,.38,.64,.56,1.1,.56s.83-.19,1.1-.56,.41-.88,.41-1.51v-3.72c0-1.02-.16-1.69-.48-2-.18-.19-.43-.32-.74-.37-.31-.05-.72-.07-1.22-.07v-3.28Z"/>
    <path class="cls-4" d="M203.14,212.67l3.5-10.9-.06-.07c-.1,.1-.26,.18-.47,.24-.21,.06-.49,.09-.83,.09-.54,0-1.05-.16-1.51-.47-.46-.32-.82-.72-1.09-1.2-.14-.24-.25-.5-.33-.78-.08-.28-.14-.64-.18-1.08-.06-.44-.1-.99-.12-1.66-.02-.67-.03-1.51-.03-2.53,0-.85,0-1.55,.03-2.1,.02-.55,.06-1.01,.12-1.4,.04-.36,.11-.68,.2-.95,.09-.27,.21-.55,.35-.84,.4-.8,.94-1.42,1.61-1.86s1.43-.66,2.28-.66,1.6,.23,2.26,.67c.66,.45,1.2,1.06,1.6,1.84,.14,.29,.26,.57,.36,.84,.1,.27,.18,.58,.24,.95,.04,.39,.07,.86,.09,1.4,.02,.55,.03,1.25,.03,2.1,0,.8,0,1.46-.03,1.99-.02,.52-.05,.97-.09,1.33-.06,.39-.13,.74-.2,1.04-.07,.3-.16,.63-.26,.97l-4.04,13.05h-3.44Zm1.96-15.79c0,.56,.15,1.01,.45,1.35s.65,.51,1.06,.51,.75-.17,1.05-.51c.3-.34,.45-.79,.45-1.35v-4.81c0-.56-.15-1.01-.45-1.35-.3-.34-.65-.51-1.05-.51s-.75,.17-1.06,.51c-.3,.34-.45,.79-.45,1.35v4.81Z"/>
    <path class="cls-4" d="M213.24,192.07c0-.88,.12-1.65,.38-2.33,.25-.68,.59-1.26,1.01-1.75,.42-.49,.91-.86,1.46-1.11,.55-.25,1.13-.38,1.73-.38s1.18,.13,1.73,.38c.55,.26,1.04,.63,1.46,1.11,.42,.49,.76,1.07,1.01,1.75,.25,.68,.38,1.46,.38,2.33v15.24c0,.88-.13,1.65-.38,2.33s-.59,1.26-1.01,1.75c-.42,.49-.91,.86-1.46,1.11s-1.13,.38-1.73,.38-1.18-.13-1.73-.38-1.04-.63-1.46-1.11c-.42-.49-.76-1.07-1.01-1.75-.25-.68-.38-1.46-.38-2.33v-15.24Zm3.08,15.24c0,.54,.14,.98,.42,1.33,.28,.35,.64,.53,1.09,.53s.8-.18,1.08-.53,.42-.8,.42-1.33v-15.24c0-.53-.14-.98-.42-1.33-.28-.35-.64-.53-1.08-.53s-.8,.18-1.09,.53c-.28,.35-.42,.8-.42,1.33v15.24Z"/>
  </g>
  <path class="cls-7" d="M182.37,58.08c-.4,0-.75,.17-1.06,.51-.3,.34-.45,.79-.45,1.35v4.81c0,.56,.15,1.01,.45,1.35s.65,.51,1.06,.51,.75-.17,1.05-.51c.3-.34,.45-.79,.45-1.35v-4.81c0-.56-.15-1.01-.45-1.35-.3-.34-.65-.51-1.05-.51Z"/>
  <polygon class="cls-7" points="75.95 77.28 74.55 74.41 73.81 75.98 71.08 76.77 70.12 78.23 77.34 78.23 75.95 77.28"/>
  <path class="cls-7" d="M193.33,70.05l.28-2.73-.65,2.79h-3.26l1.82-7.58-.42-.58,.89-1.53-.97-.61-.79-4.17,1.02-.74-.05-1.53-1.89-2.73h-.31v-.44l-1.52-2.2,.51-3.71-5.65-5.93-2.88-.51-5.19-2.45-.51-2.04-.2,.03-2.45,2.04-.57,1.51c-.04,1.04-.1,1.92-.18,2.64-.12,.79-.26,1.49-.4,2.11-.14,.62-.32,1.27-.52,1.96l-8.19,26.47h-6.97l7.09-22.11-.12-.15c-.21,.2-.52,.36-.95,.48-.43,.12-.99,.18-1.68,.18-1.1,0-2.12-.32-3.06-.96-.78-.53-1.41-1.19-1.91-1.96l-4.33,5.7-3.47,4.08-.64-.61-2.73,2.22-1.3,.28-2.14-.41-3.06,3.98-3.47,1.2-.13,3.71,1.35,1.86-1.2,1.15,.46,1.48-5.79,1.86,.23,2.78-4.59,1.66-3.94-2.5-.81,4.2h68.68l.33-4.56,6.21-3.62Zm-17.84,.06h-3.08v-3.72h3.08v3.72Zm11.43-5.49c-.02,.55-.05,1-.09,1.37-.06,.39-.14,.72-.23,.98s-.21,.55-.35,.84c-.4,.8-.94,1.42-1.61,1.86-.67,.44-1.43,.66-2.28,.66s-1.6-.22-2.26-.67c-.66-.45-1.2-1.06-1.6-1.84-.16-.29-.29-.57-.38-.84s-.16-.6-.2-.98c-.06-.37-.1-.82-.12-1.37-.02-.55-.03-1.25-.03-2.1,0-.8,0-1.46,.03-1.99,.02-.52,.05-.98,.09-1.37,.04-.36,.1-.7,.18-1,.08-.3,.17-.62,.27-.97l4.04-13.05h3.44l-3.5,10.9,.06,.07c.1-.1,.26-.18,.47-.24,.21-.06,.49-.09,.83-.09,.54,0,1.04,.16,1.51,.47,.46,.32,.82,.72,1.09,1.2,.14,.27,.25,.53,.33,.8,.08,.27,.15,.62,.21,1.06,.04,.44,.07,.99,.09,1.66,.02,.67,.03,1.51,.03,2.53,0,.85,0,1.55-.03,2.1Z"/>
  <polygon class="cls-7" points="83.08 77.23 81.18 78.23 83.64 78.23 83.46 78.2 83.08 77.23"/>
  <polygon class="cls-7" points="112.52 76.99 111.5 75.79 111.78 73.06 110.66 73.16 110.53 71.68 109.13 71.96 108.06 70.33 103.94 72.04 101.52 70.46 98.79 72.27 98 74.54 99.12 76.71 98.95 78.23 117.91 78.23 115.06 75.51 112.52 76.99"/>
  <path class="cls-6" d="M156.17,44.67l-.18-5,2.83,3.01,3.47-.23,1.94-.92,1.2-2.7,2.73,.61,1.71-.74,.68-1.78s0-.04,0-.05c.04-1.06,.06-2.4,.06-4.03,0-1.72-.02-3.14-.06-4.25-.04-1.11-.1-2.06-.18-2.85-.12-.74-.29-1.38-.49-1.92-.21-.54-.45-1.11-.73-1.7-.82-1.58-1.9-2.82-3.24-3.73-1.35-.91-2.87-1.37-4.59-1.37s-3.25,.44-4.62,1.33c-1.37,.89-2.46,2.14-3.27,3.77-.29,.59-.52,1.16-.7,1.7-.18,.54-.32,1.18-.4,1.92-.12,.79-.2,1.74-.24,2.85-.04,1.11-.06,2.53-.06,4.25,0,2.07,.02,3.78,.06,5.14,.04,1.36,.12,2.48,.24,3.36,.08,.89,.2,1.62,.37,2.18,.16,.57,.39,1.1,.67,1.59,.09,.17,.19,.32,.29,.48l1.09-1.43,1.43,.51Zm2.08-16.34c0-1.13,.31-2.04,.92-2.74,.61-.69,1.32-1.04,2.14-1.04s1.53,.35,2.14,1.04c.61,.69,.92,1.6,.92,2.74v9.76c0,1.13-.31,2.05-.92,2.74-.61,.69-1.33,1.04-2.14,1.04s-1.53-.34-2.14-1.04c-.61-.69-.92-1.6-.92-2.74v-9.76Z"/>
  <path class="cls-4" d="M155.56,47.56c.94,.64,1.96,.96,3.06,.96,.69,0,1.25-.06,1.68-.18,.43-.12,.74-.28,.95-.48l.12,.15-7.09,22.11h6.97l8.19-26.47c.2-.69,.38-1.34,.52-1.96,.14-.62,.27-1.32,.4-2.11,.08-.73,.14-1.61,.18-2.64l-.68,1.78-1.71,.74-2.73-.61-1.2,2.7-1.94,.92-3.47,.23-2.83-3.01,.18,5-1.43-.51-1.09,1.43c.5,.77,1.13,1.43,1.91,1.96Z"/>
  <rect class="cls-4" x="172.42" y="66.39" width="3.08" height="3.72"/>
  <path class="cls-4" d="M186.83,58.33c-.06-.44-.13-.79-.21-1.06-.08-.27-.19-.53-.33-.8-.26-.49-.62-.89-1.09-1.2-.46-.32-.96-.47-1.51-.47-.34,0-.62,.03-.83,.09-.21,.06-.37,.14-.47,.24l-.06-.07,3.5-10.9h-3.44l-4.04,13.05c-.1,.34-.19,.66-.27,.97-.08,.3-.14,.64-.18,1-.04,.39-.07,.84-.09,1.37-.02,.52-.03,1.19-.03,1.99,0,.85,0,1.55,.03,2.1,.02,.55,.06,1,.12,1.37,.04,.39,.11,.72,.2,.98s.22,.55,.38,.84c.4,.78,.93,1.39,1.6,1.84,.66,.45,1.42,.67,2.26,.67s1.6-.22,2.28-.66c.67-.44,1.21-1.06,1.61-1.86,.14-.29,.26-.57,.35-.84s.17-.6,.23-.98c.04-.37,.07-.82,.09-1.37,.02-.55,.03-1.25,.03-2.1,0-1.02,0-1.87-.03-2.53-.02-.67-.05-1.22-.09-1.66Zm-2.96,6.42c0,.56-.15,1.01-.45,1.35-.3,.34-.65,.51-1.05,.51s-.75-.17-1.06-.51-.45-.79-.45-1.35v-4.81c0-.56,.15-1.01,.45-1.35,.3-.34,.65-.51,1.06-.51s.75,.17,1.05,.51c.3,.34,.45,.79,.45,1.35v4.81Z"/>
  <polygon class="cls-8" points="191.72 50.64 191.72 47.65 195.09 47.65 191.52 62.53 191.7 62.78 193.84 65 193.61 67.32 198.17 47.87 198.17 44.15 189 44.15 189 50.19 189.31 50.64 191.72 50.64"/>
  <polygon class="cls-4" points="191.7 62.78 191.52 62.53 189.69 70.11 192.95 70.11 193.61 67.32 193.84 65 191.7 62.78"/>
  <polygon points="189.31 50.64 189 50.19 189 50.64 189.31 50.64"/>
  <polygon class="cls-8" points="205.59 70.11 208.66 70.11 208.66 66.25 210.14 66.25 210.14 62.75 208.66 62.75 208.66 55.34 205.59 55.34 205.59 62.75 202.54 62.75 207.15 44.15 203.9 44.15 199.47 62.75 199.47 66.25 205.59 66.25 205.59 70.11"/>
</svg>