<?xml version="1.0" encoding="UTF-8"?>
<svg id="Layer_2" data-name="Layer 2" xmlns="http://www.w3.org/2000/svg" viewBox="0 0 205.83 277.35">
  <defs>
    <style>
      .cls-1 {
        fill: none;
      }

      .cls-2 {
        fill: #f25d55;
      }

      .cls-3 {
        fill: #fff;
      }

      .cls-4 {
        fill: #d1c1c1;
      }

      .cls-5 {
        fill: #082cff;
      }

      .cls-6 {
        fill: #6d8cf2;
      }

      .cls-7 {
        fill: #606060;
      }
    </style>
  </defs>
  <g id="Layer_1-2" data-name="Layer 1">
    <polygon class="cls-2" points="33.22 120.1 33.74 119.78 34.4 120.76 34.73 120.3 33.61 118.67 33.54 118.21 32.14 118.21 32.48 118.92 33.22 120.1"/>
    <polygon class="cls-1" points="14.72 118.06 14.63 118.21 15.44 118.21 15.22 118.19 14.72 118.06"/>
    <polygon class="cls-1" points="104.43 120.2 101.64 120.42 100.32 120.32 99.17 120.24 100.22 121.25 101.56 121 102.79 121.21 104.33 120.49 104.79 120.45 105.64 121.16 106.06 121.12 106.94 120.25 107.02 119.31 108.06 119.48 108.41 118.43 108.71 118.21 105.72 118.21 105.72 118.23 104.43 120.2"/>
    <path class="cls-1" d="M139.43,179.19h-.34l-.33,.33-.93,.75-.33,.93-1,.25-.59,.33c1.2-.1,2.07-.35,2.61-.76,.44-.34,.75-.95,.91-1.83Z"/>
    <path class="cls-1" d="M156.91,204.58l.48,.58c.12,.02,.23,.04,.36,.04,.82,0,1.53-.36,2.14-1.07,.61-.71,.92-1.59,.92-2.62v-10.35c0-1.04-.31-1.91-.92-2.62-.61-.71-1.33-1.07-2.14-1.07s-1.53,.36-2.14,1.07c-.61,.71-.92,1.59-.92,2.62v10.35c0,1.02,.3,1.87,.89,2.58l.73,.5h.6Z"/>
    <path class="cls-1" d="M134.3,204.05c.55,.76,1.29,1.15,2.23,1.15s1.68-.38,2.23-1.15c.55-.76,.83-1.79,.83-3.07v-7.06l-.16,.19-.27,.16-.61,.22-2.14,2.19-.3,.31-.79,.17-.82,3.04-1.03-.07v1.01c0,1.18,.27,2.16,.83,2.92Z"/>
    <path class="cls-1" d="M148.52,192.59c0-.16,.01-.32,.02-.48l-1.85,.65-.89,.89c.02,1,.03,2.15,.03,3.48,0,1.21-.02,2.27-.05,3.19l2.72,.14c-.03-.84-.04-1.79-.04-2.89,0-1.97,.02-3.63,.06-4.99Z"/>
    <path class="cls-1" d="M155.61,180.76c.61,.71,1.32,1.07,2.14,1.07s1.53-.36,2.14-1.07c.61-.71,.92-1.59,.92-2.62v-7.69c0-1.04-.31-1.91-.92-2.62-.61-.71-1.33-1.07-2.14-1.07s-1.53,.36-2.14,1.07c-.14,.16-.26,.33-.36,.51l.21,.86,.58,.11,.06,.39-1.15,1.56-.11,.63-.14,.08v6.17c0,1.04,.31,1.91,.92,2.62Z"/>
    <path class="cls-1" d="M145.7,178.91l2.2,.2-1.26,1.07-1.13,2.71,.09,.69,.42,1.26,.87,.63,2.69,.41,.29,.42h.23c.39-.56,.88-1.11,1.47-1.67-.73-.74-1.31-1.44-1.74-2.11-.43-.67-.74-1.42-.95-2.25-.19-.78-.3-1.69-.35-2.69l-.24,.7-1.83-.93-.69,.18c-.01,.34-.03,.67-.04,.96,0,.14-.02,.27-.03,.41Z"/>
    <path class="cls-1" d="M127.11,202.61l-.8-.39-.33,.13,.21,.17-.41-.13-.21-.55-1.31-.25-.5-.42-.79,.09-.52-.04-.46-.04-.47-.28h-.41l-.68-.09-1.75-.08-1.57-1.64-.69-.38-1.26-1.31,1,1.69,1.09,.68,.5,.79,.33,.56,.16,.06,.42,.14,.68-.02,1,.31,1.09,.66,2.47,.85,2.48,.69,.28,.04,.38-.17-.06,.25,.41,.09c-.06-.4-.1-.81-.13-1.24l-.17-.16Z"/>
    <polygon class="cls-1" points="133.15 183.33 132.38 183.29 130.87 183.87 130.91 184.12 130.42 184.37 132.3 184.53 133.19 184.07 134.64 183.33 134.64 182.5 133.15 183.33"/>
    <polygon class="cls-1" points="112.51 94.49 111.83 96.59 112.2 98.07 111.69 98.7 111.38 101.17 109.81 101.22 106.47 100.21 103.89 100.54 102.25 99.58 103.66 101.08 106.17 100.89 107.29 102.1 108.86 101.85 111.11 102.58 112.54 101.81 112.54 94.48 112.51 94.49"/>
    <path class="cls-1" d="M139.54,193.02l.04,.02s0,0,0-.01h-.04Z"/>
    <path class="cls-1" d="M201.25,189.83c-.44,0-.8,.18-1.09,.53-.28,.35-.42,.8-.42,1.33v15.24c0,.54,.14,.98,.42,1.33,.28,.35,.64,.53,1.09,.53s.8-.18,1.08-.53,.42-.8,.42-1.33v-15.24c0-.54-.14-.98-.42-1.33s-.64-.53-1.08-.53Z"/>
    <polygon class="cls-6" points="29.06 74.88 29.06 74.88 29.06 74.88 29.06 74.88"/>
    <polygon class="cls-2" points="51.04 118.26 51.37 119.52 51.19 120.02 50.27 119.77 49.27 122.08 49.21 125.83 49.94 127.14 51.9 125.69 51.24 124.18 51.04 121.6 52.55 118.45 52.47 118.21 51.12 118.21 51.04 118.26"/>
    <polygon class="cls-1" points="52.23 117.52 51.12 118.21 52.47 118.21 52.24 117.52 52.23 117.52"/>
    <polygon class="cls-6" points="53.62 114.05 53.16 113.2 52.1 116.02 52.75 116.94 53.62 114.05"/>
    <polygon class="cls-6" points="29.99 76.78 29.33 77.06 29.58 77.65 30.76 77.49 31.96 78.03 31.96 76.99 30.62 76.09 30.25 75.09 29.06 74.88 29.45 76.72 29.99 76.78"/>
    <polygon class="cls-6" points="42.76 83.86 41.58 84.32 42.84 84.53 42.76 83.87 42.76 83.86"/>
    <polygon class="cls-6" points="47.92 61.99 47.94 62 47.95 61.99 47.92 61.99"/>
    <polygon class="cls-6" points="22.95 85.22 24.14 84.57 24.49 84.95 23.48 85.7 23.2 86.53 24.02 86.88 23.64 87.38 23.15 88.11 22.57 87.79 22.1 88.72 21.44 89.02 21.75 89.4 22.14 88.98 22.35 90.54 22.98 90.38 23.96 91.47 25.25 91.47 26.88 92.18 28.14 92.98 28.68 93.48 28.72 94.54 28.06 94.49 26.63 93.98 25.84 94.42 25.7 95.07 26.43 95.73 26.22 95.98 25.78 95.98 24.87 96.25 24.46 95.98 24.07 97.04 23.15 97.77 22.1 98.35 21.67 97.89 21.06 97.39 20.24 97.56 20.54 98.73 21.56 99.32 22.69 101.17 24.44 103.86 25.45 103.09 26.75 101.91 27.48 100.96 27.76 100.32 28.39 99.86 28.72 99.28 29.23 99.58 29.98 99.94 30.07 98.45 31.08 98.89 31.82 99.02 31.75 98.15 31.28 97.57 30.87 96.67 30.02 96.31 30.31 95.62 30.1 94.92 31.03 94.92 32.26 95.87 33.95 96 34.05 95.11 32.84 94.15 33.89 93.77 32.32 90.04 34.8 94.2 35.98 94.28 36.72 94.35 37.57 94.29 37.95 93.7 38.6 93.77 39.45 93.12 39.91 93.24 40.18 92.14 40.76 91.94 40.79 90.65 36.97 89.58 41.27 89.12 42.69 90.04 43.4 89.2 43.71 87.81 41.35 87.37 43.21 87.07 43.58 86.17 43.32 85.13 42.61 84.8 41.73 85.13 40.8 84.71 40.25 85.05 37.62 84.72 40.89 84.08 41.75 83.08 42.78 82.7 43.69 82.94 43.79 82.15 43.19 81.9 43.71 81.63 43.4 80.06 44.12 79.54 44.78 79.62 45.43 79 46.31 79 47.27 80.31 48.32 80.12 48.83 79.33 49.94 78.5 50.92 76.36 50.21 75.86 49.36 76.72 48.25 77.95 47.52 78.08 46.73 78.68 46.09 78.43 45.17 77.7 44.44 78.16 43.74 77.78 44.24 77.1 45.54 76.82 45.66 75.4 46.48 75.34 47.14 74.09 47.97 74.14 49.37 71.87 50.44 71.7 49.56 70.87 49.1 70.05 49.85 68.03 50.5 67.57 50.41 66.69 50.08 65.83 50.25 64.69 49.48 64 49.23 62.87 47.94 62 47.51 62.37 47.82 62.93 46.88 63.67 46 63.88 45.44 64.72 41.12 67.91 40.27 67.86 39.4 69.55 37.25 70.64 36.37 70.1 35.17 71.31 33.85 71.68 31.72 72.56 31.09 73.5 32.59 73.87 31.42 74.34 32.21 76.53 33.23 77.72 33.31 78.16 32.73 77.9 32.73 78.62 33.46 78.67 34.23 79.28 33.26 80.11 32.58 79.12 30.69 78.14 29.61 78.52 29.15 78.73 29.32 79.53 28.77 80.18 28.67 78.83 27.51 78.8 26.88 77.9 27.93 77.77 28.14 77.06 27.38 76.98 26.98 76.05 26.42 76.71 25.2 75.85 25.04 75.27 24.06 76.9 23.93 77.9 24.39 78.29 24.91 78.42 24.23 79.41 24.03 78.58 23.13 78.29 22.52 78.58 22.88 79.93 22.05 80.92 21.24 81.69 22.22 84.45 22.95 85.22"/>
    <polygon class="cls-2" points="44.39 137.82 44.82 137.02 45.3 136.73 45.57 136.28 45.19 135.9 44.39 135.85 44.39 135.86 43.1 136.61 44.39 137.82"/>
    <polygon class="cls-6" points="20.25 109.84 21.53 108.06 21.1 107.68 20.6 107.74 20.25 106.82 20.25 106.82 19.84 106.98 19.94 107.45 18.8 107.18 18.25 107.7 18.25 108.16 18.38 108.66 19.09 108.82 19.8 108.51 19.64 109.09 20.25 109.84"/>
    <polygon class="cls-2" points="43.22 153.11 42.16 153.36 41.75 153.36 42.04 154.16 42.94 154.9 43.82 154.08 43.22 153.1 43.22 153.11"/>
    <polygon class="cls-2" points="40.33 172.53 39.51 172.47 39.35 173.43 41.45 174.18 43.21 174.34 44.06 174.42 44.09 173.54 43.1 173.35 41.95 172.37 41.95 172.37 41.25 172.66 40.33 172.53"/>
    <polygon class="cls-2" points="51.45 127.47 51.45 127.47 50.79 128.58 51.86 129.91 53.49 129.91 53.68 128.85 52.51 127.67 51.45 127.47"/>
    <polygon class="cls-2" points="45.7 149.36 44.8 149.55 44.27 151 45.18 152 46.53 152.35 47.21 149.91 46.46 148.28 45.31 148.61 45.7 149.36"/>
    <polygon class="cls-2" points="9.49 139.21 8.93 140.13 9.49 140.21 9.95 139.75 9.49 139.2 9.49 139.21"/>
    <polygon class="cls-6" points="33.06 96.25 33.06 96.25 33.06 96.25 33.06 96.25"/>
    <polygon class="cls-2" points="46.45 148.27 46.46 148.28 46.46 148.28 46.45 148.27"/>
    <polygon class="cls-6" points="24.54 93.31 24.54 93.31 24.55 93.31 24.54 93.31"/>
    <polygon class="cls-2" points="4.28 147.92 4.78 148.95 5.57 148.55 5.02 147.73 4.28 147.92"/>
    <polygon class="cls-2" points="7.28 139.21 7.29 139.21 7.29 139.21 7.28 139.21"/>
    <polygon class="cls-2" points="1.28 151.39 1.28 151.4 1.29 151.39 1.28 151.39"/>
    <polygon class="cls-2" points=".36 151.7 0 152.83 .66 153.27 1.26 152.83 1.49 152.02 1.28 151.4 .36 151.7"/>
    <polygon class="cls-2" points="9.04 142.69 9.05 142.69 9.05 142.69 9.04 142.69"/>
    <polygon class="cls-2" points="8.72 142.86 8.81 143.54 9.3 143.7 9.35 143.08 9.05 142.69 8.72 142.86"/>
    <polygon class="cls-2" points="7.85 142.37 8.79 142.32 7.58 141.23 8.16 140.81 8.38 140.21 7.84 139.85 7.8 139.25 7.29 139.21 7.25 141.02 6.42 141.69 5.02 141.61 5.54 142.98 5.04 142.98 5.07 143.69 4.19 143.86 3.81 144.59 5.24 145.38 5.57 144.62 5.92 144.72 6.17 145.3 7.1 145.39 7.71 145.08 7.3 144.7 7.8 144.49 8.06 143.86 8.48 143.78 8.35 143.06 7.85 142.37"/>
    <polygon class="cls-2" points="4.52 145.3 3.48 145.01 3.48 145.02 3.27 145.77 4.19 146.14 4.01 146.51 3.53 146.4 4.03 147.14 5.34 146.65 4.53 146.46 4.83 146.1 5.95 146.1 4.39 145.63 4.52 145.3"/>
    <polygon class="cls-6" points="21.13 88.05 21.4 88.53 22.06 87.87 21.77 86.81 21.06 86.48 21.07 86.48 19.81 87.06 20.34 87.92 21.13 88.05"/>
    <polygon class="cls-6" points="22.77 94.35 21.85 94.35 21.93 95.2 23.24 94.62 23.89 95.15 24.66 94.23 24.54 93.31 23.57 93.36 22.77 94.35"/>
    <polygon class="cls-6" points="17.79 102.67 16.87 104.19 17.92 104.39 19.04 103.73 19.5 102.93 19.04 102.47 19.04 102.47 17.79 102.67"/>
    <polygon class="cls-6" points="16.94 101.08 18.12 100.43 17.4 99.6 16.02 100.26 16.94 101.08"/>
    <polygon class="cls-6" points="17.4 99.6 17.4 99.6 17.4 99.6 17.4 99.6"/>
    <polygon class="cls-6" points="12.33 105.77 11.24 105.67 11.24 105.68 10.98 106.07 11.62 106.55 12.33 105.77"/>
    <polygon class="cls-2" points=".46 153.57 0 153.78 .63 154.11 1.43 153.94 .46 153.56 .46 153.57"/>
    <polygon class="cls-6" points="33.91 97.69 34.78 97.5 34.32 96.63 33.06 96.25 32.81 96.96 33.91 97.69"/>
    <polygon class="cls-2" points="39.65 142.06 37.56 143.7 37.63 145.1 39.4 146.53 40.58 148.37 42.17 148.49 43.11 146.97 43.61 144.72 43.17 143.37 41.17 141.74 41.17 141.73 39.65 142.06"/>
    <polygon class="cls-6" points="139.67 43.83 140.35 44.37 140.66 43.99 140.51 43.61 141.21 43.96 141.51 44.51 141.47 45.15 142.11 44.66 141.64 44.05 141.55 43.64 140.89 43.22 140.32 42.89 140.6 42.7 140.85 42.07 140.58 41.74 140.38 42.18 140.03 42.63 139.68 42.74 139.19 42.54 139.64 43.15 139.67 43.83"/>
    <polygon class="cls-6" points="135.47 54.85 136 56.11 137.1 56.3 136.72 55.82 137.23 55.4 137.77 55.01 137.33 54.57 137.21 54.01 137.21 53.7 136.37 53.02 136.04 52.93 135.95 52.52 135.5 52.32 135.5 52.31 134.95 52.57 134.51 53.78 135.11 53.92 135.47 54.85"/>
    <polygon class="cls-6" points="140.57 41.74 140.58 41.74 140.58 41.74 140.57 41.74"/>
    <polygon class="cls-6" points="42.42 105.82 42.42 105.82 42.42 105.82 42.42 105.82"/>
    <polygon class="cls-6" points="138.36 54.53 138.13 54.79 138.17 55.04 138.55 55.11 138.91 55.15 138.84 54.89 138.65 54.72 139 54.53 138.36 54.53"/>
    <polygon class="cls-6" points="137.94 55.49 137.4 55.53 137.36 55.97 137.59 56.11 138.33 55.92 137.94 55.49 137.94 55.49"/>
    <polygon class="cls-6" points="141.67 41.9 141.83 41.45 141.57 41.19 141.57 41.19 141.19 42.7 141.7 42.67 141.67 41.9"/>
    <polygon class="cls-6" points="142.6 46.85 142.74 47.26 143.38 47.07 143.08 45.98 143.34 45.33 143.08 44.66 143.08 44.66 142.77 44.92 142.79 46.01 142.54 46.18 142.26 45.99 142.29 46.52 142.6 46.85"/>
    <polygon class="cls-2" points="33.61 118.67 34.73 120.3 34.4 120.76 33.74 119.78 33.22 120.1 32.48 118.92 32.14 118.21 30.28 118.21 30.39 118.84 28.82 118.67 28.53 120.43 29.8 120.84 30.05 122.22 29.67 122.6 30.25 123.45 30.9 123.53 32.82 124.63 34.16 125.84 34.86 125.5 34.74 122.99 35.91 122.22 36.24 123.78 37.22 122.35 37.55 123.65 37.9 125.7 39.58 125.16 39.94 126.29 38.35 126.5 37.38 127.21 37.05 128.39 37.55 128.73 40.53 134.32 42.22 133.52 41.37 135.65 44.6 135.24 45.73 135.24 45.86 134.14 47.38 134.45 47.58 137.55 48.31 137.93 49.94 135.24 50.02 132.81 51.04 134.39 51.33 135.9 53.81 135.84 51.78 137.6 50.6 139.93 49.53 141.76 49.86 144.21 52.17 143.39 53.56 141.96 55.4 139.39 56.58 139.14 56.91 136.95 56.78 135.9 57.89 136.29 60.66 134.57 61.18 132.81 61.18 131.23 59.59 131.16 58.82 130.62 55.19 132.13 54.01 132.13 53.41 130.91 51.45 130.58 50.72 129.52 49.01 130.37 50.01 128.98 49.73 127.93 48.09 127.6 48.13 126.42 47.29 124.58 47.94 123.6 47.62 122.8 45.73 123.19 45.9 122.13 47.36 121.55 47.65 118.21 33.54 118.21 33.61 118.67"/>
    <polygon class="cls-6" points="30.92 115.69 29.92 116.27 30.28 118.21 32.14 118.21 30.92 115.69"/>
    <polygon class="cls-6" points="48.21 112.79 46.7 110.02 45.57 109.77 44.47 106.81 43.41 106.15 42.42 105.82 42.35 107.25 41.58 108.12 40.65 108.26 39.99 109.25 40.72 110.96 40.84 112.19 41.71 112.19 41.17 113.58 40.53 113.91 41.12 115.08 41.04 116.01 40.45 115.55 40.07 116.55 39.26 117.19 39.33 116.09 38.27 116.88 36.04 114.05 35.25 111.82 33.61 110.68 32.81 113.74 33.61 114.18 35.5 116.27 35.37 117.01 34.6 116.27 33.22 116.23 33.54 118.21 47.65 118.21 47.82 116.27 48.21 112.79"/>
    <polygon class="cls-6" points="144.66 46.81 144.66 46.81 144.67 46.81 144.66 46.81"/>
    <polygon class="cls-6" points="143.89 48.78 144.37 48.91 144.4 48.43 144.78 48.32 145.01 48.84 145.23 48.84 145.49 48.65 145.81 48.84 146.01 48.43 145.68 48.1 145.81 47.71 145.2 47.91 145.04 47.52 145.3 47.26 144.75 47.14 144.66 46.81 144.15 46.91 144.72 47.81 144.24 48.07 143.89 48.78"/>
    <polygon class="cls-6" points="140.81 46.63 141.08 47.52 141.22 46.66 140.81 46.63"/>
    <polygon class="cls-6" points="140.8 46.63 140.81 46.63 140.8 46.62 140.8 46.63"/>
    <polygon class="cls-6" points="142.29 48.55 142.28 48.55 141.93 48.91 141.81 49.22 141.26 48.78 141 49.93 142.12 50.16 142.38 49.99 142.34 49.39 142.64 48.62 142.29 48.55"/>
    <polygon class="cls-6" points="139.68 47.62 140.48 47.39 140.37 46.59 140.67 46.37 140.48 46.18 140.09 46.26 139.68 46.33 139.36 45.91 139.11 45.81 139.1 45.82 138.55 46.29 138.91 46.95 139.68 47.62"/>
    <polygon class="cls-2" points="41.28 194.16 40.09 194.54 39.53 196.1 38.58 197.56 39.15 198.74 39.46 199.75 40.46 198.86 40.97 198.61 41.85 196.85 42.16 195.92 43.61 193.28 42.98 192.65 41.73 193.71 41.28 194.16"/>
    <polygon class="cls-2" points="42.98 192.65 42.98 192.65 42.99 192.65 42.98 192.65"/>
    <polygon class="cls-2" points="34.54 181.9 35.55 182.58 36.63 180.56 35.29 180.74 34.54 181.9"/>
    <polygon class="cls-2" points="37.55 182.84 38.05 184.68 39.89 185.18 40.57 184.18 43.67 184.35 44.25 183.77 45.86 183.52 46.69 184.1 48.63 182.59 50.47 182.26 52.15 180.9 53.07 181.25 51.65 182.67 53.42 183.52 57.35 180.65 57.52 179.9 56.69 179.74 54.93 180.25 56.27 178.81 56.19 178.14 57.2 178.06 57.02 178.89 58.11 179.64 58.96 178.98 58.86 177.81 59.21 177.38 59.04 175.87 57.6 174.7 55.76 173.6 53.75 172.34 51.4 171.93 50.05 171.43 49.89 170.68 49.14 167.99 47.88 166.3 47.12 165.13 45.77 164.13 44.68 163.88 44.7 163.86 42.51 165.03 43.18 167.39 41.25 166.13 39.23 166.46 40.24 168.05 38.64 169.23 39.82 170.99 41.92 170.82 44.43 172.75 44.86 173.93 48.46 172.67 48.79 173.76 47.03 175.19 44.68 175.35 43.76 177.54 42.25 178.8 42.59 179.89 43.76 179.81 46.78 179.39 48.21 178.63 48.39 179.56 46.62 180.56 43.26 181.4 40.74 180.99 40.99 182.33 39.9 182.16 40.23 181.65 39.31 180.9 37.71 180.65 36.95 181.91 37.55 182.84"/>
    <polygon class="cls-2" points="36.81 184.25 37.21 183.43 36.76 183.09 36.3 183.96 36.81 184.25"/>
    <polygon class="cls-2" points="36.76 183.08 36.76 183.09 36.76 183.08 36.76 183.08"/>
    <polygon class="cls-2" points="57.16 188.46 57.16 188.46 56.58 189.16 57.08 189.55 57.52 189.63 57.16 188.46"/>
    <polygon class="cls-2" points="34.61 140.44 32.82 140.92 32.78 141.86 33.61 142.07 34.83 141.55 36.12 142.45 36.75 141.77 36.34 140.86 34.61 140.44"/>
    <polygon class="cls-2" points="59.3 185.53 59.72 186.2 60.42 185.48 60.04 184.72 60.51 184.59 60.73 183.38 59.91 183.21 58.84 184.63 59.3 185.53"/>
    <polygon class="cls-2" points="55.53 191.42 56.33 191.9 57.65 191.68 57.67 190.29 57.12 189.89 57.12 189.88 56.16 190.48 55.53 191.42"/>
    <polygon class="cls-2" points="59.91 183.21 59.91 183.21 59.91 183.21 59.91 183.21"/>
    <polygon class="cls-2" points="59.88 188.4 59.89 188.41 59.89 188.4 59.88 188.4"/>
    <polygon class="cls-2" points="58.67 186.73 58.25 188.92 59.05 190.42 59.56 187.4 59.26 186.99 59.16 186.24 59.16 186.23 58.67 186.73"/>
    <polygon class="cls-2" points="59.79 190.1 60.39 189.63 60.43 188.79 59.89 188.41 59.64 189.6 59.79 190.1"/>
    <polygon class="cls-2" points="60.17 186.77 59.93 186.4 59.66 186.78 59.98 187.21 60.17 186.77"/>
    <polygon class="cls-6" points="165.41 0 165.41 .02 165.42 .01 165.41 0"/>
    <path class="cls-2" d="M154.94,171.25l1.15-1.56-.06-.39-.58-.11-.21-.86c-.37,.61-.55,1.31-.55,2.11v1.52l.14-.08,.11-.63Z"/>
    <polygon class="cls-6" points="159.21 12.77 159.41 12.81 159.62 12.53 159.31 12.48 159.31 12.47 159.21 12.77"/>
    <polygon class="cls-6" points="159.76 19.84 160.26 19.13 160.24 19.71 160.7 18.13 160.56 17.74 160.56 17.74 160.37 18.05 160.05 18.18 160.24 18.43 159.89 18.99 159.76 19.84"/>
    <polygon class="cls-6" points="161.83 19.7 161.79 19.92 162.17 19.96 161.83 19.7 161.83 19.7"/>
    <polygon class="cls-6" points="70.93 89.91 70.93 89.91 70.58 90.92 71.24 91.25 71.74 90.94 71.13 90.69 71.34 90.16 70.93 89.91"/>
    <polygon class="cls-6" points="160.79 9.94 160.38 10.04 160.03 10.75 159.76 11.13 159.3 11.13 159.35 11.37 159.52 11.51 159.86 11.26 160.05 11.51 159.85 11.8 160.56 11.8 160.87 12.29 160.16 12.15 160.14 12.61 159.87 12.45 159.69 13.09 160.25 13.42 159.72 13.87 159.47 13.34 159.17 13.01 158.64 13.05 158.83 13.35 158.42 13.39 158.01 13.06 157.63 13.35 157.48 13.73 156.85 13.4 155.95 13.43 155.65 13.92 155.88 14.74 156.28 15.38 156.81 15.64 157.37 15.23 157.45 15.9 157.85 15.3 158.19 15.19 158.15 15.64 157.71 15.89 157.63 16.34 157.96 16.34 158.12 16.75 158.68 17.24 158.86 16.01 159.13 16.68 159.35 16.45 159.35 15.59 159.5 15.82 159.84 15.59 160.17 15.67 160.62 14.85 160.62 17.43 161.03 18.28 160.43 20.49 160.09 21.05 159.76 22.28 159.53 23.07 160.02 23.48 160.36 23.48 160.88 24.41 160.96 23.67 160.77 22.81 161.1 21.8 160.92 21.01 161.74 21.31 161.59 20.6 161.48 19.93 161.86 19.41 161.6 18.44 161.93 17.69 162.53 17.09 162.53 16.16 161.67 16.42 162.16 15.26 161.83 15.15 161.72 14.55 161.72 14.25 162.16 14.81 162.42 14.67 162.83 14.29 162.39 14.1 162.53 13.62 163.02 13.43 163.13 12.87 162.42 12.79 162.2 12.87 161.97 12.2 162.61 12.31 163.28 11.98 163.24 11.27 162.57 11.56 162.57 11.04 162.19 11.15 162.11 10.82 161.29 10.6 161.85 10.26 161.96 9.74 161.63 9.14 161.36 8.78 161.01 9.12 160.71 8.92 160.57 9.32 160.79 9.94"/>
    <polygon class="cls-6" points="161.36 8.78 161.36 8.78 161.38 8.76 161.36 8.78"/>
    <path class="cls-2" d="M149.58,185.88l-2.69-.41-.87-.63-.42-1.26-.09-.69,1.13-2.71,1.26-1.07-2.2-.2c-.07,.95-.21,1.75-.43,2.4-.29,.79-.68,1.45-1.19,2-.51,.54-1.21,1.13-2.11,1.77,.98,.74,1.72,1.43,2.23,2.07,.51,.64,.89,1.38,1.13,2.22,.24,.89,.39,1.94,.43,3.14,.01,.35,.02,.73,.03,1.14l.89-.89,1.85-.65c.05-1.15,.17-2.14,.34-2.96,.2-.94,.52-1.75,.95-2.44,.08-.13,.18-.27,.27-.4h-.23l-.29-.42Z"/>
    <polygon class="cls-6" points="160.28 8.65 160.38 9.01 160.6 8.76 160.29 8.65 160.28 8.65"/>
    <polygon class="cls-6" points="160.26 5.45 160.26 5.45 160.27 5.45 160.26 5.45"/>
    <polygon class="cls-6" points="119.72 89.38 126.77 83.84 127.84 82.32 133.66 57.89 133.02 58.02 132.08 57.78 131.13 56.35 131.11 56.29 130.34 56.84 130.04 57.85 131.85 59.23 131.74 59.81 131.22 60.6 128.67 59.53 126.76 60.36 126.01 59.71 126.51 58.89 122.86 58.85 121.03 60.19 118.96 61.32 118.78 61.34 118.78 89.76 119.72 89.38"/>
    <polygon class="cls-6" points="158.44 12.96 158.94 12.83 158.4 12.47 158.44 12.96"/>
    <polygon class="cls-5" points="118.81 100.41 118.78 100.42 118.78 100.48 118.81 100.41"/>
    <polygon class="cls-6" points="158.92 11.42 158.4 11.83 158.9 12.41 159.42 12.24 159.37 11.66 158.92 11.42"/>
    <polygon class="cls-6" points="143.82 45.66 144.04 46.14 144.78 45.04 145.07 45.08 145.33 44.92 145.36 45.28 145.93 44.95 146.19 45.17 146.45 44.47 146.89 44.02 147.54 44.08 147.34 43.43 147.4 43.07 147.01 43.19 146.91 43.64 146.01 44.03 145.42 44.33 145.45 43.83 145.62 43.8 145.93 43.32 145.71 43.28 145.26 43.64 144.85 43.51 145.14 44.05 145 44.33 143.82 45.66"/>
    <polygon class="cls-2" points="80.15 213.5 80.16 213.5 80.16 213.5 80.15 213.5"/>
    <polygon class="cls-2" points="79.07 216.12 80.03 215.53 80.2 216.02 80.82 214.97 80.7 213.52 80.16 213.5 79.07 215.34 79.07 216.12"/>
    <polygon class="cls-6" points="164.02 17.51 164.32 17.35 164.24 17.01 163.83 17.16 164.02 17.51"/>
    <path class="cls-1" d="M157.39,205.15l-.48-.58h-.6l-.73-.5s.02,.03,.03,.04c.52,.61,1.12,.94,1.78,1.03Z"/>
    <polygon class="cls-2" points="63 178.47 61.9 178.58 61.24 180.1 61.99 180.6 64.07 177.95 63.78 177.76 63 178.47"/>
    <polygon class="cls-6" points="162.73 16.37 162.73 16.87 162.86 17.85 163.41 18.28 163.73 16.7 163.24 16.17 163.25 16.16 162.73 16.37"/>
    <polygon class="cls-6" points="163.89 12.71 164.5 12.71 165.26 11.66 165.37 11.35 165.37 11.34 165.08 11.42 164.64 11.46 163.98 12.32 163.89 12.71"/>
    <polygon class="cls-6" points="163.93 6.07 164.12 6.13 164.51 5.77 164.13 5.58 163.93 6.07"/>
    <polygon class="cls-6" points="164.45 3.94 164.78 4.29 165.17 3.85 165.78 4.16 166.09 3.99 165.7 3.62 165.97 2.83 166.33 2.36 165.75 2.22 166.41 2.16 166.03 1.43 166.53 1.6 166.62 1.13 166.48 .89 166.83 .68 166.39 .19 166.11 .31 166.05 .06 165.67 .97 165.42 .97 165.51 .28 165.41 .02 165.22 .2 165.28 .46 165 .79 164.65 .87 164.71 1.88 164.49 2.65 164.66 3.09 164.31 3.17 164.45 3.94"/>
    <polygon class="cls-6" points="162.45 8.96 162.78 8.98 162.68 8.72 162.69 8.28 163.33 8.74 163.74 8.77 163.76 7.8 163.56 7.32 163.93 7.27 164.09 6.64 163.71 6.31 163.51 6.02 163.81 5.62 163.7 5.1 164.2 5.15 164.15 4.05 164.01 3.11 163.21 2.81 163.2 2.8 162.53 3.01 162.45 5.48 162.25 5.59 162.17 4.68 161.74 5.37 161.72 6.72 162.02 8.06 162.45 8.96"/>
    <polygon class="cls-6" points="162.73 10.24 162.62 10.61 162.81 10.81 163.25 10.73 163.67 9.94 163.52 9.78 163.01 10.56 162.73 10.24"/>
    <polygon class="cls-6" points="166.53 5.76 166.45 5.98 166.21 5.4 165.72 5.29 165.73 5.28 165.37 5.53 165.27 5.3 164.8 5.3 164.71 5.64 164.82 5.98 165.45 7.03 165.86 6.8 165.38 6.28 165.85 6.15 166 6.45 166.21 6.31 166.48 6.76 166.95 5.93 166.76 5.59 166.53 5.76"/>
    <polygon class="cls-6" points="157.31 9.12 157.85 9.08 158.19 9.51 158.57 8.91 158.74 9.88 159.08 10.85 159.58 10.98 159.75 10.48 160.21 9.71 160.05 8.03 159.79 7.9 159.79 7.52 160.39 7.3 160.09 6.59 160.43 6.25 160.26 5.45 159.93 5.49 159.96 6.04 159.55 5.96 159 5.79 158.86 6.13 158.83 6.76 158.24 7.36 158.24 7.78 157.91 7.73 157.78 7.23 157.4 7.56 157.05 8.41 156.8 8.41 156.59 8.88 156.64 9.21 157.31 9.12"/>
    <polygon class="cls-2" points="65.07 170.54 63.65 172.75 61.77 173.6 60.98 175.65 63.78 173.85 66.3 170.33 65.07 170.54"/>
    <polygon class="cls-2" points="72.44 232.33 73.21 232.6 74.09 231.89 74.33 231.24 73.9 229.75 74.42 228.77 72.91 227.68 73.32 227.04 74.42 226.4 73.65 225.32 72.07 224.58 73.11 223.35 72.91 221.29 72.27 219.35 71.1 218.01 69.43 216.92 69.43 216.95 68.48 216.99 68.2 217.32 68.55 217.82 67.54 217.65 67.1 218.55 65.97 219.11 64.77 222.4 66.19 225.17 66.47 226.23 65.94 227.11 65.78 228.55 66.65 229.07 67.1 231.01 68.87 232.43 70.44 232.81 72.44 232.33"/>
    <polygon class="cls-2" points="26.13 168.39 26.14 168.4 26.14 168.39 26.13 168.39"/>
    <polygon class="cls-6" points="17.57 117.13 18.16 116.57 17.78 116.14 18.1 115.82 17.87 115.34 17.02 115.31 17.15 115.84 17.29 116.27 17.15 116.98 17.57 117.13"/>
    <polygon class="cls-6" points="8.81 111.01 10.19 111.19 11.69 113.83 11.63 115.31 12.34 115.18 12.95 114.34 13.34 115.26 14.13 115.92 14.9 116.25 16.41 116.81 16.95 116.56 16.1 115.26 15.89 114.61 16.95 114.74 18.51 115.13 19.17 113.62 19.17 112.69 18.25 112.48 14.38 112.44 17.65 111.98 19.04 112.31 19.62 112.02 20.09 110.59 18.71 110.67 18.63 109.86 18.63 109.28 17.65 108.95 17.79 108.31 17.27 107.69 17.79 107.19 18.5 106.54 18.83 105.72 17.92 104.7 17.07 105.08 16.53 105.8 15.68 106.13 16.28 106.79 15.68 107.23 14.83 107.44 14.58 106.98 13.79 106.71 13.84 106.13 14.25 105.21 14.32 104.51 13.47 105.09 13.47 105.69 12.82 106.02 12.49 106.73 12.08 107.78 11.43 107.45 10.32 106.15 8.8 106.15 9.01 106.4 8.54 107.66 7.88 108.89 7.09 108.96 8.08 110.21 8.81 111.01"/>
    <polygon class="cls-2" points="54.95 215.48 54.95 215.48 54.38 216.07 54.69 216.74 55.39 215.94 54.95 215.48"/>
    <polygon class="cls-2" points="25.13 168.97 23.54 169.05 21.95 169.65 19.69 169.3 18.58 170.4 18.76 173.42 19.51 173 20.52 174.09 21.44 173.93 22.1 171.74 23.96 172.07 24.79 169.98 25.8 170.23 26.89 169.05 26.14 168.4 25.13 168.97"/>
    <polygon class="cls-2" points="52.05 202.24 52.68 202.05 54.06 199.84 57.29 194.65 57.16 193.67 56.79 192.57 55.77 193 53.64 194.57 50.73 196.9 48.93 198.35 47.14 201.63 48.97 202.47 48.08 202.87 47.01 202.89 45.75 203.52 43.99 206.17 44.18 209.69 44.65 210.87 46.44 211.58 47.64 211.75 48.42 210.06 48.71 207.97 49.44 207.67 49.99 206.61 50.62 206.61 50.41 207.09 50.92 206.59 51.17 205.26 51.88 203.84 52.05 202.24"/>
    <polygon class="cls-2" points="56.78 192.56 56.79 192.57 56.79 192.57 56.78 192.56"/>
    <polygon class="cls-2" points="32.02 166.72 33.03 164.95 33.69 165.13 35.45 162.52 35.8 161.6 34.62 161.35 34.62 161.34 32.61 162.76 31.52 163.69 30.26 164.95 28.57 166.04 26.73 168.05 27.99 168.05 29.16 167.22 30.34 167.55 32.02 166.72"/>
    <polygon class="cls-2" points="44.62 214.32 44.87 213.06 43.8 211.97 43.42 209.4 42.98 203.53 42.99 203.53 40.72 203.91 38.01 206.42 36.69 209.07 36.13 208.82 36.57 206.25 35.56 206.38 34.49 207.43 33.11 207.39 32.54 208.19 32.41 210.08 31.59 210.96 32.1 211.59 32.16 213.06 30.83 213.94 30.96 215.07 30.02 216 31.34 217.38 33.23 215.83 35.43 212.43 35.75 211.42 38.58 211.67 38.39 212.48 36.18 213.99 35.87 215.08 36.75 215.33 38.01 218.4 36.75 219.23 35.37 221.92 37.32 222.8 38.64 222.05 39.4 220.29 40.03 220.24 40.85 220.41 43.18 219.66 43.81 219.87 44.56 218.61 45.82 217.6 45.44 215.59 44.62 214.32"/>
    <polygon class="cls-6" points="14.33 104.5 14.32 104.51 14.33 104.51 14.33 104.5"/>
    <polygon class="cls-2" points="16.86 120.53 16.87 120.53 16.87 120.52 16.86 120.53"/>
    <polygon class="cls-2" points="15.56 126.38 15.34 125.2 14.6 124.84 15.34 124.32 14.4 123.75 15.19 123.58 13.5 122.4 14.38 122.25 13.04 121.57 14.08 121.32 13.2 121.05 11.2 119.89 11.16 120.5 9.6 121.22 10.36 123.43 10.32 125.95 9.49 126.58 9.14 128.61 8.18 129.27 8.81 129.62 9.22 135.33 9.52 135.56 9.43 136.27 10.06 137.02 11.63 137.07 12.27 136.74 14.28 137.65 14.44 137.12 14.91 136.44 14.53 135.96 13.98 136.21 14.02 135.53 13.14 135.01 11.57 135.23 11.2 134.89 11.24 134.27 12.39 134.13 13.39 134.57 14.22 133.82 14.1 132.88 13.62 132.3 13.83 131.54 13.58 131.16 12.96 130.96 12.87 130.42 13.72 130.53 14.5 129.27 14.38 128.66 15.18 127.63 15.91 127.59 16.31 126.72 16.22 126.33 15.56 126.38"/>
    <polygon class="cls-2" points="13.2 137.9 13.2 137.9 13.2 137.9 13.2 137.9"/>
    <polygon class="cls-2" points="11.83 139.47 12.33 139.98 12.76 139.47 13.2 137.9 11.86 138 11.83 139.47"/>
    <polygon class="cls-2" points="11.2 119.88 11.2 119.89 11.2 119.87 11.2 119.88"/>
    <polygon class="cls-2" points="15.51 121.38 16.73 121.34 16.86 120.53 15.97 120.7 15.51 121.38"/>
    <polygon class="cls-1" points="16.05 118.27 16.1 118.21 15.44 118.21 16.05 118.27"/>
    <polygon class="cls-6" points="16.76 117.65 15.59 116.85 14.87 116.63 13.98 116.35 12.78 115.47 11.56 115.75 11.45 116.42 10.55 116.56 10.44 117.13 10.48 117.8 10.58 118.21 14.63 118.21 14.72 118.06 15.22 118.19 15.44 118.21 16.1 118.21 16.35 117.9 16.76 117.65"/>
    <polygon class="cls-2" points="10.8 119.19 13.57 120.82 14.46 120.95 15.14 120.72 15.55 120.45 16.46 120.12 16.6 119.54 16.21 119.02 15.22 118.79 15.33 119.34 14.29 118.79 14.63 118.21 10.58 118.21 10.8 119.19"/>
    <polygon class="cls-6" points="12.77 115.46 12.78 115.47 12.79 115.46 12.77 115.46"/>
    <polygon class="cls-5" points="136.5 57.14 136.34 57.2 136.54 57.2 136.5 57.14"/>
    <path class="cls-2" d="M174.71,126.8l.47-.88,.3,.36,.69-.96-.13-.42,1.26-1.76,.04-.42-.61-.5,.38-.44-.25-.52,.63-.3-.04,.52,.16-.52-.92-.58-.21-2.14-.02-.02H108.71l-.31,.22-.35,1.06-1.04-.17-.08,.94-.88,.87-.42,.04-.85-.71-.46,.03-1.54,.73-1.23-.22-1.34,.25-1.06-1,1.15,.08,1.32,.09,2.79-.22,1.29-1.97v-.02s-49.56,0-49.56,0l-.28,1.29,.31,1.73,1.45,.08-.5,2.47-.31,1.56,.88,1.09,1.95-.38,3.49-2.06,.47,.6-1.26,.83,1.51,.88,2.55-1.84,1.79-1.51,.06,1.09-2.77,2.52-1.51,.13-2.21,.68-1.51,.71-.75,1.76,1.26,.5,1.06-.22,1.21,.6,1.95-.21,1.07-.63,.44-.17-.38,1.26,3.15,2.61-1.26,.99-2.65-3.35-1.64,.5-1.64,.42-.69,1.21,.94,.63-1.51,1.56-.75,1.26,.82,1.21,1.64-.04,1.64,1.9,1.94,.74-.8,.85-1.62-.71-2.23-1.86-2.19,.5-2.46,2.52,1.71,2.14,1.06-.25,1,.55-.65,.49,.46,1.4,1.57,.13,2.88-.65,.3,.73-3.81,1-2.21-1.13-.69-1.59-2.94,.42-.46,2.22-1.83,2.22,1.26,.8-.31,.58-.88-.3-.88,.55-.04,.75,.99,.25,2.08-.33,2.55-.39,.33,.6-1.75,1.06,1.57,.75-.88,.33-1.95,.63-1.51-.25,.08,1.35,3.57,1.42-4.33-.04,.11,.85,.98,.58,.03,1-.92-.25,.16-.71-.56-.25-.56,.46-1.45-1.84-1.83,.58-2.14,.04-2.39,.8-1.26,.71-.69,1,1.13,1.81,1.07,.33,1.32-.55,1.26,.25,1,.55,1.42,.03,.33,.65,1.34-.55,.13,.46,2.77,.13,1.89-1.34,.88,.08-2.3,1.79-1.67,.6,.06,.68h-.82l-.44-.8-2.65,.3-.13,1.26,2.9,4.23,3.4,.93,.63,.75,1.98,.79,.41,.8,4.03-2.85,2.28-3.42,4.08-3,2.02-2.06,1.51-.25,3.65-5.92,.88-.25v.68l-4.09,6.42,1.38,.33,.65,.42-2.22,.33-.69,.98-.69-.42-1.45,1.21,.75,.63-.94,.96-1.94,2.31,.42,.55-.6,.38-.58-.13-.33,.71,.82,.38,1.13,.98-1,.63-1.07-.88-.75,.54-.75,1.67,.46,.44,.96-.93,.6,.88-.25,.88,1.19,.08,.63-.46,1.98,.74,.92-.11,.69,.75,1-.3,1.34-2.3,.68-.3,1.17-1.52,.63-1.32,.41-.14-1,1.89-1.46,2.39-1.29,1.61-1.18,.5h-.92l-.68-.5-1.26-.5-.68,.16-1.42-.08-2.11,.17-.83,.92v1.1l-1.18,.92-.75,2.02,1.51,.68-1.09,.42-1.18-.42-.83,1.76-.08,1.34-.35,1.94,1.44-.42,1.26-.25,.5,.42-2.44,1.09,.6,1-.75,1.1-1.94,3.43,.68,.09,.83-1.26,1.69-1.51,.41,.33-2.02,3.7,.17,1.26-1.18,.41-1.26,2.69-2.77,3.95,.75,.83,.85-2.19,1.09-.66,.75-1.61,1.34-.58-.25,1-2.52,3.1-1.26,2.77,.25,1.1,3.27-2.69-1.67,2.85-.75,1.26-.93,3.19,1.44,1.09,.25,1.26,3.1-1.34-1.09,1.43-1.69,.92-.58,1.94-2.02,1.43,.5,1.51-1.26,3.86-.75,.68,.08,2.42-.68,5.63-.75,.16-1.59,1.86-.17,2.93-.25,1.35,1.26,1,1.51-.25,2.61-.42,1.92-.68,1.35-1.76v-2.27l-1.35-1.34,.68-.58,.42-2.19,1-.58,.41-2.52,.85-2.69,.83,.25-.42-3.52,.75-2.34,1.76-3.44,1.94-1.18,.83-.58-1.76-4.53-.83-.33,.17-1.26-.6-3.44-.66-1.76,.5-2.94,.92,1.69,1.86-.93,.16-1.51,2.77-2.34,3.02-3.19,1.26-.41,3.02-4.78,.35,1.09,3.1-1.59-4.11,3.1-.85,2.02-3.1,1.94-2.34,2.93-1.69,2.77-1.34,1.76,.08,1.94-.42,2.52,.93,1.94,.17,1.17,.83,.35,1.26,.92,.75,.68,.25-1.18-1.18-2.67,1.51-2.52,.25-1.69,.6,2.27,1.84,1.43,.93,.16-.85-5.54,1.61,2.94,.33,4.36,1.76,.42,1.84-3.95,.75-1.42-1.42-1.69,1.76,.42-.17-3.62,.93-1.92-.85-1.26,.1-3.02,1,2.85,.66,.42,1.86-3.62,1.84-1.76-.08,.93-3.19,4.71-1.34,2.67,1.34,3.95,1.69-.33-.25-1.26-1.44-1.94,.08-1.18,1.69,2.27,.83,1.1,1.35,.92,.16,1.43,1,1.51,1.35-.08,.54-.71v.69l-.25,.13-.21,.31,.03,.41-.58-.16-1.18-.06-.71-.36-.33-1-.68-.25-.75-.33-1-.68-.38,.83-.13,.3-.54-.3-1.83,.98-.21,1.54,.33,.3-.88,.93,.22,.99-.08,3.07,.93,2.47-.04,.9-.08,.63-.3-.06-.3-.46-.17,.25,.39,.46-.17,.69-.33,.11-.6,.33-.04,1.38,1.23,.75,1.37,2.03-.21,.58,.73-.04,.25,.52,.66-.13,.38,.08,.17,.46,1.59,1,.08,.09,.04,.08,.68,.8,.35,1.04-.06,1.21-.74-.17-.09,.22,.68,.3,1.04,1.29,.19,1.38-.17,.6-.09,.36-.55,.38-.25,.9-.33,.42-1.59,.61-1.31,.85-.54,.83-.25,2.23-2.28,1.83,.17,2.33-.79,1.67,.11,.46-.31-.08,.11,1.04-1.67,1.48-1.02,1.86-1.62,1.07-.75,2.91-1.4,2.06-.31,1.42,.58,1.56,.23,1.31,.38,.25,.73,2.3-.08,.8-.58,.38-.44-.22-.16,.25-1.04-1.26-.25-1.97,.49-.21-1.09-2.85-1.26,.56-.6-.11-.38,.41-.61,1.27,.23,.58-.41,1.92,.09,1.18,1.09,2.19-.02,.8,2.06,2.39,.73,.33,.3,.99,.99,.52,.35,1.06-.21,.5,.56,.33-.23,.8,1.12,.41-.33,.58,.55,1-.8,.52,.17,1.42,1.42,1.29,1.83,.55,.28-.21-.79-.13-.17-.8,.11-.88,.5-.68-1.21-1.12-.28-2.31-1.23-3.4,.98-1.64,2.55-1.18,.63,.22h1.13l.47,1.26,2.3,.55,1.1,1.37,2.25,1.35,.85,2.17,.83,.3,.02,.5,.88,.73,3.78,2.02,.99-.73-.03-.5,.23,.25,.3-.68-.03-.5-.5-.3,.49-2.46-.5-.31,.35-.25-.28-.87,.74,.17,.17-.47v-.88l-.41-.58-.25-.52-.06-.79-.49-.66-.27-.63,.3-.31,1.61,1.48,2.06,.98,1.38,.41,.36,.85,.9,.31,.03,.9,.6,.68,.66,.25,.54-.65-.08,.55,.39,.04,.06,.49,.44,.19,.19-.52-.5-.21,.52-.17v-1.21l.61,.35,.27,.82,.55,.47,1.21,.04,1.43-.21,.66-.75,3.78-1.57,.13-.44,.55-.63,1.09-.75,.75-.13,.22,.21,.71-.02,.38-.23,1.09,.17,.35,.13,.33,.38,.58-.04,.75-.83,.42-.31,1.34-1.45,.54-.52,.35-.33,.55-.33,.55-.21,.69-.13,1.07-.14,.49-.08,.39-.58,.19-.39,1-.83,1.19,.04,.56-.3,1.32,.13,2.04,.02,1.13,.06,.54,.35,.27-.04,.99-.68,.85,.04,.5-.3,.6-.58,.44-.38-.19-.58,.79-1.48-.88-.61,.08-.33,2.94,.25,.71-.55-.11-.55,.82-.5,.56,.03,.33-.88,1.09-.74,.35-.77,.46-.21,.04-.66,1.29-.17,1.67-1.42,.93-.3,.42-.85,.21-.75,.55-1.04,1.1-.13,.06-1.15,.56-.13-1.07-.71,.63-.13,.55-1.17,1.13-.73,.46-1.17,1.23-.27,1-1.59,1.38-.38h.92l.47,.6,.66-.04,1.31-.98-.28-.33,.5-.46-.46-.98,.41-.61,.6,.17,1.64-1.4,.94,.25,1.13-.92,.17-.9,1.09-.44-1.46-.35-.03-.79-.83-1.1,.16-.73-.5-1.83-1.48-1.35-.03-1.29-.83-.93,.25-.46-.5,.16-.35-.33,.33-.6,.68-.23,2.15,.33-.42-.6,.92-.66v-.65l1.61-1.64-.27-.74,.75-.17,.17-.85,.83-.03,.35-1.21,.71-.13-.03-1.65,1.62-1-1.09-1.75-.13-.75-.25-1.06-.23,.3-.06-.42-.38,.13-.71-.47-.41-1.84-1.1,.08-.15-.1c-.68,1.12-1.57,2.09-2.7,2.91-1.26,.91-2.81,1.37-4.65,1.37s-3.38-.46-4.65-1.37c-1.26-.91-2.24-2.01-2.94-3.29-.33-.59-.6-1.16-.83-1.7-.22-.54-.4-1.21-.52-2-.12-.79-.21-1.71-.28-2.77-.02-.35-.04-.74-.05-1.14l-2.72-.14c-.01,.39-.03,.76-.05,1.1-.06,1.13-.15,2.07-.28,2.81-.12,.79-.29,1.45-.49,2-.2,.54-.47,1.11-.79,1.7-.77,1.38-1.76,2.53-2.97,3.44s-2.78,1.37-4.74,1.37c-.98,0-2.02-.2-3.12-.59-1.1-.39-2.1-1.04-3-1.92s-1.64-2.04-2.23-3.48c-.33-.81-.56-1.73-.71-2.74l-.41-.09,.06-.25-.38,.17-.28-.04-2.48-.69-2.47-.85-1.09-.66-1-.31-.68,.02-.42-.14-.16-.06-.33-.56-.5-.79-1.09-.68-1-1.69,1.26,1.31,.69,.38,1.57,1.64,1.75,.08,.68,.09h.41l.47,.28,.46,.04,.52,.04,.79-.09,.5,.42,1.31,.25,.21,.55,.41,.13-.21-.17,.33-.13,.8,.39,.17,.16c-.03-.41-.05-.83-.05-1.27v-4.29h6.24v2.91l1.03,.07,.82-3.04,.79-.17,.3-.31,2.14-2.19,.61-.22,.27-.16,.16-.19v-.48c0-.14,0-.26,0-.39l-.04-.02h.04c-.04-1.83-.36-3.05-.97-3.65-.37-.39-.87-.64-1.5-.74s-1.46-.15-2.48-.15v-5.15l-1.44,.74-.9,.46-1.87-.16,.49-.25-.04-.25,1.51-.58,.77,.04,1.49-.84v-.67c.46,0,.88-.02,1.27-.05l.59-.33,1-.25,.33-.93,.93-.75,.33-.33h.34c.1-.54,.16-1.19,.16-1.94v-6.8c0-1.08-.28-1.97-.83-2.66-.55-.69-1.29-1.04-2.23-1.04-1.1,0-1.89,.42-2.35,1.26-.47,.84-.7,1.65-.7,2.44v4.29h-6.24v-4.36c0-1.53,.24-2.98,.73-4.36,.49-1.38,1.16-2.56,2.02-3.55,.86-.99,1.85-1.77,3-2.37,1.14-.59,2.36-.89,3.67-.89,1.71,0,3.13,.41,4.25,1.22s1.97,1.64,2.54,2.48c.41,.59,.76,1.18,1.07,1.77s.56,1.31,.76,2.14c.37,1.63,.55,4.04,.55,7.25,0,1.35-.02,2.5-.05,3.47l.69-.18,1.83,.93,.24-.7c0-.07-.01-.13-.02-.2-.04-1.08-.06-2.42-.06-3.99,0-1.43,.04-2.65,.12-3.66,.08-1.01,.22-1.88,.43-2.62,.2-.74,.44-1.41,.7-2,.26-.59,.6-1.21,1.01-1.85,.81-1.28,1.83-2.28,3.06-2.99,1.22-.71,2.55-1.07,3.97-1.07,1.13,0,2.2,.24,3.2,.68l.19-.12,.82-1.42,.38-.13,.06-.88,.38,.08,.88-1,.61-1.17-.11-.6,.61-.79-.11-2.19,.29-.09-.55-.93,.96-.66,.5-2.14,2.08-2.74,.21-.99,.17-.38h.03l.16-.33,.39-.06,.23-.23,.14-.25,.5-.35,.16-.71v-.58l-.23-.3-.06-.09-.19-.21-.39-.46-.04-.5-.28-.16-.3-.38,.08-.31,.38-1.62,2.11-5.18-.13-.75,.21,.52,2.31-3.07,1.04-.85,.5-.49-.21-.58Z"/>
    <polygon class="cls-6" points="175.85 117.6 175.89 115.12 174.03 113.69 173.92 113.91 173.04 111.69 172.39 111.38 172.06 111.69 170.85 111.38 170.63 110.38 169.44 110.76 169.01 110.43 167.2 110.24 165.07 111.88 164.44 111.42 162.89 111.42 161.92 110.49 161.04 111.05 161.08 111.52 160.48 111.95 160 111.6 158.98 112.02 158.06 111.69 157.48 111.98 156 111.76 155.32 112.78 155.29 111.88 154.36 111.88 153.73 111.19 153.45 111.48 151.84 111.32 150.99 110.76 150.51 111.15 149.62 110.59 148.85 111.19 148.35 110.52 147.74 110.59 147.26 110.17 146.88 110.34 146.27 110.56 145.72 110.25 145.67 109.81 144.82 109.84 143.48 110.27 143.18 110.85 140.6 112.07 138.21 111.38 138.02 111.6 138.04 111.32 136.06 110.67 133.13 109.08 133.37 109.55 132.86 108.99 132.99 108.61 132.28 108.8 131.12 108.55 128.27 109.2 127.67 109.63 126.51 109.58 126.76 110.04 126.51 110.97 125.56 111.76 122.73 111.77 123.85 112.69 123.99 113.27 123.72 113.57 122.79 113.15 122.72 112.78 122.85 112.2 122.16 111.76 120.04 112.15 119.82 112.31 120.78 112.1 120.4 112.64 119.2 113.24 119.83 112.73 119.49 112.7 118.61 113.45 117.55 113.82 116.64 114.7 118.1 113.74 117.47 114.57 115.41 115.63 113.54 115.78 111.38 114.78 112.84 115.63 112.36 115.75 111.18 114.87 111.02 115.33 109.8 115.41 109.24 115.83 110.09 116.18 110.27 117.1 108.71 118.21 176.48 118.21 175.85 117.6"/>
    <polygon class="cls-6" points="105.89 117.77 106.31 116.67 107.35 116.06 108.81 116.31 108.18 115.41 108.53 114.45 111.58 111.19 111.6 110.94 110.47 110.69 109.03 111.65 107.47 111.44 106.92 110.92 104.91 111.23 104.62 111.23 104.53 111.35 104.24 111.51 103.71 112.01 102.98 112.57 102.77 112.83 101.75 113.54 100.46 114.5 99.71 115.23 101.77 112.21 103.39 111.61 103.52 110.94 105.63 110.07 106.98 110.28 108.72 108.81 109.94 108.77 110.88 110.15 111.82 110.36 112.54 109.49 112.54 101.81 111.11 102.58 108.86 101.85 107.29 102.1 106.17 100.89 103.66 101.08 102.25 99.58 103.89 100.54 106.47 100.21 109.81 101.22 111.38 101.17 111.69 98.7 112.2 98.07 111.83 96.59 112.51 94.49 112.54 94.48 112.54 65.18 106.31 70.73 106.31 63.02 105.92 63.5 105.29 63.71 105.2 62.99 102.9 62.87 101.92 64.39 99.94 64.89 100.76 63.12 100.7 61.95 99.91 62.28 100.07 61.57 98.55 60.56 96.1 60.47 95.91 62.5 95.15 63.76 94.52 63.72 94.19 61.86 92.76 61.42 91.72 59.94 90.87 58.8 89.42 61.04 89.41 59.13 85.96 58.17 84.22 57.32 83.92 59.97 82.62 61.75 80.89 62.92 80.74 65.31 81.56 65.83 82.38 66.03 81.75 66.84 80.6 68.05 80.81 68.68 81.31 69.18 81.96 69.22 83.25 71.02 82.49 71.18 81.25 69.99 79.8 68.91 79.49 70.19 78.8 71.32 79.3 72.03 78.47 72.24 78.73 72.96 78.77 73.84 79.43 73.59 79.62 74.47 79.57 75.59 80.4 76.53 82.83 78.03 81.63 78.08 80.25 76.94 79.43 77.27 78.26 77.66 76.91 77.57 75.95 76.65 75.4 77.22 76.15 77.81 74.44 79.02 74.2 78.14 73.68 77.47 73.07 77.43 72.64 76.68 71.87 78.44 72.82 79.96 73.57 80.51 74.01 81.77 74.39 82.65 75.9 83.54 74.54 83.82 75.57 84.78 74.36 84.8 75.17 85.33 74.69 86.85 74.39 87.69 73.45 86.81 72.82 86.99 72.44 88.02 71.68 86.01 70.71 85.35 69.86 86.18 69.99 87.57 70.99 88.32 70.58 89 71.43 89.53 72.63 90.03 73.38 90.96 73.88 92.6 76.19 93.81 77.53 93.98 76.78 95.19 77.66 96.83 75.66 96 73.82 96.33 72.19 94.66 70.88 95.02 72.44 97.5 70.3 96.2 69.62 98.34 68.79 99.25 66.73 98.21 66.26 95.52 64.59 95.06 63.41 96.95 63.63 98.64 64.76 99.14 65.26 99.97 64.95 101.48 65.45 102.37 64.45 101.99 64.08 102.46 64.7 103.63 62.75 101.84 62.37 99.9 62.52 98.21 60.25 97.8 58.66 98.39 58.21 104.38 59.84 105.47 61.71 105.64 61.79 106.53 61.98 107.7 60.42 106.78 58.9 107.28 57.7 110.35 59.66 111.4 60.35 113.54 61.59 114.11 61.99 115.51 59.83 115.87 58.71 114.08 57.14 113.73 56.16 118.21 105.72 118.21 105.89 117.77"/>
    <polygon class="cls-6" points="147.71 42.07 147.64 41.7 147.97 41.48 147.9 41.17 147.9 41.17 147.3 41.32 147.11 41.87 147.46 42.22 147.71 42.07"/>
    <polygon class="cls-6" points="140.85 57.12 140.96 56.64 140.7 56.29 140.93 55.74 141.37 55.1 141.15 54.66 140.82 54.52 141.6 54.39 141.37 53.88 141.43 53.49 141.43 53.21 142.1 53.74 142.59 52.95 143 52.81 143.52 52.62 143.62 52.04 143.66 51.47 142.4 51.98 142.62 52.29 142.7 52.55 142.5 52.68 142.11 52.61 142.03 52.07 141.99 51.65 142.63 51.58 142.5 50.91 142.03 51.04 141.41 51.62 140.99 51.43 141.29 50.53 140.86 50.4 140.45 50.98 140 50.46 139.33 50.75 138.66 50.5 138.88 50.17 139.16 50.14 139.2 49.56 139.9 49.73 140 48.89 139.3 48.28 139.52 48.06 139.03 47.64 138.78 47.7 137.55 46.9 137.55 46.91 135.89 47.4 135.59 48.14 135.59 49.07 135.53 49.42 135.4 50.42 135.33 51.03 136 51.8 136.48 51.56 136.71 51.15 137.06 52.03 137.58 52.79 138.39 52.77 138.67 52.47 139.22 52.25 140.08 51.67 140.31 51.67 140.53 52.7 140.88 53.41 141.21 53.3 141.18 53.7 140.88 53.92 140.92 54.21 140.66 54.11 140.25 54.4 140.66 54.59 140.4 54.92 139.83 54.81 139.58 55.04 140.12 55.23 139.67 55.42 140.09 55.97 139.99 56.71 140.34 57.2 140.34 57.2 140.85 57.12"/>
    <polygon class="cls-6" points="139.45 63.28 139.81 60.93 140.66 60.6 141.24 58.08 140.19 58.17 138.7 64.16 139.45 63.28"/>
    <polygon class="cls-6" points="138.6 73.09 140.06 69.22 140.41 67.26 138.19 67.1 138.15 66.38 135.72 76.16 138.6 73.09"/>
    <polygon class="cls-6" points="156.04 12.93 156.09 12.5 155.21 12.42 155.2 12.43 155.41 12.97 156.04 12.93"/>
    <polygon class="cls-2" points="74.03 207.39 72.2 205.88 72.2 205.87 71 207 72.58 209.9 73.71 210.45 73.9 214.11 75.22 214.36 76.42 216.95 77.3 216.62 76.67 215.32 77.55 214.56 76.86 210.58 75.98 210.41 75.09 209.28 75.22 208.27 74.03 207.39"/>
    <polygon class="cls-2" points="10.1 141.83 10.88 142.48 11.03 142.08 10.43 141.7 10.1 141.83"/>
    <polygon class="cls-6" points="147.4 43.05 147.4 43.07 147.42 43.06 147.4 43.05"/>
    <polygon class="cls-2" points="53.13 218.71 53.51 220.09 54.89 217.82 54.07 216.99 53.13 218.71"/>
    <polygon class="cls-2" points="73.08 213.73 72.45 212.29 72.14 213.17 72.39 214.31 73.08 213.73"/>
    <polygon class="cls-4" points="114.4 106.5 112.83 109.15 112.54 109.49 112.54 109.84 118.78 109.84 118.78 100.48 117.99 102.13 114.4 106.5"/>
    <polygon class="cls-4" points="108 62.71 108.65 61.7 110.33 61.87 111.85 60.27 112.58 59.71 113.1 61.49 114.36 61.11 116.13 61.65 118.78 61.34 118.78 57.2 112.54 57.2 106.31 62.74 106.31 63.02 106.87 62.33 108 62.71"/>
    <polygon class="cls-4" points="116.65 92.7 112.54 94.48 112.54 101.81 112.96 101.59 114.72 102.22 116.03 102.72 117.05 101.97 117.43 100.79 118.78 100.42 118.78 89.76 117.55 90.26 116.65 92.7"/>
    <polygon class="cls-3" points="112.54 65.18 112.54 94.48 116.65 92.7 117.55 90.26 118.78 89.76 118.78 61.34 116.13 61.65 114.36 61.11 113.1 61.49 112.58 59.71 111.85 60.27 110.33 61.87 108.65 61.7 108 62.71 106.87 62.33 106.31 63.02 106.31 70.73 112.54 65.18"/>
    <polygon class="cls-3" points="117.05 101.97 116.03 102.72 114.72 102.22 112.96 101.59 112.54 101.81 112.54 109.49 112.83 109.15 114.4 106.5 117.99 102.13 118.78 100.48 118.78 100.42 117.43 100.79 117.05 101.97"/>
    <polygon class="cls-4" points="138.15 66.38 138.7 64.16 138.06 64.91 138.15 66.38"/>
    <polygon class="cls-4" points="130.58 78.51 129.57 79.84 127.84 82.32 124.84 94.91 124.84 102 137.25 102 137.25 109.84 143.49 109.84 143.49 102 146.48 102 146.48 94.91 143.49 94.91 143.49 79.89 137.25 79.89 137.25 94.91 131.07 94.91 135.72 76.16 135.25 76.66 130.58 78.51"/>
    <polygon class="cls-4" points="140.19 58.17 140.43 57.2 140.34 57.2 140.34 57.2 140.34 57.2 136.54 57.2 137.41 58.41 140.19 58.17"/>
    <polygon class="cls-4" points="136.34 57.2 133.82 57.2 133.66 57.89 135.41 57.53 136.34 57.2"/>
    <polygon class="cls-3" points="129.57 79.84 130.58 78.51 135.25 76.66 135.72 76.16 138.15 66.38 138.06 64.91 138.7 64.16 140.19 58.17 137.41 58.41 136.54 57.2 136.34 57.2 135.41 57.53 133.66 57.89 127.84 82.32 129.57 79.84"/>
    <polygon class="cls-5" points="140.34 57.2 140.34 57.2 140.34 57.2 140.34 57.2"/>
    <rect class="cls-7" x="146.77" y="106.12" width="3.08" height="3.72"/>
    <path class="cls-7" d="M153.67,108.82c.44,.44,.93,.75,1.48,.95s1.06,.29,1.54,.29c.96,0,1.74-.22,2.34-.67,.59-.45,1.08-1.01,1.46-1.7,.16-.29,.29-.57,.39-.84s.18-.6,.24-.98c.06-.36,.11-.83,.14-1.39,.03-.56,.04-1.26,.04-2.12,0-.92,0-1.68-.03-2.28-.02-.6-.09-1.11-.21-1.55-.12-.41-.31-.78-.56-1.09-.25-.32-.62-.66-1.1-1.02,.44-.32,.79-.61,1.04-.88,.25-.27,.45-.6,.59-.98,.12-.36,.2-.83,.23-1.39,.03-.56,.04-1.29,.04-2.19,0-1.58-.09-2.77-.27-3.57-.1-.41-.23-.77-.38-1.06-.15-.29-.33-.58-.53-.88-.28-.41-.7-.82-1.25-1.22-.55-.4-1.25-.6-2.1-.6-.64,0-1.25,.15-1.81,.44-.56,.29-1.06,.68-1.48,1.17-.42,.49-.75,1.07-1,1.75-.24,.68-.36,1.4-.36,2.15v2.15h3.08v-2.12c0-.39,.12-.79,.35-1.2,.23-.41,.62-.62,1.16-.62,.46,0,.83,.17,1.1,.51s.41,.78,.41,1.31v3.35c0,.97-.18,1.59-.53,1.86-.35,.27-.99,.4-1.92,.4v3.28c.5,0,.91,.02,1.22,.07,.31,.05,.56,.17,.74,.37,.32,.32,.48,.98,.48,2v3.72c0,.63-.13,1.14-.41,1.51s-.64,.56-1.1,.56-.83-.19-1.1-.56c-.27-.38-.41-.86-.41-1.44v-1.93h-3.08v2.11c0,1.02,.15,1.88,.44,2.59,.29,.71,.66,1.28,1.1,1.71Z"/>
    <polygon class="cls-7" points="162.6 105.98 168.72 105.98 168.72 109.84 171.8 109.84 171.8 105.98 173.28 105.98 173.28 102.48 171.8 102.48 171.8 95.07 168.72 95.07 168.72 102.48 165.68 102.48 170.29 83.88 167.03 83.88 162.6 102.48 162.6 105.98"/>
    <polygon class="cls-7" points="178.22 109.84 181.3 109.84 181.3 83.88 178.22 83.88 175.15 86.61 175.15 90.55 178.22 87.82 178.22 109.84"/>
    <path class="cls-4" d="M145.79,193.65l-.07,.07-.17-.36-.63,.33-.93-.21,.09-.33h-.47l.22-.27-.55-.5-1.56-.38-.88,.42-.75,.71-.51-.1s0,0,0,.01l.51,.26-.5,.61v7.06c0,1.28-.28,2.3-.83,3.07-.55,.76-1.29,1.15-2.23,1.15s-1.68-.38-2.23-1.15c-.55-.76-.83-1.74-.83-2.92v-1.01l-.3-.02-.6,.55-.46-.39-.52,.09-.5,.13,.02,.33-.35-.16-.87,1.06-.52-.31-.55,.73-.46,.03-.58,.02,.08,.13-.11,.92-.48-.45c.03,.43,.07,.84,.13,1.24l.37,.08,1.17-.63,1.15,.08,.41,.06,.5,.5,.6,.33,.28,.13,.13,.04,.75-.3,.27,.41v-.03l.63,.03,.5-.61,.99,.96,.14,.16,.88,.83,1.19,.56,.85-.09,.09-.21h1.13l1.25-1.21,1.56-.14,.16-.17,.06-.58,.11-.61,.17-.69,.33-.46,.88-.74,.85-.17,.79-1.21h.16c.03-.91,.05-1.97,.05-3.18,0-1.33-.01-2.49-.03-3.48Z"/>
    <path class="cls-4" d="M138.97,180.81l1.51-.25,2.11-1.65,1.18-.04h1.37l.57,.05c.01-.14,.02-.27,.03-.41,.02-.3,.03-.62,.04-.96l-.65,.17-.96,.63-1.38-.3-1.38,.42h-.03l-.42,.22-.42,.21-1,.3h-.08c-.17,.88-.47,1.49-.91,1.83-.54,.41-1.41,.66-2.61,.76l-1.27,.72v.84l3.58-1.83,.75-.69Z"/>
    <path class="cls-3" d="M139.58,193.04c0,.13,0,.26,0,.39v.48l.5-.61-.51-.26Z"/>
    <path class="cls-3" d="M140.84,192.42l.88-.42,1.56,.38,.55,.5-.22,.27h.47l-.09,.33,.93,.21,.63-.33,.17,.36,.07-.07c0-.4-.02-.79-.03-1.14-.04-1.21-.18-2.26-.43-3.14-.25-.84-.62-1.58-1.13-2.22-.51-.64-1.25-1.33-2.23-2.07,.9-.64,1.6-1.23,2.11-1.77,.51-.54,.91-1.21,1.19-2,.21-.65,.35-1.45,.43-2.4l-.57-.05h-1.37l-1.18,.04-2.11,1.65-1.51,.25-.75,.69-3.58,1.83v5.15c1.02,0,1.84,.05,2.48,.15s1.13,.34,1.5,.74c.61,.6,.93,1.82,.97,3.66l.51,.1,.75-.71Z"/>
    <path class="cls-3" d="M127.87,202.3l-.08-.13,.58-.02,.46-.03,.55-.73,.52,.31,.87-1.06,.35,.16-.02-.33,.5-.13,.52-.09,.46,.39,.6-.55,.3,.02v-2.91h-6.24v4.29c0,.44,.02,.86,.05,1.27l.48,.45,.11-.92Z"/>
    <path class="cls-3" d="M144.83,201.53l-.85,.17-.88,.74-.33,.46-.17,.69-.11,.61-.06,.58-.16,.17-1.56,.14-1.25,1.21h-1.13l-.09,.21-.85,.09-1.19-.56-.88-.83-.14-.16-.99-.96-.5,.61-.63-.03v.03l-.27-.41-.75,.3-.13-.04-.28-.13-.6-.33-.5-.5-.41-.06-1.15-.08-1.17,.63-.37-.08c.15,1.01,.37,1.93,.71,2.74,.59,1.43,1.33,2.59,2.23,3.48s1.9,1.53,3,1.92c1.1,.39,2.14,.59,3.12,.59,1.96,0,3.54-.46,4.74-1.37s2.19-2.06,2.97-3.44c.33-.59,.59-1.16,.79-1.7,.2-.54,.37-1.21,.49-2,.12-.74,.21-1.67,.28-2.81,.02-.34,.03-.71,.05-1.1h-.16s-.79,1.2-.79,1.2Z"/>
    <path class="cls-3" d="M140.52,178.88l.42-.21,.42-.22h.03l1.38-.42,1.38,.3,.96-.63,.65-.17c.03-.97,.05-2.13,.05-3.47,0-3.2-.18-5.62-.55-7.25-.2-.84-.46-1.55-.76-2.14s-.66-1.18-1.07-1.77c-.57-.84-1.42-1.66-2.54-2.48s-2.54-1.22-4.25-1.22c-1.31,0-2.53,.3-3.67,.89-1.14,.59-2.14,1.38-3,2.37-.86,.99-1.53,2.17-2.02,3.55-.49,1.38-.73,2.83-.73,4.36v4.36h6.24v-4.29c0-.79,.23-1.6,.7-2.44,.47-.84,1.25-1.26,2.35-1.26,.94,0,1.68,.35,2.23,1.04,.55,.69,.83,1.58,.83,2.66v6.8c0,.75-.05,1.4-.16,1.94h.08l1-.3Z"/>
    <path class="cls-3" d="M134.64,181.83v.67l1.27-.72c-.39,.03-.81,.05-1.27,.05Z"/>
    <path class="cls-4" d="M159.33,161.3h-.75l-.73,1.04-.92,2.72-.08,.09,.58,.08-.35,1.1-.61,.63-.44-.04-.87,1.09,.08,.32c.11-.18,.23-.35,.36-.51,.61-.71,1.32-1.07,2.14-1.07s1.53,.36,2.14,1.07c.61,.71,.92,1.59,.92,2.62v7.69c0,1.04-.31,1.91-.92,2.62-.61,.71-1.33,1.07-2.14,1.07s-1.53-.36-2.14-1.07c-.61-.71-.92-1.59-.92-2.62v-6.17l-.36,.21v.5l-2.08,.92-.96,1.27-1.54,1.17-.04-.04-.83,.6-.34,1.02c.05,1,.16,1.9,.35,2.69,.2,.84,.52,1.59,.95,2.25,.43,.67,1.01,1.37,1.74,2.11-.59,.56-1.08,1.12-1.47,1.67h.37l.93,1.43,1.37,.75-.54,.87-.83,.33-.52,.8-2.08,1.52-.26,.09c0,.16-.02,.31-.02,.48-.04,1.36-.06,3.02-.06,4.99,0,1.09,.02,2.05,.04,2.89l2.04,.1,1.02,.66,.19,.8,.98,.54-.28,.39,.25,.5-.27-.39-.13,.55-.49-.13,.41,.5,.58-.08,.14-.73,.69,.85,.31-.46,.75-.09,.16,.09,.73,.5c-.59-.71-.89-1.57-.89-2.58v-10.35c0-1.04,.31-1.91,.92-2.62,.61-.71,1.32-1.07,2.14-1.07s1.53,.36,2.14,1.07c.61,.71,.92,1.59,.92,2.62v10.35c0,1.04-.31,1.91-.92,2.62-.61,.72-1.33,1.07-2.14,1.07-.12,0-.24-.02-.36-.04l.32,.38,.5-.08,.31,.85,.82,.68,1.12,.79,2.19,.35,1.1-.5,1.34,.85c.08-.13,.17-.25,.24-.38,.33-.59,.6-1.16,.83-1.7,.22-.54,.4-1.21,.52-2,.12-.79,.21-1.71,.28-2.77,.06-1.06,.09-2.4,.09-4.03,0-1.97-.02-3.63-.06-4.99-.04-1.36-.16-2.5-.37-3.44-.21-.94-.52-1.75-.95-2.44-.43-.69-1.01-1.38-1.74-2.07,.73-.74,1.32-1.44,1.74-2.11,.43-.67,.74-1.42,.95-2.25,.2-.84,.33-1.8,.37-2.88,.04-1.08,.06-2.42,.06-3.99,0-1.43-.03-2.65-.09-3.66-.06-1.01-.19-1.88-.4-2.62-.2-.74-.45-1.41-.73-2-.29-.59-.63-1.21-1.04-1.85-.82-1.28-1.83-2.28-3.06-2.99-.25-.15-.51-.27-.77-.39l-1.09,.69-.54,.73Z"/>
    <path class="cls-3" d="M153.77,160.27c-1.22,.71-2.24,1.71-3.06,2.99-.41,.64-.74,1.26-1.01,1.85-.27,.59-.5,1.26-.7,2-.2,.74-.35,1.61-.43,2.62-.08,1.01-.12,2.23-.12,3.66,0,1.58,.02,2.91,.06,3.99,0,.07,.01,.13,.02,.2l.34-1.02,.83-.6,.04,.04,1.54-1.17,.96-1.27,2.08-.92v-.5l.36-.21v-1.52c0-.8,.19-1.5,.55-2.11l-.08-.32,.87-1.09,.44,.04,.61-.63,.35-1.1-.58-.08,.08-.09,.92-2.72,.73-1.04h.75l.54-.73,1.09-.69c-1-.45-2.07-.68-3.2-.68-1.43,0-2.75,.36-3.97,1.07Z"/>
    <path class="cls-3" d="M162.65,208.12l-2.19-.35-1.12-.79-.82-.68-.31-.85-.5,.08-.32-.38c-.67-.09-1.26-.42-1.78-1.03-.01-.01-.02-.03-.03-.04l-.73-.5-.16-.09-.75,.09-.31,.46-.69-.85-.14,.73-.58,.08-.41-.5,.49,.13,.13-.55,.27,.39-.25-.5,.28-.39-.98-.54-.19-.8-1.02-.66-2.04-.1c.01,.41,.03,.8,.05,1.14,.06,1.06,.15,1.99,.28,2.77,.12,.79,.29,1.46,.52,2,.22,.54,.5,1.11,.83,1.7,.69,1.28,1.67,2.38,2.94,3.29,1.26,.91,2.81,1.37,4.65,1.37s3.38-.46,4.65-1.37c1.13-.82,2.02-1.79,2.7-2.91l-1.34-.85-1.1,.5Z"/>
    <path class="cls-3" d="M148.88,189.15c-.18,.82-.29,1.82-.34,2.96l.26-.09,2.08-1.52,.52-.8,.83-.33,.54-.87-1.37-.75-.93-1.43h-.37c-.09,.13-.19,.27-.27,.4-.43,.69-.74,1.5-.95,2.44Z"/>
    <rect class="cls-7" x="168.86" y="208.57" width="3.08" height="3.72"/>
    <polygon class="cls-7" points="174.8 189.06 174.8 193 177.88 190.27 177.88 212.29 180.95 212.29 180.95 186.33 177.88 186.33 174.8 189.06"/>
    <path class="cls-7" d="M194.16,196.61c.14-.39,.24-.78,.3-1.17s.1-.8,.12-1.22c.02-.42,.03-.95,.03-1.59,0-.88-.09-1.7-.26-2.48-.17-.78-.44-1.47-.8-2.08-.38-.61-.86-1.09-1.43-1.44-.57-.35-1.26-.53-2.07-.53-.64,0-1.25,.15-1.81,.46-.56,.3-1.05,.71-1.45,1.22-.42,.51-.75,1.11-1,1.79s-.36,1.41-.36,2.19v2.04h3.08v-2.11c0-.61,.14-1.07,.41-1.39,.27-.32,.64-.47,1.1-.47,.38,0,.67,.09,.87,.27,.2,.18,.35,.41,.45,.67,.1,.27,.16,.58,.17,.93,0,.35,.01,.69,.01,1,0,.71-.02,1.29-.06,1.77-.04,.47-.2,1.03-.48,1.66l-5.55,12.65v3.5h9.17v-3.72h-5.55l4.52-10.54c.24-.56,.43-1.03,.57-1.42Z"/>
    <path class="cls-7" d="M205.45,189.35c-.25-.68-.59-1.26-1.01-1.75-.42-.49-.91-.86-1.46-1.11-.55-.26-1.13-.38-1.73-.38s-1.18,.13-1.73,.38c-.55,.25-1.04,.63-1.46,1.11-.42,.49-.76,1.07-1.01,1.75-.25,.68-.38,1.46-.38,2.33v15.24c0,.88,.12,1.65,.38,2.33,.25,.68,.59,1.26,1.01,1.75,.42,.49,.91,.86,1.46,1.11s1.13,.38,1.73,.38,1.18-.13,1.73-.38,1.04-.63,1.46-1.11c.42-.49,.76-1.07,1.01-1.75s.38-1.46,.38-2.33v-15.24c0-.88-.13-1.65-.38-2.33Zm-2.7,17.58c0,.54-.14,.98-.42,1.33s-.64,.53-1.08,.53-.8-.18-1.09-.53c-.28-.35-.42-.8-.42-1.33v-15.24c0-.54,.14-.98,.42-1.33,.28-.35,.64-.53,1.09-.53s.8,.18,1.08,.53,.42,.8,.42,1.33v15.24Z"/>
  </g>
</svg>