<?xml version="1.0" encoding="UTF-8"?>
<svg id="Layer_1" data-name="Layer 1" xmlns="http://www.w3.org/2000/svg" viewBox="0 0 283.46 283.46">
  <defs>
    <style>
      .cls-1 {
        fill: none;
      }

      .cls-2 {
        fill: #f25d55;
      }

      .cls-3 {
        fill: #fff;
      }

      .cls-4 {
        fill: #d1c1c1;
      }

      .cls-5 {
        fill: #6d8cf2;
      }

      .cls-6 {
        fill: #606060;
      }
    </style>
  </defs>
  <path class="cls-1" d="M104.35,216.98l-.08-.37c0,.13,0,.28,0,.43l.07-.06Z"/>
  <path class="cls-1" d="M69.77,137.65l-.49-1.79,.76-1.43-1.35-1.97,.59-2.14,1.48-3.05,3.22-.27,.13-3.32,1.65-.36-3.13-1.97,1.79-.36,1.65-3.32,3.22-2.06,1.25-3.32,3.44-.81,2.86-4.47,3.94-1.08h2.63l1.38,1.7,1.84-.13,3.76-2.82-.81-.89,1.43-1.3-1.3-2.82,1.08-1.6,1.75,.4,4.7-3.98,2.6,.71,3.27-2.6,.44-2.6,3.09-1.21-4.08-.98-.17-2.24-2.28-3.13,.44-2.09-1.43-5.14-4.3-3.84v-3.67l-2.36-2.63,.62-1.3-1.35,.44-1.08-.94,.98-1.7,1.87-.67,6.17,.94-1.25-1.7,2.68-1.87v-1.87l4.47-4.65-.71-2.06,2.14-.49,.44-2.46,2.36-.05,1.08-3.44,1.92-.36v-4.79l4.57-2.82,.03,.11,4.47,7.25-.81,.59,2.86,4.33,6.71,6.08-.13,1.65,1.16,.22,.27,2.6,2.6,3.62,2.41,1.43,2.6-1.65,1.7,2.95-1.84,1.43,1.35,2.02,2.51-2.36,1.7,.22,7.47,6-.59,.67,2.41,3.4-1.21,.32-.49,1.48,2.41,3.05-.27,3.62,2.06,.94-.13,8.14,1.57,1.43-.4,3.81-2.6,3.32-.86-1.3-.36,.71,.81,1.52,.54-.67,1.79,6.05,1.6,.86-2.86-.67,3.13,1.52,1.65,2.02-2.09,7.2,1.87,4.74,2.41,2.78,.71,3.17,1.75,3.35-1.38,.62-.89,2.95-1.38,.22,1.21,.22,2.45,4.55h50.69V11.51H41V141.73h32.27l-.87-.2-2.63-3.89Zm108.94-26.22l4.43-18.6h3.26l-4.61,18.6h3.04v-7.4h3.08v7.4h1.48v3.5h-1.48v3.87h-3.08v-3.87h-6.12v-3.5Zm-10.43-13.11c.02-.55,.06-1.01,.12-1.4,.04-.36,.11-.68,.2-.95,.09-.27,.21-.55,.35-.84,.4-.8,.94-1.42,1.61-1.86s1.43-.66,2.28-.66,1.6,.23,2.26,.67c.66,.45,1.2,1.06,1.6,1.84,.14,.29,.26,.57,.36,.84,.1,.27,.18,.58,.24,.95,.04,.39,.07,.86,.09,1.4,.02,.55,.03,1.25,.03,2.1,0,.8,0,1.46-.03,1.99-.02,.52-.05,.97-.09,1.33-.06,.39-.13,.74-.2,1.04-.07,.3-.16,.63-.26,.97l-4.04,13.05h-3.44l3.5-10.9-.06-.07c-.1,.1-.26,.18-.47,.24-.21,.06-.49,.09-.83,.09-.54,0-1.05-.16-1.51-.47-.46-.32-.82-.72-1.09-1.2-.14-.24-.25-.5-.33-.78-.08-.28-.14-.64-.18-1.08-.06-.44-.1-.99-.12-1.66-.02-.67-.03-1.51-.03-2.53,0-.85,0-1.55,.03-2.1Zm-18.48-43.52v.02l.22,2.86-2.14-.05-1.16-2.24-2.33,.59-1.16-1.08,6.57-.1Z"/>
  <path class="cls-1" d="M172.83,104.86c.4,0,.75-.17,1.05-.51,.3-.34,.45-.79,.45-1.35v-4.81c0-.56-.15-1.01-.45-1.35-.3-.34-.65-.51-1.05-.51s-.75,.17-1.06,.51-.45,.79-.45,1.35v4.81c0,.56,.15,1.01,.45,1.35,.3,.34,.65,.51,1.06,.51Z"/>
  <polygon class="cls-1" points="174.71 141.73 174.84 141.73 173.32 139.73 174.71 141.73"/>
  <path class="cls-2" d="M148.51,213c-.4,0-.75,.18-1.06,.53-.3,.35-.45,.78-.45,1.29v3.79c0,.51,.15,.94,.45,1.29,.3,.35,.65,.53,1.06,.53s.75-.18,1.05-.53c.3-.35,.45-.78,.45-1.29v-3.79c0-.51-.15-.94-.45-1.29-.3-.35-.65-.53-1.05-.53Z"/>
  <path class="cls-2" d="M234.78,228.52l-3.89,.05-2.78-2.28-3.09,.32-2.19-.67-1.65-.62-4.74-3.59-5.95-1.79-1.6-1.65,.13,1.52-1.75,.36,.54,2.06-1.03,1.57-3.27,3.59,3.27-4.52-.22-1.92-.98,.22-2.51-.22,1.08-1.57,2.24,.1-.81-.17,.36-1.79,.98-.54-2.41-1.87-1.35-3.13,.98-2.09-.81-.76,2.09,1.08-.36-1.16-5.86-3.59-5.46-7.38-1.92-10.6-2.46-3.59-.71-2.63-.54-3.22,.86-1.11,.13-.1-.27-2.06-1.6,1.11,.67-1.7,.98,.22-1.3-.71,.22-2.82-1.08,1.16-2.51-.22,2.51,.13,2.02-3.22-.71-2.14-1.79-1.35-2.86-3.17,.98-1.7-1.57,1.3-.49-.81-2.24,3.81h-.05l-7.3,.1,2.63-.71,4.33-.22,.81-2.28,1.3-1.43,2.41-.22-2.51-2.51-2.9-6.79-.89-1.75-2.33-3.59,.4-1.7-1.25-1.8H73.27l3.43,.79,.49,3.09,1.16,1.52,1.08-.1,.98,2.36,2.24-.22,2.73-1.3,1.43,1.21-1.38,1.25,.81,1.11-1.08,.86,1.84,3.54-3.94,1.11-4.11,2.51-.1,4.52-2.51,2.6,.49,1.21,2.46,.81v2.78l1.97,1.79-1.84,1.57-.94,3.54-2.63,1.97,2.86,4.74-.86,1.21,1.25,3.54,3.09,2.63,3.44-.49,.2-.24c.12-.85,.31-1.67,.59-2.47,.49-1.38,1.16-2.56,2.02-3.55,.86-.99,1.85-1.77,3-2.37,1.14-.59,2.36-.89,3.67-.89,1.71,0,3.13,.41,4.25,1.22s1.97,1.64,2.54,2.48c.41,.59,.76,1.18,1.07,1.77,.31,.59,.56,1.31,.76,2.14,.37,1.63,.55,4.04,.55,7.25,0,1.82-.03,3.3-.09,4.44-.06,1.13-.21,2.07-.46,2.81-.29,.79-.68,1.45-1.19,2-.51,.54-1.21,1.13-2.11,1.77,.98,.74,1.72,1.43,2.23,2.07,.51,.64,.89,1.38,1.13,2.22,.25,.89,.39,1.94,.43,3.14,0,.29,.02,.61,.03,.94l.08,.37-.07,.06c.02,.95,.03,2.02,.03,3.26,0,1.73-.03,3.15-.09,4.29-.04,.72-.09,1.36-.16,1.92l5.39,4.36,9.84-40.96h-6.85v6.06h-5.5v-13.16h18.59v7.54l-10.58,45.1h-2.44s2.28,.01,2.28,.01l1.16,9.52-.49,2.36,4.3-.89,6.79-3.35-.17,1.38,4.38,1.25,2.41,2.46,2.51-.36,7.6-4.43,.13-3.4,1.65-.76,4.3,3.71,1.52-3.49-.36-3.94,4.2,.62,1.08-2.28,2.24,.98,1.25,.44,1.23-.12v-3.6h-6.12v-3.5l4.43-18.6h3.26l-4.61,18.6h3.04v-7.4h3.08v7.4h1.48v3.5h-1.48v3.87h-1.91l.21,1.2,1.92-.13,.1,1.7,1.92-.89,.98,.49-.13,.98,1.92-.36-.05,.94-.94,.44,1.21-.17-.36,1.25,2.51,1.92,.94,2.14h2.28l-.94-.71,.36-1.52,1.16,.22,.22,1.35,1.79-1.79-.67,1.65,2.14,.32,.71,2.06-.4,.27,.05,.54,1.08,.71-.17-1.79,.76-.59-.86-1.52,.44-2.63-1.52-1.3,1.52-.4,1.97,1.92,.89,.98-.44,.86,1.79,.32,.44-2.51,1.11,1.21,1.21-1.35,1.03,1.21-.22,2.19,.81,.94,1.7-.98,.13,1.3,2.82-2.09,1.11,.22,1.75-2.28,2.19,.4v-2.14l1.3-.05,.71-1.38,.36-.27,7.65,1.57,2.6,.44,2.14-1.38,5.28,1.97,1.16-1.3,1.84-.13,3.32,.86,1.43,1.43,5.28-1.52,4.6,1.08-.94-2.02,.36-4.3,1.92-2.9,2.46-.44,1.08-1.57-1.87,.44-4.08-2.02Zm-104.36,6.94h-3.08v-3.72h3.08v3.72Zm11.43-16.39c-.02,.52-.05,.97-.09,1.33-.06,.39-.13,.74-.2,1.04-.07,.3-.16,.63-.26,.97l-4.04,13.05h-3.44l3.5-10.9-.06-.07c-.1,.1-.26,.18-.47,.24-.21,.06-.49,.09-.83,.09-.54,0-1.05-.16-1.51-.47-.46-.32-.82-.72-1.09-1.2-.14-.24-.25-.5-.33-.78-.08-.28-.14-.64-.18-1.08-.06-.44-.1-.99-.12-1.66-.02-.67-.03-1.51-.03-2.53,0-.85,0-1.55,.03-2.1,.02-.55,.06-1.01,.12-1.4,.04-.36,.11-.68,.2-.95,.09-.27,.21-.55,.35-.84,.4-.8,.94-1.42,1.61-1.86s1.43-.66,2.28-.66,1.6,.23,2.26,.67c.66,.45,1.2,1.06,1.6,1.84,.14,.29,.26,.57,.36,.84,.1,.27,.18,.58,.24,.95,.04,.39,.07,.86,.09,1.4,.02,.55,.03,1.25,.03,2.1,0,.8,0,1.46-.03,1.99Zm10.57,3.77c.21,.34,.37,.74,.47,1.2s.16,1.03,.18,1.7c.02,.67,.03,1.49,.03,2.46,0,.8-.01,1.46-.04,1.99-.03,.52-.08,.98-.14,1.37s-.15,.72-.26,.98-.25,.55-.41,.84c-.34,.63-.83,1.17-1.45,1.62-.62,.45-1.39,.67-2.29,.67s-1.67-.22-2.29-.67c-.62-.45-1.11-.99-1.45-1.62-.16-.29-.3-.57-.41-.84-.11-.27-.2-.6-.26-.98s-.11-.84-.14-1.37c-.03-.52-.04-1.18-.04-1.99,0-.97,0-1.79,.03-2.46,.02-.67,.08-1.23,.18-1.7s.26-.86,.47-1.2c.21-.34,.5-.68,.86-1.02-.36-.36-.65-.71-.86-1.04s-.37-.7-.47-1.11c-.1-.41-.16-.89-.18-1.42-.02-.53-.03-1.19-.03-1.97,0-.7,.02-1.31,.06-1.8,.04-.5,.11-.93,.21-1.29,.1-.36,.22-.69,.35-.98,.13-.29,.3-.6,.5-.91,.4-.63,.91-1.12,1.51-1.48,.6-.35,1.26-.53,1.96-.53s1.36,.18,1.96,.53c.6,.35,1.11,.84,1.51,1.48,.2,.32,.37,.62,.51,.91,.14,.29,.26,.62,.36,.98,.1,.36,.17,.8,.2,1.29,.03,.5,.04,1.1,.04,1.8,0,.78,0,1.44-.03,1.97-.02,.54-.08,1.01-.18,1.42-.1,.41-.26,.78-.47,1.11-.21,.33-.5,.67-.86,1.04,.36,.34,.65,.68,.86,1.02Z"/>
  <path class="cls-2" d="M148.51,223.21c-.4,0-.75,.18-1.06,.53-.3,.35-.45,.78-.45,1.29v5.1c0,.51,.15,.94,.45,1.29s.65,.53,1.06,.53,.75-.18,1.05-.53c.3-.35,.45-.78,.45-1.29v-5.1c0-.51-.15-.94-.45-1.29-.3-.35-.65-.53-1.05-.53Z"/>
  <path class="cls-2" d="M137.29,213c-.4,0-.75,.17-1.06,.51s-.45,.79-.45,1.35v4.81c0,.56,.15,1.01,.45,1.35,.3,.34,.65,.51,1.06,.51s.75-.17,1.05-.51c.3-.34,.45-.79,.45-1.35v-4.81c0-.56-.15-1.01-.45-1.35-.3-.34-.65-.51-1.05-.51Z"/>
  <polygon class="cls-2" points="176.55 143.98 175.33 141.73 174.84 141.73 176.55 143.98"/>
  <polygon class="cls-5" points="146.71 55.39 147.87 57.63 150.02 57.67 149.79 54.82 149.79 54.8 143.22 54.9 144.38 55.98 146.71 55.39"/>
  <path class="cls-5" d="M173.32,139.73l1.52,2.01h.49l-2.45-4.55-1.21-.22,1.38-.22,.89-2.95,1.38-.62-1.75-3.35-.71-3.17-2.41-2.78-1.87-4.74,2.09-7.2-1.65-2.02-3.13-1.52,2.86,.67-1.6-.86-1.79-6.05-.54,.67-.81-1.52,.36-.71,.86,1.3,2.6-3.32,.4-3.81-1.57-1.43,.13-8.14-2.06-.94,.27-3.62-2.41-3.05,.49-1.48,1.21-.32-2.41-3.4,.59-.67-7.47-6-1.7-.22-2.51,2.36-1.35-2.02,1.84-1.43-1.7-2.95-2.6,1.65-2.41-1.43-2.6-3.62-.27-2.6-1.16-.22,.13-1.65-6.71-6.08-2.86-4.33,.81-.59-4.47-7.25-.03-.11-4.57,2.82v4.79l-1.92,.36-1.08,3.44-2.36,.05-.44,2.46-2.14,.49,.71,2.06-4.47,4.65v1.87l-2.68,1.87,1.25,1.7-6.17-.94-1.87,.67-.98,1.7,1.08,.94,1.35-.44-.62,1.3,2.36,2.63v3.67l4.3,3.84,1.43,5.14-.44,2.09,2.28,3.13,.17,2.24,4.08,.98-3.09,1.21-.44,2.6-3.27,2.6-2.6-.71-4.7,3.98-1.75-.4-1.08,1.6,1.3,2.82-1.43,1.3,.81,.89-3.76,2.82-1.84,.13-1.38-1.7h-2.63l-3.94,1.08-2.86,4.47-3.44,.81-1.25,3.32-3.22,2.06-1.65,3.32-1.79,.36,3.13,1.97-1.65,.36-.13,3.32-3.22,.27-1.48,3.05-.59,2.14,1.35,1.97-.76,1.43,.49,1.79,2.63,3.89,.87,.2h101.44l-1.39-2.01Zm-49.65-20.93h-6.24v-44.66l-6.24,5.55v-7.99l6.24-5.55h6.24v52.65Zm26.17-7.54v7.54h-18.59v-7.1l11.25-25.66c.57-1.28,.9-2.4,.98-3.36,.08-.96,.12-2.16,.12-3.59,0-.64-.01-1.32-.03-2.03-.02-.71-.13-1.34-.34-1.89-.21-.54-.51-1-.92-1.37s-1-.55-1.77-.55c-.94,0-1.68,.32-2.23,.96-.55,.64-.83,1.58-.83,2.81v4.29h-6.24v-4.14c0-1.58,.24-3.06,.73-4.44,.49-1.38,1.16-2.59,2.02-3.62,.81-1.04,1.79-1.86,2.93-2.48,1.14-.62,2.36-.92,3.67-.92,1.63,0,3.03,.36,4.19,1.07,1.16,.72,2.13,1.69,2.9,2.92,.73,1.23,1.27,2.64,1.62,4.21,.35,1.58,.52,3.25,.52,5.03,0,1.28-.02,2.35-.06,3.22-.04,.86-.12,1.69-.24,2.48-.12,.79-.33,1.58-.61,2.37-.29,.79-.67,1.75-1.16,2.88l-9.17,21.37h11.25Zm4.89,7.54h-3.08v-3.72h3.08v3.72Zm9.02,0h-3.08v-22.02l-3.08,2.73v-3.94l3.08-2.73h3.08v25.96Z"/>
  <polygon class="cls-3" points="111.2 71.69 111.2 79.68 117.44 74.13 117.44 118.79 123.67 118.79 123.67 66.15 117.44 66.15 111.2 71.69"/>
  <path class="cls-3" d="M148.93,87c.28-.79,.49-1.58,.61-2.37,.12-.79,.2-1.61,.24-2.48,.04-.86,.06-1.93,.06-3.22,0-1.77-.17-3.45-.52-5.03-.35-1.58-.89-2.98-1.62-4.21-.77-1.23-1.74-2.21-2.9-2.92-1.16-.71-2.56-1.07-4.19-1.07-1.3,0-2.53,.31-3.67,.92-1.14,.62-2.12,1.44-2.93,2.48-.86,1.04-1.53,2.24-2.02,3.62-.49,1.38-.73,2.86-.73,4.44v4.14h6.24v-4.29c0-1.23,.27-2.17,.83-2.81,.55-.64,1.29-.96,2.23-.96,.77,0,1.37,.19,1.77,.55s.71,.83,.92,1.37c.2,.54,.31,1.17,.34,1.89,.02,.72,.03,1.39,.03,2.03,0,1.43-.04,2.62-.12,3.59-.08,.96-.41,2.08-.98,3.36l-11.25,25.66v7.1h18.59v-7.54h-11.25l9.17-21.37c.49-1.13,.88-2.09,1.16-2.88Z"/>
  <rect class="cls-3" x="151.66" y="115.07" width="3.08" height="3.72"/>
  <polygon class="cls-3" points="157.6 95.57 157.6 99.5 160.68 96.77 160.68 118.79 163.75 118.79 163.75 92.83 160.68 92.83 157.6 95.57"/>
  <path class="cls-6" d="M168.4,104.61c.04,.44,.1,.8,.18,1.08,.08,.28,.19,.54,.33,.78,.26,.49,.62,.89,1.09,1.2,.46,.32,.96,.47,1.51,.47,.34,0,.62-.03,.83-.09,.21-.06,.37-.14,.47-.24l.06,.07-3.5,10.9h3.44l4.04-13.05c.1-.34,.19-.66,.26-.97,.07-.3,.14-.65,.2-1.04,.04-.36,.07-.81,.09-1.33,.02-.52,.03-1.19,.03-1.99,0-.85,0-1.55-.03-2.1-.02-.55-.05-1.01-.09-1.4-.06-.36-.14-.68-.24-.95-.1-.27-.22-.55-.36-.84-.4-.78-.93-1.39-1.6-1.84-.66-.45-1.42-.67-2.26-.67s-1.6,.22-2.28,.66-1.21,1.06-1.61,1.86c-.14,.29-.26,.57-.35,.84-.09,.27-.16,.58-.2,.95-.06,.39-.1,.86-.12,1.4-.02,.55-.03,1.25-.03,2.1,0,1.02,0,1.87,.03,2.53,.02,.67,.06,1.22,.12,1.66Zm2.93-6.42c0-.56,.15-1.01,.45-1.35s.65-.51,1.06-.51,.75,.17,1.05,.51c.3,.34,.45,.79,.45,1.35v4.81c0,.56-.15,1.01-.45,1.35-.3,.34-.65,.51-1.05,.51s-.75-.17-1.06-.51c-.3-.34-.45-.79-.45-1.35v-4.81Z"/>
  <polygon class="cls-6" points="184.83 118.79 187.91 118.79 187.91 114.93 189.38 114.93 189.38 111.43 187.91 111.43 187.91 104.03 184.83 104.03 184.83 111.43 181.78 111.43 186.4 92.83 183.14 92.83 178.71 111.43 178.71 114.93 184.83 114.93 184.83 118.79"/>
  <polygon class="cls-3" points="101.35 205.59 102.7 205.05 101.35 205.54 101.35 205.59"/>
  <path class="cls-4" d="M100.95,219.94l3.33-2.89c0-.14,0-.29,0-.43l-.37-1.78-3.13-1.08-2.24-2.36-.36-1.84,2.78-4.52-.62-.86,.94-5.01,1.3-1.43-.32-2.82-.98-.62-.44-1.57-1.84-.32-3.76-3.94-1.92-3.76-.98,2.06-3.44,1.35-3.02,3.52c-.09,.62-.14,1.25-.14,1.89v4.36h6.24v-4.29c0-.79,.23-1.6,.7-2.44,.47-.84,1.25-1.26,2.35-1.26,.94,0,1.68,.35,2.23,1.04,.55,.69,.83,1.58,.83,2.66v6.8c0,1.97-.36,3.23-1.07,3.77-.71,.54-2.01,.81-3.88,.81v6.65c1.02,0,1.84,.05,2.48,.15,.63,.1,1.13,.35,1.5,.74,.65,.64,.98,2,.98,4.07v7.54c0,1.28-.28,2.3-.83,3.07-.55,.76-1.29,1.15-2.23,1.15s-1.68-.38-2.23-1.15c-.55-.76-.83-1.74-.83-2.92v-3.92h-6.24v4.29c0,2.07,.29,3.82,.89,5.25,.59,1.43,1.33,2.59,2.23,3.48s1.9,1.53,3,1.92c1.1,.39,2.14,.59,3.12,.59,1.96,0,3.54-.46,4.74-1.37,1.2-.91,2.19-2.06,2.96-3.44,.33-.59,.59-1.16,.79-1.7,.2-.54,.37-1.21,.49-2,.04-.27,.08-.57,.12-.89l-1.32-1.07-1.79-5.51Z"/>
  <path class="cls-3" d="M104.31,220.3c0-1.24-.01-2.31-.03-3.26l-3.33,2.89,1.79,5.51,1.32,1.07c.06-.56,.12-1.19,.16-1.92,.06-1.13,.09-2.56,.09-4.29Z"/>
  <path class="cls-3" d="M92.32,186.77l.98-2.06,1.92,3.76,3.76,3.94,1.84,.32,.44,1.57,.98,.62,.32,2.82-1.3,1.43-.94,5.01,.62,.86-2.78,4.52,.36,1.84,2.24,2.36,3.13,1.08,.37,1.78c0-.33-.02-.65-.03-.94-.04-1.21-.18-2.26-.43-3.14-.24-.84-.62-1.58-1.13-2.22-.51-.64-1.25-1.33-2.23-2.07,.9-.64,1.6-1.23,2.11-1.77,.51-.54,.91-1.21,1.19-2,.25-.74,.4-1.68,.46-2.81,.06-1.13,.09-2.61,.09-4.44,0-3.2-.18-5.62-.55-7.25-.2-.84-.46-1.55-.76-2.14-.31-.59-.66-1.18-1.07-1.77-.57-.84-1.42-1.66-2.54-2.48s-2.54-1.22-4.25-1.22c-1.31,0-2.53,.3-3.67,.89-1.14,.59-2.14,1.38-3,2.37-.86,.99-1.53,2.17-2.02,3.55-.28,.8-.47,1.63-.59,2.47l3.02-3.52,3.44-1.35Zm9.03,18.82v-.05l1.35-.49-1.35,.54Z"/>
  <polygon class="cls-4" points="109.45 230.87 108.34 235.46 112.5 235.46 111.43 232.47 109.45 230.87"/>
  <polygon class="cls-3" points="125.53 190.35 125.53 182.81 106.94 182.81 106.94 195.97 112.44 195.97 112.44 189.91 119.29 189.91 109.45 230.87 111.43 232.47 112.5 235.46 114.95 235.46 125.53 190.35"/>
  <rect class="cls-3" x="127.34" y="231.74" width="3.08" height="3.72"/>
  <path class="cls-3" d="M141.76,213.58c-.06-.36-.14-.68-.24-.95-.1-.27-.22-.55-.36-.84-.4-.78-.93-1.39-1.6-1.84-.66-.45-1.42-.67-2.26-.67s-1.6,.22-2.28,.66-1.21,1.06-1.61,1.86c-.14,.29-.26,.57-.35,.84-.09,.27-.16,.58-.2,.95-.06,.39-.1,.86-.12,1.4-.02,.55-.03,1.25-.03,2.1,0,1.02,0,1.87,.03,2.53,.02,.67,.06,1.22,.12,1.66,.04,.44,.1,.8,.18,1.08,.08,.28,.19,.54,.33,.78,.26,.49,.62,.89,1.09,1.2,.46,.32,.96,.47,1.51,.47,.34,0,.62-.03,.83-.09,.21-.06,.37-.14,.47-.24l.06,.07-3.5,10.9h3.44l4.04-13.05c.1-.34,.19-.66,.26-.97,.07-.3,.14-.65,.2-1.04,.04-.36,.07-.81,.09-1.33,.02-.52,.03-1.19,.03-1.99,0-.85,0-1.55-.03-2.1-.02-.55-.05-1.01-.09-1.4Zm-2.96,6.09c0,.56-.15,1.01-.45,1.35-.3,.34-.65,.51-1.05,.51s-.75-.17-1.06-.51c-.3-.34-.45-.79-.45-1.35v-4.81c0-.56,.15-1.01,.45-1.35s.65-.51,1.06-.51,.75,.17,1.05,.51c.3,.34,.45,.79,.45,1.35v4.81Z"/>
  <path class="cls-3" d="M152.88,219.67c.1-.41,.16-.89,.18-1.42,.02-.53,.03-1.19,.03-1.97,0-.7-.01-1.31-.04-1.8-.03-.5-.1-.93-.2-1.29-.1-.36-.22-.69-.36-.98-.14-.29-.31-.6-.51-.91-.4-.63-.91-1.12-1.51-1.48-.6-.35-1.26-.53-1.96-.53s-1.36,.18-1.96,.53c-.6,.35-1.11,.84-1.51,1.48-.2,.32-.37,.62-.5,.91-.13,.29-.25,.62-.35,.98-.1,.36-.17,.8-.21,1.29-.04,.5-.06,1.1-.06,1.8,0,.78,0,1.44,.03,1.97,.02,.54,.08,1.01,.18,1.42,.1,.41,.26,.78,.47,1.11s.5,.67,.86,1.04c-.36,.34-.65,.68-.86,1.02-.21,.34-.37,.74-.47,1.2s-.16,1.03-.18,1.7c-.02,.67-.03,1.49-.03,2.46,0,.8,.01,1.46,.04,1.99,.03,.52,.08,.98,.14,1.37s.15,.72,.26,.98c.11,.27,.25,.55,.41,.84,.34,.63,.82,1.17,1.45,1.62,.62,.45,1.39,.67,2.29,.67s1.67-.22,2.29-.67c.62-.45,1.11-.99,1.45-1.62,.16-.29,.3-.57,.41-.84s.2-.6,.26-.98,.11-.84,.14-1.37c.03-.52,.04-1.18,.04-1.99,0-.97,0-1.79-.03-2.46-.02-.67-.08-1.23-.18-1.7s-.26-.86-.47-1.2c-.21-.34-.5-.68-.86-1.02,.36-.36,.65-.71,.86-1.04,.21-.33,.37-.7,.47-1.11Zm-2.86,10.46c0,.51-.15,.94-.45,1.29-.3,.35-.65,.53-1.05,.53s-.75-.18-1.06-.53-.45-.78-.45-1.29v-5.1c0-.51,.15-.94,.45-1.29,.3-.35,.65-.53,1.06-.53s.75,.18,1.05,.53c.3,.35,.45,.78,.45,1.29v5.1Zm0-11.52c0,.51-.15,.94-.45,1.29-.3,.35-.65,.53-1.05,.53s-.75-.18-1.06-.53c-.3-.35-.45-.78-.45-1.29v-3.79c0-.51,.15-.94,.45-1.29,.3-.35,.65-.53,1.06-.53s.75,.18,1.05,.53c.3,.35,.45,.78,.45,1.29v3.79Z"/>
  <polygon class="cls-4" points="160.51 235.19 160.51 235.46 161.68 235.46 161.61 235.09 160.51 235.19"/>
  <polygon class="cls-3" points="163.59 231.59 165.07 231.59 165.07 228.09 163.59 228.09 163.59 220.69 160.51 220.69 160.51 228.09 157.47 228.09 162.08 209.5 158.82 209.5 154.39 228.09 154.39 231.59 160.51 231.59 160.51 235.19 161.61 235.09 161.68 235.46 163.59 235.46 163.59 231.59"/>
</svg>