<?xml version="1.0" encoding="UTF-8"?>
<svg id="Layer_1" data-name="Layer 1" xmlns="http://www.w3.org/2000/svg" viewBox="0 0 283.46 283.46">
  <defs>
    <style>
      .cls-1 {
        fill: none;
      }

      .cls-2 {
        fill: #f25d55;
      }

      .cls-3 {
        fill: #fff;
      }

      .cls-4 {
        fill: #d1c1c1;
      }

      .cls-5 {
        fill: #6d8cf2;
      }

      .cls-6 {
        fill: #606060;
      }
    </style>
  </defs>
  <path class="cls-1" d="M75.09,221.08c.94,0,1.68-.38,2.23-1.15,.39-.54,.64-1.23,.75-2.03l-1.77,1.08-.4,.4-.79,.36-1.91,.58c.51,.5,1.13,.76,1.89,.76Z"/>
  <polygon class="cls-1" points="203.09 184.16 203.05 184.2 202.79 184.34 203.09 184.34 203.09 184.16"/>
  <polygon class="cls-1" points="166.87 46.3 166.87 46.34 167.19 46.44 166.87 46.3"/>
  <polygon class="cls-2" points="152.23 44.39 152.23 44.39 152.23 44.39 152.23 44.39"/>
  <polygon class="cls-2" points="174.66 44.3 174.66 44.31 174.3 44.67 174.12 45.57 176.03 44.7 174.66 44.3"/>
  <path class="cls-2" d="M96.31,182.63c-.82,0-1.53,.35-2.14,1.04-.61,.69-.92,1.6-.92,2.74v9.76c0,1.13,.31,2.05,.92,2.74,.61,.69,1.32,1.04,2.14,1.04s1.53-.34,2.14-1.04c.61-.69,.92-1.6,.92-2.74v-9.76c0-1.13-.31-2.04-.92-2.74-.61-.69-1.33-1.04-2.14-1.04Z"/>
  <polygon class="cls-2" points="176.02 44.71 176.07 44.73 176.03 44.71 176.02 44.71"/>
  <polygon class="cls-2" points="153.32 44.71 154.59 45.58 157.37 45.29 153.1 44.27 153.1 44.29 152.23 44.39 152.05 45.58 153.32 44.71"/>
  <polygon class="cls-2" points="179.87 192.28 177.92 193.15 177.96 192.57 174.65 196.19 175.08 196.88 178.73 196.4 181.73 194.89 182.96 193.34 179.88 192.29 179.87 192.28"/>
  <polygon class="cls-2" points="173.63 217.09 173.06 219.58 170.89 219.8 171.58 221.35 170.47 222.11 170.04 223.55 171.19 223.95 170.89 223.26 172.78 224.41 177.86 219.9 180.14 216.04 180.13 216.04 173.63 217.09"/>
  <polygon class="cls-2" points="152.13 44.57 152.23 44.39 150.54 44.61 152.13 44.57"/>
  <polygon class="cls-2" points="168.58 220.84 169.59 223.44 170.82 220.88 170.71 219.69 170.02 219.58 170.02 219.57 168.58 220.84"/>
  <polygon class="cls-2" points="199.99 179.67 200.09 181.46 201.24 180.92 200.1 179.78 200.03 179.74 199.99 179.67"/>
  <polygon class="cls-2" points="202.41 182.07 200.11 182.18 199.78 183.01 201.27 183.76 202.42 182.07 202.41 182.07"/>
  <polygon class="cls-2" points="202.59 181.59 202.6 181.59 202.59 181.57 202.59 181.59"/>
  <polygon class="cls-2" points="200.07 179.73 199.99 179.65 199.99 179.67 200.03 179.74 200.1 179.78 200.05 179.73 200.07 179.73"/>
  <polygon class="cls-2" points="203.74 182.34 202.6 181.59 203.24 182.66 203.74 182.34"/>
  <polygon class="cls-2" points="202.59 183.11 202.69 183.19 202.69 182.61 202.65 182.36 202.51 182.18 202.47 182.32 202.37 182.53 202.41 182.71 202.37 182.89 202.19 182.93 202.01 182.83 202.01 182.93 202.09 182.93 202.01 183.01 202.59 183.11"/>
  <path class="cls-2" d="M235.62,98.22l-.87-4.11,.47-.9-.36-.69,.47,.5-.69-9.35-3.07-8.55-2.31-3.25-7.54-7.15-12.2-9.71-6.71-4.26-5.78-2.13-10.54-1.01-10.42-2.88,3.03,1.1-1.27,.47-.26,1.09-2.5-.18,.08-.79-3.65,.79-1.27-.79-.1,.61-3.14,.18,2.16-.47-.93-.79h-.18l.1,.08-.61,.58-.04-.04,.54-.61-1.84-1.09-1.05,2.7,.93-1.51,.79,.29h0v-.04l.32,.14-.32-.1h0v.87l-.32,.69-1.51-.29v-2.02l-2.38-.29,1.29-.32-1.88,.29,.08,.9-2.5-.79-2.31,.1,.76,.1-.22,.83-1.98,1.15v-1.45l-1.77-.18-1.05-.47-1.51,.93,1.05,.04-1.63,.14,.47-.76-4.11,.47,.47,.29-.69,.32,.08-.61-2.1-.29,1.09,1.09-1.01,.29-.36-.97-1.05,1.19-.79-1.55-1.63,.29-3.97,4.23-2.89,8.77,.22,3.83-.93,.61-.29-.87-.87,.83,.72,.32-1.29,.29,.08,.58h-1.23l-1.49,1.99,.5,.9-.61,.08-.47,1.45,.61,2.24-.61-1.59-3.25-2.89-3.1,.04-1.45,.69-1.51,3.32,2.13,1.45-6.39,4.9-1.27-.54v-.04l-2.86,.14-3.29,2.1-2.02-.36-1.37,1.63,.44,4.11-2.02,2.2-4.05,.5-.1-.47-2.42-1.15-1.84,1.11-1.11-.65-2.92,2.68-3-1.05-1.01,1.05-1.01-1.98-4.11,2.2-2.31-2.31-3.53-.5-1.09,1.66-4.23,1.84-3.65-.69v.65l-1.77,.1-1.45,1.09,1.66,1.51,.26,1.27-1.98,3.97,1.51,1.63,4.09-1.19,.76,.44,.65,1.88-.93,.61,1.41,1.41,.1,1.15-.97,1.55,4.66,2.42-.32,2.13,1.45,2.86-.93,.87-1.33,2.92,.76,.47-3.69,2.7-.47,.18,.1,.97-1.81,2.2-4.33,.97,.58,.69-.72,1.73,1.66,1.41-.47,1.05,1.33,.22,.1,2.02-4.23,.76,.47,.32-2.06,3.18,.87,2.46-.65,1.66-1.95,.5-1.69-2.42-1.91-.69-3.29,1.37,1.41,5.16-2.31,4.15,1.95,.76,1.23,.87-.18,3.36-.83,.29,.54,1.84,2.13,.5,1.27,2.89-1.05,2.38-1.95,1.45-2.82,4.09,2.02,1.45,.22,1.73-.79,.65,.58,.97-1.41,1.41,1.33,3.47-.58,.4-.65,1.73-.79-.08,.18,1.55-.97,.26-1.45,4.15,.79,1.15,1.51-.22,1.66,1.84,2.5,.1,.9,1.23,1.98,.61,3.69,4.88-.47,.87-.72-.26-.29-.58-1.91,3.14-4.01-1.63-1.15,.87-1.55-.29-2.24-3.14,.61-1.01-.72-1.11-1.63,.1-2.2,1.99,1.73,3,1.15-.36,1.91,2.56-.36,.97,1.41,3,4.76,2.56,2.02-.58,1.15,2.02,.72-.54,.72,.69,.29,1.41-.9,1.45,1.49,1.84-.1,2.1,1.73-.26-.04,.4,1.09-.14,.47,.87-.69,.97-.54-.29-.1,1.19-1.09-.29,.44,1.45-.61,1.45,1.45,4.11,1.73,.65v-3.89l.27,.18c-.02-.37-.04-.74-.04-1.13v-4.29h6.24v3.92c0,1.18,.27,2.16,.83,2.92,.11,.15,.22,.27,.34,.38l1.91-.58,.79-.36,.4-.4,1.77-1.08c.05-.33,.08-.67,.08-1.04v-7.54c0-2.07-.33-3.42-.98-4.07-.37-.39-.87-.64-1.5-.74s-1.46-.15-2.48-.15v-6.65c1.88,0,3.17-.27,3.88-.81,.71-.54,1.07-1.8,1.07-3.77v-6.8c0-1.08-.28-1.97-.83-2.66-.55-.69-1.29-1.04-2.23-1.04-1.1,0-1.89,.42-2.35,1.26-.47,.84-.7,1.65-.7,2.44v4.29h-6.24v-4.36c0-1.53,.24-2.98,.73-4.36,.49-1.38,1.16-2.56,2.02-3.55,.86-.99,1.85-1.77,3-2.37,1.14-.59,2.36-.89,3.67-.89,1.71,0,3.13,.41,4.25,1.22s1.97,1.64,2.54,2.48c.41,.59,.76,1.18,1.07,1.77s.56,1.31,.76,2.14c.37,1.63,.55,4.04,.55,7.25,0,1.82-.03,3.3-.09,4.44s-.21,2.07-.46,2.81c-.29,.79-.68,1.45-1.19,2-.51,.54-1.21,1.13-2.11,1.77,.98,.74,1.72,1.43,2.23,2.07,.51,.64,.89,1.38,1.13,2.22,.25,.89,.39,1.94,.43,3.14,.04,1.21,.06,2.75,.06,4.62,0,1.27-.02,2.37-.05,3.32l.23,.15,.47-1.77,3-.76,.65-1.15,.97,.76,.69-.58,.76-.58,.69-1.91,3.22-.23,1.35-4.2-.12-.15c-.21,.2-.52,.36-.95,.48-.43,.12-.99,.18-1.68,.18-1.1,0-2.12-.32-3.06-.96-.94-.64-1.67-1.45-2.2-2.44-.29-.49-.51-1.02-.67-1.59-.16-.57-.29-1.29-.37-2.18-.12-.89-.2-2.01-.24-3.36-.04-1.35-.06-3.07-.06-5.14,0-1.72,.02-3.14,.06-4.25,.04-1.11,.12-2.06,.24-2.85,.08-.74,.21-1.38,.4-1.92,.18-.54,.42-1.11,.7-1.7,.82-1.63,1.91-2.88,3.27-3.77,1.37-.89,2.9-1.33,4.62-1.33s3.24,.46,4.59,1.37c1.34,.91,2.42,2.16,3.24,3.73,.29,.59,.53,1.16,.73,1.7,.2,.54,.37,1.18,.49,1.92,.08,.79,.14,1.74,.18,2.85,.04,1.11,.06,2.53,.06,4.25,0,1.63-.02,2.97-.06,4.03-.04,1.06-.1,1.96-.18,2.7-.12,.79-.26,1.49-.4,2.11-.14,.62-.32,1.27-.52,1.96l-2.79,9.03,2.1,.35,.08,4.37,2.96,1.05-.26,1.11,1.55,1.59,2.56,1.29,1.27-.08,.22-1.09,2.86-1.05,.69-.29,3.11-.27c-.08-.38-.2-.67-.38-.84-.18-.19-.43-.32-.74-.37-.31-.05-.72-.07-1.22-.07v-3.28c.92,0,1.56-.13,1.92-.4s.53-.89,.53-1.86v-3.36c0-.53-.14-.97-.41-1.31-.27-.34-.64-.51-1.1-.51-.54,0-.93,.21-1.16,.62-.23,.41-.35,.81-.35,1.2v2.12h-3.08v-2.15c0-.75,.12-1.47,.36-2.15s.57-1.26,1-1.75c.42-.49,.92-.88,1.48-1.17,.56-.29,1.17-.44,1.81-.44,.84,0,1.54,.2,2.1,.6s.97,.81,1.25,1.22c.2,.29,.38,.58,.53,.88,.15,.29,.28,.64,.38,1.06,.18,.8,.27,1.99,.27,3.57,0,.9-.01,1.63-.04,2.19-.03,.56-.11,1.02-.23,1.39-.14,.39-.34,.72-.59,.98-.25,.27-.6,.56-1.04,.88,.48,.36,.85,.71,1.1,1.02,.25,.32,.44,.68,.56,1.09,.02,.06,.02,.13,.04,.18l.68-.33,2.31,1.73,.93,1.15-.76,.87,1.23,.22,.22,.55,3.73-15.54h-3.38v2.99h-2.71v-6.49h9.17v3.72l-4.47,19.05,.94-.14,1.81,3.14h-.93l-4.44,1.19-.1,1.81-.76,.04-.4-1.37-.29,1.27-.65-.04,.47,1.45-1.23,.22,.29,.87-1.29,.65-.18,.61,5.67,3.43,1.27-1.41,1.95-.22,1.51,2.6,1.45,.1,5.89-1.55,.76-4.58-.4-.44,1.15-.72,4.15,.08,2.52-1.05-1.49-.32-1.29-2.68-.1-.58-1.09-.79,1.15,.69,.9,1.63,.93,1.45,.87-.36,1.09,1.33,1.59,.18,4.94-1.91-1.45,.29,.97-.69-2.6-.47,.26-.69-1.27-.18-2.02-.93,5.12,.65,1.37-.47,3.53,.65,6.43,.97,1.55,.4,4.73-4.55-2.6-.58-.79-2.1-1.01,.79,.76-1.73-2.31,.44,3.29-1.91-1.09-1.41,1.23,1.23,3.57-.18-.1-2.06-6.49-.87-1.66-1.51-2.02,.87-1.23-.58-.44-.93,2.31-.4,1.19,.1,2.68,2.28,.61-.54,4.51,.87,3.53-.29,2.5-1.84-.26-3.1,1.05-2.89-.97-2.38,.76-3.57-1.63-2.02-2.7,.5-3.32,3.71-2.6-.58-2.02,.47,.26,1.27-2.28,.76-.69,1.55-1.49,.47v-.83l.79,.29,.18-1.19,1.37-1.05-4.55-.47-2.02-2.13,1.49,.87,.58-1.81,1.73,.97,1.33-.44,.29-.44,.29-.87,1.15,.44,.1-.65,1.01,.93,.22-1.11,1.73,.76,2.68-.29-.14-.93,.76,.44,2.02-1.81-1.77-.79h-1.45l-.14-.65,1.23,.22-1.63-.44,1.69-.47,.22,.76,2.7,.22-1.45-1.55-.76-1.63,2.1,2.13,.18-.97,.5-2.78,.58,.58,1.98-.87-.58-.22,3.1-.76-2.1-1.09,1.59-.08-.93-1.37,2.38,1.88-.58-3.57,1.19,.87-.61,1.15,.97,1.69,2.52,1.29,2.6-.97-.29-.87,.87-.32-.1,.69-.87,1.09-.36,.76-2.46,.1,1.59,1.41,.18,1.95-.79-1.81,.87,2.16,4.26-.65,2.96-.4,7.9-5.67,3.75-5.28,.22-1.84-1.84-.29,.1,1.41-.04-.14h-.1l.04-.04-.04-.08,.1,.08-.08-.18-.22-.4-.29-.08-.08,.08-.18-.1h-.1l-.18-.08-.04,.08-.08,.1v.04l-.04,.14v.14l.29,.08,.04,.08h.26l.22,.22v.18l.18,.1-.08,.08-.79,.04-.18,.97-.08-.79-.97,.1-.29,.87-.47-2.2-1.19,.44,.87-1.41-1.23,1.27h-2.31l2.42-.97-.9-.76,1.05-.72,1.19-.08-1.27-.69,1.05-.97,.4,.22v-.08l.04,.07v-.02s.08,.08,.08,.08h-.01l.05,.05,1.12,.54,.4-2.74,2.1-2.24,1.15-.18-.5-1.73-.93,1.33-2.5-1.05-1.49,1.23h-.76l.1-.69-2.38,.69-.58-.1-.87-.76-3.89,1.15-4.51-.54-1.15-1.66,1.27,1.33,1.66-1.41,3.47,.54,2.5-2.28,1.98,1.81,1.77-.1,.76,.32,1.73-1.15,2.52,.58-.72-3.97-4.41-.93-3.18-2.06-1.55-2.42,2.02,1.49,2.92,1.73,3.32,1.11,.04-.83,1.81,1.23,.29,3,3,2.2,.08,2.31,1.84-3.18,3.29-2.89,.18-1.41-2.42-2.02,2.13,.76,.58,1.51,2.7-2.38,2.2-5.12-.87,.1,3.75-3.53,.5,.08,.69-.76,2.5-.79-4.66,3-1.88,2.5,1.88-2.2,7.22-4.44,2.42-12.49,.18-10.8,2.46-5.08,.65-.29,3.65-11.15v-5.63l1.63-3.53,.4-1.15-2.1-6.35Zm-91.23,107.72l-5.22,22.24h-3.26l5.4-22.46h-3.38v2.99h-2.71v-6.49h9.17v3.72Zm58.66-21.73l.04-.04v.18h-.29l.26-.14Z"/>
  <polygon class="cls-2" points="160.99 202.86 160.99 202.86 160.99 202.86 160.99 202.86"/>
  <polygon class="cls-2" points="165.04 204.27 166.27 203.73 163.67 203.51 165.04 204.27"/>
  <polygon class="cls-2" points="161.69 204.27 160.99 202.86 160.02 204.31 161.69 204.27"/>
  <polygon class="cls-2" points="163.67 203.51 163.67 203.51 163.67 203.51 163.67 203.51"/>
  <path class="cls-4" d="M81.5,217.36l-.72-.18-.87-.4-1.84,1.12c-.11,.81-.36,1.49-.75,2.03-.55,.76-1.29,1.15-2.23,1.15-.76,0-1.38-.26-1.89-.76l-.11,.03-2.89-.79-1.27,1.05-3.09-2.1c.09,1.58,.36,2.96,.84,4.12,.59,1.43,1.33,2.59,2.23,3.48s1.9,1.53,3,1.92c1.1,.39,2.14,.59,3.12,.59,1.96,0,3.54-.46,4.74-1.37,1.2-.91,2.19-2.06,2.96-3.44,.33-.59,.59-1.16,.79-1.7,.2-.54,.37-1.21,.49-2,.12-.74,.21-1.67,.28-2.81,.02-.3,.03-.63,.04-.97l-.27-.17-2.56,1.19Z"/>
  <path class="cls-3" d="M84.32,208.4c-.04-1.21-.18-2.26-.43-3.14-.24-.84-.62-1.58-1.13-2.22-.51-.64-1.25-1.33-2.23-2.07,.9-.64,1.6-1.23,2.11-1.77,.51-.54,.91-1.21,1.19-2,.25-.74,.4-1.68,.46-2.81s.09-2.61,.09-4.44c0-3.2-.18-5.62-.55-7.25-.2-.84-.46-1.55-.76-2.14s-.66-1.18-1.07-1.77c-.57-.84-1.42-1.66-2.54-2.48s-2.54-1.22-4.25-1.22c-1.31,0-2.53,.3-3.67,.89-1.14,.59-2.14,1.38-3,2.37-.86,.99-1.53,2.17-2.02,3.55-.49,1.38-.73,2.83-.73,4.36v4.36h6.24v-4.29c0-.79,.23-1.6,.7-2.44,.47-.84,1.25-1.26,2.35-1.26,.94,0,1.68,.35,2.23,1.04,.55,.69,.83,1.58,.83,2.66v6.8c0,1.97-.36,3.23-1.07,3.77-.71,.54-2.01,.81-3.88,.81v6.65c1.02,0,1.84,.05,2.48,.15s1.13,.34,1.5,.74c.65,.64,.98,2,.98,4.07v7.54c0,.37-.03,.71-.08,1.04l1.84-1.12,.87,.4,.72,.18,2.56-1.19,.27,.17c.03-.95,.05-2.05,.05-3.32,0-1.87-.02-3.41-.06-4.62Z"/>
  <path class="cls-3" d="M70.19,219.56l2.89,.79,.11-.03c-.12-.12-.24-.24-.34-.38-.55-.76-.83-1.74-.83-2.92v-3.92h-6.24v4.29c0,.39,.02,.76,.04,1.13l3.09,2.1,1.27-1.05Z"/>
  <polygon class="cls-4" points="95.33 210.25 95.02 210.27 89.28 228.18 96.25 228.18 101.65 210.73 96.31 209.85 95.33 210.25"/>
  <path class="cls-3" d="M104.96,199.75c.14-.62,.27-1.32,.4-2.11,.08-.74,.14-1.64,.18-2.7,.04-1.06,.06-2.4,.06-4.03,0-1.72-.02-3.14-.06-4.25-.04-1.11-.1-2.06-.18-2.85-.12-.74-.29-1.38-.49-1.92-.21-.54-.45-1.11-.73-1.7-.82-1.58-1.9-2.82-3.24-3.73-1.35-.91-2.87-1.37-4.59-1.37s-3.25,.44-4.62,1.33c-1.37,.89-2.46,2.14-3.27,3.77-.29,.59-.52,1.16-.7,1.7-.18,.54-.32,1.18-.4,1.92-.12,.79-.2,1.74-.24,2.85-.04,1.11-.06,2.53-.06,4.25,0,2.07,.02,3.78,.06,5.14,.04,1.36,.12,2.48,.24,3.36,.08,.89,.2,1.62,.37,2.18,.16,.57,.39,1.1,.67,1.59,.53,.99,1.26,1.8,2.2,2.44,.94,.64,1.96,.96,3.06,.96,.69,0,1.25-.06,1.68-.18,.43-.12,.74-.28,.95-.48l.12,.15-1.35,4.2,.31-.02,.97-.4,5.34,.88,2.79-9.03c.2-.69,.38-1.34,.52-1.96Zm-5.6-3.59c0,1.13-.31,2.05-.92,2.74-.61,.69-1.33,1.04-2.14,1.04s-1.53-.34-2.14-1.04c-.61-.69-.92-1.6-.92-2.74v-9.76c0-1.13,.31-2.04,.92-2.74,.61-.69,1.32-1.04,2.14-1.04s1.53,.35,2.14,1.04c.61,.69,.92,1.6,.92,2.74v9.76Z"/>
  <rect class="cls-4" x="107.42" y="224.46" width="3.08" height="3.72"/>
  <path class="cls-4" d="M120.29,217.59l-1.52,.13c.07,.32,.1,.7,.1,1.16v3.72c0,.63-.14,1.14-.41,1.51s-.64,.56-1.1,.56-.83-.19-1.1-.56c-.27-.38-.41-.86-.41-1.44v-1.93h-3.08v2.11c0,1.02,.15,1.88,.44,2.59,.29,.71,.66,1.28,1.1,1.71,.44,.44,.93,.75,1.48,.95s1.06,.29,1.54,.29c.96,0,1.74-.22,2.34-.67,.59-.45,1.08-1.01,1.46-1.7,.16-.29,.29-.57,.39-.84s.18-.6,.24-.98c.06-.36,.11-.83,.14-1.39,.03-.56,.04-1.26,.04-2.12,0-.92,0-1.68-.03-2.28-.02-.52-.08-.97-.17-1.37l-1.16,.57-.29-.04Z"/>
  <path class="cls-3" d="M121.16,215.78c-.25-.32-.62-.66-1.1-1.02,.44-.32,.79-.61,1.04-.88,.25-.27,.45-.59,.59-.98,.12-.36,.2-.83,.23-1.39,.03-.56,.04-1.29,.04-2.19,0-1.58-.09-2.77-.27-3.57-.1-.41-.23-.77-.38-1.06-.15-.29-.33-.58-.53-.88-.28-.41-.7-.82-1.25-1.22s-1.25-.6-2.1-.6c-.64,0-1.25,.15-1.81,.44-.56,.29-1.06,.68-1.48,1.17-.42,.49-.75,1.07-1,1.75s-.36,1.4-.36,2.15v2.15h3.08v-2.12c0-.39,.12-.79,.35-1.2,.23-.41,.62-.62,1.16-.62,.46,0,.83,.17,1.1,.51,.27,.34,.41,.78,.41,1.31v3.36c0,.97-.18,1.59-.53,1.86s-.99,.4-1.92,.4v3.28c.5,0,.91,.02,1.22,.07,.31,.05,.56,.17,.74,.37,.18,.17,.3,.46,.38,.84l1.52-.13,.29,.04,1.16-.57c-.01-.06-.02-.13-.04-.18-.12-.41-.31-.78-.56-1.09Z"/>
  <polygon class="cls-4" points="126.36 221.25 124.7 228.18 127.96 228.18 128.7 224.98 127.88 225.1 126.36 221.25"/>
  <polygon class="cls-3" points="133.17 202.22 124.01 202.22 124.01 208.71 126.72 208.71 126.72 205.72 130.1 205.72 126.36 221.25 127.88 225.1 128.7 224.98 133.17 205.93 133.17 202.22"/>
  <polygon class="cls-3" points="135.22 208.71 137.94 208.71 137.94 205.72 141.31 205.72 135.92 228.18 139.17 228.18 144.39 205.93 144.39 202.22 135.22 202.22 135.22 208.71"/>
  <path class="cls-1" d="M221.43,59.9c0-.53-.14-.97-.41-1.31-.27-.34-.64-.51-1.1-.51-.54,0-.93,.21-1.16,.62s-.35,.81-.35,1.2v2.12h-.09l2.98,2.37c.08-.3,.12-.67,.12-1.13v-3.35Z"/>
  <polygon class="cls-1" points="166.87 46.3 166.87 46.34 167.19 46.44 166.87 46.3"/>
  <path class="cls-1" d="M21.97,16.2V95.13h42.43l.76-1.52-.26-1.27-1.66-1.51,1.45-1.09,1.77-.1v-.65l3.65,.69,4.23-1.84,1.09-1.66,3.53,.5,2.31,2.31,4.11-2.2,1.01,1.98,1.01-1.05,3,1.05,2.92-2.68,1.11,.65,1.84-1.11,2.42,1.15,.1,.47,4.05-.5,2.02-2.2-.44-4.11,1.37-1.63,2.02,.36,3.29-2.1,2.86-.14v.04l1.27,.54,6.39-4.9-2.13-1.45,1.51-3.32,1.45-.69,3.1-.04,3.25,2.89,.61,1.59-.61-2.24,.47-1.45,.61-.08-.5-.9,1.49-1.99h1.23l-.08-.58,1.29-.29-.72-.32,.87-.83,.29,.87,.93-.61-.22-3.83,2.89-8.77,3.97-4.23,1.63-.29,.79,1.55,1.05-1.19,.36,.97,1.01-.29-1.09-1.09,2.1,.29-.08,.61,.69-.32-.47-.29,4.11-.47-.47,.76,1.63-.14-1.05-.04,1.51-.93,1.05,.47,1.77,.18v1.45l1.98-1.15,.22-.83-.76-.1,2.31-.1,2.5,.79-.08-.9,1.88-.29-1.29,.32,2.38,.29v2.02l1.51,.29,.32-.69v-.87l-.79-.29-.93,1.51,1.05-2.7,1.84,1.09-.54,.61,.04,.04,.61-.58-.1-.08h.18l.93,.79-2.16,.47,3.14-.18,.1-.61,1.27,.79,3.65-.79-.08,.79,.67,.05v-2.43l-1.63,.74,.18-.9,.36-.36h0s1.09,.3,1.09,.3v-8.74l-6.24,5.55v-7.99l6.24-5.54h6.24v18.47l4.51,1.24,3.08,.3v-9.14c0-1.77,.25-3.35,.76-4.73,.51-1.38,1.19-2.56,2.05-3.55,.86-.99,1.84-1.74,2.96-2.26s2.29-.78,3.52-.78,2.39,.26,3.52,.78c1.12,.52,2.11,1.27,2.96,2.26,.86,.99,1.54,2.17,2.05,3.55,.51,1.38,.76,2.96,.76,4.73v15.38l1.36,.87,5.84,4.65c.02-.67,.13-1.32,.34-1.94,.24-.68,.57-1.26,.99-1.75,.42-.49,.92-.88,1.48-1.17,.56-.29,1.17-.44,1.81-.44,.85,0,1.54,.2,2.1,.6,.55,.4,.97,.81,1.25,1.22,.2,.29,.38,.58,.53,.88,.15,.29,.28,.64,.38,1.06,.18,.8,.27,1.99,.27,3.57,0,.9-.01,1.63-.04,2.19-.03,.56-.11,1.02-.23,1.39-.14,.39-.34,.72-.59,.98-.04,.05-.11,.1-.16,.15l5.77,5.47,2.31,3.25,.56,1.56s.1-.09,.14-.15c.25-.34,.38-.81,.38-1.42v-6.09c0-.51-.14-.95-.41-1.31-.27-.36-.62-.55-1.04-.55-.26,0-.48,.05-.66,.17-.18,.11-.33,.24-.45,.38-.12,.15-.21,.3-.27,.47-.1,.22-.16,.35-.18,.4h-2.71v-14h8.8v3.5h-6.09v7c.28-.34,.64-.63,1.08-.86,.44-.23,.94-.35,1.48-.35,1.04,0,1.89,.38,2.55,1.15,.65,.77,.98,1.91,.98,3.45v6.71c0,.88-.12,1.65-.38,2.33-.25,.68-.59,1.26-1.01,1.75-.29,.34-.63,.6-.98,.82l1.29,3.58,.69,9.35-.47-.5,.36,.69-.47,.9,.22,1.02h31.26V16.2H21.97Zm132.62,29.38l-1.27-.87-1.27,.87,.18-1.19h0l-.1,.18-1.59,.04,1.69-.22h0s0,0,0,0l.87-.1h0s4.26,1,4.26,1l-2.78,.29Zm89.91,34.96h-3.08v-22.02l-3.07,2.73v-3.94l3.07-2.74h3.08v25.96Z"/>
  <path class="cls-1" d="M201.06,36.06c-.57-.71-1.31-1.07-2.2-1.07s-1.63,.36-2.2,1.07c-.57,.72-.86,1.62-.86,2.7v9.74l1.23,.12,4.89,1.8v-11.65c0-1.08-.29-1.98-.86-2.7Z"/>
  <path class="cls-5" d="M195.8,48.5v21.17c0,1.08,.29,1.98,.86,2.7,.57,.72,1.3,1.07,2.2,1.07s1.63-.36,2.2-1.07c.57-.71,.86-1.61,.86-2.7v-19.26l-4.89-1.8-1.23-.12Z"/>
  <polygon class="cls-5" points="174.66 44.3 174.66 44.31 174.3 44.67 174.12 45.57 175.75 44.82 175.75 44.61 174.66 44.3"/>
  <polygon class="cls-5" points="152.13 44.57 152.23 44.39 150.54 44.61 152.13 44.57"/>
  <polygon class="cls-5" points="153.1 44.29 152.23 44.39 152.05 45.58 153.32 44.71 154.59 45.58 157.37 45.29 153.1 44.27 153.1 44.29"/>
  <polygon class="cls-5" points="152.23 44.39 152.23 44.39 152.23 44.39 152.23 44.39"/>
  <polygon class="cls-4" points="177.83 46.3 179.1 45.82 176.07 44.73 176.02 44.71 176.03 44.71 176.07 44.73 181.99 46.36 181.99 27.89 175.75 27.89 169.51 33.44 169.51 41.42 175.75 35.88 175.75 44.61 176.03 44.7 175.75 44.82 175.75 47.25 177.58 47.39 177.83 46.3"/>
  <polygon class="cls-3" points="175.75 44.61 175.75 44.82 176.03 44.7 175.75 44.61"/>
  <polygon class="cls-3" points="176.02 44.71 176.07 44.73 176.03 44.71 176.02 44.71"/>
  <polygon class="cls-3" points="181.99 80.54 181.99 46.36 176.07 44.73 179.1 45.82 177.83 46.3 177.58 47.39 175.75 47.25 175.75 80.54 181.99 80.54"/>
  <path class="cls-4" d="M195.8,38.76c0-1.08,.29-1.98,.86-2.7,.57-.71,1.3-1.07,2.2-1.07s1.63,.36,2.2,1.07c.57,.72,.86,1.62,.86,2.7v11.65l.89,.33,5.35,3.4v-15.38c0-1.77-.25-3.35-.76-4.73-.51-1.38-1.19-2.56-2.05-3.55-.86-.99-1.85-1.74-2.96-2.26-1.12-.52-2.29-.78-3.52-.78s-2.39,.26-3.52,.78-2.11,1.27-2.96,2.26c-.86,.99-1.54,2.17-2.05,3.55-.51,1.38-.76,2.96-.76,4.73v9.14l6.24,.6v-9.74Z"/>
  <path class="cls-3" d="M190.33,74.4c.51,1.38,1.19,2.56,2.05,3.55,.86,.99,1.84,1.74,2.96,2.25s2.29,.78,3.52,.78,2.39-.26,3.52-.78c1.12-.52,2.11-1.27,2.96-2.25,.86-.99,1.54-2.17,2.05-3.55s.76-2.96,.76-4.73v-15.53l-5.35-3.4-.89-.33v19.26c0,1.08-.29,1.98-.86,2.7-.57,.72-1.31,1.07-2.2,1.07s-1.63-.36-2.2-1.07c-.57-.71-.86-1.61-.86-2.7v-21.17l-6.24-.6v21.77c0,1.77,.25,3.35,.76,4.73Z"/>
  <rect class="cls-3" x="209.97" y="76.82" width="3.08" height="3.72"/>
  <path class="cls-6" d="M218.42,62.02v-2.12c0-.39,.12-.79,.35-1.2s.62-.62,1.16-.62c.46,0,.83,.17,1.1,.51,.27,.34,.41,.78,.41,1.31v3.35c0,.46-.04,.83-.12,1.13l.41,.33,1.77,1.68s.11-.1,.16-.15c.25-.27,.45-.6,.59-.98,.12-.37,.2-.83,.23-1.39,.03-.56,.04-1.29,.04-2.19,0-1.58-.09-2.77-.27-3.57-.1-.41-.22-.77-.38-1.06-.15-.29-.33-.58-.53-.88-.28-.41-.7-.82-1.25-1.22-.55-.4-1.25-.6-2.1-.6-.64,0-1.25,.15-1.81,.44-.56,.29-1.05,.68-1.48,1.17-.42,.49-.75,1.07-.99,1.75-.22,.62-.32,1.27-.34,1.94l2.97,2.36h.09Z"/>
  <path class="cls-3" d="M215.34,62.02h2.99l-2.97-2.36c0,.07-.02,.14-.02,.21v2.15Z"/>
  <path class="cls-3" d="M221.31,64.39c-.09,.34-.22,.59-.41,.73-.35,.27-.99,.4-1.91,.4v3.28c.5,0,.91,.02,1.22,.07,.31,.05,.56,.17,.74,.37,.32,.32,.48,.98,.48,2v3.72c0,.63-.14,1.14-.41,1.51s-.64,.56-1.1,.56-.83-.19-1.1-.56-.41-.86-.41-1.44v-1.93h-3.08v2.11c0,1.02,.14,1.88,.44,2.59,.29,.71,.66,1.28,1.1,1.71,.44,.44,.94,.75,1.48,.95s1.05,.29,1.54,.29c.96,0,1.74-.22,2.34-.67,.59-.45,1.08-1.01,1.46-1.7,.16-.29,.29-.57,.39-.84,.1-.27,.18-.6,.24-.98,.06-.36,.11-.83,.13-1.39,.03-.56,.04-1.26,.04-2.12,0-.92,0-1.68-.03-2.28s-.09-1.11-.21-1.55c-.12-.41-.31-.78-.56-1.09-.25-.32-.62-.66-1.1-1.02,.36-.26,.65-.5,.88-.73l-1.77-1.68-.41-.33Z"/>
  <path class="cls-6" d="M234.34,79.26c.42-.49,.76-1.07,1.01-1.75,.25-.68,.38-1.46,.38-2.33v-6.71c0-1.53-.33-2.68-.98-3.45-.65-.77-1.5-1.15-2.55-1.15-.54,0-1.04,.12-1.48,.35-.44,.23-.8,.52-1.08,.86v-7h6.09v-3.5h-8.8v14h2.71s.08-.18,.18-.4c.06-.17,.15-.33,.27-.47,.12-.15,.27-.27,.45-.38,.18-.11,.4-.17,.66-.17,.42,0,.77,.18,1.04,.55,.27,.37,.41,.8,.41,1.31v6.09c0,.61-.13,1.08-.38,1.42-.04,.06-.09,.1-.14,.15l1.22,3.41c.35-.23,.69-.49,.98-.82Z"/>
  <path class="cls-3" d="M231.2,77.04c-.46,0-.84-.18-1.13-.53-.29-.35-.44-.84-.44-1.48v-.95h-3.08v1.09c0,.88,.12,1.65,.38,2.33,.25,.68,.59,1.26,1.01,1.75s.91,.86,1.46,1.11,1.13,.38,1.73,.38,1.18-.13,1.73-.38c.17-.08,.32-.19,.48-.29l-1.22-3.41c-.24,.24-.55,.36-.93,.36Z"/>
  <polygon class="cls-6" points="238.35 57.31 238.35 61.25 241.42 58.51 241.42 80.54 244.5 80.54 244.5 54.58 241.42 54.58 238.35 57.31"/>
  <polygon class="cls-1" points="98.79 87.24 102.84 86.74 103.75 85.75 96.56 85.75 98.69 86.77 98.79 87.24"/>
  <polygon class="cls-1" points="166.87 46.3 166.87 46.34 167.19 46.44 166.87 46.3"/>
  <rect class="cls-1" x="209.97" y="76.82" width="3.08" height="3.72"/>
  <polygon class="cls-2" points="234.8 85.75 103.75 85.75 102.84 86.74 98.79 87.24 98.69 86.77 96.56 85.75 96.04 85.75 94.42 86.73 93.31 86.07 90.39 88.75 87.39 87.7 86.38 88.75 85.37 86.77 81.26 88.97 78.95 86.66 75.42 86.16 74.33 87.83 70.1 89.67 66.45 88.98 66.45 89.63 64.69 89.74 63.24 90.83 64.91 92.34 65.16 93.6 64.4 95.13 234.96 95.13 234.75 94.1 235.22 93.21 234.86 92.52 235.34 93.02 234.8 85.75"/>
  <polygon class="cls-5" points="96.27 85.61 96.04 85.75 96.56 85.75 96.27 85.61"/>
  <path class="cls-5" d="M234.64,83.67l-1.29-3.58c-.16,.1-.31,.21-.48,.29-.55,.25-1.13,.38-1.73,.38s-1.18-.13-1.73-.38-1.04-.63-1.46-1.11-.76-1.07-1.01-1.75c-.25-.68-.38-1.46-.38-2.33v-1.09h3.08v.95c0,.63,.14,1.12,.44,1.48,.29,.35,.67,.53,1.13,.53,.39,0,.69-.12,.93-.36l-.56-1.56-2.31-3.25-5.77-5.47c-.23,.23-.52,.47-.88,.73,.48,.36,.85,.71,1.1,1.02,.25,.32,.44,.68,.56,1.09,.12,.44,.19,.95,.21,1.55s.03,1.36,.03,2.28c0,.85-.01,1.56-.04,2.12-.03,.56-.07,1.02-.13,1.39-.06,.39-.14,.72-.24,.98-.1,.27-.23,.55-.39,.84-.38,.68-.87,1.25-1.46,1.7-.59,.45-1.37,.67-2.34,.67-.48,0-.99-.1-1.54-.29s-1.04-.51-1.48-.95c-.44-.44-.81-1.01-1.1-1.71-.29-.71-.44-1.57-.44-2.59v-2.11h3.08v1.93c0,.58,.13,1.06,.41,1.44s.64,.56,1.1,.56,.83-.19,1.1-.56,.41-.88,.41-1.51v-3.72c0-1.02-.16-1.69-.48-2-.18-.19-.43-.32-.74-.37-.31-.05-.72-.07-1.22-.07v-3.28c.92,0,1.56-.13,1.91-.4,.19-.14,.32-.39,.41-.73l-2.98-2.37h-2.99v-2.15c0-.07,.02-.14,.02-.21l-5.84-4.65-1.36-.87v15.53c0,1.77-.25,3.35-.76,4.73s-1.19,2.56-2.05,3.55c-.86,.99-1.85,1.74-2.96,2.25-1.12,.52-2.29,.78-3.52,.78s-2.39-.26-3.52-.78-2.11-1.27-2.96-2.25c-.86-.99-1.54-2.17-2.05-3.55s-.76-2.96-.76-4.73v-21.77l-3.08-.3-4.51-1.24v34.18h-6.24V47.25l-.67-.05,.08-.79-3.65,.79-1.27-.79-.1,.61-3.14,.18,2.16-.47-.93-.79h-.18l.1,.08-.61,.58-.04-.04,.54-.61-1.84-1.09-1.05,2.7,.93-1.51,.79,.29h0v-.04l.32,.14-.32-.1h0v.87l-.32,.69-1.51-.29v-2.02l-2.38-.29,1.29-.32-1.88,.29,.08,.9-2.5-.79-2.31,.1,.76,.1-.22,.83-1.98,1.15v-1.45l-1.77-.18-1.05-.47-1.51,.93,1.05,.04-1.63,.14,.47-.76-4.11,.47,.47,.29-.69,.32,.08-.61-2.1-.29,1.09,1.09-1.01,.29-.36-.97-1.05,1.19-.79-1.55-1.63,.29-3.97,4.23-2.89,8.77,.22,3.83-.93,.61-.29-.87-.87,.83,.72,.32-1.29,.29,.08,.58h-1.23l-1.49,1.99,.5,.9-.61,.08-.47,1.45,.61,2.24-.61-1.59-3.25-2.89-3.1,.04-1.45,.69-1.51,3.32,2.13,1.45-6.39,4.9-1.27-.54v-.04l-2.86,.14-3.29,2.1-2.02-.36-1.37,1.63,.44,4.11-1.12,1.22H234.8l-.15-2.09Zm-21.6-3.13h-3.08v-3.72h3.08v3.72Z"/>
</svg>