<?xml version="1.0" encoding="UTF-8"?>
<svg id="Layer_1" data-name="Layer 1" xmlns="http://www.w3.org/2000/svg" viewBox="0 0 283.46 283.46">
  <defs>
    <style>
      .cls-1 {
        fill: none;
      }

      .cls-2 {
        fill: #f25d55;
      }

      .cls-3 {
        fill: #fff;
      }

      .cls-4 {
        fill: #d1c1c1;
      }

      .cls-5 {
        fill: #6d8cf2;
      }

      .cls-6 {
        fill: #606060;
      }
    </style>
  </defs>
  <polygon class="cls-1" points="166.87 46.3 166.87 46.34 167.19 46.44 166.87 46.3"/>
  <path class="cls-1" d="M75.09,221.08c.94,0,1.68-.38,2.23-1.15,.39-.54,.64-1.23,.75-2.03l-1.77,1.08-.4,.4-.79,.36-1.91,.58c.51,.5,1.13,.76,1.89,.76Z"/>
  <polygon class="cls-1" points="203.09 184.16 203.05 184.2 202.79 184.34 203.09 184.34 203.09 184.16"/>
  <polygon class="cls-2" points="161.69 204.27 160.99 202.86 160.02 204.31 161.69 204.27"/>
  <polygon class="cls-2" points="163.67 203.51 163.67 203.51 163.67 203.51 163.67 203.51"/>
  <path class="cls-2" d="M128.59,205.72c-.4,0-.75,.17-1.06,.51-.3,.34-.45,.79-.45,1.35v4.81c0,.56,.15,1.01,.45,1.35,.3,.34,.65,.51,1.06,.51s.75-.17,1.05-.51c.3-.34,.45-.79,.45-1.35v-4.81c0-.56-.15-1.01-.45-1.35-.3-.34-.65-.51-1.05-.51Z"/>
  <polygon class="cls-2" points="199.99 179.67 200.09 181.46 201.24 180.92 200.1 179.78 200.03 179.74 199.99 179.67"/>
  <polygon class="cls-2" points="152.23 44.39 152.23 44.39 152.23 44.39 152.23 44.39"/>
  <polygon class="cls-2" points="152.13 44.57 152.23 44.39 150.54 44.61 152.13 44.57"/>
  <polygon class="cls-2" points="173.63 217.09 173.06 219.58 170.89 219.8 171.58 221.35 170.47 222.11 170.04 223.55 171.19 223.95 170.89 223.26 172.78 224.41 177.86 219.9 180.14 216.04 180.13 216.04 173.63 217.09"/>
  <polygon class="cls-2" points="168.58 220.84 169.59 223.44 170.82 220.88 170.71 219.69 170.02 219.58 170.02 219.57 168.58 220.84"/>
  <polygon class="cls-2" points="176.02 44.71 176.07 44.73 176.03 44.71 176.02 44.71"/>
  <polygon class="cls-2" points="179.87 192.28 177.92 193.15 177.96 192.57 174.65 196.19 175.08 196.88 178.73 196.4 181.73 194.89 182.96 193.34 179.88 192.29 179.87 192.28"/>
  <polygon class="cls-2" points="160.99 202.86 160.99 202.86 160.99 202.86 160.99 202.86"/>
  <polygon class="cls-2" points="200.07 179.73 199.99 179.65 199.99 179.67 200.03 179.74 200.1 179.78 200.05 179.73 200.07 179.73"/>
  <polygon class="cls-2" points="202.41 182.07 200.11 182.18 199.78 183.01 201.27 183.76 202.42 182.07 202.41 182.07"/>
  <polygon class="cls-2" points="202.59 183.11 202.69 183.19 202.69 182.61 202.65 182.36 202.51 182.18 202.47 182.32 202.37 182.53 202.41 182.71 202.37 182.89 202.19 182.93 202.01 182.83 202.01 182.93 202.09 182.93 202.01 183.01 202.59 183.11"/>
  <polygon class="cls-2" points="202.59 181.59 202.6 181.59 202.59 181.57 202.59 181.59"/>
  <polygon class="cls-2" points="153.32 44.71 154.59 45.58 157.37 45.29 153.1 44.27 153.1 44.29 152.23 44.39 152.05 45.58 153.32 44.71"/>
  <path class="cls-2" d="M139.81,215.93c-.4,0-.75,.18-1.06,.53-.3,.35-.45,.78-.45,1.29v5.1c0,.51,.15,.94,.45,1.29s.65,.53,1.06,.53,.75-.18,1.05-.53c.3-.35,.45-.78,.45-1.29v-5.1c0-.51-.15-.94-.45-1.29-.3-.35-.65-.53-1.05-.53Z"/>
  <path class="cls-2" d="M139.81,205.72c-.4,0-.75,.18-1.06,.53s-.45,.78-.45,1.29v3.79c0,.51,.15,.94,.45,1.29,.3,.35,.65,.53,1.06,.53s.75-.18,1.05-.53c.3-.35,.45-.78,.45-1.29v-3.79c0-.51-.15-.94-.45-1.29-.3-.35-.65-.53-1.05-.53Z"/>
  <path class="cls-2" d="M235.62,98.22l-.87-4.11,.47-.9-.36-.69,.47,.5-.69-9.35-3.07-8.55-2.31-3.25-7.54-7.15-12.2-9.71-6.71-4.26-5.78-2.13-10.54-1.01-10.42-2.88,3.03,1.1-1.27,.47-.26,1.09-2.5-.18,.08-.79-3.65,.79-1.27-.79-.1,.61-3.14,.18,2.16-.47-.93-.79h-.18l.1,.08-.61,.58-.04-.04,.54-.61-1.84-1.09-1.05,2.7,.93-1.51,.79,.29h0v-.04l.32,.14-.32-.1h0v.87l-.32,.69-1.51-.29v-2.02l-2.38-.29,1.29-.32-1.88,.29,.08,.9-2.5-.79-2.31,.1,.76,.1-.22,.83-1.98,1.15v-1.45l-1.77-.18-1.05-.47-1.51,.93,1.05,.04-1.63,.14,.47-.76-4.11,.47,.47,.29-.69,.32,.08-.61-2.1-.29,1.09,1.09-1.01,.29-.36-.97-1.05,1.19-.79-1.55-1.63,.29-3.97,4.23-2.89,8.77,.22,3.83-.93,.61-.29-.87-.87,.83,.72,.32-1.29,.29,.08,.58h-1.23l-1.49,1.99,.5,.9-.61,.08-.47,1.45,.61,2.24-.61-1.59-3.25-2.89-3.1,.04-1.45,.69-1.51,3.32,2.13,1.45-6.39,4.9-1.27-.54v-.04l-2.86,.14-3.29,2.1-2.02-.36-1.37,1.63,.44,4.11-2.02,2.2-4.05,.5-.1-.47-2.42-1.15-1.84,1.11-1.11-.65-2.92,2.68-3-1.05-1.01,1.05-1.01-1.98-4.11,2.2-2.31-2.31-3.53-.5-1.09,1.66-4.23,1.84-3.65-.69v.65l-1.77,.1-1.45,1.09,1.66,1.51,.26,1.27-1.98,3.97,1.51,1.63,4.09-1.19,.76,.44,.65,1.88-.93,.61,1.41,1.41,.1,1.15-.97,1.55,4.66,2.42-.32,2.13,1.45,2.86-.93,.87-1.33,2.92,.76,.47-3.69,2.7-.47,.18,.1,.97-1.81,2.2-4.33,.97,.58,.69-.72,1.73,1.66,1.41-.47,1.05,1.33,.22,.1,2.02-4.23,.76,.47,.32-2.06,3.18,.87,2.46-.65,1.66-1.95,.5-1.69-2.42-1.91-.69-3.29,1.37,1.41,5.16-2.31,4.15,1.95,.76,1.23,.87-.18,3.36-.83,.29,.54,1.84,2.13,.5,1.27,2.89-1.05,2.38-1.95,1.45-2.82,4.09,2.02,1.45,.22,1.73-.79,.65,.58,.97-1.41,1.41,1.33,3.47-.58,.4-.65,1.73-.79-.08,.18,1.55-.97,.26-1.45,4.15,.79,1.15,1.51-.22,1.66,1.84,2.5,.1,.9,1.23,1.98,.61,3.69,4.88-.47,.87-.72-.26-.29-.58-1.91,3.14-4.01-1.63-1.15,.87-1.55-.29-2.24-3.14,.61-1.01-.72-1.11-1.63,.1-2.2,1.99,1.73,3,1.15-.36,1.91,2.56-.36,.97,1.41,3,4.76,2.56,2.02-.58,1.15,2.02,.72-.54,.72,.69,.29,1.41-.9,1.45,1.49,1.84-.1,2.1,1.73-.26-.04,.4,1.09-.14,.47,.87-.69,.97-.54-.29-.1,1.19-1.09-.29,.44,1.45-.61,1.45,1.45,4.11,1.73,.65v-3.89l.27,.18c-.02-.37-.04-.74-.04-1.13v-4.29h6.24v3.92c0,1.18,.27,2.16,.83,2.92,.11,.15,.22,.27,.34,.38l1.91-.58,.79-.36,.4-.4,1.77-1.08c.05-.33,.08-.67,.08-1.04v-7.54c0-2.07-.33-3.42-.98-4.07-.37-.39-.87-.64-1.5-.74s-1.46-.15-2.48-.15v-6.65c1.88,0,3.17-.27,3.88-.81,.71-.54,1.07-1.8,1.07-3.77v-6.8c0-1.08-.28-1.97-.83-2.66-.55-.69-1.29-1.04-2.23-1.04-1.1,0-1.89,.42-2.35,1.26-.47,.84-.7,1.65-.7,2.44v4.29h-6.24v-4.36c0-1.53,.24-2.98,.73-4.36,.49-1.38,1.16-2.56,2.02-3.55,.86-.99,1.85-1.77,3-2.37,1.14-.59,2.36-.89,3.67-.89,1.71,0,3.13,.41,4.25,1.22s1.97,1.64,2.54,2.48c.41,.59,.76,1.18,1.07,1.77s.56,1.31,.76,2.14c.37,1.63,.55,4.04,.55,7.25,0,1.82-.03,3.3-.09,4.44s-.21,2.07-.46,2.81c-.29,.79-.68,1.45-1.19,2-.51,.54-1.21,1.13-2.11,1.77,.98,.74,1.72,1.43,2.23,2.07,.51,.64,.89,1.38,1.13,2.22,.25,.89,.39,1.94,.43,3.14,.04,1.21,.06,2.75,.06,4.62,0,1.27-.02,2.37-.05,3.32l.23,.15,.47-1.77,3-.76,.65-1.15,.97,.76,.69-.58,.76-.58,.69-1.91,3.53-.26,.97-.4,3.06,.51v-5.54c0-1.04-.28-1.92-.83-2.66-.55-.74-1.25-1.11-2.11-1.11-.53,0-.98,.11-1.35,.33s-.67,.48-.92,.78c-.25,.3-.43,.62-.55,.96-.2,.44-.33,.71-.37,.81h-5.5v-28.39h17.86v7.1h-12.35v14.2c.57-.69,1.3-1.27,2.2-1.74,.9-.47,1.9-.7,3-.7,2.12,0,3.84,.78,5.17,2.33,1.32,1.55,1.99,3.88,1.99,6.99v12.38l1.18,.42-.26,1.11,1.55,1.59,2.56,1.29,1.27-.08,.22-1.09,2.86-1.05,.69-.29,.27-.02,2.94-12.24h-3.38v2.99h-2.71v-6.49h9.17v3.72l-2.75,11.75,1.09-.09,.29,.04,1.84-.9,2.31,1.73,.93,1.15-.76,.87,1.23,.22,.76,1.93,1.72-5.35-.06-.07c-.1,.1-.26,.18-.47,.24-.21,.06-.49,.09-.83,.09-.54,0-1.05-.16-1.51-.47-.46-.32-.82-.72-1.09-1.2-.14-.24-.25-.5-.33-.78-.08-.28-.14-.64-.18-1.08-.06-.44-.1-.99-.12-1.66-.02-.67-.03-1.51-.03-2.54,0-.85,0-1.55,.03-2.1,.02-.55,.06-1.01,.12-1.4,.04-.37,.11-.68,.2-.95s.21-.55,.35-.84c.4-.8,.94-1.42,1.61-1.86s1.43-.66,2.28-.66,1.6,.22,2.26,.67c.66,.45,1.2,1.06,1.6,1.84,.14,.29,.26,.57,.36,.84,.1,.27,.18,.58,.24,.95,.04,.39,.07,.86,.09,1.4,.02,.55,.03,1.25,.03,2.1,0,.8,0,1.46-.03,1.99-.02,.52-.05,.97-.09,1.33-.06,.39-.13,.74-.2,1.04s-.16,.63-.26,.97l-3.01,9.73h.06s1.81,3.13,1.81,3.13h-.93l-4.44,1.19-.1,1.81-.76,.04-.4-1.37-.29,1.27-.65-.04,.47,1.45-1.23,.22,.29,.87-1.29,.65-.18,.61,5.67,3.43,1.27-1.41,1.95-.22,1.51,2.6,1.45,.1,5.89-1.55,.76-4.58-.4-.44,1.15-.72,4.15,.08,2.52-1.05-1.49-.32-1.29-2.68-.1-.58-1.09-.79,1.15,.69,.9,1.63,.93,1.45,.87-.36,1.09,1.33,1.59,.18,4.94-1.91-1.45,.29,.97-.69-2.6-.47,.26-.69-1.27-.18-2.02-.93,5.12,.65,1.37-.47,3.53,.65,6.43,.97,1.55,.4,4.73-4.55-2.6-.58-.79-2.1-1.01,.79,.76-1.73-2.31,.44,3.29-1.91-1.09-1.41,1.23,1.23,3.57-.18-.1-2.06-6.49-.87-1.66-1.51-2.02,.87-1.23-.58-.44-.93,2.31-.4,1.19,.1,2.68,2.28,.61-.54,4.51,.87,3.53-.29,2.5-1.84-.26-3.1,1.05-2.89-.97-2.38,.76-3.57-1.63-2.02-2.7,.5-3.32,3.71-2.6-.58-2.02,.47,.26,1.27-2.28,.76-.69,1.55-1.49,.47v-.83l.79,.29,.18-1.19,1.37-1.05-4.55-.47-2.02-2.13,1.49,.87,.58-1.81,1.73,.97,1.33-.44,.29-.44,.29-.87,1.15,.44,.1-.65,1.01,.93,.22-1.11,1.73,.76,2.68-.29-.14-.93,.76,.44,2.02-1.81-1.77-.79h-1.45l-.14-.65,1.23,.22-1.63-.44,1.69-.47,.22,.76,2.7,.22-1.45-1.55-.76-1.63,2.1,2.13,.18-.97,.5-2.78,.58,.58,1.98-.87-.58-.22,3.1-.76-2.1-1.09,1.59-.08-.93-1.37,2.38,1.88-.58-3.57,1.19,.87-.61,1.15,.97,1.69,2.52,1.29,2.6-.97-.29-.87,.87-.32-.1,.69-.87,1.09-.36,.76-2.46,.1,1.59,1.41,.18,1.95-.79-1.81,.87,2.16,4.26-.65,2.96-.4,7.9-5.67,3.75-5.28,.22-1.84-1.84-.29,.1,1.41-.04-.14h-.1l.04-.04-.04-.08,.1,.08-.08-.18-.22-.4-.29-.08-.08,.08-.18-.1h-.1l-.18-.08-.04,.08-.08,.1v.04l-.04,.14v.14l.29,.08,.04,.08h.26l.22,.22v.18l.18,.1-.08,.08-.79,.04-.18,.97-.08-.79-.97,.1-.29,.87-.47-2.2-1.19,.44,.87-1.41-1.23,1.27h-2.31l2.42-.97-.9-.76,1.05-.72,1.19-.08-1.27-.69,1.05-.97,.4,.22v-.08l.04,.07v-.02s.08,.08,.08,.08h-.01l.05,.05,1.12,.54,.4-2.74,2.1-2.24,1.15-.18-.5-1.73-.93,1.33-2.5-1.05-1.49,1.23h-.76l.1-.69-2.38,.69-.58-.1-.87-.76-3.89,1.15-4.51-.54-1.15-1.66,1.27,1.33,1.66-1.41,3.47,.54,2.5-2.28,1.98,1.81,1.77-.1,.76,.32,1.73-1.15,2.52,.58-.72-3.97-4.41-.93-3.18-2.06-1.55-2.42,2.02,1.49,2.92,1.73,3.32,1.11,.04-.83,1.81,1.23,.29,3,3,2.2,.08,2.31,1.84-3.18,3.29-2.89,.18-1.41-2.42-2.02,2.13,.76,.58,1.51,2.7-2.38,2.2-5.12-.87,.1,3.75-3.53,.5,.08,.69-.76,2.5-.79-4.66,3-1.88,2.5,1.88-2.2,7.22-4.44,2.42-12.49,.18-10.8,2.46-5.08,.65-.29,3.65-11.15v-5.63l1.63-3.53,.4-1.15-2.1-6.35Zm-91.91,117.35c.21,.34,.37,.74,.47,1.2s.16,1.03,.18,1.7c.02,.67,.03,1.49,.03,2.46,0,.8-.01,1.46-.04,1.99-.03,.52-.08,.98-.14,1.37s-.15,.72-.26,.98-.25,.55-.41,.84c-.34,.63-.83,1.17-1.45,1.62-.62,.45-1.39,.67-2.29,.67s-1.67-.22-2.29-.67c-.62-.45-1.11-.99-1.45-1.62-.16-.29-.3-.57-.41-.84-.11-.27-.2-.6-.26-.98s-.11-.84-.14-1.37c-.03-.52-.04-1.18-.04-1.99,0-.97,0-1.79,.03-2.46,.02-.67,.08-1.23,.18-1.7s.26-.86,.47-1.2c.21-.34,.5-.68,.86-1.02-.36-.37-.65-.71-.86-1.04s-.37-.7-.47-1.11-.16-.89-.18-1.42c-.02-.53-.03-1.19-.03-1.97,0-.71,.02-1.31,.06-1.8,.04-.5,.11-.93,.21-1.29s.22-.69,.35-.98,.3-.6,.5-.91c.4-.63,.91-1.12,1.51-1.48,.6-.35,1.26-.53,1.96-.53s1.36,.18,1.96,.53c.6,.35,1.11,.84,1.51,1.48,.2,.32,.37,.62,.51,.91,.14,.29,.26,.62,.36,.98s.17,.8,.2,1.29,.04,1.1,.04,1.8c0,.78,0,1.43-.03,1.97-.02,.54-.08,1.01-.18,1.42s-.26,.78-.47,1.11c-.21,.33-.5,.67-.86,1.04,.36,.34,.65,.68,.86,1.02Zm59.34-31.36l.04-.04v.18h-.29l.26-.14Z"/>
  <polygon class="cls-2" points="174.66 44.3 174.66 44.31 174.3 44.67 174.12 45.57 176.03 44.7 174.66 44.3"/>
  <polygon class="cls-2" points="165.04 204.27 166.27 203.73 163.67 203.51 165.04 204.27"/>
  <polygon class="cls-2" points="203.74 182.34 202.6 181.59 203.24 182.66 203.74 182.34"/>
  <path class="cls-4" d="M81.5,217.36l-.72-.18-.87-.4-1.84,1.12c-.11,.81-.36,1.49-.75,2.03-.55,.76-1.29,1.15-2.23,1.15-.76,0-1.38-.26-1.89-.76l-.11,.03-2.89-.79-1.27,1.05-3.09-2.1c.09,1.58,.36,2.96,.84,4.12,.59,1.43,1.33,2.59,2.23,3.48s1.9,1.53,3,1.92c1.1,.39,2.14,.59,3.12,.59,1.96,0,3.54-.46,4.74-1.37,1.2-.91,2.19-2.06,2.96-3.44,.33-.59,.59-1.16,.79-1.7,.2-.54,.37-1.21,.49-2,.12-.74,.21-1.67,.28-2.81,.02-.3,.03-.63,.04-.97l-.27-.17-2.56,1.19Z"/>
  <path class="cls-3" d="M70.19,219.56l2.89,.79,.11-.03c-.12-.12-.24-.24-.34-.38-.55-.76-.83-1.74-.83-2.92v-3.92h-6.24v4.29c0,.39,.02,.76,.04,1.13l3.09,2.1,1.27-1.05Z"/>
  <path class="cls-3" d="M84.32,208.4c-.04-1.21-.18-2.26-.43-3.14-.24-.84-.62-1.58-1.13-2.22-.51-.64-1.25-1.33-2.23-2.07,.9-.64,1.6-1.23,2.11-1.77,.51-.54,.91-1.21,1.19-2,.25-.74,.4-1.68,.46-2.81s.09-2.61,.09-4.44c0-3.2-.18-5.62-.55-7.25-.2-.84-.46-1.55-.76-2.14s-.66-1.18-1.07-1.77c-.57-.84-1.42-1.66-2.54-2.48s-2.54-1.22-4.25-1.22c-1.31,0-2.53,.3-3.67,.89-1.14,.59-2.14,1.38-3,2.37-.86,.99-1.53,2.17-2.02,3.55-.49,1.38-.73,2.83-.73,4.36v4.36h6.24v-4.29c0-.79,.23-1.6,.7-2.44,.47-.84,1.25-1.26,2.35-1.26,.94,0,1.68,.35,2.23,1.04,.55,.69,.83,1.58,.83,2.66v6.8c0,1.97-.36,3.23-1.07,3.77-.71,.54-2.01,.81-3.88,.81v6.65c1.02,0,1.84,.05,2.48,.15s1.13,.34,1.5,.74c.65,.64,.98,2,.98,4.07v7.54c0,.37-.03,.71-.08,1.04l1.84-1.12,.87,.4,.72,.18,2.56-1.19,.27,.17c.03-.95,.05-2.05,.05-3.32,0-1.87-.02-3.41-.06-4.62Z"/>
  <path class="cls-4" d="M103.75,211.08l-4.38-.72v6.8c0,1.23-.25,2.19-.76,2.88-.51,.69-1.23,1.04-2.17,1.04s-1.7-.36-2.29-1.07c-.59-.71-.89-1.71-.89-2.99v-1.92h-6.24v2.22c0,1.77,.25,3.35,.76,4.73,.51,1.38,1.19,2.56,2.05,3.55,.86,.99,1.84,1.74,2.97,2.25,1.12,.52,2.29,.78,3.52,.78s2.39-.26,3.52-.78c1.12-.52,2.11-1.27,2.97-2.25,.86-.99,1.54-2.17,2.05-3.55s.76-2.96,.76-4.73v-1.23l-1.78-.63-.08-4.37Z"/>
  <path class="cls-3" d="M103.62,196.72c-1.33-1.55-3.05-2.33-5.17-2.33-1.1,0-2.1,.23-3,.7-.9,.47-1.63,1.05-2.2,1.74v-14.2h12.35v-7.1h-17.86v28.39h5.5c.04-.1,.16-.37,.37-.81,.12-.34,.31-.67,.55-.96,.24-.3,.55-.55,.92-.78s.82-.33,1.35-.33c.86,0,1.56,.37,2.11,1.11,.55,.74,.83,1.63,.83,2.66v5.54l4.38,.72,.08,4.37,1.78,.63v-12.38c0-3.11-.66-5.43-1.99-6.99Z"/>
  <rect class="cls-4" x="107.42" y="224.46" width="3.08" height="3.72"/>
  <polygon class="cls-4" points="113.48 228.18 116.74 228.18 119.2 217.68 115.94 217.96 113.48 228.18"/>
  <polygon class="cls-3" points="121.96 202.22 112.79 202.22 112.79 208.71 115.5 208.71 115.5 205.72 118.88 205.72 115.94 217.96 119.2 217.68 121.96 205.93 121.96 202.22"/>
  <polygon class="cls-4" points="126.9 222.62 125.12 228.18 128.56 228.18 129.59 224.86 127.88 225.1 126.9 222.62"/>
  <path class="cls-3" d="M132.86,214.16c.07-.3,.14-.65,.2-1.04,.04-.36,.07-.81,.09-1.33,.02-.52,.03-1.18,.03-1.99,0-.85,0-1.55-.03-2.1-.02-.55-.05-1.01-.09-1.4-.06-.37-.14-.68-.24-.95-.1-.27-.22-.55-.36-.84-.4-.78-.93-1.39-1.6-1.84-.66-.45-1.42-.67-2.26-.67s-1.6,.22-2.28,.66-1.21,1.06-1.61,1.86c-.14,.29-.26,.57-.35,.84s-.16,.58-.2,.95c-.06,.39-.1,.86-.12,1.4-.02,.55-.03,1.25-.03,2.1,0,1.02,0,1.87,.03,2.54,.02,.67,.06,1.22,.12,1.66,.04,.44,.1,.8,.18,1.08,.08,.28,.19,.54,.33,.78,.26,.49,.62,.89,1.09,1.2,.46,.32,.96,.47,1.51,.47,.34,0,.62-.03,.83-.09,.21-.06,.37-.14,.47-.24l.06,.07-1.72,5.35,.97,2.48,1.71-.25,3.01-9.73c.1-.34,.19-.66,.26-.97Zm-2.76-1.77c0,.56-.15,1.01-.45,1.35-.3,.34-.65,.51-1.05,.51s-.75-.17-1.06-.51c-.3-.34-.45-.79-.45-1.35v-4.81c0-.56,.15-1.01,.45-1.35,.3-.34,.65-.51,1.06-.51s.75,.17,1.05,.51c.3,.34,.45,.79,.45,1.35v4.81Z"/>
  <path class="cls-3" d="M144.18,212.39c.1-.41,.16-.89,.18-1.42,.02-.53,.03-1.19,.03-1.97,0-.71-.01-1.31-.04-1.8s-.1-.93-.2-1.29-.22-.69-.36-.98c-.14-.29-.31-.6-.51-.91-.4-.63-.91-1.12-1.51-1.48-.6-.35-1.26-.53-1.96-.53s-1.36,.18-1.96,.53c-.6,.35-1.11,.84-1.51,1.48-.2,.32-.37,.62-.5,.91s-.25,.62-.35,.98-.17,.8-.21,1.29c-.04,.5-.06,1.1-.06,1.8,0,.78,0,1.43,.03,1.97,.02,.54,.08,1.01,.18,1.42s.26,.78,.47,1.11,.5,.67,.86,1.04c-.36,.34-.65,.68-.86,1.02-.21,.34-.37,.74-.47,1.2s-.16,1.03-.18,1.7c-.02,.67-.03,1.49-.03,2.46,0,.8,.01,1.46,.04,1.99,.03,.52,.08,.98,.14,1.37s.15,.72,.26,.98c.11,.27,.25,.55,.41,.84,.34,.63,.82,1.17,1.45,1.62,.62,.45,1.39,.67,2.29,.67s1.67-.22,2.29-.67c.62-.45,1.11-.99,1.45-1.62,.16-.29,.3-.57,.41-.84s.2-.6,.26-.98,.11-.84,.14-1.37c.03-.52,.04-1.18,.04-1.99,0-.97,0-1.79-.03-2.46-.02-.67-.08-1.23-.18-1.7s-.26-.86-.47-1.2c-.21-.34-.5-.68-.86-1.02,.36-.37,.65-.71,.86-1.04,.21-.33,.37-.7,.47-1.11Zm-2.86,10.46c0,.51-.15,.94-.45,1.29-.3,.35-.65,.53-1.05,.53s-.75-.18-1.06-.53-.45-.78-.45-1.29v-5.1c0-.51,.15-.94,.45-1.29,.3-.35,.65-.53,1.06-.53s.75,.18,1.05,.53c.3,.35,.45,.78,.45,1.29v5.1Zm0-11.52c0,.51-.15,.94-.45,1.29-.3,.35-.65,.53-1.05,.53s-.75-.18-1.06-.53c-.3-.35-.45-.78-.45-1.29v-3.79c0-.51,.15-.94,.45-1.29s.65-.53,1.06-.53,.75,.18,1.05,.53c.3,.35,.45,.78,.45,1.29v3.79Z"/>
  <polygon class="cls-1" points="186.49 47.6 194.37 48.36 194.37 44.27 179.38 44.27 179.38 45.64 186.49 47.6"/>
  <polygon class="cls-1" points="166.87 46.3 166.87 46.34 167.19 46.44 166.87 46.3"/>
  <path class="cls-1" d="M229.6,68.82c-.3-.35-.65-.53-1.05-.53s-.75,.18-1.06,.53c-.23,.27-.35,.61-.4,.98l2.18,2.07,.78,1.11v-2.85c0-.51-.15-.94-.45-1.29Z"/>
  <polygon class="cls-1" points="66.45 89.63 66.45 88.98 70.1 89.67 74.33 87.83 75.42 86.16 78.95 86.66 81.26 88.97 85.37 86.77 86.38 88.75 87.39 87.7 90.39 88.75 93.31 86.07 94.42 86.73 96.27 85.61 98.69 86.77 98.79 87.24 102.84 86.74 104.86 84.54 104.43 80.43 105.8 78.8 107.82 79.16 111.11 77.06 113.97 76.92 113.97 76.96 115.24 77.49 121.63 72.59 119.5 71.14 121.01 67.82 122.46 67.13 125.56 67.09 128.81 69.99 129.43 71.58 128.81 69.34 129.28 67.89 129.9 67.81 129.4 66.92 130.89 64.93 132.11 64.93 132.04 64.35 133.33 64.06 132.61 63.74 133.48 62.91 133.78 63.78 134.71 63.16 134.5 59.33 137.39 50.56 141.36 46.34 142.99 46.04 143.78 47.59 144.83 46.4 145.19 47.37 146.2 47.08 145.11 45.99 147.21 46.28 147.14 46.9 147.83 46.58 147.35 46.28 151.47 45.81 150.99 46.57 152.62 46.43 151.57 46.39 153.08 45.45 154.13 45.93 155.9 46.1 155.9 47.55 157.88 46.4 158.1 45.57 157.34 45.46 159.65 45.36 162.15 46.16 162.07 45.26 163.95 44.96 162.66 45.29 165.04 45.58 165.04 47.6 166.55 47.9 166.87 47.21 166.87 46.34 166.08 46.04 165.14 47.55 166.19 44.85 168.04 45.94 167.5 46.55 167.54 46.59 168.15 46.02 168.05 45.94 168.23 45.94 169.16 46.73 167 47.21 170.14 47.03 170.24 46.41 171.51 47.21 173.15 46.85 173.15 44.27 153.1 44.27 157.37 45.29 154.59 45.58 153.32 44.71 152.05 45.58 152.23 44.39 152.23 44.39 152.13 44.57 150.54 44.61 152.23 44.39 152.23 44.39 152.23 44.39 153.1 44.29 153.1 44.27 8.03 44.27 8.03 90.34 63.88 90.34 64.69 89.74 66.45 89.63"/>
  <path class="cls-1" d="M218.41,58.61c-.28-.35-.64-.53-1.08-.53s-.8,.18-1.09,.53c-.28,.35-.42,.8-.42,1.33v.08l3.02,2.4v-2.48c0-.53-.14-.98-.42-1.33Z"/>
  <path class="cls-1" d="M228.54,65.52c.4,0,.75-.18,1.05-.53,.3-.35,.45-.78,.45-1.29v-3.79c0-.51-.15-.94-.45-1.29-.3-.35-.65-.53-1.05-.53s-.75,.18-1.06,.53c-.3,.35-.45,.78-.45,1.29v3.79c0,.51,.15,.94,.45,1.29s.65,.53,1.06,.53Z"/>
  <path class="cls-1" d="M239.76,58.08c-.44,0-.8,.18-1.09,.53-.28,.35-.42,.8-.42,1.33v15.24c0,.54,.14,.98,.42,1.33,.28,.35,.64,.53,1.09,.53s.8-.18,1.08-.53,.42-.8,.42-1.33v-15.24c0-.53-.14-.98-.42-1.33-.28-.35-.64-.53-1.08-.53Z"/>
  <path class="cls-1" d="M200.6,44.27v5.66l2.2,.81,6.71,4.26,3.54,2.82c.02-.07,.03-.15,.06-.22,.25-.68,.59-1.26,1.01-1.75,.42-.49,.91-.86,1.46-1.11,.55-.25,1.13-.38,1.73-.38s1.18,.13,1.73,.38c.55,.26,1.04,.63,1.46,1.11,.42,.49,.76,1.07,1.01,1.75,.25,.68,.38,1.46,.38,2.33v4.95l2.92,2.77c.19-.25,.4-.5,.67-.76-.36-.36-.65-.71-.86-1.04s-.37-.7-.47-1.11c-.1-.41-.16-.89-.18-1.42-.02-.53-.03-1.19-.03-1.97,0-.7,.02-1.31,.06-1.8,.04-.5,.11-.93,.21-1.29,.1-.37,.22-.69,.35-.99,.13-.29,.3-.59,.5-.91,.4-.63,.91-1.12,1.51-1.48,.6-.35,1.26-.53,1.96-.53s1.36,.18,1.96,.53c.6,.35,1.11,.84,1.51,1.48,.2,.32,.37,.62,.51,.91,.14,.29,.26,.62,.36,.99,.1,.36,.17,.8,.2,1.29,.03,.5,.04,1.1,.04,1.8,0,.78,0,1.44-.03,1.97-.02,.54-.08,1.01-.18,1.42-.1,.41-.26,.78-.47,1.11-.21,.33-.5,.67-.86,1.04,.36,.34,.65,.68,.86,1.02,.21,.34,.37,.74,.47,1.2s.16,1.03,.18,1.7c.02,.67,.03,1.49,.03,2.46,0,.8-.01,1.46-.04,1.99-.03,.52-.08,.98-.14,1.37s-.15,.72-.26,.98c-.03,.08-.08,.17-.12,.25l2.08,5.79,.49,6.68h48.33V44.27h-82.86Zm43.74,30.9c0,.88-.13,1.65-.38,2.33s-.59,1.26-1.01,1.75c-.42,.49-.91,.86-1.46,1.11s-1.13,.38-1.73,.38-1.18-.13-1.73-.38-1.04-.63-1.46-1.11c-.42-.49-.76-1.07-1.01-1.75-.25-.68-.38-1.46-.38-2.33v-15.24c0-.88,.12-1.65,.38-2.33,.25-.68,.59-1.26,1.01-1.75,.42-.49,.91-.86,1.46-1.11,.55-.25,1.13-.38,1.73-.38s1.18,.13,1.73,.38c.55,.26,1.04,.63,1.46,1.11,.42,.49,.76,1.07,1.01,1.75,.25,.68,.38,1.46,.38,2.33v15.24Z"/>
  <path class="cls-5" d="M215.82,75.18c0,.54,.14,.98,.42,1.33,.28,.35,.64,.53,1.09,.53s.8-.18,1.08-.53,.42-.8,.42-1.33v-12.76l-3.02-2.4v15.16Z"/>
  <path class="cls-5" d="M232.56,77.88c-.09,.19-.17,.38-.28,.59-.34,.63-.83,1.17-1.45,1.62-.62,.45-1.39,.67-2.29,.67s-1.67-.22-2.29-.67c-.62-.45-1.11-.99-1.45-1.62-.16-.29-.3-.57-.41-.84-.11-.27-.2-.6-.26-.98s-.11-.84-.14-1.37c-.03-.52-.04-1.18-.04-1.99,0-.97,0-1.79,.03-2.46,.02-.67,.08-1.23,.18-1.7s.26-.86,.47-1.2c.05-.09,.13-.18,.19-.26l-2.92-2.77v10.29c0,.88-.13,1.65-.38,2.33s-.59,1.26-1.01,1.75c-.42,.49-.91,.86-1.46,1.11s-1.13,.38-1.73,.38-1.18-.13-1.73-.38-1.04-.63-1.46-1.11c-.42-.49-.76-1.07-1.01-1.75-.25-.68-.38-1.46-.38-2.33v-15.24c0-.79,.12-1.48,.32-2.11l-3.54-2.82-6.71-4.26-2.2-.81v30.61h-6.24V48.36l-7.87-.76-7.11-1.96v34.9h-6.24V46.85l-1.64,.36-1.27-.79-.1,.61-3.14,.18,2.16-.47-.93-.79h-.18l.1,.08-.61,.58-.04-.04,.54-.61-1.84-1.09-1.05,2.7,.93-1.51,.79,.29h0v-.04l.32,.14-.32-.1h0v.87l-.32,.69-1.51-.29v-2.02l-2.38-.29,1.29-.32-1.88,.29,.08,.9-2.5-.79-2.31,.1,.76,.1-.22,.83-1.98,1.15v-1.45l-1.77-.18-1.05-.47-1.51,.93,1.05,.04-1.63,.14,.47-.76-4.11,.47,.47,.29-.69,.32,.08-.61-2.1-.29,1.09,1.09-1.01,.29-.36-.97-1.05,1.19-.79-1.55-1.63,.29-3.97,4.23-2.89,8.77,.22,3.83-.93,.61-.29-.87-.87,.83,.72,.32-1.29,.29,.08,.58h-1.23l-1.49,1.99,.5,.9-.61,.08-.47,1.45,.61,2.24-.61-1.59-3.25-2.89-3.1,.04-1.45,.69-1.51,3.32,2.13,1.45-6.39,4.9-1.27-.54v-.04l-2.86,.14-3.29,2.1-2.02-.36-1.37,1.63,.44,4.11-2.02,2.2-4.05,.5-.1-.47-2.42-1.15-1.84,1.11-1.11-.65-2.92,2.68-3-1.05-1.01,1.05-1.01-1.98-4.11,2.2-2.31-2.31-3.53-.5-1.09,1.66-4.23,1.84-3.65-.69v.65l-1.77,.1-.8,.61H235.14l-.49-6.68-2.08-5.79Zm-22.12,2.66h-3.08v-3.72h3.08v3.72Z"/>
  <polygon class="cls-5" points="152.13 44.57 152.23 44.39 150.54 44.61 152.13 44.57"/>
  <polygon class="cls-5" points="152.23 44.39 152.05 45.58 153.32 44.71 154.59 45.58 157.37 45.29 153.1 44.27 153.1 44.29 152.23 44.39"/>
  <polygon class="cls-5" points="152.23 44.39 152.23 44.39 152.23 44.39 152.23 44.39"/>
  <path class="cls-5" d="M227.08,69.79c-.02,.11-.05,.2-.05,.32v5.1c0,.51,.15,.94,.45,1.29s.65,.53,1.06,.53,.75-.18,1.05-.53c.3-.35,.45-.78,.45-1.29v-2.25l-.78-1.11-2.18-2.07Z"/>
  <polygon class="cls-4" points="179.38 27.89 173.15 27.89 166.91 33.44 166.91 41.42 173.15 35.88 173.15 44.27 179.38 44.27 179.38 27.89"/>
  <path class="cls-4" d="M175.16,46.41l-.08,.79,2.5,.18,.26-1.09,1.27-.47-3.03-1.1-.06-.02h.01s.05,.02,.05,.02l3.31,.91v-1.37h-6.24v2.58l2.01-.44Zm-.5-2.11l1.37,.4-1.91,.87,.18-.9,.36-.36h0Z"/>
  <polygon points="176.02 44.71 176.07 44.73 176.03 44.71 176.02 44.71"/>
  <polygon class="cls-3" points="174.12 45.57 176.03 44.7 174.66 44.3 174.66 44.31 174.3 44.67 174.12 45.57"/>
  <polygon class="cls-3" points="179.1 45.82 177.83 46.3 177.58 47.39 175.08 47.21 175.16 46.41 173.15 46.85 173.15 80.54 179.38 80.54 179.38 45.64 176.07 44.73 179.1 45.82"/>
  <polygon class="cls-4" points="197.03 48.62 200.6 49.93 200.6 44.27 194.37 44.27 194.37 48.36 197.03 48.62"/>
  <polygon class="cls-4" points="200.6 27.89 194.37 27.89 188.13 33.44 188.13 41.42 194.37 35.88 194.37 44.27 200.6 44.27 200.6 27.89"/>
  <polygon class="cls-3" points="194.37 48.36 194.37 80.54 200.6 80.54 200.6 49.93 197.03 48.62 194.37 48.36"/>
  <rect class="cls-3" x="207.37" y="76.82" width="3.08" height="3.72"/>
  <path class="cls-6" d="M215.82,59.94c0-.53,.14-.98,.42-1.33,.28-.35,.64-.53,1.09-.53s.8,.18,1.08,.53c.28,.35,.42,.8,.42,1.33v2.48l2.89,2.3,.18,.17v-4.95c0-.88-.13-1.65-.38-2.33-.25-.68-.59-1.26-1.01-1.75-.42-.49-.91-.86-1.46-1.11-.55-.25-1.13-.38-1.73-.38s-1.18,.13-1.73,.38c-.55,.26-1.04,.63-1.46,1.11-.42,.49-.76,1.07-1.01,1.75-.03,.07-.03,.15-.06,.22l2.76,2.19v-.08Z"/>
  <path class="cls-3" d="M212.74,75.18c0,.88,.12,1.65,.38,2.33,.25,.68,.59,1.26,1.01,1.75,.42,.49,.91,.86,1.46,1.11s1.13,.38,1.73,.38,1.18-.13,1.73-.38,1.04-.63,1.46-1.11c.42-.49,.76-1.07,1.01-1.75s.38-1.46,.38-2.33v-10.29l-.18-.17-2.89-2.3v12.76c0,.54-.14,.98-.42,1.33s-.64,.53-1.08,.53-.8-.18-1.09-.53c-.28-.35-.42-.8-.42-1.33v-15.16l-2.76-2.19c-.2,.63-.32,1.33-.32,2.11v15.24Z"/>
  <path class="cls-6" d="M227.49,68.82c.3-.35,.65-.53,1.06-.53s.75,.18,1.05,.53c.3,.35,.45,.78,.45,1.29v2.85l1.52,2.15,.99,2.76c.04-.08,.09-.17,.12-.25,.11-.27,.2-.6,.26-.98s.11-.84,.14-1.37c.03-.52,.04-1.18,.04-1.99,0-.97,0-1.79-.03-2.46-.02-.67-.08-1.23-.18-1.7s-.26-.86-.47-1.2c-.21-.34-.5-.68-.86-1.02,.36-.36,.65-.71,.86-1.04,.21-.33,.37-.7,.47-1.11,.1-.41,.16-.89,.18-1.42,.02-.53,.03-1.19,.03-1.97,0-.7-.01-1.31-.04-1.8-.03-.5-.1-.93-.2-1.29-.1-.37-.22-.69-.36-.99-.14-.29-.31-.59-.51-.91-.4-.63-.91-1.12-1.51-1.48-.6-.35-1.26-.53-1.96-.53s-1.36,.18-1.96,.53c-.6,.35-1.11,.84-1.51,1.48-.2,.32-.37,.62-.5,.91-.13,.29-.25,.62-.35,.99-.1,.36-.17,.8-.21,1.29-.04,.5-.06,1.1-.06,1.8,0,.78,0,1.44,.03,1.97,.02,.54,.08,1.01,.18,1.42,.1,.41,.26,.78,.47,1.11s.5,.67,.86,1.04c-.27,.25-.48,.5-.67,.76l2.25,2.14c.05-.37,.17-.7,.4-.98Zm-.45-8.92c0-.51,.15-.94,.45-1.29,.3-.35,.65-.53,1.06-.53s.75,.18,1.05,.53c.3,.35,.45,.78,.45,1.29v3.79c0,.51-.15,.94-.45,1.29-.3,.35-.65,.53-1.05,.53s-.75-.18-1.06-.53-.45-.78-.45-1.29v-3.79Z"/>
  <path class="cls-3" d="M224.17,69.13c-.1,.46-.16,1.03-.18,1.7-.02,.67-.03,1.49-.03,2.46,0,.8,.01,1.46,.04,1.99,.03,.52,.08,.98,.14,1.37s.15,.72,.26,.98c.11,.27,.25,.55,.41,.84,.34,.63,.82,1.17,1.45,1.62,.62,.45,1.39,.67,2.29,.67s1.67-.22,2.29-.67c.62-.45,1.11-.99,1.45-1.62,.11-.2,.2-.39,.28-.59l-.99-2.76-1.52-2.15v2.25c0,.51-.15,.94-.45,1.29-.3,.35-.65,.53-1.05,.53s-.75-.18-1.06-.53-.45-.78-.45-1.29v-5.1c0-.11,.04-.21,.05-.32l-2.25-2.14c-.06,.09-.14,.18-.19,.26-.21,.34-.37,.74-.47,1.2Z"/>
  <path class="cls-6" d="M242.96,55.85c-.42-.49-.91-.86-1.46-1.11-.55-.25-1.13-.38-1.73-.38s-1.18,.13-1.73,.38c-.55,.26-1.04,.63-1.46,1.11-.42,.49-.76,1.07-1.01,1.75-.25,.68-.38,1.46-.38,2.33v15.24c0,.88,.12,1.65,.38,2.33,.25,.68,.59,1.26,1.01,1.75,.42,.49,.91,.86,1.46,1.11s1.13,.38,1.73,.38,1.18-.13,1.73-.38,1.04-.63,1.46-1.11c.42-.49,.76-1.07,1.01-1.75s.38-1.46,.38-2.33v-15.24c0-.88-.13-1.65-.38-2.33-.25-.68-.59-1.26-1.01-1.75Zm-1.69,19.33c0,.54-.14,.98-.42,1.33s-.64,.53-1.08,.53-.8-.18-1.09-.53c-.28-.35-.42-.8-.42-1.33v-15.24c0-.53,.14-.98,.42-1.33,.28-.35,.64-.53,1.09-.53s.8,.18,1.08,.53c.28,.35,.42,.8,.42,1.33v15.24Z"/>
</svg>