<?xml version="1.0" encoding="UTF-8"?>
<svg id="Layer_1" data-name="Layer 1" xmlns="http://www.w3.org/2000/svg" viewBox="0 0 283.46 283.46">
  <defs>
    <style>
      .cls-1 {
        fill: none;
      }

      .cls-2 {
        fill: #f25d55;
      }

      .cls-3 {
        fill: #fff;
      }

      .cls-4 {
        fill: #d1c1c1;
      }

      .cls-5 {
        fill: #6d8cf2;
      }

      .cls-6 {
        fill: #606060;
      }
    </style>
  </defs>
  <path class="cls-1" d="M151.2,27.54l.85,1.3-.52,.97,.33,1.21,1.85,2.58,2.91,.73,.27,2.09,.78,1.03,.75-.12,.7,1.66,1.48-.21,1.81-.82,.97,.82-.88,.85,.52,.73-.73,.6,1.27,2.39-2.66,.73-.69,.42c.18-.02,.37-.04,.56-.04,.84,0,1.6,.23,2.26,.67,.66,.45,1.2,1.06,1.6,1.84,.14,.29,.26,.57,.36,.84,.1,.27,.18,.58,.24,.95,.04,.39,.07,.86,.09,1.4,.02,.55,.03,1.25,.03,2.1,0,.8,0,1.46-.03,1.99-.02,.52-.05,.97-.09,1.33-.06,.39-.13,.74-.2,1.04-.07,.3-.16,.63-.26,.97l-3.17,10.24,1.05-.17,2.12-2.51,2.33-.88,.3-.65v-.41h.19l.18-.39,.21,.39h2.5v1.93c0,.58,.14,1.06,.41,1.44,.27,.38,.64,.56,1.1,.56s.83-.19,1.1-.56,.41-.88,.41-1.51v-3.72c0-1.02-.16-1.69-.48-2-.18-.19-.43-.32-.74-.37-.31-.05-.72-.07-1.22-.07v-3.28c.92,0,1.56-.13,1.92-.4,.35-.27,.53-.89,.53-1.86v-3.35c0-.53-.14-.97-.41-1.31s-.64-.51-1.1-.51c-.54,0-.93,.21-1.16,.62-.23,.41-.35,.81-.35,1.2v2.12h-3.08v-2.15c0-.75,.12-1.47,.36-2.15,.24-.68,.57-1.26,1-1.75,.42-.49,.92-.88,1.48-1.17,.56-.29,1.17-.44,1.81-.44,.84,0,1.54,.2,2.1,.6,.55,.4,.97,.81,1.25,1.22,.2,.29,.38,.58,.53,.88,.15,.29,.28,.64,.38,1.06,.18,.8,.27,1.99,.27,3.57,0,.9-.01,1.63-.04,2.19-.03,.56-.11,1.02-.23,1.39-.14,.39-.34,.72-.59,.98-.25,.27-.6,.56-1.04,.88,.48,.36,.85,.71,1.1,1.02,.25,.32,.44,.68,.56,1.09,.12,.44,.19,.95,.21,1.55,.02,.6,.03,1.36,.03,2.28,0,.85-.01,1.56-.04,2.12-.03,.56-.08,1.02-.14,1.39-.06,.39-.14,.72-.24,.98s-.23,.55-.39,.84c-.38,.68-.87,1.25-1.46,1.7-.12,.09-.25,.16-.38,.23l.16,1.19-.88,1.03-.6,3.39,.37,.58-1.81,3.06,.25,1.25,1.48,1.6,2.09,.73,.07,.35h57.14V27.4h-80.92l-.07,.14Zm27.42,22.52c0-.88,.12-1.65,.38-2.33,.25-.68,.59-1.26,1.01-1.75,.42-.49,.91-.86,1.46-1.11s1.13-.38,1.73-.38,1.18,.13,1.73,.38,1.04,.63,1.46,1.11c.42,.49,.76,1.07,1.01,1.75,.25,.68,.38,1.46,.38,2.33v15.24c0,.88-.13,1.65-.38,2.33s-.59,1.26-1.01,1.75c-.42,.49-.91,.86-1.46,1.11s-1.13,.38-1.73,.38-1.18-.13-1.73-.38-1.04-.63-1.46-1.11c-.42-.49-.76-1.07-1.01-1.75-.25-.68-.38-1.46-.38-2.33v-15.24Z"/>
  <path class="cls-1" d="M183.21,67.16c.44,0,.8-.18,1.08-.53s.42-.8,.42-1.33v-15.24c0-.53-.14-.98-.42-1.33-.28-.35-.64-.53-1.08-.53s-.8,.18-1.09,.53c-.28,.35-.42,.8-.42,1.33v15.24c0,.54,.14,.98,.42,1.33,.28,.35,.64,.53,1.09,.53Z"/>
  <path class="cls-1" d="M141.91,26.18c-.57-.71-1.31-1.07-2.2-1.07s-1.63,.36-2.2,1.07c-.29,.36-.5,.77-.64,1.22h5.69c-.14-.45-.36-.86-.64-1.22Z"/>
  <path class="cls-1" d="M160.77,56.73c.4,0,.75-.17,1.05-.51,.3-.34,.45-.79,.45-1.35v-4.81c0-.56-.15-1.01-.45-1.35-.3-.34-.65-.51-1.05-.51s-.75,.17-1.06,.51-.45,.79-.45,1.35v4.63l.42,.39-.35,.28c.07,.33,.17,.63,.38,.86,.3,.34,.65,.51,1.06,.51Z"/>
  <path class="cls-1" d="M160.74,59.68c-.1,.1-.26,.18-.47,.24-.21,.06-.49,.09-.83,.09-.54,0-1.05-.16-1.51-.47-.27-.18-.49-.4-.69-.64l-1.28,.93,1.93,3.24-.58,.82,.91,2.39,.37,.32,2.2-6.85-.06-.07Z"/>
  <path class="cls-1" d="M138.62,38.96l.63-1.7,2.09-1.45,.67-1.45,.76-.31v-5.16c0-.54-.07-1.03-.21-1.48h-5.69c-.14,.45-.21,.94-.21,1.48v10.57l.85-.53,1.12,.03Z"/>
  <path class="cls-1" d="M149,29.54l1.45-.51,.75-1.5-.06-.09,.13-.04h-2.33c.04,.48,.07,.97,.07,1.48v.66Z"/>
  <polygon class="cls-1" points="115.02 27.4 116.6 27.4 116.6 26 115.02 27.4"/>
  <path class="cls-1" d="M124.87,54.79l2.76-1.03-3.45,.3,.88-.33-.75-.06-.21-.97,1.42-.18-.3-.45,.63-.12-.78-.63,1.3-.58-.6-.55,1.63,.09,1.3-1.3v-.91l.82-.73-.33-1.18,1.24-2.3v-.72l-1.39-1.01,.15-.58,1.24,.11v-12.76c0-.51,.03-1,.07-1.48h-7.65v26.89l2.04,.5Z"/>
  <polygon class="cls-1" points="96.57 83.56 99.87 79.2 100.5 76.6 100.69 76.6 104.95 72.54 105.1 67.78 107.68 60.69 109.61 58.33 111.34 57.45 111.31 57.85 111.31 57.88 114.79 60.18 114.45 58.33 115.94 58.48 116.6 57.64 116.6 56.57 116.55 56.4 115.28 57.21 113.19 56.25 112.94 55.52 114.7 53.15 116.6 52.91 116.6 27.4 115.02 27.4 110.36 31.54 110.36 27.4 45.37 27.4 45.37 83.61 96.09 83.61 96.06 83.44 96.57 83.56"/>
  <polygon class="cls-2" points="121.91 224.74 122.72 227.45 123.56 226.68 123.48 226.56 121.91 224.74"/>
  <polygon class="cls-2" points="121.91 224.73 121.91 224.74 121.91 224.72 121.91 224.73"/>
  <polygon class="cls-2" points="119.96 147.95 120.03 147.1 119.94 147.58 119.64 147.1 118.01 147.43 117.71 146.02 116.89 145.77 117.08 144.37 115.35 142.59 115.28 139.53 114.4 137.6 115.22 136.81 115.22 136.81 113.74 137.78 114.15 141.47 117.63 147.86 119.96 147.95"/>
  <path class="cls-2" d="M96.81,87.68l-.48,1.27-2.66,7.9-1.55,.73,.15,1.12,.91,1.7,1.66,1,4.99,7.17,4.45,7.75,.75,.4-.03,5.84,6.21,10.23,1.15,.09,.78-.88,2.06,.6,.93-1.18-.73-1.4,1.15-1.3-.33-.48,.91-1.51-.42-.3,.55-.12-.4-.88,.91,.33,.97,2.96,.58-.55-1.06,1.76-.63,3.33-.52-.25,.33,1.12-2.48,1,.45,1.36h.75l-.37,4.84,1.3,2.09,1.63-1.51,1.27,2.24-.3,.88,.4-.48,1.3,1.6-1.36-1.85,1.91-1.6,2.43-2.36,1.7-3.6,1.06-.82v-1.93l.3-1.63,1.55-1.6-.4,1.48,1.76,2.15,.27-.33-.09,.85,.88-.09-.58,.7,.33,1.58-.25-.09v1.36l-.58-.09-.78,1.4,1.36-.15,1.93-1.78,1.48-1.6,.78,1.08-.15-1.7,1.85-2.88,3.96-1.12-1.4,1.42,.42,1.36-.75,.25,.37,2.27,1.66,.52,.91,2.91,1.06,.06v-.91l.78,.18-1.06,2.27-1.18,.88-.12,1.06,.58,.09-1.76,1.21-1.93,.3-1.78,3.69-1.12,.85,1.27,1.12,.33,3.15,.88-.4,.18,.55,.33-1.85,.93,.33,.48-.12,1.48,.97-1.7-.37-1.45,2.15,.45,.97,1.6,.48-.73,.52-.25-.42-.63,.88-.97-.21,1,.73-.75,.45,.42,.67-.58,.45,.18-.97-.75-.06,.48,.48-1.18,.33-1-.82,.42-.58-5.11,2.09-.06,2.36,.4-.3,.33,.78-.67-.15,.12,.82,1,1.81-1.85-2.18,.09-2.81-2.73,.73-.63,10.75-.09,4.51,.48,2.03,2.09,2.03,2.58,.55,2.21-.55-.75,.63,3.18,.06,2.63-.48,4.06-1.45-4.39,1.88-3.21,.78-.88,.09,.25,.52-.82-.52-.63,1.4,.82,.78-1.25-.09,.48,.67-.58,.15-.97,.52,.12-.6-4.69,6.48-2.81,5.14-.75,1.33-.48,2.91,1.73,2.55,.85-.06,.33-.73-.48,2.76,1.73,4.6,1.76,2.48,1.4,5.51,3.36,2.73,3.33,2.91,2.66,.82,.63-.48-.4-.63,3,1.51,.48-.73-.03-.25,1.21-1.78-.3-.6,1.91,.85,.37-.73,2.24-.73,1.15,.52,.73-1.12-.73,1.45-1.55-.33-1.25,1.21-.21,.06-1.97,.09-.63,1.3,.63,1.76-2.39,1.85-2.58-1.21-1.08,.18,.52,.82-1,.48,.6,.3-1.93,.03-3.26-1.93-4.18-6.33-1.06-3.63-1.66-4.36-6.87,3.43-3.33,2.33,.82,2.39,3,3.33,.33-.25,2.22,3.14,.09,.11h-.01s.03,.05,.03,.05l-.58,1.78,.67,.4,.45-.45,.15,.97,1,.45-1.48-.3,.58,.73-.55,.73-.58-.63,.42,1.08,4.24,1.3,4.84,4.03,1.63,2.36,.09,1.27-1.48,1.25-3.06,.88,1.73,2.51,1.27,1.21,2.58,1.06,1.45-1-.45,1.78-.91,1.36,1.63,1.12-.37,.73,1.25,1.48-.67,.33,.82,.37-.73,.91,.91,.88-.33,1.48,1.06,.6,.48,2.18,2.09,.82,.88-.63,1.45,.09,.42,.93,2.09,.25,1.78-1.18,1.6,1.03,2.66-1.12,.7,1.06,.91-.18,.09,.97,.73-.06-.18,1.78,.67,.78,1.66-.97,1.97,1.88,.55-2.85,2.58,1.63,3-1.08-.15-1.76,3.78-1.27-.3-.97,.78-.75-.88-1.21,.09-2.43,2.27-.78,2-2.6,1.4,.27,.85-.18,1.78-1.45,.42,.4,2.27-2.66,3.54-4.66,.93,.3-.12-3.24,1.85,1.97,2.27-.15,1.27-.6,.78-1.76,1.78,.4,1.12-.48,.82-2.15-.15-.97,.97-.85-1.6-1.51-.63-1.63,.55-6.18-.78-1.45,.6-1.4-.3-1.7-1.15-.18-.21-.7-.18-.58,.75,.06,1.08-1.21,.75-3.06-1.36-.06-.82-1.48,.82-1.08,.6,.45-.25-.58,1.73-2.3-.48-1.81,.88-.88,.18-1.7,.48-.58,.78,.6,1.85-.6,.27-.37-.58-.82,1.06-1.85-.18-1.4-1.88-1.06-.37-1.18-3.88-4.63-.56,.06v12.88c0,1.77-.25,3.35-.76,4.73s-1.19,2.56-2.05,3.55c-.86,.99-1.85,1.74-2.97,2.25-1.12,.52-2.29,.78-3.52,.78s-2.39-.26-3.52-.78c-1.12-.52-2.11-1.27-2.97-2.25-.86-.99-1.54-2.17-2.05-3.55-.51-1.38-.76-2.96-.76-4.73v-2.22h6.24v1.92c0,1.28,.29,2.28,.89,2.99,.59,.72,1.35,1.07,2.29,1.07s1.66-.34,2.17-1.04c.51-.69,.76-1.65,.76-2.88v-12.35c0-1.04-.28-1.92-.83-2.66-.55-.74-1.25-1.11-2.11-1.11-.53,0-.98,.11-1.35,.33s-.67,.48-.92,.78c-.25,.3-.43,.62-.55,.96-.2,.44-.33,.71-.37,.81h-5.5v-28.39h12.8l-.21-.23-1.33-3.45-2.43-.42-.55-1.06-.67,.25,.18-1.18-.3-.63-.73-1.81-1.81,.85-.4-1.06,.67-.73-.58-.33-4.03,.73-1.55-2.09-1.27,.48-.75-.58v-1.7l.75,.15-.25-.82-.82-.21-.27-2.27-.78-.91-3.21,1.15-2.06-.3-.7-.58,.4-1.6v-1.48l-2.81-2.15-.91,.06v-.78l-2.51-2.66,.27-2.76,1.66-.48,4.6-7.27,1.58,.4,1.93-.25,.45-1.45,1.48-.09,.06-.88,.63-.15,1.48,1.3,.73-.37,.45-1.7,.25-1.36-.63-1.03,.55-.75-.37-2.58,.85-1.36-3.78-3.45,1.6-.33,1.73-1.73,1.21-.06,.33-1.51-.82-.67-.15-2.36,.93-2.09,1.36-.15,.18-.67,1.15-.48,3.69,.27,.78-1.3,.75,.55,.33-1.66-.82-6.39-1.55-.06-.73-1.97-5.81-4.76-1.27-3.78,2.3-1.97-.23-1.07H96.09l.72,4.07Zm55.2,115.31h6.24v3.92c0,1.18,.27,2.16,.83,2.92,.55,.76,1.29,1.15,2.23,1.15s1.68-.38,2.23-1.15c.55-.76,.83-1.79,.83-3.07v-7.54c0-2.07-.33-3.43-.98-4.07-.37-.39-.87-.64-1.5-.74-.63-.1-1.46-.15-2.48-.15v-6.65c1.88,0,3.17-.27,3.88-.81,.71-.54,1.07-1.8,1.07-3.77v-6.8c0-1.08-.28-1.97-.83-2.66-.55-.69-1.29-1.04-2.23-1.04-1.1,0-1.89,.42-2.35,1.26-.47,.84-.7,1.65-.7,2.44v4.29h-6.24v-4.36c0-1.53,.24-2.98,.73-4.36,.49-1.38,1.16-2.56,2.02-3.55,.86-.99,1.85-1.77,3-2.37,1.14-.59,2.36-.89,3.67-.89,1.71,0,3.13,.41,4.25,1.22s1.97,1.64,2.54,2.48c.41,.59,.76,1.18,1.07,1.77,.31,.59,.56,1.31,.76,2.14,.37,1.63,.55,4.04,.55,7.25,0,1.82-.03,3.3-.09,4.44-.06,1.13-.21,2.07-.46,2.81-.29,.79-.68,1.45-1.19,2-.51,.54-1.21,1.13-2.11,1.77,.98,.74,1.72,1.43,2.23,2.07,.51,.64,.89,1.38,1.13,2.22,.25,.89,.39,1.94,.43,3.14,.04,1.21,.06,2.75,.06,4.62,0,1.73-.03,3.15-.09,4.29-.06,1.13-.15,2.07-.28,2.81-.12,.79-.29,1.45-.49,2-.2,.54-.47,1.11-.79,1.7-.77,1.38-1.76,2.53-2.96,3.44-1.2,.91-2.78,1.37-4.74,1.37-.98,0-2.02-.2-3.12-.59-1.1-.39-2.1-1.04-3-1.92s-1.64-2.04-2.23-3.48c-.59-1.43-.89-3.18-.89-5.25v-4.29Z"/>
  <polygon class="cls-2" points="123.48 226.56 123.56 226.68 123.57 226.67 123.48 226.56"/>
  <path class="cls-2" d="M179.47,186.72c.57-.69,1.3-1.27,2.2-1.74,.28-.15,.58-.26,.89-.37l-.45-1.64,1.76-1.36,1-1.97-.42-2.73,.73-.82-.25-1.18,1.03-.73,2.58-1.67h-9.07v14.2Z"/>
  <polygon class="cls-5" points="129.18 41.53 129.03 42.11 130.42 43.13 130.42 41.64 129.18 41.53"/>
  <path class="cls-5" d="M172.88,82.54l-1.48-1.6-.25-1.25,1.81-3.06-.37-.58,.6-3.39,.88-1.03-.16-1.19c-.54,.29-1.18,.44-1.96,.44-.48,0-1-.1-1.54-.29s-1.04-.51-1.48-.95c-.44-.44-.81-1.01-1.1-1.71-.29-.71-.44-1.57-.44-2.59v-1.7l-.3,.65-2.33,.88-2.12,2.51-1.05,.17-.87,2.81h-3.44l1.3-4.05-.37-.32-.91-2.39,.58-.82-1.93-3.24,1.28-.93c-.15-.18-.29-.36-.4-.57-.14-.24-.25-.5-.33-.78-.08-.28-.14-.64-.18-1.08-.06-.44-.1-.99-.12-1.66-.02-.67-.03-1.51-.03-2.53,0-.85,0-1.55,.03-2.1,.02-.55,.06-1.01,.12-1.4,.04-.36,.11-.68,.2-.95,.09-.27,.21-.55,.35-.84,.4-.8,.94-1.42,1.61-1.86,.52-.34,1.09-.54,1.71-.62l.69-.42,2.66-.73-1.27-2.39,.73-.6-.52-.73,.88-.85-.97-.82-1.81,.82-1.48,.21-.7-1.66-.75,.12-.78-1.03-.27-2.09-2.91-.73-1.85-2.58-.33-1.21,.52-.97-.85-1.3-.75,1.5-1.45,.51v30.25c0,1.77-.25,3.35-.76,4.73s-1.19,2.56-2.05,3.55c-.86,.99-1.85,1.74-2.97,2.25-1.12,.52-2.29,.78-3.52,.78s-2.39-.26-3.52-.78c-1.12-.52-2.11-1.27-2.97-2.25-.86-.99-1.54-2.17-2.05-3.55-.51-1.38-.76-2.96-.76-4.73v-15.95l-1.24,2.3,.33,1.18-.82,.73v.91l-1.3,1.3-1.63-.09,.6,.55-1.3,.58,.78,.63-.63,.12,.3,.45-1.42,.18,.21,.97,.75,.06-.88,.33,3.45-.3-2.76,1.03-2.04-.5v16.37h-6.24v-13.02l-.66,.84-1.48-.15,.33,1.85-3.48-2.3v-.03l.03-.4-1.73,.88-1.93,2.36-2.58,7.09-.15,4.76-4.26,4.06h-.18l-.63,2.6-3.3,4.36-.52-.12,.03,.18h78.95l-.07-.35-2.09-.73Zm-18.98-11.88h-3.08v-3.72h3.08v3.72Z"/>
  <path class="cls-5" d="M137.51,62.49c.57,.72,1.3,1.07,2.2,1.07s1.63-.36,2.2-1.07c.57-.71,.86-1.61,.86-2.7v-25.74l-.76,.31-.67,1.45-2.09,1.45-.63,1.7-1.12-.03-.85,.53v20.34c0,1.08,.28,1.98,.86,2.7Z"/>
  <polygon class="cls-5" points="114.7 53.15 112.94 55.52 113.19 56.25 115.28 57.21 116.55 56.4 116.6 56.57 116.6 52.91 114.7 53.15"/>
  <polygon class="cls-5" points="167.78 62.83 167.6 63.22 167.98 63.22 167.78 62.83"/>
  <path class="cls-5" d="M159.27,54.68v.19c0,.18,.04,.33,.07,.48l.35-.28-.42-.39Z"/>
  <polygon class="cls-5" points="151.2 27.54 151.27 27.4 151.14 27.44 151.2 27.54"/>
  <polygon class="cls-4" points="116.6 26 116.6 27.4 122.83 27.4 122.83 18.01 116.6 18.01 110.36 23.56 110.36 27.4 115.02 27.4 116.6 26"/>
  <polygon class="cls-4" points="115.02 27.4 110.36 27.4 110.36 31.54 115.02 27.4"/>
  <polygon class="cls-4" points="116.6 52.91 117.03 52.85 118 51.94 120.78 52.31 122.63 54.24 122.83 54.29 122.83 27.4 116.6 27.4 116.6 52.91"/>
  <polygon points="116.6 56.57 116.6 57.64 116.82 57.36 116.6 56.57"/>
  <polygon class="cls-3" points="120.78 52.31 118 51.94 117.03 52.85 116.6 52.91 116.6 56.57 116.82 57.36 116.6 57.64 116.6 70.66 122.83 70.66 122.83 54.29 122.63 54.24 120.78 52.31"/>
  <polygon points="130.42 43.13 130.42 43.84 130.69 43.33 130.42 43.13"/>
  <path class="cls-4" d="M130.42,41.64l4.39,.38,1.36-1.06-.21-1.06,.7-.44v-10.57c0-.54,.07-1.03,.21-1.48h-6.38c-.04,.48-.07,.97-.07,1.48v12.76Z"/>
  <path class="cls-4" d="M137.51,26.18c.57-.71,1.3-1.07,2.2-1.07s1.63,.36,2.2,1.07c.29,.36,.5,.77,.64,1.22h6.38c-.1-1.18-.33-2.27-.69-3.25-.51-1.38-1.19-2.56-2.05-3.55-.86-.99-1.85-1.74-2.97-2.26-1.12-.52-2.29-.78-3.52-.78s-2.39,.26-3.52,.78c-1.12,.52-2.11,1.27-2.97,2.26-.86,.99-1.54,2.17-2.05,3.55-.36,.98-.59,2.07-.7,3.25h6.38c.14-.45,.36-.86,.64-1.22Z"/>
  <path class="cls-4" d="M142.77,28.88v5.16l.13-.05,.09-1.33,2.48-.33,3.18-2.66,.37-.13v-.66c0-.51-.03-1-.07-1.48h-6.38c.14,.45,.21,.94,.21,1.48Z"/>
  <path class="cls-3" d="M145.46,32.33l-2.48,.33-.09,1.33-.13,.05v25.74c0,1.08-.29,1.98-.86,2.7-.57,.72-1.31,1.07-2.2,1.07s-1.63-.36-2.2-1.07c-.57-.71-.86-1.61-.86-2.7v-20.34l-.7,.44,.21,1.06-1.36,1.06-4.39-.38v1.49l.28,.2-.28,.51v15.95c0,1.77,.25,3.35,.76,4.73,.51,1.38,1.19,2.56,2.05,3.55,.86,.99,1.84,1.74,2.97,2.25,1.12,.52,2.29,.78,3.52,.78s2.39-.26,3.52-.78c1.12-.52,2.11-1.27,2.97-2.25,.86-.99,1.54-2.17,2.05-3.55s.76-2.96,.76-4.73V29.54l-.37,.13-3.18,2.66Z"/>
  <rect class="cls-3" x="150.82" y="66.94" width="3.08" height="3.72"/>
  <path class="cls-6" d="M158.06,48.88l-1.76,1.7,.33,.82,1.66,.6,.03,1.81,.94,.87v-4.63c0-.56,.15-1.01,.45-1.35s.65-.51,1.06-.51,.75,.17,1.05,.51c.3,.34,.45,.79,.45,1.35v4.81c0,.56-.15,1.01-.45,1.35-.3,.34-.65,.51-1.05,.51s-.75-.17-1.06-.51c-.21-.23-.31-.53-.38-.86l-.95,.75-.63,2.43-.5,.37c.2,.24,.42,.45,.69,.64,.46,.32,.96,.47,1.51,.47,.34,0,.62-.03,.83-.09,.21-.06,.37-.14,.47-.24l.06,.07-2.2,6.85,1.66,1.46,1.34-.22,3.17-10.24c.1-.34,.19-.66,.26-.97,.07-.3,.14-.65,.2-1.04,.04-.36,.07-.81,.09-1.33,.02-.52,.03-1.19,.03-1.99,0-.85,0-1.55-.03-2.1-.02-.55-.05-1.01-.09-1.4-.06-.36-.14-.68-.24-.95-.1-.27-.22-.55-.36-.84-.4-.78-.93-1.39-1.6-1.84-.66-.45-1.42-.67-2.26-.67-.19,0-.38,.01-.56,.04l-2.12,1.3-.03,3.06Z"/>
  <polygon class="cls-3" points="158.6 66.61 157.3 70.66 160.74 70.66 161.61 67.85 160.27 68.07 158.6 66.61"/>
  <path class="cls-3" d="M156.88,46.99c-.14,.29-.26,.57-.35,.84-.09,.27-.16,.58-.2,.95-.06,.39-.1,.86-.12,1.4-.02,.55-.03,1.25-.03,2.1,0,1.02,0,1.87,.03,2.53,.02,.67,.06,1.22,.12,1.66,.04,.44,.1,.8,.18,1.08,.08,.28,.19,.54,.33,.78,.11,.21,.25,.39,.4,.57l.5-.37,.63-2.43,.95-.75c-.03-.16-.07-.31-.07-.48v-.19l-.94-.87-.03-1.81-1.66-.6-.33-.82,1.76-1.7,.03-3.06,2.12-1.3c-.62,.08-1.19,.28-1.71,.62-.67,.44-1.21,1.06-1.61,1.86Z"/>
  <polygon points="167.41 63.22 167.41 63.63 167.6 63.22 167.41 63.22"/>
  <path class="cls-6" d="M171.62,68.09l1.3,.15,.25,1.12,.67,.42,.09,.66c.13-.07,.26-.14,.38-.23,.59-.45,1.08-1.01,1.46-1.7,.16-.29,.29-.57,.39-.84s.18-.6,.24-.98c.06-.36,.11-.83,.14-1.39,.03-.56,.04-1.26,.04-2.12,0-.92,0-1.68-.03-2.28-.02-.6-.09-1.11-.21-1.55-.12-.41-.31-.78-.56-1.09-.25-.32-.62-.66-1.1-1.02,.44-.32,.79-.61,1.04-.88,.25-.27,.45-.6,.59-.98,.12-.36,.2-.83,.23-1.39,.03-.56,.04-1.29,.04-2.19,0-1.58-.09-2.77-.27-3.57-.1-.41-.23-.77-.38-1.06-.15-.29-.33-.58-.53-.88-.28-.41-.7-.82-1.25-1.22-.55-.4-1.25-.6-2.1-.6-.64,0-1.25,.15-1.81,.44-.56,.29-1.06,.68-1.48,1.17-.42,.49-.75,1.07-1,1.75-.24,.68-.36,1.4-.36,2.15v2.15h3.08v-2.12c0-.39,.12-.79,.35-1.2,.23-.41,.62-.62,1.16-.62,.46,0,.83,.17,1.1,.51s.41,.78,.41,1.31v3.35c0,.97-.18,1.59-.53,1.86-.35,.27-.99,.4-1.92,.4v3.28c.5,0,.91,.02,1.22,.07,.31,.05,.56,.17,.74,.37,.32,.32,.48,.98,.48,2v3.72c0,.63-.14,1.14-.41,1.51s-.64,.56-1.1,.56-.83-.19-1.1-.56c-.27-.38-.41-.86-.41-1.44v-1.93h-2.5l1.16,2.21,2.48,2.66Z"/>
  <path class="cls-3" d="M167.84,67.92c.29,.71,.66,1.28,1.1,1.71,.44,.44,.93,.75,1.48,.95s1.06,.29,1.54,.29c.78,0,1.42-.15,1.96-.44l-.09-.66-.67-.42-.25-1.12-1.3-.15-2.48-2.66-1.16-2.21h-.38l-.19,.41v1.7c0,1.02,.15,1.88,.44,2.59Z"/>
  <path class="cls-6" d="M180.01,69.38c.42,.49,.91,.86,1.46,1.11s1.13,.38,1.73,.38,1.18-.13,1.73-.38,1.04-.63,1.46-1.11c.42-.49,.76-1.07,1.01-1.75s.38-1.46,.38-2.33v-15.24c0-.88-.13-1.65-.38-2.33-.25-.68-.59-1.26-1.01-1.75-.42-.49-.91-.86-1.46-1.11s-1.13-.38-1.73-.38-1.18,.13-1.73,.38-1.04,.63-1.46,1.11c-.42,.49-.76,1.07-1.01,1.75-.25,.68-.38,1.46-.38,2.33v15.24c0,.88,.12,1.65,.38,2.33,.25,.68,.59,1.26,1.01,1.75Zm1.69-19.33c0-.53,.14-.98,.42-1.33,.28-.35,.64-.53,1.09-.53s.8,.18,1.08,.53c.28,.35,.42,.8,.42,1.33v15.24c0,.54-.14,.98-.42,1.33s-.64,.53-1.08,.53-.8-.18-1.09-.53c-.28-.35-.42-.8-.42-1.33v-15.24Z"/>
  <path class="cls-3" d="M155.13,216c.9,.89,1.9,1.53,3,1.92,1.1,.39,2.14,.59,3.12,.59,1.96,0,3.54-.46,4.74-1.37,1.2-.91,2.19-2.06,2.96-3.44,.33-.59,.59-1.16,.79-1.7,.2-.54,.37-1.21,.49-2,.12-.74,.21-1.67,.28-2.81,.06-1.13,.09-2.56,.09-4.29,0-1.87-.02-3.41-.06-4.62-.04-1.21-.18-2.26-.43-3.14-.24-.84-.62-1.58-1.13-2.22-.51-.64-1.25-1.33-2.23-2.07,.9-.64,1.6-1.23,2.11-1.77,.51-.54,.91-1.21,1.19-2,.25-.74,.4-1.68,.46-2.81,.06-1.13,.09-2.61,.09-4.44,0-3.2-.18-5.62-.55-7.25-.2-.84-.46-1.55-.76-2.14-.31-.59-.66-1.18-1.07-1.77-.57-.84-1.42-1.66-2.54-2.48s-2.54-1.22-4.25-1.22c-1.31,0-2.53,.3-3.67,.89-1.14,.59-2.14,1.38-3,2.37-.86,.99-1.53,2.17-2.02,3.55-.49,1.38-.73,2.83-.73,4.36v4.36h6.24v-4.29c0-.79,.23-1.6,.7-2.44,.47-.84,1.25-1.26,2.35-1.26,.94,0,1.68,.35,2.23,1.04,.55,.69,.83,1.58,.83,2.66v6.8c0,1.97-.36,3.23-1.07,3.77-.71,.54-2.01,.81-3.88,.81v6.65c1.02,0,1.84,.05,2.48,.15,.63,.1,1.13,.35,1.5,.74,.65,.64,.98,2,.98,4.07v7.54c0,1.28-.28,2.3-.83,3.07-.55,.76-1.29,1.15-2.23,1.15s-1.68-.38-2.23-1.15c-.55-.76-.83-1.74-.83-2.92v-3.92h-6.24v4.29c0,2.07,.29,3.82,.89,5.25,.59,1.43,1.33,2.59,2.23,3.48Z"/>
  <path class="cls-4" d="M183.86,186.22l-.21,1.12,.4,.42,.55-.82,.97,1.51,1.6,.15,.67-.88,1.93-.58-.18,1.15,1.06,1.12-.25,2.27,.73,.48-.09,.73h.03l.25,.55,.25,.91,.26-.03v-.73c0-3.11-.66-5.43-1.99-6.99-1.33-1.55-3.05-2.33-5.17-2.33-.75,0-1.45,.12-2.11,.34l.24,.88,1.06,.73Z"/>
  <polygon class="cls-4" points="187.34 167.62 187.92 167.41 190.1 169.5 190.07 171.68 189.14 172.13 188.53 172.52 191.82 172.52 191.82 165.43 186.77 165.43 187.83 166.59 187.34 167.62"/>
  <path class="cls-3" d="M173.96,193.82h5.5c.04-.1,.16-.37,.37-.81,.12-.34,.31-.67,.55-.96,.24-.3,.55-.55,.92-.78s.82-.33,1.35-.33c.86,0,1.56,.37,2.11,1.11,.55,.74,.83,1.63,.83,2.66v12.35c0,1.23-.25,2.19-.76,2.88-.51,.69-1.23,1.04-2.17,1.04s-1.7-.36-2.29-1.07c-.59-.71-.89-1.71-.89-2.99v-1.92h-6.24v2.22c0,1.77,.25,3.35,.76,4.73,.51,1.38,1.19,2.56,2.05,3.55,.86,.99,1.84,1.74,2.97,2.25,1.12,.52,2.29,.78,3.52,.78s2.39-.26,3.52-.78c1.12-.52,2.11-1.27,2.97-2.25,.86-.99,1.54-2.17,2.05-3.55s.76-2.96,.76-4.73v-12.88l-.26,.03-.25-.91-.25-.55h-.03l.09-.73-.73-.48,.25-2.27-1.06-1.12,.18-1.15-1.93,.58-.67,.88-1.6-.15-.97-1.51-.55,.82-.4-.42,.21-1.12-1.06-.73-.24-.88c-.31,.1-.6,.22-.89,.37-.9,.47-1.63,1.05-2.2,1.74v-14.2h9.07l.6-.39,.93-.45,.03-2.18-2.18-2.09-.58,.21,.48-1.03-1.06-1.17h-12.8v28.39Z"/>
  <rect class="cls-6" x="193.63" y="214.35" width="3.08" height="3.72"/>
  <path class="cls-6" d="M207.72,202.39c.14-.39,.24-.78,.3-1.17,.06-.39,.1-.8,.12-1.22,.02-.42,.03-.95,.03-1.59,0-.88-.09-1.7-.26-2.48-.17-.78-.44-1.47-.8-2.08-.38-.61-.86-1.09-1.43-1.44-.57-.35-1.26-.53-2.07-.53-.64,0-1.25,.15-1.81,.46-.56,.3-1.05,.71-1.45,1.22-.42,.51-.75,1.11-1,1.79-.24,.68-.36,1.41-.36,2.19v2.04h3.08v-2.11c0-.61,.14-1.07,.41-1.39,.27-.32,.64-.47,1.1-.47,.38,0,.67,.09,.87,.27,.2,.18,.35,.41,.45,.67,.1,.27,.16,.58,.17,.93,0,.35,.02,.69,.02,1,0,.71-.02,1.29-.06,1.77-.04,.47-.2,1.03-.48,1.66l-5.55,12.65v3.5h9.17v-3.72h-5.55l4.52-10.54c.24-.56,.43-1.03,.57-1.42Z"/>
  <polygon class="cls-6" points="210.22 198.6 212.93 198.6 212.93 195.61 216.31 195.61 210.91 218.07 214.17 218.07 219.39 195.83 219.39 192.11 210.22 192.11 210.22 198.6"/>
  <path class="cls-6" d="M230.15,202.39c.14-.39,.24-.78,.3-1.17,.06-.39,.1-.8,.12-1.22,.02-.42,.03-.95,.03-1.59,0-.88-.09-1.7-.26-2.48-.17-.78-.44-1.47-.8-2.08-.38-.61-.86-1.09-1.43-1.44-.57-.35-1.26-.53-2.07-.53-.64,0-1.25,.15-1.81,.46-.56,.3-1.05,.71-1.45,1.22-.42,.51-.75,1.11-1,1.79-.24,.68-.36,1.41-.36,2.19v2.04h3.08v-2.11c0-.61,.14-1.07,.41-1.39,.27-.32,.64-.47,1.1-.47,.38,0,.67,.09,.87,.27,.2,.18,.35,.41,.45,.67,.1,.27,.16,.58,.17,.93,0,.35,.02,.69,.02,1,0,.71-.02,1.29-.06,1.77-.04,.47-.2,1.03-.48,1.66l-5.55,12.65v3.5h9.17v-3.72h-5.55l4.52-10.54c.24-.56,.43-1.03,.57-1.42Z"/>
</svg>