<?xml version="1.0" encoding="UTF-8"?>
<svg id="Layer_1" data-name="Layer 1" xmlns="http://www.w3.org/2000/svg" viewBox="0 0 283.46 283.46">
  <defs>
    <style>
      .cls-1 {
        fill: none;
      }

      .cls-2 {
        fill: #f25d55;
      }

      .cls-3 {
        fill: #fff;
      }

      .cls-4 {
        fill: #d1c1c1;
      }

      .cls-5 {
        fill: #6d8cf2;
      }

      .cls-6 {
        fill: #606060;
      }
    </style>
  </defs>
  <path class="cls-1" d="M216.79,63.92c0,1.13,.31,2.05,.92,2.74,.61,.69,1.32,1.04,2.14,1.04s1.53-.34,2.14-1.04c.61-.69,.92-1.6,.92-2.74v-4.4h-6.11v4.4Z"/>
  <path class="cls-1" d="M228.9,65.4c-.12,.79-.26,1.49-.4,2.11-.07,.28-.16,.6-.24,.89l1.01,.28,1.35-.35,.61,.97,.61-.07,2.98-2.77,1.78-.15,1.09,.69,.99-1.3,2.85,2.85,1.25,.49,.74-2.11-.49-1.15-1.58-.89v-.87l-.61-.61,1.12-.21,.38-.61,.81,.59,.69-1.15,.35,.61,1.27-2.45,1.16-.56-.06-.1h-17.45c0,1.24-.03,2.31-.06,3.18-.04,1.06-.1,1.96-.18,2.7Z"/>
  <polygon class="cls-1" points="228.84 186.41 228.84 186.41 228.35 187.15 228.38 187.17 228.84 186.41"/>
  <path class="cls-1" d="M250.62,90.43c0,.25,.04,.46,.09,.67l.09,.3c.07,.19,.15,.37,.26,.51,.29,.35,.67,.53,1.13,.53s.82-.17,1.07-.51c.25-.34,.38-.81,.38-1.42v-6.09c0-.51-.14-.95-.41-1.31s-.62-.55-1.04-.55c-.21,0-.38,.04-.54,.11l.09,.19-.56,1.4,.51,1.55-.28,1.17-2.04,1.89,.57,.61h.69v.95Z"/>
  <path class="cls-1" d="M269.89,59.52h-23.3l.07,.09h-.01s.93,1.44,.93,1.44l.63,.33,.53-.77-.13,2.37,.99,.61,.61-.59-.18,1.19,.91,.69-.31,1.09,1.68,.74,2.17-.69,.33,.84-2.69,3.1h4.56v3.5h-2.6l.93,1.56-1.63,1.4,.69,2.04-1.43,.23-.17,.65c.22-.04,.44-.08,.68-.08,1.05,0,1.89,.38,2.55,1.15,.65,.77,.98,1.91,.98,3.45v6.71c0,.88-.13,1.65-.38,2.33-.25,.68-.59,1.26-1.01,1.75-.42,.49-.91,.86-1.46,1.11-.51,.23-1.04,.35-1.59,.37l.56,.43,.49,1.09-.71,.33-1.35-.74-.79,1.48,.41,1.65,1.74,1.54h17.27V59.52Zm-1.96,14.17l-5.22,22.24h-3.26l5.4-22.46h-3.38v2.99h-2.71v-6.49h9.17v3.72Z"/>
  <path class="cls-1" d="M221.99,51.42c-.61-.69-1.33-1.04-2.14-1.04s-1.53,.35-2.14,1.04c-.61,.69-.92,1.6-.92,2.74v5.36h6.11v-5.36c0-1.13-.31-2.04-.92-2.74Z"/>
  <path class="cls-1" d="M152.3,198.63c0,1.18,.27,2.16,.83,2.92,.55,.76,1.29,1.15,2.23,1.15s1.68-.38,2.23-1.15c.55-.76,.83-1.79,.83-3.07v-7.03l-.97,.35-.74,1.22-3.67-1.12,.63-1.02-1.83-3.89,.05-.53-.07-.49-.38,.84-.63-.63h-.05v1.58l.94,1.5,.35,4.07,1.12-.81-1.94,2.19h1.07v3.92Z"/>
  <polygon class="cls-1" points="247.68 182.68 247.27 183.3 246.97 182.68 246.97 182.69 247.32 183.76 248.21 183.97 248.48 183.43 248.49 183.4 248.49 183.3 247.68 182.68"/>
  <path class="cls-1" d="M200.36,190.33s0-.07,0-.12c0-.1,0-.22,0-.32l-1.14-.52,1.15,.96Z"/>
  <path class="cls-1" d="M196.3,100.92l.77-1.58-1.09,.15,.15-.53,1.48-.43-.87-.66,.13-1.22-.77-.56,.84-.41-1.05-2.29,.84-.46,.59-1.53-.99-1.35,.61-2.24-.43-.81,1.02-.66-.07-1.05,.61-.31,.77-1.5,.61,.38,1.35-1.55,1.02,.61,.13-1.07,2.67,.07,1.3-2.14,1.15,.43,1.19-1.09,1.43-.35-.41-1.96-.99-.81,.05-2.11-1.96-.81,.49-.31-.13-1.53,1.33-1.19-1.12-1.43,.71-1.05,.71-.1,.13,.81,1.55,.13-.13,1.43,1.3,.28,.25-.07c-.09-.23-.18-.47-.25-.71-.16-.57-.29-1.29-.37-2.18-.12-.89-.2-2.01-.24-3.36-.04-1.16-.05-2.6-.06-4.29H48.01v42.41H196.94l-.08-.86-.56-.15Z"/>
  <polygon class="cls-2" points="209.99 197.01 207.85 196.8 205.51 194.48 208.49 197.81 207.96 201.97 209.57 199.98 210.38 198.79 209.64 197.24 209.99 197.01"/>
  <path class="cls-2" d="M205.31,194.49l-2-1.68s0,.04,0,.06l2.01,1.63Z"/>
  <polygon class="cls-2" points="232.7 185.94 232.91 186.76 233.26 186.48 232.7 185.94 232.7 185.94"/>
  <polygon class="cls-2" points="248.21 183.97 248.29 183.98 248.49 183.48 248.49 183.4 248.48 183.43 248.21 183.97"/>
  <path class="cls-2" d="M199.22,189.37l1.14,.52c0-.22,0-.44-.01-.68-.01-.35-.07-.66-.17-.93s-.25-.49-.45-.67-.49-.27-.87-.27c-.46,0-.83,.16-1.1,.47-.12,.14-.2,.32-.26,.51l.84,.52,2.03,1.65c0-.05,0-.1,0-.15l-1.15-.96Z"/>
  <polygon class="cls-2" points="234.61 186.07 235.78 186.63 236.44 186.22 235.38 185.66 234.61 186.07"/>
  <polygon class="cls-2" points="233.42 186.94 233.39 186.88 233.34 186.83 233.26 186.88 233.32 186.94 233.42 186.94"/>
  <path class="cls-2" d="M196.99,102.4l.46,.71-.51,1.02,2.17,.51-1.99,2.8-.61,2.6-2.49,3.18,1.07,1.48-1.68-.99-.21,.94-2.27-.23-1.48,.84-4.48,4.69-.41,1.71-1.76,1.48-1.22,.41,.13-.61-2.45,.81,.97,.49,.05,.74-.28,.97-1.55,.66,.66,.61-.21,3.31-.46-.79-2.29-.74,1.35,.79-.63,4.84,1.05,1.89,.21,1.76-.97,1.45-.69,1.43-1.35,.49,1.22-.97,.61-1.78-.53-.05-1.3,1.35-1.35,.15-3.13-.89-2.73,.94-1.22-.18-4.2,1.89-7.13-.35-2.21-2.29-1.45-.07-1.43-1.43-2.62-.81-1.99-.05-2.39,1.35-.59-.66-5.01-.97-2.67-.46-.94-.77-1.5,1.3-2.01-.41-2.39,.94-1.89-.77-1.83,1.09-3.95,.15-.56,.81-2.73-1.02-.53,.59-1.4-.21-3.16,1.25-1.33-.33-.61,.94-1.05,.18,1.05,.89-.35,2.37-.35,.61-2.21,.07,1.27,.89-.13,1.15,.97,.28,.33,3.74,1.35,.99,.53-.13,.03,1.58-1.05,1.33,.43-1.86-1.09,.21,.13-.84-.53-.33-1.17,2.09-1.15,.28-2.49,3.39-2.19,.77-1.99-.13-2.77-2.19-2.52-.79-3.11-.15-.56,1.17v3.87l-1.12,2.29,.25,.97-.49,.21-.89,1.96,.51,5.96,.53,.63-.69,.1-.33,4.17-4.1,2.7-.13,.77-1.07,.1-.13,2.06-1.53,1.02v.74l-2.62,.97-.53,1.12-.41-.51-1.25,.59-.21,1.35,.43,.15-.77,2.7-1.5,2.11-2.09,.43-.94-.61-1.17,.25,.13,.56-1.07,.59-1.3-.25-.53-.94-.97,.66,1.09,1.02-.94,.97,.21,1.76-.49-.41-.81-.63,.07-1.15-2.04,2.32-2.98-.77-.21,.35,.87,.61-.41,2.11,.49,.53-.63-.05-.87,.99,.66,.35-.13,1.27-.46,3.08-.81,1.48-.61,.05,.66,.21-1.71,.84-.87-1.02-.15,1.09-1.4,.1,.94,.31-.97,.41-.51-.43-.07,.63-.63-.35,.15,1.48-.77-.1,.56,1.27-.53,2.6-1.58,.41-1.19,1.76-1.99,.07-.05,1.63-1.02,1.61h-.23l-1.3,.63-.71,1.12-.77-.13-1.96,1.91-2.11,.07-.35-.56-.94,.28-.13,1.63-2.29,2.52-.1-.13-1.83-.61-.31-1.73-.56,.35-.74-.49-2.32,.21-3.11,2.32-.51-.46-1.76,2.21h-2.49l-2.32,3.39,1.09,3.33-1.71,1.78,.28,1.02,1.02,.41,.38,1.48,.69,.33,1.45-.79,.61,.38,1.07-.94,2.39,.07,.87-.94,.49,.28,1.35-2.52-.87-1.63,1.07-.61,.49-1.05,3.46,.41,1.89,1.71-.05,.74,.81-.25-.15-.33,1.96,.28,1.12,1.15,1.4-.21,.97,.94,.28-.25,2.01,2.62-.18,1.17,1.15,.94-.33,.35,.59,.71-.69,1.86,.69,.38,.41,1.91,1.5,.43,.15,1.02,1.76-.23v-1.43l1.48-2.32,2.32-.21,1.17,.51,.61-1.02-.23-.97,1.58-.69,.74-1.55-.53-1.35-.63-.13,.23-1.5-2.11-.35-.41-.69-.87,.43-.28-.49-.61,.15,.18,.81-.38-.71-1.43,.56-1.55-.41,2.75-.21-.59-.56,.38-1.15v1.43l1.09-.18,.41-1.09,.41,.13-.61,.89,1.65-.28,.66,.41,1.07-.81-.79-1.76,1.68-1.3,.81-.35,.69,.41,1.07-1.83,.31,1.5,.46,.84,1.63-1.05,.61-2.98,.97-1.48,1.4-.35,.81,.97,3.33-3.36,2.65,.56,.61,1.09,.35-1.02,1.02-.61-.23-.74,1.05-.69-1.02-.77v-.74l.53-.77-.15-.99,1.02-.89,.63,.15-.71-1.93,.61-.91,1.73-.51,.03-.05,1.12-.15,.07-.74,.59,.07,.74,.89-.25,1.61,.69,.56,.33-.81h.81l1.27-1.3,.07,.35,.43,.05-.91,.35,.28,.49,1.5-.31,.46,.43,1.17-.74,2.24,.87,2.11-.53,.25-.61,1.35,.46,1.37-1.27-.74-.94,.28-.63,.46,1.3,.81-.87,2.85-.31,5.91,.91,3.18,2.42,.03,1.76,.81-.59,1.27,.07-.69-1.37,1.78-.81-.03-1.43-2.17,.97,.69-1.09-.49-.43,.63-.71-.15-.91-.61-.25,.41-.25-1.78-.35,.41-.13,1.22-1.25-.53-.66,.33-.94h-.71l1.35-.84,.05-.91,.77,1.07,.87,1.02,.33-.41,.49-.77-.46,.77-.35,.49,.21,.21-1.55-.41-.77,2.17,.61,.66,.69,1.37-.18,.46-.07,.41,.99,.31,.03,.38,.81-.53,1.09,.28,.13-.63,.89,.77,.94-1.89,.94-.28-1.48,1.81-.21,.77,.61,.28-1.91-.49,.46,1.35,.35,2.24,4.86,.69-2.34,.49,1.33,1.19h1.71l.41-.71,1.25-.41,1.81,.33,.81-.69-.13,.69,.25,.79,1.17-.05,1.58,1.37,.81,.05-.1,.69,1.33,1.19-.1,1.63-.71,.03,2.75,2.29,1.83,.63,.56-.49-.05-1.22,1.19-.56-.49,1.3,1.78,.66,.89,1.12,2.37-1.73,1.37,.43,.94-.35-1.05-1.3,1.17-4.94,1.68-2.32,1.91-.61,.89-.87-.49-1.17,1.58,1.22,1.5-.99-.15-1.05,.81-1.83,.66-.18-.41-.69,1.22-.97-1.76-.53,.43,.53-.35,.35-.46-.63-1.99-.38-.05-3.18,1.27-1.78,1.09,.81,.34-.14c-.4-.61-.76-1.29-1.08-2.05-.59-1.43-.89-3.18-.89-5.25v-4.29h5.16l1.94-2.19-1.12,.81-.35-4.07-.94-1.5v-1.58h.05l.63,.63,.38-.84,.07,.49-.05,.53,1.83,3.89-.63,1.02,3.67,1.12,.74-1.22,.97-.35v-.52c0-2.07-.33-3.43-.98-4.07-.37-.39-.87-.64-1.5-.74-.63-.1-1.46-.15-2.48-.15v-6.66c1.88,0,3.17-.27,3.88-.81,.71-.54,1.07-1.8,1.07-3.77v-6.8c0-1.08-.28-1.97-.83-2.66-.55-.69-1.29-1.04-2.23-1.04-1.1,0-1.89,.42-2.35,1.26-.47,.84-.7,1.65-.7,2.44v4.29h-6.24v-4.36c0-1.53,.24-2.98,.73-4.36,.49-1.38,1.16-2.56,2.02-3.55,.86-.99,1.85-1.77,3-2.37,1.14-.59,2.36-.89,3.67-.89,1.71,0,3.13,.41,4.25,1.22s1.97,1.64,2.54,2.48c.41,.59,.76,1.18,1.07,1.77,.31,.59,.56,1.31,.76,2.14,.37,1.63,.55,4.04,.55,7.25,0,1.82-.03,3.3-.09,4.44-.06,1.13-.21,2.07-.46,2.81-.29,.79-.68,1.46-1.19,2-.51,.54-1.21,1.13-2.11,1.77,.98,.74,1.72,1.43,2.23,2.07,.5,.63,.86,1.35,1.11,2.16l2.77-.64,4.94,.03,.94-1.45,1.5,.14,1.19-1.06h3.08v.44l1.39-.52,.33-.35,2.11-1.35,7.04,1.77h.34v.09l1.02,.26,4.02,2.49c.22-.5,.48-.97,.81-1.37,.4-.51,.88-.92,1.45-1.22,.56-.3,1.17-.46,1.81-.46,.8,0,1.49,.18,2.07,.53,.57,.35,1.05,.83,1.43,1.44,.36,.61,.63,1.3,.8,2.08,.17,.78,.26,1.6,.26,2.48,0,.63,0,1.16-.03,1.59,0,.16-.03,.31-.05,.47l1.15,.43,1.68,2.34v.05l.89,.66,1.22-1.55,1.02,.43-1.07-.69,.59-.53-.66-.28,.59-1.09,.91-.87,.91,.18,4.07,.13,.81,.61,4.97,.84,2.17-.61,.61,.74,1.65-.07,.66,.63,.63-.35,1.15,1.17,2.9,.53,.49,1.5,1.63-1.12,4.23-.46,.41-1.17-.69-.18v-.77l1.83-2.17-1.43-.33,.41-2.52-.43-.53-1.4,1.35-.61-.41,.41-.66-.97,.91-.18-.87-.31-.13-.41-.43-.61,.07-.25,.35,.07-.61-1.25,.94-.31-.33,1.61-.84-.49-1.33,.84,.05-.49-.53-1.58,.69-.66,1.19-.89-.05,.53-1.58,.84-.07-.81-.21,.49-.74,1.22,.21-.03-1.09-.33,.31-.28-.51,1.58-.05-.81,.94,2.98,.94-1.37-1.63,.03-.61,.81-.38,.69,1.61-.43,.61,1.86-.25,.61,.56-.23,.41,1.05,.53-.77,1.43,2.6-2.39,3.23-.89,.74-.13,4.63,.84,.19-.38-.9-.21-.35-1.07h0s.31,.61,.31,.61l.41-.61,.81,.61v.1l.06-.27,1.65-1.05,.99-.05,.61-1.3-3.54,.35,.28-1.43-.53-1.37-2.09,1.3-.1-1.25-1.02-1.22,.15-.38-.53-1.05,.49-.46-.03-1.48,.74-.56-.66-.56-.33-1.93-1.22,.81-1.17-.28-.18-.69,.53-1.83-.23-.25v-.03l.35-.61,.97,.13,.46-.74,.33-2.09-1.76-.41-1.78,1.3-2.65-3.95-1.96-1.5-.07-1.02,.41,.69,1.22-1.37,2.32-.18,.69-.61v1.96l1.17-1.78,.99-.46,1.15,2.11,.84-.49,2.62,1.19,1.93,.07,1.68,1.96,.74,.43,.84,.41,1.53-1.25,.63,.41,.21-.38,.89-1.76-.91-.41-.53-1.43,1.3-.28-.49-.41,.33-.28,.63,.15-.43-.81,.31-.56-1.86-.81-.13-.77,.35-3.26-.51-1.27,.61-2.24-2.09-.87,.49-2.55-.15-.31-.87-1.71,.21-1.09-1.43-1.15,.25-.97,3.13-.28,1.43-3.16,1.68-.23,1.78,.94,.53-.33,.33-1.07-.59-.03-.13-1.81,1.12-.53,.15-.81-.81-1.78,.33-1.99,1.65,.81,.66-1.63-.81-.79,.28-1.17-1.02-.21-2.37-2.09,.18-1.3-.53,.15-.49-.61,.33-.61,2.11-.21,.15-2.06-1.96-1.89-1.37-2.39-.07-2.62-1.02,.61-2.49-4.76-.43-.41-1.19,.61-.81-1.22,.05-.07v-1.89l1.3-.97-.35-.56,.71-1.12-.09-.08h-55.68l.04,.47Zm-55.17,82.25c.51,.64,.89,1.38,1.13,2.22,.25,.89,.39,1.94,.43,3.14,.04,1.21,.06,2.75,.06,4.62,0,1.73-.03,3.15-.09,4.29-.06,1.13-.15,2.07-.28,2.81-.12,.79-.29,1.45-.49,2-.2,.54-.47,1.11-.79,1.7-.77,1.38-1.76,2.53-2.96,3.44-1.2,.91-2.78,1.37-4.74,1.37-.98,0-2.02-.2-3.12-.59-1.1-.39-2.1-1.04-3-1.92s-1.64-2.04-2.23-3.48c-.59-1.43-.89-3.18-.89-5.25v-4.29h6.24v3.92c0,1.18,.27,2.16,.83,2.92,.55,.76,1.29,1.15,2.23,1.15s1.68-.38,2.23-1.15c.55-.76,.83-1.79,.83-3.07v-7.54c0-2.07-.33-3.43-.98-4.07-.37-.39-.87-.64-1.5-.74-.63-.1-1.46-.15-2.48-.15v-6.66c1.88,0,3.17-.27,3.88-.81,.71-.54,1.07-1.8,1.07-3.77v-6.8c0-1.08-.28-1.97-.83-2.66-.55-.69-1.29-1.04-2.23-1.04-1.1,0-1.89,.42-2.35,1.26-.47,.84-.7,1.65-.7,2.44v4.29h-6.24v-4.36c0-1.53,.24-2.98,.73-4.36,.49-1.38,1.16-2.56,2.02-3.55,.86-.99,1.85-1.77,3-2.37,1.14-.59,2.36-.89,3.67-.89,1.71,0,3.13,.41,4.25,1.22s1.97,1.64,2.54,2.48c.41,.59,.76,1.18,1.07,1.77,.31,.59,.56,1.31,.76,2.14,.37,1.63,.55,4.04,.55,7.25,0,1.82-.03,3.3-.09,4.44-.06,1.13-.21,2.07-.46,2.81-.29,.79-.68,1.46-1.19,2-.51,.54-1.21,1.13-2.11,1.77,.98,.74,1.72,1.43,2.23,2.07Zm87.02,1.75h0s-.46,.77-.46,.77l-.03-.03,.49-.74Z"/>
  <polygon class="cls-5" points="246.66 59.61 246.59 59.52 246.65 59.62 246.66 59.61"/>
  <path class="cls-5" d="M250.62,80.47c.28-.34,.64-.63,1.08-.86,.25-.13,.52-.21,.8-.27l.17-.65,1.43-.23-.69-2.04,1.63-1.4-.93-1.56h-3.49v7Z"/>
  <path class="cls-5" d="M250.47,98.74l.79-1.48,1.35,.74,.71-.33-.49-1.09-.56-.43s-.09,.02-.14,.02c-.6,0-1.18-.13-1.73-.38-.55-.26-1.04-.63-1.46-1.11-.42-.49-.76-1.07-1.01-1.75-.25-.68-.38-1.46-.38-2.33v-1.09h2.38l-.57-.61,2.04-1.89,.28-1.17-.51-1.55,.56-1.4-.09-.19s-.09,.03-.12,.05c-.18,.11-.33,.24-.45,.38-.12,.15-.21,.3-.27,.47-.1,.22-.16,.35-.18,.4h-2.71v-14h4.24l2.69-3.1-.33-.84-2.17,.69-1.68-.74,.31-1.09-.91-.69,.18-1.19-.61,.59-.99-.61,.13-2.37-.53,.77-.63-.33-.93-1.43-1.16,.56-1.27,2.45-.35-.61-.69,1.15-.81-.59-.38,.61-1.12,.21,.61,.61v.87l1.58,.89,.49,1.15-.74,2.11-1.25-.49-2.85-2.85-.99,1.3-1.09-.69-1.78,.15-2.98,2.77-.61,.07-.61-.97-1.35,.35-1.01-.28c-.09,.35-.17,.69-.28,1.07l-8.19,26.47h-6.97l7.09-22.11-.12-.15c-.21,.2-.52,.36-.95,.48-.43,.12-.99,.18-1.68,.18-1.1,0-2.12-.32-3.06-.96-.94-.64-1.67-1.45-2.2-2.44-.16-.28-.3-.58-.42-.88l-.25,.07-1.3-.28,.13-1.43-1.55-.13-.13-.81-.71,.1-.71,1.05,1.12,1.43-1.33,1.19,.13,1.53-.49,.31,1.96,.81-.05,2.11,.99,.81,.41,1.96-1.43,.35-1.19,1.09-1.15-.43-1.3,2.14-2.67-.07-.13,1.07-1.02-.61-1.35,1.55-.61-.38-.77,1.5-.61,.31,.07,1.05-1.02,.66,.43,.81-.61,2.24,.99,1.35-.59,1.53-.84,.46,1.05,2.29-.84,.41,.77,.56-.13,1.22,.87,.66-1.48,.43-.15,.53,1.09-.15-.77,1.58,.56,.15,.08,.86h55.68l-1.74-1.54-.41-1.65Zm-16.44-2.8h-3.08v-3.72h3.08v3.72Zm11.43-5.49c-.02,.55-.05,1-.09,1.37-.06,.39-.14,.72-.23,.98s-.21,.55-.35,.84c-.4,.8-.94,1.42-1.61,1.86-.67,.44-1.43,.66-2.28,.66s-1.6-.22-2.26-.68c-.66-.45-1.2-1.06-1.6-1.84-.16-.29-.29-.57-.38-.84s-.16-.6-.2-.98c-.06-.37-.1-.82-.12-1.37-.02-.55-.03-1.25-.03-2.1,0-.8,0-1.46,.03-1.99,.02-.52,.05-.98,.09-1.37,.04-.37,.1-.7,.18-1,.08-.3,.17-.62,.27-.96l4.04-13.05h3.44l-3.5,10.9,.06,.07c.1-.1,.26-.18,.47-.24s.49-.09,.83-.09c.54,0,1.04,.16,1.51,.47,.46,.32,.82,.72,1.09,1.2,.14,.27,.25,.54,.33,.8,.08,.27,.15,.62,.21,1.06,.04,.44,.07,.99,.09,1.66,.02,.67,.03,1.51,.03,2.53,0,.85,0,1.55-.03,2.1Z"/>
  <path class="cls-5" d="M240.91,83.9c-.4,0-.75,.17-1.06,.51s-.45,.79-.45,1.35v4.81c0,.56,.15,1.01,.45,1.35,.3,.34,.65,.51,1.06,.51s.75-.17,1.05-.51c.3-.34,.45-.79,.45-1.35v-4.81c0-.56-.15-1.01-.45-1.35-.3-.34-.65-.51-1.05-.51Z"/>
  <path class="cls-5" d="M250.79,91.39l-.09-.3c.02,.1,.05,.2,.09,.3Z"/>
  <path class="cls-4" d="M216.79,54.16c0-1.13,.31-2.04,.92-2.74,.61-.69,1.32-1.04,2.14-1.04s1.53,.35,2.14,1.04c.61,.69,.92,1.6,.92,2.74v5.36h6.23c0-.28,0-.56,0-.85,0-1.73-.02-3.14-.06-4.25-.04-1.11-.1-2.06-.18-2.85-.12-.74-.29-1.38-.49-1.92-.21-.54-.45-1.11-.73-1.7-.82-1.58-1.9-2.82-3.24-3.73-1.35-.91-2.87-1.37-4.59-1.37s-3.25,.44-4.62,1.33c-1.37,.89-2.46,2.14-3.27,3.77-.29,.59-.52,1.16-.7,1.7s-.32,1.18-.4,1.92c-.12,.79-.2,1.74-.24,2.85-.04,1.11-.06,2.53-.06,4.25,0,.3,0,.57,0,.85h6.24v-5.36Z"/>
  <path class="cls-4" d="M210.86,67.17c.08,.89,.2,1.62,.37,2.18,.07,.24,.16,.48,.25,.71l.54-.14,.28-1.37,2.37-.81-.07,.69,1.45,.69-.03,2.65,.77-.03,.66,.84,1.63-.15,1.05,.21,1.71-2.57,1.96,.46,.25-.81,.89,.28-1.27-2.04,.59-.28-.21-1.76,.53-.49,.51-.25,1.53,.38,.97,.71-1.3,.91-.61,1.91,.49,.61,1.68-1.4,.44,.12c.08-.3,.17-.61,.24-.89,.14-.62,.27-1.32,.4-2.11,.08-.74,.14-1.64,.18-2.7,.03-.87,.05-1.93,.06-3.18h-6.23v4.4c0,1.13-.31,2.05-.92,2.74-.61,.69-1.33,1.04-2.14,1.04s-1.53-.34-2.14-1.04c-.61-.69-.92-1.6-.92-2.74v-4.4h-6.24c0,1.69,.02,3.13,.06,4.29,.04,1.36,.12,2.48,.24,3.36Z"/>
  <path class="cls-3" d="M226.15,69.68l-.49-.61,.61-1.91,1.3-.91-.97-.71-1.53-.38-.51,.25-.53,.49,.21,1.76-.59,.28,1.27,2.04-.89-.28-.25,.81-1.96-.46-1.71,2.57-1.05-.21-1.63,.15-.66-.84-.77,.03,.03-2.65-1.45-.69,.07-.69-2.37,.81-.28,1.37-.54,.14c.12,.3,.26,.6,.42,.88,.53,.99,1.26,1.8,2.2,2.44,.94,.64,1.96,.96,3.06,.96,.69,0,1.25-.06,1.68-.18,.43-.12,.74-.28,.95-.48l.12,.15-7.09,22.11h6.97l8.19-26.47c.11-.38,.19-.71,.28-1.07l-.44-.12-1.68,1.4Z"/>
  <rect class="cls-3" x="230.96" y="92.21" width="3.08" height="3.72"/>
  <path class="cls-3" d="M245.37,84.16c-.06-.44-.13-.79-.21-1.06-.08-.27-.19-.54-.33-.8-.26-.49-.62-.89-1.09-1.2-.46-.32-.96-.47-1.51-.47-.34,0-.62,.03-.83,.09s-.37,.14-.47,.24l-.06-.07,3.5-10.9h-3.44l-4.04,13.05c-.1,.34-.19,.66-.27,.96-.08,.3-.14,.64-.18,1-.04,.39-.07,.84-.09,1.37-.02,.52-.03,1.19-.03,1.99,0,.85,0,1.55,.03,2.1,.02,.55,.06,1,.12,1.37,.04,.39,.11,.72,.2,.98s.22,.55,.38,.84c.4,.78,.93,1.39,1.6,1.84,.66,.45,1.42,.68,2.26,.68s1.6-.22,2.28-.66c.67-.44,1.21-1.06,1.61-1.86,.14-.29,.26-.57,.35-.84s.17-.6,.23-.98c.04-.37,.07-.82,.09-1.37,.02-.55,.03-1.25,.03-2.1,0-1.02,0-1.87-.03-2.53-.02-.67-.05-1.22-.09-1.66Zm-2.96,6.42c0,.56-.15,1.01-.45,1.35-.3,.34-.65,.51-1.05,.51s-.75-.17-1.06-.51c-.3-.34-.45-.79-.45-1.35v-4.81c0-.56,.15-1.01,.45-1.35s.65-.51,1.06-.51,.75,.17,1.05,.51c.3,.34,.45,.79,.45,1.35v4.81Z"/>
  <polygon class="cls-6" points="252.22 70.6 252.42 72.71 252.83 73.27 254.1 73.45 254.12 73.47 256.71 73.47 256.71 69.97 252.15 69.97 252.01 70.14 252.22 70.6"/>
  <path class="cls-6" d="M251.12,81.53l.53,1.14c.16-.07,.33-.11,.54-.11,.42,0,.77,.18,1.04,.55s.41,.8,.41,1.31v6.09c0,.61-.13,1.08-.38,1.42-.25,.34-.61,.51-1.07,.51s-.84-.18-1.13-.53c-.12-.14-.19-.32-.26-.51l.37,1.3-.51,1.48,.59,1.17,1.02,.79c.55-.02,1.08-.13,1.59-.37,.55-.26,1.04-.63,1.46-1.11,.42-.49,.76-1.07,1.01-1.75,.25-.68,.38-1.46,.38-2.33v-6.71c0-1.53-.33-2.68-.98-3.45-.65-.77-1.5-1.15-2.55-1.15-.24,0-.46,.03-.68,.08l-.29,1.12-1.09,1.07Z"/>
  <path d="M250.71,91.1c-.05-.21-.09-.42-.09-.67v-.95h-.69l.45,.48,.33,1.13Z"/>
  <path class="cls-3" d="M250.66,94.17l.51-1.48-.37-1.3c-.03-.09-.06-.19-.09-.3l-.33-1.13-.45-.48h-2.38v1.09c0,.88,.12,1.65,.38,2.33,.25,.68,.59,1.26,1.01,1.75,.42,.49,.91,.86,1.46,1.11,.55,.25,1.13,.38,1.73,.38,.05,0,.1-.01,.14-.02l-1.02-.79-.59-1.17Z"/>
  <path class="cls-3" d="M247.91,83.97h2.71s.08-.18,.18-.4c.06-.17,.15-.33,.27-.47,.12-.15,.27-.27,.45-.38,.04-.02,.08-.03,.12-.05l-.53-1.14,1.09-1.07,.29-1.12c-.28,.06-.55,.14-.8,.27-.44,.23-.8,.52-1.08,.86v-7h3.49v-.02s-1.29-.18-1.29-.18l-.41-.56-.21-2.11-.21-.46,.14-.16h-4.24v14Z"/>
  <polygon class="cls-6" points="258.76 76.46 261.48 76.46 261.48 73.47 264.85 73.47 259.46 95.93 262.71 95.93 267.93 73.69 267.93 69.97 258.76 69.97 258.76 76.46"/>
  <path class="cls-3" d="M142.88,178.81c.25-.74,.4-1.67,.46-2.81,.06-1.13,.09-2.61,.09-4.44,0-3.2-.18-5.62-.55-7.25-.2-.84-.46-1.55-.76-2.14-.31-.59-.66-1.18-1.07-1.77-.57-.84-1.42-1.66-2.54-2.48s-2.54-1.22-4.25-1.22c-1.31,0-2.53,.3-3.67,.89-1.14,.59-2.14,1.38-3,2.37-.86,.99-1.53,2.17-2.02,3.55-.49,1.38-.73,2.83-.73,4.36v4.36h6.24v-4.29c0-.79,.23-1.6,.7-2.44,.47-.84,1.25-1.26,2.35-1.26,.94,0,1.68,.35,2.23,1.04,.55,.69,.83,1.58,.83,2.66v6.8c0,1.97-.36,3.23-1.07,3.77-.71,.54-2.01,.81-3.88,.81v6.66c1.02,0,1.84,.05,2.48,.15,.63,.1,1.13,.35,1.5,.74,.65,.64,.98,2,.98,4.07v7.54c0,1.28-.28,2.3-.83,3.07-.55,.76-1.29,1.15-2.23,1.15s-1.68-.38-2.23-1.15c-.55-.76-.83-1.74-.83-2.92v-3.92h-6.24v4.29c0,2.07,.29,3.82,.89,5.25,.59,1.43,1.33,2.59,2.23,3.48s1.9,1.53,3,1.92c1.1,.39,2.14,.59,3.12,.59,1.96,0,3.54-.46,4.74-1.37,1.2-.91,2.19-2.06,2.96-3.44,.33-.59,.59-1.16,.79-1.7,.2-.54,.37-1.21,.49-2,.12-.74,.21-1.67,.28-2.81,.06-1.13,.09-2.56,.09-4.29,0-1.87-.02-3.41-.06-4.62-.04-1.21-.18-2.25-.43-3.14-.24-.84-.62-1.58-1.13-2.22-.51-.64-1.25-1.33-2.23-2.07,.9-.64,1.6-1.23,2.11-1.77,.51-.54,.91-1.21,1.19-2Z"/>
  <path class="cls-4" d="M161.62,188.14l-1.43,2.67-1.78,.64v7.03c0,1.28-.28,2.3-.83,3.07-.55,.76-1.29,1.15-2.23,1.15s-1.68-.38-2.23-1.15c-.55-.76-.83-1.74-.83-2.92v-3.92h-1.07l-.4,.46-.28,1.61-1.58,1.86-.79-.1,.79,.43-.79,1.89-.41,3.08,1.93,1.68-1.68,.68c.35,.53,.74,1.01,1.16,1.43,.9,.89,1.9,1.53,3,1.92,1.1,.39,2.14,.59,3.12,.59,1.96,0,3.54-.46,4.74-1.37,1.2-.91,2.19-2.06,2.96-3.44,.33-.59,.59-1.16,.79-1.7,.2-.54,.37-1.21,.49-2,.12-.74,.21-1.67,.28-2.81,.06-1.13,.09-2.56,.09-4.29,0-1.87-.02-3.41-.06-4.62-.04-1.21-.18-2.25-.43-3.14,0-.02-.02-.04-.02-.06l-1.33,.3-1.19,1.02Z"/>
  <path class="cls-3" d="M147.77,203.94l.41-3.08,.79-1.89-.79-.43,.79,.1,1.58-1.86,.28-1.61,.4-.46h-5.16v4.29c0,2.07,.29,3.82,.89,5.25,.31,.76,.67,1.44,1.08,2.05l1.68-.68-1.93-1.68Z"/>
  <path class="cls-3" d="M160.8,182.59c.9-.64,1.6-1.23,2.11-1.77,.51-.54,.91-1.21,1.19-2,.25-.74,.4-1.67,.46-2.81,.06-1.13,.09-2.61,.09-4.44,0-3.2-.18-5.62-.55-7.25-.2-.84-.46-1.55-.76-2.14-.31-.59-.66-1.18-1.07-1.77-.57-.84-1.42-1.66-2.54-2.48s-2.54-1.22-4.25-1.22c-1.31,0-2.53,.3-3.67,.89-1.14,.59-2.14,1.38-3,2.37-.86,.99-1.53,2.17-2.02,3.55-.49,1.38-.73,2.83-.73,4.36v4.36h6.24v-4.29c0-.79,.23-1.6,.7-2.44,.47-.84,1.25-1.26,2.35-1.26,.94,0,1.68,.35,2.23,1.04,.55,.69,.83,1.58,.83,2.66v6.8c0,1.97-.36,3.23-1.07,3.77-.71,.54-2.01,.81-3.88,.81v6.66c1.02,0,1.84,.05,2.48,.15,.63,.1,1.13,.35,1.5,.74,.65,.64,.98,2,.98,4.07v.52l1.78-.64,1.43-2.67,1.19-1.02,1.33-.3c-.24-.81-.61-1.53-1.11-2.16-.51-.64-1.25-1.33-2.23-2.07Z"/>
  <rect class="cls-6" x="166.47" y="206.08" width="3.08" height="3.72"/>
  <polygon class="cls-6" points="174.3 184.89 172.41 186.57 172.41 190.51 175.49 187.77 175.49 209.8 178.56 209.8 178.56 184.27 176.38 185.09 174.3 184.89"/>
  <polygon class="cls-3" points="175.49 183.83 174.3 184.89 176.38 185.09 178.56 184.27 178.56 183.83 175.49 183.83"/>
  <polygon class="cls-6" points="186.7 183.83 183.63 186.57 183.63 190.51 186.7 187.77 186.7 209.8 189.78 209.8 189.78 183.92 189.44 183.83 186.7 183.83"/>
  <polygon class="cls-3" points="189.44 183.83 189.78 183.92 189.78 183.83 189.44 183.83"/>
  <path class="cls-6" d="M202.96,191.44h-.71l-.13-.74-1.76-.8c0,.11,0,.22,0,.32,0,.04,0,.08,0,.12l2.94,2.47c.03-.2,.04-.4,.06-.61l-.61-.23,.21-.53Z"/>
  <path class="cls-6" d="M194.63,187.08c-.24,.68-.36,1.41-.36,2.19v2.04h3.08v-2.12c0-.34,.05-.63,.14-.88l-2.67-1.65c-.06,.14-.13,.27-.19,.41Z"/>
  <path class="cls-6" d="M200.3,191.98c-.04,.47-.2,1.03-.48,1.66l-5.55,12.65v3.5h9.17v-3.72h-5.55l4.52-10.54c.24-.56,.43-1.03,.57-1.42,.14-.39,.24-.78,.3-1.17,0-.03,0-.06,0-.09l-2.94-2.38c0,.58-.02,1.09-.06,1.5Z"/>
  <path class="cls-3" d="M203.44,190.14c0-.88-.09-1.7-.26-2.48-.17-.78-.44-1.47-.8-2.08-.38-.61-.86-1.09-1.43-1.44-.57-.35-1.26-.53-2.07-.53-.64,0-1.25,.15-1.81,.46-.56,.3-1.05,.71-1.45,1.22-.33,.4-.59,.87-.81,1.37l2.67,1.65c.07-.19,.15-.37,.26-.51,.27-.32,.64-.47,1.1-.47,.38,0,.67,.09,.87,.27s.35,.41,.45,.67,.16,.58,.17,.93c0,.24,0,.46,.01,.68l1.76,.8,.13,.74h.71l-.21,.53,.61,.23c.01-.16,.04-.31,.05-.47,.02-.42,.03-.95,.03-1.59Z"/>
  <path class="cls-3" d="M200.36,190.48l2.94,2.38s0-.04,0-.06l-2.94-2.47c0,.05,0,.1,0,.15Z"/>
</svg>