<?xml version="1.0" encoding="UTF-8"?>
<svg id="Layer_1" data-name="Layer 1" xmlns="http://www.w3.org/2000/svg" viewBox="0 0 283.46 283.46">
  <defs>
    <style>
      .cls-1 {
        fill: none;
      }

      .cls-2 {
        fill: #f25d55;
      }

      .cls-3 {
        fill: #fff;
      }

      .cls-4 {
        fill: #d1c1c1;
      }

      .cls-5 {
        fill: #6d8cf2;
      }

      .cls-6 {
        fill: #606060;
      }
    </style>
  </defs>
  <path class="cls-1" d="M104.35,216.98l-.08-.37c0,.14,0,.29,0,.43l.07-.06Z"/>
  <path class="cls-1" d="M131.42,35.25v-6.32c0-1.04-.31-1.91-.92-2.62-.61-.71-1.33-1.07-2.14-1.07s-1.53,.36-2.14,1.07c-.61,.72-.92,1.59-.92,2.62v6.32h6.11Z"/>
  <path class="cls-1" d="M150.2,67.01c.1-.07,.19-.16,.28-.26,.3-.35,.45-.78,.45-1.29v-.76l-1.5,1.17,.77,1.15Z"/>
  <path class="cls-1" d="M171.86,67.28c.4,0,.75-.17,1.05-.51,.3-.34,.45-.79,.45-1.35v-4.81c0-.56-.15-1.01-.45-1.35-.3-.34-.65-.51-1.05-.51s-.75,.17-1.06,.51c-.3,.34-.45,.79-.45,1.35v4.81c0,.56,.15,1.01,.45,1.35s.65,.51,1.06,.51Z"/>
  <path class="cls-1" d="M150.93,63.85v-3.49c0-.51-.15-.94-.45-1.29-.3-.35-.65-.53-1.05-.53s-.75,.18-1.06,.53c-.3,.35-.45,.78-.45,1.29v2.18l1.66-1.05,1.36,2.36Z"/>
  <path class="cls-1" d="M104.82,71.35v-3.67l-2.36-2.63,.62-1.3-1.35,.44-1.08-.94,.98-1.7,1.87-.67,6.17,.94-1.25-1.7,2.68-1.87v-1.87l4.47-4.65-.71-2.06,2.14-.49,.44-2.46,2.32-.05c.07-.21,.14-.41,.23-.6l.89-2.84,1.17-.22c-.68-.7-1.23-1.36-1.63-1.99-.43-.67-.74-1.42-.95-2.26-.2-.84-.33-1.8-.37-2.88,0-.2-.01-.41-.02-.63H41v40.83H109.37l-.25-.89-4.3-3.84Z"/>
  <path class="cls-1" d="M127.42,35.36l2.65,4.3c.15-.12,.29-.26,.43-.42,.61-.71,.92-1.59,.92-2.62v-1.37h-4.03l.03,.11Z"/>
  <path class="cls-1" d="M149.79,54.82l.07,.86c.22-.08,.43-.23,.62-.44,.3-.35,.45-.78,.45-1.29v-3.79c0-.51-.15-.94-.45-1.29-.3-.35-.65-.53-1.05-.53s-.75,.18-1.06,.53c-.3,.35-.45,.78-.45,1.29v3.79c0,.33,.09,.62,.22,.89l1.66-.02v.02Z"/>
  <polygon class="cls-1" points="125.3 35.25 125.3 36.54 127.39 35.25 125.3 35.25"/>
  <path class="cls-1" d="M137.23,38.77c-.21,.84-.52,1.59-.95,2.26s-1.01,1.37-1.74,2.11c.73,.69,1.31,1.38,1.74,2.07,.43,.69,.74,1.5,.95,2.44,.19,.88,.31,1.95,.35,3.19l3.07,2.78-.13,1.65,1.16,.22,.27,2.6,2.6,3.62,.3,.18c0-.28,0-.57,.02-.82,.02-.67,.08-1.23,.18-1.7s.26-.86,.47-1.2c.21-.34,.5-.68,.86-1.02-.36-.36-.65-.71-.86-1.04-.07-.11-.13-.24-.19-.37l-.94,.24-1.16-1.08,1.8-.03c-.08-.39-.14-.81-.16-1.3-.02-.53-.03-1.19-.03-1.97,0-.7,.02-1.31,.06-1.8,.04-.5,.11-.93,.21-1.29,.1-.36,.22-.69,.35-.98,.13-.29,.3-.6,.5-.91,.4-.63,.91-1.12,1.51-1.48,.6-.35,1.26-.53,1.96-.53s1.36,.18,1.96,.53c.6,.35,1.11,.84,1.51,1.48,.2,.32,.37,.62,.51,.91,.14,.29,.26,.62,.36,.98,.1,.36,.17,.8,.2,1.29,.03,.5,.04,1.1,.04,1.8,0,.78,0,1.44-.03,1.97-.02,.54-.08,1.01-.18,1.42-.1,.41-.26,.78-.47,1.11-.21,.33-.5,.67-.86,1.04,.36,.34,.65,.68,.86,1.02,.21,.34,.37,.74,.47,1.2s.16,1.03,.18,1.7c.02,.67,.03,1.49,.03,2.46,0,.8-.01,1.46-.04,1.99,0,.03,0,.06,0,.09l1.03,.13,2.5,2.01,4.67-19.42h-3.38v2.99h-2.71v-6.49h9.17v3.72l-5.02,21.39,2.25,1.8-.59,.67,2.41,3.4-1.09,.29h62.83V35.25h-88.41c0,.21-.01,.43-.02,.63-.04,1.08-.16,2.05-.37,2.88Zm30.08,22.44c.02-.52,.05-.98,.09-1.37,.04-.36,.1-.7,.18-1,.08-.3,.17-.62,.27-.97l4.04-13.05h3.44l-3.5,10.9,.06,.07c.1-.1,.26-.18,.47-.24,.21-.06,.49-.09,.83-.09,.54,0,1.04,.16,1.51,.47,.46,.32,.82,.72,1.09,1.2,.14,.27,.25,.53,.33,.8,.08,.27,.15,.62,.21,1.06,.04,.44,.07,.99,.09,1.66,.02,.67,.03,1.51,.03,2.53,0,.85,0,1.55-.03,2.1-.02,.55-.05,1-.09,1.37-.06,.39-.14,.72-.23,.98s-.21,.55-.35,.84c-.4,.8-.94,1.42-1.61,1.86-.67,.44-1.43,.66-2.28,.66s-1.6-.22-2.26-.67c-.66-.45-1.2-1.06-1.6-1.84-.16-.29-.29-.57-.38-.84s-.16-.6-.2-.98c-.06-.37-.1-.82-.12-1.37-.02-.55-.03-1.25-.03-2.1,0-.8,0-1.46,.03-1.99Z"/>
  <path class="cls-2" d="M238.86,230.54l-4.08-2.02-3.89,.05-2.78-2.28-3.09,.32-2.19-.67-1.65-.62-4.74-3.59-5.95-1.79-1.6-1.65,.13,1.52-1.75,.36,.54,2.06-1.03,1.57-3.27,3.59,3.27-4.52-.22-1.92-.98,.22-2.51-.22,1.08-1.57,2.24,.1-.81-.17,.36-1.79,.98-.54-2.41-1.87-1.35-3.13,.98-2.09-.81-.76,2.09,1.08-.36-1.16-5.86-3.59-5.46-7.38-1.92-10.6-2.46-3.59-.71-2.63-.54-3.22,.86-1.11,.13-.1-.27-2.06-1.6,1.11,.67-1.7,.98,.22-1.3-.71,.22-2.82-1.08,1.16-2.51-.22,2.51,.13,2.02-3.22-.71-2.14-1.79-1.35-2.86-3.17,.98-1.7-1.57,1.3-.49-.81-2.24,3.81h-.05l-7.3,.1,2.63-.71,4.33-.22,.81-2.28,1.3-1.43,2.41-.22-2.51-2.51-2.9-6.79-.89-1.75-2.33-3.59,.4-1.7-2.63-3.81,3.22,4.25-3.67-6.79-1.21-.22,1.38-.22,.89-2.95,1.38-.62-1.75-3.35-.71-3.17-2.41-2.78-1.87-4.74,2.09-7.2-1.65-2.02-3.13-1.52,2.86,.67-1.6-.86-1.79-6.05-.54,.67-.81-1.52,.36-.71,.86,1.3,2.6-3.32,.4-3.81-1.57-1.43,.13-8.14-2.06-.94,.27-3.62-2.41-3.05,.49-1.48,.12-.03h-53.82l1.18,4.25-.44,2.09,2.28,3.13,.17,2.24,4.08,.98-3.09,1.21-.44,2.6-3.27,2.6-2.6-.71-4.7,3.98-1.75-.4-1.08,1.6,1.3,2.82-1.43,1.3,.81,.89-3.76,2.82-1.84,.13-1.38-1.7h-2.63l-3.94,1.08-2.86,4.47-3.44,.81-1.25,3.32-3.22,2.06-1.65,3.32-1.79,.36,3.13,1.97-1.65,.36-.13,3.32-3.22,.27-1.48,3.05-.59,2.14,1.35,1.97-.76,1.43,.49,1.79,2.63,3.89,4.3,.98,.49,3.09,1.16,1.52,1.08-.1,.98,2.36,2.24-.22,2.73-1.3,1.43,1.21-1.38,1.25,.81,1.11-1.08,.86,1.84,3.54-3.94,1.11-4.11,2.51-.1,4.52-2.51,2.6,.49,1.21,2.46,.81v2.78l1.97,1.79-1.84,1.57-.94,3.54-2.63,1.97,2.86,4.74-.86,1.21,1.25,3.54,3.09,2.63,3.44-.49,.2-.24c.12-.85,.31-1.67,.59-2.47,.49-1.38,1.16-2.56,2.02-3.55,.86-.99,1.85-1.77,3-2.37,1.14-.59,2.36-.89,3.67-.89,1.71,0,3.13,.41,4.25,1.22s1.97,1.64,2.54,2.48c.41,.59,.76,1.18,1.07,1.77,.31,.59,.56,1.31,.76,2.14,.37,1.63,.55,4.04,.55,7.25,0,1.82-.03,3.3-.09,4.44-.06,1.13-.21,2.07-.46,2.81-.29,.79-.68,1.45-1.19,2-.51,.54-1.21,1.13-2.11,1.77,.98,.74,1.72,1.43,2.23,2.07,.51,.64,.89,1.38,1.13,2.22,.25,.89,.39,1.94,.43,3.14,0,.29,.02,.61,.03,.94l.08,.37-.07,.06c.02,.95,.03,2.02,.03,3.26,0,1.73-.03,3.15-.09,4.29-.04,.72-.09,1.36-.16,1.92l5.39,4.36,9.84-40.96h-6.85v6.06h-5.5v-13.16h18.59v7.54l-10.58,45.1h-2.44s2.28,.01,2.28,.01l1.16,9.52-.49,2.36,4.3-.89,6.79-3.35-.17,1.38,4.38,1.25,2.41,2.46,2.51-.36,7.6-4.43,.13-3.4,1.65-.76,4.3,3.71,1.52-3.49-.36-3.94,4.2,.62,1.08-2.28,2.24,.98,.77,.27v-21.7l-3.08,2.73v-3.94l3.08-2.73h3.08v25.96h-.19l.21,1.2,1.92-.13,.1,1.7,1.92-.89,.98,.49-.13,.98,1.92-.36-.05,.94-.94,.44,1.21-.17-.36,1.25,2.51,1.92,.94,2.14h2.28l-.94-.71,.36-1.52,1.16,.22,.22,1.35,1.79-1.79-.67,1.65,2.14,.32,.71,2.06-.4,.27,.05,.54,1.08,.71-.17-1.79,.76-.59-.86-1.52,.44-2.63-1.52-1.3,1.52-.4,1.97,1.92,.89,.98-.44,.86,1.79,.32,.44-2.51,1.11,1.21,1.21-1.35,1.03,1.21-.22,2.19,.81,.94,1.7-.98,.13,1.3,2.82-2.09,1.11,.22,1.75-2.28,2.19,.4v-2.14l1.3-.05,.71-1.38,.36-.27,7.65,1.57,2.6,.44,2.14-1.38,5.28,1.97,1.16-1.3,1.84-.13,3.32,.86,1.43,1.43,5.28-1.52,4.6,1.08-.94-2.02,.36-4.3,1.92-2.9,2.46-.44,1.08-1.57-1.87,.44Zm-108.44,4.92h-3.08v-3.72h3.08v3.72Zm12.21-3.87h-1.48v3.87h-3.08v-3.87h-6.12v-3.5l4.43-18.6h3.26l-4.61,18.6h3.04v-7.4h3.08v7.4h1.48v3.5Zm10.46,.15v3.72h-9.17v-3.5l5.55-12.65c.28-.63,.44-1.19,.48-1.66,.04-.47,.06-1.06,.06-1.77,0-.32,0-.65-.02-1-.01-.35-.07-.66-.17-.93-.1-.27-.25-.49-.45-.67-.2-.18-.49-.27-.87-.27-.46,0-.83,.16-1.1,.47-.27,.32-.41,.78-.41,1.39v2.11h-3.08v-2.04c0-.78,.12-1.51,.36-2.19,.24-.68,.57-1.28,1-1.79,.4-.51,.88-.92,1.45-1.22,.56-.3,1.17-.46,1.81-.46,.8,0,1.49,.18,2.07,.53,.57,.35,1.05,.83,1.43,1.44,.36,.61,.63,1.3,.8,2.08,.17,.78,.26,1.6,.26,2.48,0,.63,0,1.16-.03,1.59-.02,.43-.06,.83-.12,1.22-.06,.39-.16,.78-.3,1.17-.14,.39-.33,.86-.57,1.42l-4.52,10.54h5.55Z"/>
  <path class="cls-5" d="M126.22,39.25c.61,.71,1.32,1.07,2.14,1.07,.63,0,1.2-.22,1.71-.65l-2.65-4.3-.03-.11-2.08,1.29v.08c0,1.04,.31,1.91,.92,2.62Z"/>
  <path class="cls-5" d="M149.42,55.76c.15,0,.3-.03,.44-.09l-.07-.86v-.02l-1.66,.02c.07,.14,.13,.28,.23,.4,.3,.35,.65,.53,1.06,.53Z"/>
  <path class="cls-5" d="M128.36,45.94c-.82,0-1.53,.36-2.14,1.07-.61,.71-.92,1.59-.92,2.62v10.35c0,1.04,.31,1.91,.92,2.62,.61,.72,1.32,1.07,2.14,1.07s1.53-.36,2.14-1.07c.61-.71,.92-1.59,.92-2.62v-10.35c0-1.04-.31-1.91-.92-2.62-.61-.71-1.33-1.07-2.14-1.07Z"/>
  <path class="cls-5" d="M145.03,54.87l-1.8,.03,1.16,1.08,.94-.24c-.11-.23-.21-.48-.28-.75,0-.04-.01-.08-.02-.12Z"/>
  <path class="cls-5" d="M148.37,66.75c.3,.35,.65,.53,1.06,.53,.28,0,.54-.09,.78-.27l-.77-1.15,1.5-1.17v-.85l-1.36-2.36-1.66,1.05v2.93c0,.51,.15,.94,.45,1.29Z"/>
  <path class="cls-5" d="M164.28,75.79l-2.41-3.4,.59-.67-2.25-1.8-.2,.85h-3.26l.73-3.04-2.5-2.01-1.03-.13c-.03,.48-.07,.91-.13,1.28-.06,.39-.15,.72-.26,.98s-.25,.55-.41,.84c-.34,.63-.83,1.17-1.45,1.62-.62,.45-1.39,.67-2.29,.67s-1.67-.22-2.29-.67c-.62-.45-1.11-.99-1.45-1.62-.16-.29-.3-.57-.41-.84-.11-.27-.2-.6-.26-.98s-.11-.84-.14-1.37c-.03-.52-.04-1.18-.04-1.99,0-.62,0-1.15,.01-1.65l-.3-.18-2.6-3.62-.27-2.6-1.16-.22,.13-1.65-3.07-2.78c0,.08,0,.16,.01,.25,.04,1.36,.06,3.02,.06,4.99,0,1.63-.03,2.97-.09,4.03-.06,1.06-.15,1.99-.28,2.77-.12,.79-.3,1.46-.52,2-.22,.54-.5,1.11-.83,1.7-.69,1.28-1.67,2.38-2.94,3.29s-2.81,1.37-4.65,1.37-3.38-.46-4.65-1.37c-1.26-.91-2.24-2.01-2.94-3.29-.33-.59-.6-1.16-.83-1.7-.22-.54-.4-1.21-.52-2-.12-.79-.21-1.71-.28-2.77-.06-1.06-.09-2.4-.09-4.03,0-1.97,.02-3.63,.06-4.99,.04-1.36,.16-2.5,.37-3.44,.07-.34,.18-.65,.29-.96l-2.32,.05-.44,2.46-2.14,.49,.71,2.06-4.47,4.65v1.87l-2.68,1.87,1.25,1.7-6.17-.94-1.87,.67-.98,1.7,1.08,.94,1.35-.44-.62,1.3,2.36,2.63v3.67l4.3,3.84,.25,.89h53.82l1.09-.29Zm-21.73-5.01h-3.08v-3.72h3.08v3.72Z"/>
  <path class="cls-5" d="M122.18,43.13s-.07-.08-.11-.12l-1.17,.22-.89,2.84c.13-.31,.27-.61,.44-.88,.43-.69,1.01-1.38,1.74-2.07Z"/>
  <path d="M120.01,46.08c-.08,.19-.16,.39-.23,.6h.04s.19-.6,.19-.6Z"/>
  <path class="cls-4" d="M125.3,28.93c0-1.04,.31-1.91,.92-2.62,.61-.71,1.32-1.07,2.14-1.07s1.53,.36,2.14,1.07c.61,.72,.92,1.59,.92,2.62v6.32h6.2c.03-.96,.04-2.07,.04-3.36,0-1.43-.03-2.65-.09-3.66-.06-1.01-.19-1.89-.4-2.62-.2-.74-.45-1.41-.73-2-.29-.59-.63-1.21-1.04-1.85-.82-1.28-1.83-2.28-3.06-2.99-1.22-.71-2.55-1.07-3.97-1.07s-2.75,.36-3.97,1.07c-1.22,.72-2.24,1.71-3.06,2.99-.41,.64-.74,1.26-1.01,1.85-.27,.59-.5,1.26-.7,2-.2,.74-.35,1.61-.43,2.62-.08,1.01-.12,2.23-.12,3.66,0,1.29,.01,2.4,.04,3.36h6.2v-6.32Z"/>
  <path class="cls-4" d="M131.42,36.62c0,1.04-.31,1.91-.92,2.62-.14,.16-.28,.3-.43,.42l1.82,2.95-.81,.59,2.86,4.33,3.64,3.3c-.05-1.25-.16-2.31-.35-3.19-.21-.94-.52-1.75-.95-2.44-.43-.69-1.01-1.38-1.74-2.07,.73-.74,1.31-1.44,1.74-2.11s.74-1.42,.95-2.26c.2-.84,.33-1.8,.37-2.88,0-.2,.01-.41,.02-.63h-6.2v1.37Z"/>
  <path class="cls-4" d="M119.49,38.77c.2,.84,.52,1.59,.95,2.26,.4,.63,.95,1.29,1.63,1.99l.74-.14v-4.79l2.49-1.54v-1.29h-6.2c0,.21,.01,.43,.02,.63,.04,1.08,.16,2.05,.37,2.88Z"/>
  <path class="cls-3" d="M131.09,43.2l.81-.59-1.82-2.95c-.51,.43-1.08,.65-1.71,.65-.82,0-1.53-.36-2.14-1.07-.61-.71-.92-1.59-.92-2.62v-.08l-2.49,1.54v4.79l-.74,.14s.07,.08,.11,.12c-.73,.69-1.31,1.38-1.74,2.07-.17,.27-.3,.57-.44,.88l-.19,.6h-.04c-.1,.31-.21,.62-.29,.96-.2,.94-.33,2.08-.37,3.44-.04,1.36-.06,3.02-.06,4.99,0,1.63,.03,2.97,.09,4.03,.06,1.06,.15,1.99,.28,2.77,.12,.79,.29,1.46,.52,2,.22,.54,.5,1.11,.83,1.7,.69,1.28,1.67,2.38,2.94,3.29,1.26,.91,2.81,1.37,4.65,1.37s3.38-.46,4.65-1.37,2.24-2.01,2.94-3.29c.33-.59,.6-1.16,.83-1.7,.22-.54,.4-1.21,.52-2,.12-.79,.21-1.71,.28-2.77,.06-1.06,.09-2.4,.09-4.03,0-1.97-.02-3.63-.06-4.99,0-.09,0-.16-.01-.25l-3.64-3.3-2.86-4.33Zm.33,16.78c0,1.04-.31,1.91-.92,2.62-.61,.72-1.33,1.07-2.14,1.07s-1.53-.36-2.14-1.07c-.61-.71-.92-1.59-.92-2.62v-10.35c0-1.04,.31-1.91,.92-2.62,.61-.71,1.32-1.07,2.14-1.07s1.53,.36,2.14,1.07c.61,.71,.92,1.59,.92,2.62v10.35Z"/>
  <rect class="cls-3" x="139.47" y="67.06" width="3.08" height="3.72"/>
  <path class="cls-6" d="M154.01,63.53c0-.97,0-1.79-.03-2.46-.02-.67-.08-1.23-.18-1.7s-.26-.86-.47-1.2c-.21-.34-.5-.68-.86-1.02,.36-.36,.65-.71,.86-1.04,.21-.33,.37-.7,.47-1.11,.1-.41,.16-.89,.18-1.42,.02-.53,.03-1.19,.03-1.97,0-.7-.01-1.31-.04-1.8-.03-.5-.1-.93-.2-1.29-.1-.36-.22-.69-.36-.98-.14-.29-.31-.6-.51-.91-.4-.63-.91-1.12-1.51-1.48-.6-.35-1.26-.53-1.96-.53s-1.36,.18-1.96,.53c-.6,.35-1.11,.84-1.51,1.48-.2,.32-.37,.62-.5,.91-.13,.29-.25,.62-.35,.98-.1,.36-.17,.8-.21,1.29-.04,.5-.06,1.1-.06,1.8,0,.78,0,1.44,.03,1.97,.02,.49,.07,.91,.16,1.3l3.11-.05c-.13-.27-.22-.56-.22-.89v-3.79c0-.51,.15-.94,.45-1.29,.3-.35,.65-.53,1.06-.53s.75,.18,1.05,.53c.3,.35,.45,.78,.45,1.29v3.79c0,.51-.15,.94-.45,1.29-.19,.22-.39,.36-.62,.44l.16,2-2.14-.05-1.16-2.24-1.39,.35c.06,.13,.12,.25,.19,.37,.21,.33,.5,.67,.86,1.04-.36,.34-.65,.68-.86,1.02-.21,.34-.37,.74-.47,1.2s-.16,1.03-.18,1.7c0,.24-.01,.53-.02,.82l2.12,1.25,.95-.6v-2.18c0-.51,.15-.94,.45-1.29,.3-.35,.65-.53,1.06-.53s.75,.18,1.05,.53c.3,.35,.45,.78,.45,1.29v3.49l.34,.59-.34,.26v.76c0,.51-.15,.94-.45,1.29-.09,.1-.18,.19-.28,.26l.58,.86,2.51-2.36,.67,.09s0-.06,0-.09c.03-.52,.04-1.18,.04-1.99Z"/>
  <path class="cls-3" d="M150.78,67.88l-.58-.86c-.23,.18-.49,.27-.78,.27-.4,0-.75-.18-1.06-.53s-.45-.78-.45-1.29v-2.93l-.95,.6-2.12-1.25c0,.49-.01,1.03-.01,1.65,0,.8,.01,1.46,.04,1.99,.03,.52,.08,.98,.14,1.37s.15,.72,.26,.98c.11,.27,.25,.55,.41,.84,.34,.63,.82,1.17,1.45,1.62,.62,.45,1.39,.67,2.29,.67s1.67-.22,2.29-.67c.62-.45,1.11-.99,1.45-1.62,.16-.29,.3-.57,.41-.84s.2-.6,.26-.98c.06-.37,.1-.8,.13-1.28l-.67-.09-2.51,2.36Z"/>
  <path class="cls-3" d="M147.87,57.63l2.14,.05-.16-2c-.14,.05-.28,.09-.44,.09-.4,0-.75-.18-1.06-.53-.1-.12-.17-.26-.23-.4l-3.11,.05s.01,.08,.02,.12c.07,.27,.16,.51,.28,.75l1.39-.35,1.16,2.24Z"/>
  <polygon class="cls-3" points="151.27 64.43 150.93 63.85 150.93 64.7 151.27 64.43"/>
  <polygon class="cls-6" points="165.22 44.82 156.06 44.82 156.06 51.31 158.77 51.31 158.77 48.32 162.15 48.32 157.48 67.74 160.21 69.93 165.22 48.54 165.22 44.82"/>
  <polygon class="cls-3" points="156.75 70.78 160.01 70.78 160.21 69.93 157.48 67.74 156.75 70.78"/>
  <path class="cls-6" d="M167.43,66.66c.04,.39,.11,.72,.2,.98s.22,.55,.38,.84c.4,.78,.93,1.39,1.6,1.84,.66,.45,1.42,.67,2.26,.67s1.6-.22,2.28-.66c.67-.44,1.21-1.06,1.61-1.86,.14-.29,.26-.57,.35-.84s.17-.6,.23-.98c.04-.37,.07-.82,.09-1.37,.02-.55,.03-1.25,.03-2.1,0-1.02,0-1.87-.03-2.53-.02-.67-.05-1.22-.09-1.66-.06-.44-.13-.79-.21-1.06-.08-.27-.19-.53-.33-.8-.26-.49-.62-.89-1.09-1.2-.46-.32-.96-.47-1.51-.47-.34,0-.62,.03-.83,.09-.21,.06-.37,.14-.47,.24l-.06-.07,3.5-10.9h-3.44l-4.04,13.05c-.1,.34-.19,.66-.27,.97-.08,.3-.14,.64-.18,1-.04,.39-.07,.84-.09,1.37-.02,.52-.03,1.19-.03,1.99,0,.85,0,1.55,.03,2.1,.02,.55,.06,1,.12,1.37Zm2.93-6.05c0-.56,.15-1.01,.45-1.35,.3-.34,.65-.51,1.06-.51s.75,.17,1.05,.51c.3,.34,.45,.79,.45,1.35v4.81c0,.56-.15,1.01-.45,1.35-.3,.34-.65,.51-1.05,.51s-.75-.17-1.06-.51-.45-.79-.45-1.35v-4.81Z"/>
  <path class="cls-4" d="M100.95,219.94l3.33-2.89c0-.14,0-.29,0-.43l-.37-1.77-3.13-1.08-2.24-2.36-.36-1.84,2.78-4.52-.62-.86,.94-5.01,1.3-1.43-.32-2.82-.98-.62-.44-1.57-1.84-.32-3.76-3.94-1.92-3.76-.98,2.06-3.44,1.35-3.02,3.52c-.09,.62-.14,1.25-.14,1.89v4.36h6.24v-4.29c0-.79,.23-1.6,.7-2.44,.47-.84,1.25-1.26,2.35-1.26,.94,0,1.68,.35,2.23,1.04,.55,.69,.83,1.58,.83,2.66v6.8c0,1.97-.36,3.23-1.07,3.77-.71,.54-2.01,.81-3.88,.81v6.65c1.02,0,1.84,.05,2.48,.15,.63,.1,1.13,.35,1.5,.74,.65,.64,.98,2,.98,4.07v7.54c0,1.28-.28,2.3-.83,3.07-.55,.76-1.29,1.15-2.23,1.15s-1.68-.38-2.23-1.15c-.55-.76-.83-1.74-.83-2.92v-3.92h-6.24v4.29c0,2.07,.29,3.82,.89,5.25,.59,1.43,1.33,2.59,2.23,3.48s1.9,1.53,3,1.92c1.1,.39,2.14,.59,3.12,.59,1.96,0,3.54-.46,4.74-1.37,1.2-.91,2.19-2.06,2.96-3.44,.33-.59,.59-1.16,.79-1.7,.2-.54,.37-1.21,.49-2,.04-.27,.08-.57,.12-.89l-1.31-1.06-1.79-5.51Z"/>
  <polygon points="101.35 205.59 102.7 205.05 101.35 205.54 101.35 205.59"/>
  <path class="cls-3" d="M92.32,186.77l.98-2.06,1.92,3.76,3.76,3.94,1.84,.32,.44,1.57,.98,.62,.32,2.82-1.3,1.43-.94,5.01,.62,.86-2.78,4.52,.36,1.84,2.24,2.36,3.13,1.08,.37,1.77c0-.33-.02-.64-.03-.94-.04-1.21-.18-2.26-.43-3.14-.24-.84-.62-1.58-1.13-2.22-.51-.64-1.25-1.33-2.23-2.07,.9-.64,1.6-1.23,2.11-1.77,.51-.54,.91-1.21,1.19-2,.25-.74,.4-1.68,.46-2.81,.06-1.13,.09-2.61,.09-4.44,0-3.2-.18-5.62-.55-7.25-.2-.84-.46-1.55-.76-2.14-.31-.59-.66-1.18-1.07-1.77-.57-.84-1.42-1.66-2.54-2.48s-2.54-1.22-4.25-1.22c-1.31,0-2.53,.3-3.67,.89-1.14,.59-2.14,1.38-3,2.37-.86,.99-1.53,2.17-2.02,3.55-.28,.8-.47,1.63-.59,2.47l3.02-3.52,3.44-1.35Zm9.03,18.82v-.05l1.35-.49-1.35,.54Z"/>
  <path class="cls-3" d="M104.31,220.3c0-1.24-.01-2.31-.03-3.26l-3.33,2.89,1.79,5.51,1.31,1.06c.06-.56,.12-1.19,.16-1.92,.06-1.13,.09-2.56,.09-4.29Z"/>
  <polygon class="cls-4" points="109.45 230.87 108.34 235.46 112.5 235.46 111.43 232.47 109.45 230.87"/>
  <polygon class="cls-3" points="125.53 190.35 125.53 182.81 106.94 182.81 106.94 195.97 112.44 195.97 112.44 189.91 119.29 189.91 109.45 230.87 111.43 232.47 112.5 235.46 114.95 235.46 125.53 190.35"/>
  <rect class="cls-3" x="127.34" y="231.74" width="3.08" height="3.72"/>
  <polygon class="cls-3" points="141.15 220.69 138.08 220.69 138.08 228.09 135.03 228.09 139.65 209.5 136.39 209.5 131.96 228.09 131.96 231.59 138.08 231.59 138.08 235.46 141.15 235.46 141.15 231.59 142.63 231.59 142.63 228.09 141.15 228.09 141.15 220.69"/>
  <path class="cls-3" d="M152.64,219.78c.14-.39,.24-.78,.3-1.17,.06-.39,.1-.8,.12-1.22,.02-.42,.03-.95,.03-1.59,0-.88-.09-1.7-.26-2.48-.17-.78-.44-1.47-.8-2.08-.38-.61-.86-1.09-1.43-1.44-.57-.35-1.26-.53-2.07-.53-.64,0-1.25,.15-1.81,.46-.56,.3-1.05,.71-1.45,1.22-.42,.51-.75,1.11-1,1.79-.24,.68-.36,1.41-.36,2.19v2.04h3.08v-2.11c0-.61,.14-1.07,.41-1.39,.27-.32,.64-.47,1.1-.47,.38,0,.67,.09,.87,.27,.2,.18,.35,.41,.45,.67,.1,.27,.16,.58,.17,.93,0,.35,.02,.69,.02,1,0,.71-.02,1.29-.06,1.77-.04,.47-.2,1.03-.48,1.66l-5.55,12.65v3.5h9.17v-3.72h-5.55l4.52-10.54c.24-.56,.43-1.03,.57-1.42Z"/>
  <polygon class="cls-4" points="159.28 235.31 158.79 235.14 158.79 235.46 161.68 235.46 161.61 235.09 159.28 235.31"/>
  <polygon class="cls-3" points="161.87 209.5 158.79 209.5 155.72 212.23 155.72 216.17 158.79 213.43 158.79 235.14 159.28 235.31 161.61 235.09 161.68 235.46 161.87 235.46 161.87 209.5"/>
</svg>