<?xml version="1.0" encoding="UTF-8"?>
<svg id="Layer_1" data-name="Layer 1" xmlns="http://www.w3.org/2000/svg" viewBox="0 0 283.46 283.46">
  <defs>
    <style>
      .cls-1 {
        fill: none;
      }

      .cls-2 {
        font-size: 73.94px;
        letter-spacing: -.03em;
      }

      .cls-3 {
        fill: #f25d55;
      }

      .cls-4, .cls-5 {
        fill: #fff;
      }

      .cls-6 {
        fill: #d1c1c1;
      }

      .cls-7 {
        fill: #6d8cf2;
      }

      .cls-8 {
        fill: #606060;
      }

      .cls-9 {
        font-size: 36.46px;
        letter-spacing: 0em;
      }

      .cls-5 {
        font-family: DINCondensed-Bold, 'DIN Condensed';
        font-weight: 700;
      }
    </style>
  </defs>
  <text class="cls-5" transform="translate(149.79 202.33) scale(.83 1)"><tspan class="cls-2" x="0" y="0">38</tspan><tspan class="cls-9" x="51.31" y="0">.079</tspan></text>
  <polygon class="cls-1" points="112.52 76.99 113.11 76.64 112.22 76.64 112.52 76.99"/>
  <polygon class="cls-1" points="75.95 77.28 79 79.37 83.08 77.23 83.46 78.2 87.63 78.84 91.48 86.53 95.97 81.9 98.56 81.8 99.12 76.71 99.09 76.64 75.64 76.64 75.95 77.28"/>
  <path class="cls-1" d="M74.55,74.41l1.09,2.24h23.45l-1.08-2.1,.79-2.27,2.73-1.81,2.42,1.58,4.13-1.71,1.07,1.63,1.4-.28,.13,1.48,1.12-.1-.28,2.73,.73,.85h.89l1.95-1.13,1.19,1.13h2.16l.5-2.61,3.94,2.5,4.59-1.66-.23-2.78,5.79-1.86-.46-1.48,1.2-1.15-1.35-1.86,.13-3.71,3.47-1.2,3.06-3.98,2.14,.41,1.3-.28,2.73-2.22,.64,.61,3.47-4.08,5.42-7.13,1.43,.51-.18-5,2.83,3.01,3.47-.23,1.94-.92,.71-1.59c-.04-.59-.08-1.24-.1-1.96-.04-1.36-.06-3.07-.06-5.14,0-1.73,.02-3.14,.06-4.25,.04-1.11,.12-2.06,.24-2.85,.08-.74,.21-1.38,.4-1.92,.18-.54,.42-1.11,.7-1.7,.82-1.63,1.91-2.88,3.27-3.77,1.37-.89,2.9-1.33,4.62-1.33s3.24,.46,4.59,1.37c1.34,.91,2.42,2.16,3.24,3.73,.29,.59,.53,1.16,.73,1.7,.2,.54,.37,1.18,.49,1.92,.08,.79,.14,1.74,.18,2.85,.04,1.11,.06,2.53,.06,4.25,0,1.63-.02,2.97-.06,4.03-.03,.89-.08,1.66-.15,2.32l4.84,5.08-.51,3.71,3.71,5.37,.05,1.53-1.02,.74,.79,4.17,.97,.61-.89,1.53,.61,.84,.35,.37,4.03-9.19c.28-.63,.44-1.19,.48-1.66,.04-.47,.06-1.06,.06-1.77,0-.32,0-.65-.02-1-.01-.35-.07-.66-.17-.93s-.25-.49-.45-.67-.49-.27-.87-.27c-.46,0-.83,.16-1.1,.47-.27,.32-.41,.78-.41,1.39v2.12h-3.08v-2.04c0-.78,.12-1.51,.36-2.19,.24-.68,.57-1.28,1-1.79,.4-.51,.88-.92,1.45-1.22,.56-.3,1.17-.46,1.81-.46,.8,0,1.49,.18,2.07,.53,.57,.35,1.05,.83,1.43,1.44,.36,.61,.63,1.3,.8,2.08,.17,.78,.26,1.6,.26,2.48,0,.63,0,1.16-.03,1.59-.02,.43-.06,.83-.12,1.22-.06,.39-.16,.78-.3,1.17-.14,.39-.33,.86-.57,1.42l-4.52,10.54h5.55v3.72h-6.48l-6.11,3.55-.22,2.98h80.54V0H41V76.64h30.53l2.27-.66,.74-1.58Zm137.67-11.66l4.43-18.6h3.26l-4.61,18.6h3.04v-7.4h3.08v7.4h1.48v3.5h-1.48v3.87h-3.08v-3.87h-6.12v-3.5Zm-10.46,.91h3.08v.95c0,.63,.15,1.12,.44,1.48,.29,.35,.67,.53,1.13,.53s.82-.17,1.07-.51c.25-.34,.38-.81,.38-1.42v-6.09c0-.51-.14-.95-.41-1.31-.27-.36-.62-.55-1.04-.55-.26,0-.48,.05-.66,.17-.18,.11-.33,.24-.45,.38-.12,.15-.21,.3-.27,.47-.1,.22-.16,.35-.18,.4h-2.71v-14h8.81v3.5h-6.09v7c.28-.34,.64-.63,1.08-.86,.44-.23,.94-.35,1.48-.35,1.05,0,1.89,.38,2.55,1.15,.65,.77,.98,1.91,.98,3.45v6.71c0,.88-.13,1.65-.38,2.33s-.59,1.26-1.01,1.75c-.42,.49-.91,.86-1.46,1.11s-1.13,.38-1.73,.38-1.18-.13-1.73-.38-1.04-.63-1.46-1.11c-.42-.49-.76-1.07-1.01-1.75-.25-.68-.38-1.46-.38-2.33v-1.09Z"/>
  <polygon class="cls-1" points="118.07 78.38 118.41 76.64 116.25 76.64 118.07 78.38"/>
  <path class="cls-1" d="M176.2,25.6c-.61-.69-1.33-1.04-2.14-1.04s-1.53,.35-2.14,1.04c-.61,.69-.92,1.6-.92,2.74v7.36l.1-.28,2.45-2.04,.2-.03,.51,2.04,2.85,1.35v-8.4c0-1.13-.31-2.04-.92-2.74Z"/>
  <polygon class="cls-3" points="186.74 78.86 186.9 76.64 118.41 76.64 118.07 78.38 116.25 76.64 113.11 76.64 112.52 76.99 112.22 76.64 99.09 76.64 99.12 76.71 98.56 81.8 95.97 81.9 91.48 86.53 87.63 78.84 83.46 78.2 83.08 77.23 79 79.37 75.95 77.28 75.64 76.64 71.54 76.64 71.08 76.77 68.39 80.85 64.54 81.31 62.6 80.47 61.2 82.41 60.74 86.35 57.74 86.49 58.62 87.83 56.91 88.75 59.36 90.69 55.8 93.8 57 94.64 55.29 98.39 55.19 100.32 55.37 100.32 56.67 100.46 55.88 102.17 60 104.25 63.16 102.31 62.93 105.27 64.33 106.52 64.94 105.78 65.44 106.62 66.05 105.88 67.07 107 67.81 106.49 68.19 107.51 70 106.9 70.61 108.48 69.49 109.5 72.36 110.84 71.9 112.09 72.97 112.55 74.22 112.17 75.06 112.78 75.44 115.38 73.73 115.51 73.78 113.65 71.51 114.67 69.52 113.93 69.34 116.86 66.92 119.31 66.97 121.9 67.71 121.9 67.07 123.43 66.38 126.39 63.23 127.36 65.49 129.07 64.15 129.35 62.11 132.46 62.52 134.12 59.69 136.25 57.47 136.25 60.17 143.44 57.67 144.64 58.18 145.75 62.77 144.64 63.23 143.9 61.93 142.93 62.62 141.91 65.26 141.22 67.68 138.72 69.82 138.11 71.81 141.73 71.02 146.72 67.96 146.49 68.24 150.11 60.09 150.34 53.23 154.32 51.52 153.94 48.06 157.6 47.68 159.31 49.16 162.78 53.13 164.69 55.5 168.25 59.91 170.06 64.77 174.88 66.71 175.52 73.28 173.89 75.27 174.78 75.27 174.88 74.02 177.98 70.64 179.23 69.34 186.04 75.6 187.75 72.87 189.32 70.05 188.49 66.99 189.69 65.74 190.7 66.12 192.69 63.29 193.02 63.29 196.74 60.33 198.36 61.02 201.47 58.2 204.67 60.46 206.15 61.94 204.81 63.14 206.01 61.01 207.86 56.75 208.78 56.11 210.44 59.82 212.3 59.72 214.16 57.97 214.44 57.59 218.42 61.06 223.05 61.52 224.71 60.17 227.54 63.23 233.98 67.3 238.24 68.96 243.1 72.17 243.1 72.63 246.77 74.53 246.59 82.13 242.23 85.36 244.17 83.61 245.42 85.64 244.91 86.2 246.77 87.73 246.9 89.67 249.35 92.91 250.97 91.89 253.34 95.83 258.07 97.74 256.17 98.35 257.65 100.06 256.81 100.44 258.62 103.16 258.29 104.74 259.87 106.14 257.14 107.26 257.88 109.71 255.05 111.56 256.17 111.79 254.18 116.66 254.36 119.03 250.46 121.11 251.2 123.28 249.27 125.93 248.62 125.14 245.06 123.33 243.58 123.43 239.73 119.86 238.25 120.75 237.64 120.52 234.92 122.94 232.75 120.9 230.15 122.2 228.24 123.5 228.06 123.73 229.54 126.55 229.77 126.32 232.37 128.69 232.88 130.12 232.5 130.63 230 134.93 228.52 134.8 229.77 137.45 231.02 137.4 235.84 138.8 235.79 140 237.32 142.96 237.04 144.86 237.41 147.97 232.73 151.53 233.57 152 232.09 153.62 232.6 151.26 228.88 152.37 228.38 152 225.17 152.96 224.28 153.89 223.82 156.66 224.51 158.42 225.81 156.05 227.52 154.94 230.96 155.82 232.07 158.88 229.53 161.53 230.27 163.98 229.62 165.09 231.38 166.21 231.25 171.64 226.21 174.87 225.93 176.86 227.18 178.67 224.81 183.86 230 186.13 230.89 187.56 226.95 186.59 224.91 183.72 223.33 183.72 221.7 182.6 220.63 184.64 220.26 185.33 219.11 186.81 220.22 188.05 218.14 188.7 219.25 191.01 214.8 193.15 213.78 194.96 216.56 196.11 217.17 197.08 215.77 196.85 220.07 198.66 221.19 199.77 220.12 199.44 222.29 201.1 223.54 200.55 225.53 203.6 226.88 207.55 225.63 208.16 227.16 203.01 233.04 203.39 233.93 208.81 239.12 210.9 236.67 210.01 235.66 212 236.3 215.01 234.95 214.27 233.24 215.85 232.45 217.24 233.19 217.7 232.35 220.2 222.29 219.79 220.21 222.16 215.39 225.22 216 224.53 213.55 227.35 212.66 231.33 216.51 234.11 215.31 232.76 212.71 230.54 212.48 233.19 209.7 235 209.84 236.7 204.41 238.36 200.85 241.57 200.57 244.26 199.37 243.57 196.64 242.18 195.67 241.21 193.02 243.02 193.53 244.17 191.54 246.34 190.57 247.96 188.4 247.22 185.17 246.16 184.56 248.57 180.58 243.02 178.49 243.3 177.52 247.27 174.93 251.91 173.81 252.19 173.02 249.13 167.27 245.61 160.97 245.23 160.33 238.71 151.72 236.77 150.57 227.6 145.24 223.42 142.42 217.13 139.46 216.72 137.47 213.38 135.3 213.94 132.34 212.79 131.37 212.33 129 214.7 127.89 215.16 126.03 214.14 123.58 210.47 120.57 210.7 119.46 209.68 118.49 209.08 119.09 205.97 118.12 204.03 118.77 203.8 115.02 198.84 113.59 200.32 111.45 199.86 110.05 202.91 104.78 204.49 105.67 205.61 104.52 206.73 105.63 207.47 104.79 208.25 105.4 207.97 104.29 210.42 102.35 210.1 100.82 208.34 99.85 210.7 97.25 206.73 93.54 200.43 91.96 199.23 92.47 199.1 91.58 197.01 92.7 195.07 91.3 191.92 88.85 190.85 89.46 189.5 88.49 188.58 89.38 186.49 88.36 186.72 86.78 184.27 82.93 184.32 81.23 186.74 78.86"/>
  <path class="cls-7" d="M173.76,33.35l-.2,.03-2.45,2.04-.1,.28v2.4c0,1.13,.31,2.05,.92,2.74,.61,.69,1.32,1.04,2.14,1.04s1.53-.34,2.14-1.04c.61-.69,.92-1.6,.92-2.74v-1.36l-2.85-1.35-.51-2.04Z"/>
  <polygon class="cls-7" points="113.11 76.64 116.25 76.64 115.06 75.51 113.11 76.64"/>
  <polygon class="cls-7" points="111.78 73.06 110.66 73.16 110.53 71.68 109.13 71.96 108.06 70.33 103.94 72.04 101.52 70.46 98.79 72.27 98 74.54 99.09 76.64 112.22 76.64 111.5 75.79 111.78 73.06"/>
  <path class="cls-7" d="M193.23,70.11h-2.69v-3.5l1.52-3.46-.35-.37-.61-.84,.89-1.53-.97-.61-.79-4.17,1.02-.74-.05-1.53-3.71-5.37,.51-3.71-4.84-5.08c-.01,.13-.02,.26-.04,.37-.12,.79-.26,1.49-.4,2.11-.14,.62-.32,1.27-.52,1.96l-8.19,26.47h-6.97l7.09-22.11-.12-.15c-.21,.2-.52,.36-.95,.48-.43,.12-.99,.18-1.68,.18-1.1,0-2.12-.32-3.06-.96-.94-.64-1.67-1.45-2.2-2.44-.29-.49-.51-1.02-.67-1.59-.16-.57-.29-1.29-.37-2.18-.06-.41-.1-.88-.14-1.4l-.71,1.59-1.94,.92-3.47,.23-2.83-3.01,.18,5-1.43-.51-5.42,7.13-3.47,4.08-.64-.61-2.73,2.22-1.3,.28-2.14-.41-3.06,3.98-3.47,1.2-.13,3.71,1.35,1.86-1.2,1.15,.46,1.48-5.79,1.86,.23,2.78-4.59,1.66-3.94-2.5-.5,2.61h68.49l.22-2.98,6.11-3.55Zm-8.05-3.72h3.08v3.72h-3.08v-3.72Z"/>
  <polygon class="cls-7" points="74.55 74.41 73.81 75.98 71.54 76.64 75.64 76.64 74.55 74.41"/>
  <path class="cls-6" d="M168.15,39.45l1.71-.74,1.14-3.01v-7.36c0-1.13,.31-2.04,.92-2.74,.61-.69,1.32-1.04,2.14-1.04s1.53,.35,2.14,1.04c.61,.69,.92,1.6,.92,2.74v8.4l2.34,1.1,2.88,.51,.81,.85c.06-.66,.11-1.43,.15-2.32,.04-1.06,.06-2.4,.06-4.03,0-1.73-.02-3.14-.06-4.25-.04-1.11-.1-2.06-.18-2.85-.12-.74-.29-1.38-.49-1.92-.21-.54-.45-1.11-.73-1.7-.82-1.58-1.9-2.82-3.24-3.73-1.35-.91-2.87-1.37-4.59-1.37s-3.25,.44-4.62,1.33c-1.37,.89-2.46,2.14-3.27,3.77-.29,.59-.52,1.16-.7,1.7-.18,.54-.32,1.18-.4,1.92-.12,.79-.2,1.74-.24,2.85-.04,1.11-.06,2.53-.06,4.25,0,2.07,.02,3.78,.06,5.14,.02,.72,.06,1.37,.1,1.96l.49-1.11,2.73,.61Z"/>
  <path class="cls-4" d="M165.44,43.53c.16,.57,.39,1.1,.67,1.59,.53,.99,1.26,1.8,2.2,2.44,.94,.64,1.96,.96,3.06,.96,.69,0,1.25-.06,1.68-.18,.43-.12,.74-.28,.95-.48l.12,.15-7.09,22.11h6.97l8.19-26.47c.2-.69,.38-1.34,.52-1.96,.14-.62,.27-1.32,.4-2.11,.01-.12,.02-.25,.04-.37l-.81-.85-2.88-.51-2.34-1.1v1.36c0,1.13-.31,2.05-.92,2.74-.61,.69-1.33,1.04-2.14,1.04s-1.53-.34-2.14-1.04c-.61-.69-.92-1.6-.92-2.74v-2.4l-1.14,3.01-1.71,.74-2.73-.61-.49,1.11c.04,.52,.09,.99,.14,1.4,.08,.89,.2,1.62,.37,2.18Z"/>
  <rect class="cls-4" x="185.17" y="66.39" width="3.08" height="3.72"/>
  <path class="cls-8" d="M193.33,70.05l-.1,.06h6.48v-3.72h-5.55l4.52-10.54c.24-.56,.43-1.03,.57-1.42,.14-.39,.24-.78,.3-1.17,.06-.39,.1-.8,.12-1.22,.02-.42,.03-.95,.03-1.59,0-.88-.09-1.7-.26-2.48-.17-.78-.44-1.47-.8-2.08-.38-.61-.86-1.09-1.43-1.44-.57-.35-1.26-.53-2.07-.53-.64,0-1.25,.15-1.81,.46-.56,.3-1.05,.71-1.45,1.22-.42,.51-.75,1.11-1,1.79-.24,.68-.36,1.41-.36,2.19v2.04h3.08v-2.12c0-.61,.14-1.07,.41-1.39,.27-.32,.64-.47,1.1-.47,.38,0,.67,.09,.87,.27s.35,.41,.45,.67,.16,.58,.17,.93c0,.35,.02,.69,.02,1,0,.71-.02,1.29-.06,1.77-.04,.47-.2,1.03-.48,1.66l-4.03,9.19,1.78,1.85-.51,5.05Z"/>
  <polygon class="cls-4" points="190.54 70.11 193.23 70.11 193.33 70.05 193.84 65 192.06 63.15 190.54 66.61 190.54 70.11"/>
  <path class="cls-8" d="M203.14,68.83c.42,.49,.91,.86,1.46,1.11s1.13,.38,1.73,.38,1.18-.13,1.73-.38,1.04-.63,1.46-1.11c.42-.49,.76-1.07,1.01-1.75s.38-1.46,.38-2.33v-6.71c0-1.53-.33-2.68-.98-3.45-.65-.77-1.5-1.15-2.55-1.15-.54,0-1.04,.12-1.48,.35-.44,.23-.8,.52-1.08,.86v-7h6.09v-3.5h-8.81v14h2.71s.08-.18,.18-.4c.06-.17,.15-.33,.27-.47,.12-.15,.27-.27,.45-.38,.18-.11,.4-.17,.66-.17,.42,0,.77,.18,1.04,.55,.27,.37,.41,.8,.41,1.31v6.09c0,.61-.13,1.08-.38,1.42-.25,.34-.61,.51-1.07,.51s-.84-.18-1.13-.53c-.29-.35-.44-.84-.44-1.48v-.95h-3.08v1.09c0,.88,.12,1.65,.38,2.33,.25,.68,.59,1.26,1.01,1.75Z"/>
  <polygon class="cls-8" points="218.34 70.11 221.42 70.11 221.42 66.25 222.9 66.25 222.9 62.74 221.42 62.74 221.42 55.34 218.34 55.34 218.34 62.74 215.3 62.74 219.91 44.15 216.65 44.15 212.22 62.74 212.22 66.25 218.34 66.25 218.34 70.11"/>
  <g>
    <path class="cls-4" d="M151.21,182.21c1.88,0,3.17-.27,3.88-.81,.71-.54,1.07-1.8,1.07-3.77v-6.8c0-1.08-.28-1.97-.83-2.66-.55-.69-1.29-1.04-2.23-1.04-1.1,0-1.89,.42-2.35,1.26-.47,.84-.7,1.65-.7,2.44v4.29h-6.24v-4.36c0-1.53,.24-2.98,.73-4.36,.49-1.38,1.16-2.56,2.02-3.55,.86-.99,1.85-1.77,3-2.37,1.14-.59,2.36-.89,3.67-.89,1.71,0,3.13,.41,4.25,1.22s1.97,1.64,2.54,2.48c.41,.59,.76,1.18,1.07,1.77,.31,.59,.56,1.31,.76,2.14,.37,1.63,.55,4.04,.55,7.25,0,1.82-.03,3.3-.09,4.44-.06,1.13-.21,2.07-.46,2.81-.29,.79-.68,1.46-1.19,2-.51,.54-1.21,1.13-2.11,1.77,.98,.74,1.72,1.43,2.23,2.07,.51,.64,.89,1.38,1.13,2.22,.25,.89,.39,1.94,.43,3.14,.04,1.21,.06,2.75,.06,4.62,0,1.73-.03,3.15-.09,4.29-.06,1.13-.15,2.07-.28,2.81-.12,.79-.29,1.45-.49,2-.2,.54-.47,1.11-.79,1.7-.77,1.38-1.76,2.53-2.96,3.44-1.2,.91-2.78,1.37-4.74,1.37-.98,0-2.02-.2-3.12-.59-1.1-.39-2.1-1.04-3-1.92s-1.64-2.04-2.23-3.48c-.59-1.43-.89-3.18-.89-5.25v-4.29h6.24v3.92c0,1.18,.27,2.16,.83,2.92,.55,.76,1.29,1.15,2.23,1.15s1.68-.38,2.23-1.15c.55-.76,.83-1.79,.83-3.07v-7.54c0-2.07-.33-3.43-.98-4.07-.37-.39-.87-.64-1.5-.74-.63-.1-1.46-.15-2.48-.15v-6.66Z"/>
    <path class="cls-4" d="M165.03,173.78c0-1.43,.04-2.65,.12-3.66,.08-1.01,.22-1.89,.43-2.62s.44-1.41,.7-2c.26-.59,.6-1.21,1.01-1.85,.81-1.28,1.83-2.28,3.06-3,1.22-.71,2.55-1.07,3.97-1.07s2.75,.36,3.97,1.07c1.22,.72,2.24,1.71,3.06,3,.41,.64,.75,1.26,1.04,1.85,.28,.59,.53,1.26,.73,2,.2,.74,.34,1.62,.4,2.62,.06,1.01,.09,2.23,.09,3.66,0,1.58-.02,2.91-.06,3.99-.04,1.08-.16,2.05-.37,2.88-.21,.84-.52,1.59-.95,2.26-.43,.67-1.01,1.37-1.74,2.11,.73,.69,1.31,1.38,1.74,2.07s.74,1.5,.95,2.44c.2,.94,.33,2.08,.37,3.44,.04,1.36,.06,3.02,.06,4.99,0,1.63-.03,2.97-.09,4.03-.06,1.06-.15,1.99-.28,2.77-.12,.79-.3,1.46-.52,2-.22,.54-.5,1.11-.83,1.7-.69,1.28-1.67,2.38-2.94,3.29s-2.81,1.37-4.65,1.37-3.38-.46-4.65-1.37c-1.26-.91-2.24-2.01-2.94-3.29-.33-.59-.6-1.16-.83-1.7-.22-.54-.4-1.21-.52-2-.12-.79-.21-1.71-.28-2.77-.06-1.06-.09-2.4-.09-4.03,0-1.97,.02-3.63,.06-4.99,.04-1.36,.16-2.5,.37-3.44,.2-.94,.52-1.75,.95-2.44,.43-.69,1.01-1.38,1.74-2.07-.73-.74-1.31-1.44-1.74-2.11-.43-.67-.74-1.42-.95-2.26-.2-.84-.33-1.8-.37-2.88-.04-1.08-.06-2.41-.06-3.99Zm12.35-2.96c0-1.04-.31-1.91-.92-2.62-.61-.71-1.33-1.07-2.14-1.07s-1.53,.36-2.14,1.07c-.61,.72-.92,1.59-.92,2.62v7.69c0,1.04,.31,1.91,.92,2.62s1.32,1.07,2.14,1.07,1.53-.36,2.14-1.07,.92-1.59,.92-2.62v-7.69Zm0,20.7c0-1.04-.31-1.91-.92-2.62-.61-.71-1.33-1.07-2.14-1.07s-1.53,.36-2.14,1.07c-.61,.71-.92,1.59-.92,2.62v10.35c0,1.04,.31,1.91,.92,2.62,.61,.72,1.32,1.07,2.14,1.07s1.53-.36,2.14-1.07c.61-.71,.92-1.59,.92-2.62v-10.35Z"/>
    <path class="cls-4" d="M185.43,212.67v-3.72h3.08v3.72h-3.08Z"/>
    <path class="cls-4" d="M190.8,192.07c0-.88,.12-1.65,.38-2.33,.25-.68,.59-1.26,1.01-1.75,.42-.49,.91-.86,1.46-1.11,.55-.25,1.13-.38,1.73-.38s1.18,.13,1.73,.38c.55,.26,1.04,.63,1.46,1.11,.42,.49,.76,1.07,1.01,1.75,.25,.68,.38,1.46,.38,2.33v15.24c0,.88-.13,1.65-.38,2.33s-.59,1.26-1.01,1.75c-.42,.49-.91,.86-1.46,1.11s-1.13,.38-1.73,.38-1.18-.13-1.73-.38-1.04-.63-1.46-1.11c-.42-.49-.76-1.07-1.01-1.75-.25-.68-.38-1.46-.38-2.33v-15.24Zm3.08,15.24c0,.54,.14,.98,.42,1.33,.28,.35,.64,.53,1.09,.53s.8-.18,1.08-.53,.42-.8,.42-1.33v-15.24c0-.53-.14-.98-.42-1.33-.28-.35-.64-.53-1.08-.53s-.8,.18-1.09,.53c-.28,.35-.42,.8-.42,1.33v15.24Z"/>
    <path class="cls-4" d="M202.71,212.67l5.4-22.46h-3.38v2.99h-2.71v-6.49h9.17v3.72l-5.22,22.24h-3.26Z"/>
    <path class="cls-4" d="M214.35,212.67l3.5-10.9-.06-.07c-.1,.1-.26,.18-.47,.24-.21,.06-.49,.09-.83,.09-.54,0-1.05-.16-1.51-.47-.46-.32-.82-.72-1.09-1.2-.14-.24-.25-.5-.33-.78-.08-.28-.14-.64-.18-1.08-.06-.44-.1-.99-.12-1.66-.02-.67-.03-1.51-.03-2.53,0-.85,0-1.55,.03-2.1,.02-.55,.06-1.01,.12-1.4,.04-.36,.11-.68,.2-.95,.09-.27,.21-.55,.35-.84,.4-.8,.94-1.42,1.61-1.86s1.43-.66,2.28-.66,1.6,.23,2.26,.67c.66,.45,1.2,1.06,1.6,1.84,.14,.29,.26,.57,.36,.84,.1,.27,.18,.58,.24,.95,.04,.39,.07,.86,.09,1.4,.02,.55,.03,1.25,.03,2.1,0,.8,0,1.46-.03,1.99-.02,.52-.05,.97-.09,1.33-.06,.39-.13,.74-.2,1.04-.07,.3-.16,.63-.26,.97l-4.04,13.05h-3.44Zm1.96-15.79c0,.56,.15,1.01,.45,1.35s.65,.51,1.06,.51,.75-.17,1.05-.51c.3-.34,.45-.79,.45-1.35v-4.81c0-.56-.15-1.01-.45-1.35-.3-.34-.65-.51-1.05-.51s-.75,.17-1.06,.51c-.3,.34-.45,.79-.45,1.35v4.81Z"/>
  </g>
</svg>