<?xml version="1.0" encoding="UTF-8"?>
<svg id="Layer_1" data-name="Layer 1" xmlns="http://www.w3.org/2000/svg" viewBox="0 0 283.46 283.46">
  <defs>
    <style>
      .cls-1 {
        fill: none;
      }

      .cls-2 {
        fill: #f25d55;
      }

      .cls-3 {
        fill: #fff;
      }

      .cls-4 {
        fill: #d1c1c1;
      }

      .cls-5 {
        fill: #6d8cf2;
      }

      .cls-6 {
        fill: #606060;
      }
    </style>
  </defs>
  <polygon class="cls-1" points="231.24 69.3 231.85 69.22 234.84 66.45 236.61 66.3 237.71 66.98 238.7 65.68 241.56 68.54 242.8 69.03 243.54 66.91 243.06 65.76 241.47 64.87 241.47 64 240.86 63.39 241.98 63.18 242.36 62.57 243.17 63.15 243.86 62.01 244.21 62.62 245.49 60.17 246.65 59.62 246.59 59.52 230.66 59.52 230.66 68.39 231.24 69.3"/>
  <path class="cls-1" d="M253.11,97.2c.17,.08,.35,.12,.54,.12,.4,0,.75-.17,1.05-.51,.3-.34,.45-.79,.45-1.35v-4.81c0-.56-.15-1.01-.45-1.35-.3-.34-.65-.51-1.05-.51s-.75,.17-1.06,.51c-.3,.34-.45,.79-.45,1.35v4.81c0,.24,.04,.45,.1,.65l.59,.46,.28,.63Z"/>
  <path class="cls-1" d="M224.43,59.04c0-1.08-.29-1.98-.86-2.7-.57-.71-1.31-1.07-2.2-1.07s-1.63,.36-2.2,1.07c-.57,.72-.86,1.62-.86,2.7v.48h6.11v-.48Z"/>
  <polygon class="cls-1" points="249.37 88.86 249.36 88.87 249.37 88.88 249.37 88.87 249.37 88.86"/>
  <polygon class="cls-1" points="251.12 81.53 251.42 82.16 251.82 80.84 251.12 81.53"/>
  <polygon class="cls-1" points="220.12 72.62 221.83 70.05 223.79 70.51 224.04 69.69 224.43 69.81 224.43 69.16 223.66 67.93 224.25 67.65 224.04 65.89 224.43 65.54 224.43 59.52 218.31 59.52 218.31 72.48 219.07 72.41 220.12 72.62"/>
  <polygon class="cls-1" points="204.62 81.93 205.92 79.79 207.07 80.23 208.26 79.13 209.69 78.78 209.28 76.82 208.29 76.01 208.34 73.89 206.38 73.08 206.87 72.77 206.74 71.25 208.07 70.05 206.95 68.63 207.66 67.58 208.38 67.48 208.5 68.29 210.06 68.42 209.93 69.85 211.23 70.13 212.02 69.92 212.07 69.64 212.07 59.52 204.49 59.52 204.49 81.93 204.62 81.93"/>
  <polygon class="cls-1" points="196.94 104.14 197.45 103.12 196.99 102.4 196.86 101.08 196.3 100.92 197.07 99.34 195.97 99.49 196.13 98.96 197.61 98.53 196.74 97.87 196.87 96.65 196.1 96.09 196.94 95.68 195.89 93.39 196.73 92.93 197.32 91.4 196.33 90.06 196.94 87.81 196.51 87 197.53 86.34 197.45 85.29 198.07 84.99 198.25 84.63 198.25 59.52 194.47 59.52 192.02 61.7 192.02 59.52 37.59 59.52 37.59 105.79 198.29 105.79 199.11 104.64 196.94 104.14"/>
  <path class="cls-1" d="M246.66,59.61h-.01s.93,1.44,.93,1.44l.63,.33,.53-.77-.13,2.37,.99,.61,.61-.59-.18,1.19,.91,.69-.31,1.09,1.68,.74,2.17-.69,.33,.84-2.83,3.26,.21,.46,.21,2.11,.41,.56,1.27,.18,.83,1.4h2.18l-3.5,10.9,.06,.07c.1-.1,.26-.18,.47-.24s.49-.09,.83-.09c.54,0,1.04,.16,1.51,.47,.46,.32,.82,.72,1.09,1.2,.14,.27,.25,.53,.33,.8,.08,.27,.15,.62,.21,1.06,.04,.44,.07,.99,.09,1.66,.02,.67,.03,1.51,.03,2.53,0,.85,0,1.55-.03,2.1-.02,.55-.05,1-.09,1.37-.06,.39-.14,.72-.23,.98s-.21,.55-.35,.84c-.4,.8-.94,1.42-1.61,1.86-.67,.44-1.43,.66-2.28,.66s-1.6-.22-2.26-.67c-.23-.16-.45-.35-.65-.55l.14,.57,1.83,1.63-.71,1.12,.35,.56-1.3,.97v1.13h25.24V59.52h-29.7l.07,.09Zm13.62,37.7l5.55-12.65c.28-.63,.44-1.19,.48-1.66,.04-.47,.06-1.06,.06-1.77,0-.32,0-.65-.02-1-.01-.35-.07-.66-.17-.93s-.25-.49-.45-.67-.49-.27-.87-.27c-.46,0-.83,.16-1.1,.47-.27,.32-.41,.78-.41,1.39v2.12h-3.08v-2.04c0-.78,.12-1.51,.36-2.19,.24-.68,.57-1.28,1-1.79,.4-.51,.88-.92,1.45-1.22,.56-.3,1.17-.46,1.81-.46,.8,0,1.49,.18,2.07,.53,.57,.35,1.05,.83,1.43,1.44,.36,.61,.63,1.3,.8,2.08,.17,.78,.26,1.6,.26,2.48,0,.63,0,1.16-.03,1.59-.02,.43-.06,.83-.12,1.22-.06,.39-.16,.78-.3,1.17-.14,.39-.33,.86-.57,1.42l-4.52,10.54h5.55v3.72h-9.17v-3.5Z"/>
  <polygon class="cls-1" points="194.47 59.52 198.25 59.52 198.25 56.16 194.47 59.52"/>
  <polygon class="cls-1" points="151.84 186.99 151.89 186.46 151.82 185.97 151.44 186.81 150.81 186.18 150.75 186.18 150.75 187.76 151.69 189.26 151.73 189.65 152.38 188.15 151.84 186.99"/>
  <path class="cls-1" d="M174.91,199.48v4.81c0,.56,.15,1.01,.45,1.35s.65,.51,1.06,.51,.75-.17,1.05-.51c.3-.34,.45-.79,.45-1.35v-4.81c0-.56-.15-1.01-.45-1.35-.3-.34-.65-.51-1.05-.51s-.75,.17-1.06,.51c-.3,.34-.45,.79-.45,1.35Z"/>
  <path class="cls-1" d="M197.35,199.48v4.81c0,.56,.15,1.01,.45,1.35s.65,.51,1.06,.51,.75-.17,1.05-.51c.3-.34,.45-.79,.45-1.35v-4.81c0-.56-.15-1.01-.45-1.35-.3-.34-.65-.51-1.05-.51s-.75,.17-1.06,.51c-.3,.34-.45,.79-.45,1.35Z"/>
  <polygon class="cls-1" points="228.84 186.41 228.84 186.41 228.35 187.15 228.38 187.17 228.84 186.41"/>
  <polygon class="cls-1" points="247.68 182.68 247.27 183.3 246.97 182.68 246.97 182.69 247.32 183.76 248.21 183.97 248.48 183.43 248.49 183.4 248.49 183.3 247.68 182.68"/>
  <polygon class="cls-2" points="233.42 186.94 233.39 186.88 233.34 186.83 233.26 186.88 233.32 186.94 233.42 186.94"/>
  <polygon class="cls-2" points="232.7 185.94 232.91 186.76 233.26 186.48 232.7 185.94 232.7 185.94"/>
  <polygon class="cls-2" points="248.21 183.97 248.29 183.98 248.49 183.48 248.49 183.4 248.48 183.43 248.21 183.97"/>
  <polygon class="cls-2" points="234.61 186.07 235.78 186.63 236.44 186.22 235.38 185.66 234.61 186.07"/>
  <polygon class="cls-2" points="205.31 194.49 200.23 190.22 200.19 190.34 205.31 194.49"/>
  <path class="cls-2" d="M197.12,107.44l-.61,2.6-2.49,3.18,1.07,1.48-1.68-.99-.21,.94-2.27-.23-1.48,.84-4.48,4.69-.41,1.71-1.76,1.48-1.22,.41,.13-.61-2.45,.81,.97,.49,.05,.74-.28,.97-1.55,.66,.66,.61-.21,3.31-.46-.79-2.29-.74,1.35,.79-.63,4.84,1.05,1.89,.21,1.76-.97,1.45-.69,1.43-1.35,.49,1.22-.97,.61-1.78-.53-.05-1.3,1.35-1.35,.15-3.13-.89-2.73,.94-1.22-.18-4.2,1.89-7.13-.35-2.21-2.29-1.45-.07-1.43-1.43-2.62-.81-1.99-.05-2.39,1.35-.59-.66-5.01-.97-2.67-.46-.94-.77-1.5,1.3-2.01-.41-2.39,.94-1.89-.77-1.83,1.09-3.95,.15-.56,.81-2.73-1.02-.53,.59-1.4-.21-3.16,1.25-1.33-.33-.61,.94-1.05,.18,1.05,.89-.35,2.37-.35,.61-2.21,.07,1.27,.89-.13,1.15,.97,.28,.33,3.74,1.35,.99,.53-.13,.03,1.58-1.05,1.33,.43-1.86-1.09,.21,.13-.84-.53-.33-1.17,2.09-1.15,.28-2.49,3.39-2.19,.77-1.99-.13-2.77-2.19-2.52-.79-3.11-.15-.56,1.17v3.87l-1.12,2.29,.25,.97-.49,.21-.89,1.96,.51,5.96,.53,.63-.69,.1-.33,4.17-4.1,2.7-.13,.77-1.07,.1-.13,2.06-1.53,1.02v.74l-2.62,.97-.53,1.12-.41-.51-1.25,.59-.21,1.35,.43,.15-.77,2.7-1.5,2.11-2.09,.43-.94-.61-1.17,.25,.13,.56-1.07,.59-1.3-.25-.53-.94-.97,.66,1.09,1.02-.94,.97,.21,1.76-.49-.41-.81-.63,.07-1.15-2.04,2.32-2.98-.77-.21,.35,.87,.61-.41,2.11,.49,.53-.63-.05-.87,.99,.66,.35-.13,1.27-.46,3.08-.81,1.48-.61,.05,.66,.21-1.71,.84-.87-1.02-.15,1.09-1.4,.1,.94,.31-.97,.41-.51-.43-.07,.63-.63-.35,.15,1.48-.77-.1,.56,1.27-.53,2.6-1.58,.41-1.19,1.76-1.99,.07-.05,1.63-1.02,1.61h-.23l-1.3,.63-.71,1.12-.77-.13-1.96,1.91-2.11,.07-.35-.56-.94,.28-.13,1.63-2.29,2.52-.1-.13-1.83-.61-.31-1.73-.56,.35-.74-.49-2.32,.21-3.11,2.32-.51-.46-1.76,2.21h-2.49l-2.32,3.39,1.09,3.33-1.71,1.78,.28,1.02,1.02,.41,.38,1.48,.69,.33,1.45-.79,.61,.38,1.07-.94,2.39,.07,.87-.94,.49,.28,1.35-2.52-.87-1.63,1.07-.61,.49-1.05,3.46,.41,1.89,1.71-.05,.74,.81-.25-.15-.33,1.96,.28,1.12,1.15,1.4-.21,.97,.94,.28-.25,2.01,2.62-.18,1.17,1.15,.94-.33,.35,.59,.71-.69,1.86,.69,.38,.41,1.91,1.5,.43,.15,1.02,1.76-.23v-1.43l1.48-2.32,2.32-.21,1.17,.51,.61-1.02-.23-.97,1.58-.69,.74-1.55-.53-1.35-.63-.13,.23-1.5-2.11-.35-.41-.69-.87,.43-.28-.49-.61,.15,.18,.81-.38-.71-1.43,.56-1.55-.41,2.75-.21-.59-.56,.38-1.15v1.43l1.09-.18,.41-1.09,.41,.13-.61,.89,1.65-.28,.66,.41,1.07-.81-.79-1.76,1.68-1.3,.81-.35,.69,.41,1.07-1.83,.31,1.5,.46,.84,1.63-1.05,.61-2.98,.97-1.48,1.4-.35,.81,.97,3.33-3.36,2.65,.56,.61,1.09,.35-1.02,1.02-.61-.23-.74,1.05-.69-1.02-.77v-.74l.53-.77-.15-.99,1.02-.89,.63,.15-.71-1.93,.61-.91,1.73-.51,.03-.05,1.12-.15,.07-.74,.59,.07,.74,.89-.25,1.61,.69,.56,.33-.81h.81l1.27-1.3,.07,.35,.43,.05-.91,.35,.28,.49,1.5-.31,.46,.43,1.17-.74,2.24,.87,2.11-.53,.25-.61,1.35,.46,1.37-1.27-.74-.94,.28-.63,.46,1.3,.81-.87,2.85-.31,5.91,.91,3.18,2.42,.03,1.76,.81-.59,1.27,.07-.69-1.37,1.78-.81-.03-1.43-2.17,.97,.69-1.09-.49-.43,.63-.71-.15-.91-.61-.25,.41-.25-1.78-.35,.41-.13,1.22-1.25-.53-.66,.33-.94h-.71l1.35-.84,.05-.91,.77,1.07,.87,1.02,.33-.41,.49-.77-.46,.77-.35,.49,.21,.21-1.55-.41-.77,2.17,.61,.66,.69,1.37-.18,.46-.07,.41,.99,.31,.03,.38,.81-.53,1.09,.28,.13-.63,.89,.77,.94-1.89,.94-.28-1.48,1.81-.21,.77,.61,.28-1.91-.49,.46,1.35,.35,2.24,4.86,.69-2.34,.49,1.33,1.19h1.71l.41-.71,1.25-.41,1.81,.33,.81-.69-.13,.69,.25,.79,1.17-.05,1.58,1.37,.81,.05-.1,.69,1.33,1.19-.1,1.63-.71,.03,2.75,2.29,1.83,.63,.56-.49-.05-1.22,1.19-.56-.49,1.3,1.78,.66,.89,1.12,2.37-1.73,1.37,.43,.94-.35-1.05-1.3,1.17-4.94,1.68-2.32,1.91-.61,.89-.87-.49-1.17,1.58,1.22,1.5-.99-.15-1.05,.81-1.83,.66-.18-.41-.69,1.22-.97-1.76-.53,.43,.53-.35,.35-.46-.63-1.99-.38-.05-3.18,.74-1.04v-3.8l5.66-12.91-.03-.39-.94-1.5v-1.58h.05l.63,.63,.38-.84,.07,.49-.05,.53,.55,1.16,4.93-11.25c.57-1.28,.9-2.4,.98-3.36,.08-.96,.12-2.16,.12-3.59,0-.64-.01-1.32-.03-2.03-.02-.71-.13-1.34-.34-1.89-.21-.54-.51-1-.92-1.37-.41-.37-1-.55-1.77-.55-.94,0-1.68,.32-2.23,.96s-.83,1.58-.83,2.81v4.29h-6.24v-4.14c0-1.58,.24-3.06,.73-4.44,.49-1.38,1.16-2.59,2.02-3.62,.81-1.04,1.79-1.86,2.93-2.48,1.14-.62,2.36-.92,3.67-.92,1.63,0,3.03,.36,4.19,1.07,1.16,.72,2.13,1.69,2.9,2.92,.73,1.23,1.27,2.64,1.62,4.21,.35,1.58,.52,3.25,.52,5.03,0,1.28-.02,2.35-.06,3.22-.04,.86-.12,1.69-.24,2.48-.12,.79-.33,1.58-.61,2.37-.29,.79-.67,1.75-1.16,2.88l-4.68,10.9,2.3-.83,1.43-2.67,1.19-1.02,4.1-.94,4.94,.03,.94-1.45,3.24,.3,.42-1.36h3.44l-.03,.1,.09-.03,.33-.35,2.11-1.35,6.49,1.63h.89v.22l1.02,.26,6.66,4.12,1.42-4.6h3.44l-1.99,6.19,1.78,.81,.13,.74h.71l-.21,.53,1.76,.66,1.68,2.34v.05l.89,.66,1.22-1.55,1.02,.43-1.07-.69,.59-.53-.66-.28,.59-1.09,.91-.87,.91,.18,4.07,.13,.81,.61,4.97,.84,2.17-.61,.61,.74,1.65-.07,.66,.63,.63-.35,1.15,1.17,2.9,.53,.49,1.5,1.63-1.12,4.23-.46,.41-1.17-.69-.18v-.77l1.83-2.17-1.43-.33,.41-2.52-.43-.53-1.4,1.35-.61-.41,.41-.66-.97,.91-.18-.87-.31-.13-.41-.43-.61,.07-.25,.35,.07-.61-1.25,.94-.31-.33,1.61-.84-.49-1.33,.84,.05-.49-.53-1.58,.69-.66,1.19-.89-.05,.53-1.58,.84-.07-.81-.21,.49-.74,1.22,.21-.03-1.09-.33,.31-.28-.51,1.58-.05-.81,.94,2.98,.94-1.37-1.63,.03-.61,.81-.38,.69,1.61-.43,.61,1.86-.25,.61,.56-.23,.41,1.05,.53-.77,1.43,2.6-2.39,3.23-.89,.74-.13,4.63,.84,.19-.38-.9-.21-.35-1.07h0s.31,.61,.31,.61l.41-.61,.81,.61v.1l.06-.27,1.65-1.05,.99-.05,.61-1.3-3.54,.35,.28-1.43-.53-1.37-2.09,1.3-.1-1.25-1.02-1.22,.15-.38-.53-1.05,.49-.46-.03-1.48,.74-.56-.66-.56-.33-1.93-1.22,.81-1.17-.28-.18-.69,.53-1.83-.23-.25v-.03l.35-.61,.97,.13,.46-.74,.33-2.09-1.76-.41-1.78,1.3-2.65-3.95-1.96-1.5-.07-1.02,.41,.69,1.22-1.37,2.32-.18,.69-.61v1.96l1.17-1.78,.99-.46,1.15,2.11,.84-.49,2.62,1.19,1.93,.07,1.68,1.96,.74,.43,.84,.41,1.53-1.25,.63,.41,.21-.38,.89-1.76-.91-.41-.53-1.43,1.3-.28-.49-.41,.33-.28,.63,.15-.43-.81,.31-.56-1.86-.81-.13-.77,.35-3.26-.51-1.27,.61-2.24-2.09-.87,.49-2.55-.15-.31-.87-1.71,.21-1.09-1.43-1.15,.25-.97,3.13-.28,1.43-3.16,1.68-.23,1.78,.94,.53-.33,.33-1.07-.59-.03-.13-1.81,1.12-.53,.15-.81-.81-1.78,.33-1.99,1.65,.81,.66-1.63-.81-.79,.28-1.17-1.02-.21-2.37-2.09,.18-1.3-.53,.15-.49-.61,.33-.61,2.11-.21,.15-2.06-1.96-1.89-1.37-2.39-.07-2.62-1.02,.61-2.49-4.76-.43-.41-1.19,.61-.81-1.22,.05-.07v-.76h-52.76l-1.17,1.65Zm-55.31,77.07c.51,.64,.89,1.38,1.13,2.22,.25,.89,.39,1.94,.43,3.14,.04,1.21,.06,2.75,.06,4.62,0,1.73-.03,3.15-.09,4.29-.06,1.13-.15,2.07-.28,2.81-.12,.79-.29,1.45-.49,2-.2,.54-.47,1.11-.79,1.7-.77,1.38-1.76,2.53-2.96,3.44-1.2,.91-2.78,1.37-4.74,1.37-.98,0-2.02-.2-3.12-.59-1.1-.39-2.1-1.04-3-1.92s-1.64-2.04-2.23-3.48c-.59-1.43-.89-3.18-.89-5.25v-4.29h6.24v3.92c0,1.18,.27,2.16,.83,2.92,.55,.76,1.29,1.15,2.23,1.15s1.68-.38,2.23-1.15c.55-.76,.83-1.79,.83-3.07v-7.54c0-2.07-.33-3.43-.98-4.07-.37-.39-.87-.64-1.5-.74-.63-.1-1.46-.15-2.48-.15v-6.66c1.88,0,3.17-.27,3.88-.81,.71-.54,1.07-1.8,1.07-3.77v-6.8c0-1.08-.28-1.97-.83-2.66-.55-.69-1.29-1.04-2.23-1.04-1.1,0-1.89,.42-2.35,1.26-.47,.84-.7,1.65-.7,2.44v4.29h-6.24v-4.36c0-1.53,.24-2.98,.73-4.36,.49-1.38,1.16-2.56,2.02-3.55,.86-.99,1.85-1.77,3-2.37,1.14-.59,2.36-.89,3.67-.89,1.71,0,3.13,.41,4.25,1.22s1.97,1.64,2.54,2.48c.41,.59,.76,1.18,1.07,1.77,.31,.59,.56,1.31,.76,2.14,.37,1.63,.55,4.04,.55,7.25,0,1.82-.03,3.3-.09,4.44-.06,1.13-.21,2.07-.46,2.81-.29,.79-.68,1.46-1.19,2-.51,.54-1.21,1.13-2.11,1.77,.98,.74,1.72,1.43,2.23,2.07Zm87.02,1.89h0s-.46,.77-.46,.77l-.03-.03,.49-.74Z"/>
  <polygon class="cls-2" points="209.99 197.01 207.85 196.8 205.51 194.48 208.49 197.81 207.96 201.97 209.57 199.98 210.38 198.79 209.64 197.24 209.99 197.01"/>
  <path class="cls-5" d="M252.35,103.7l-.35-.56,.71-1.12-1.83-1.63-.14-.57c-.37-.37-.69-.79-.95-1.3-.16-.29-.29-.57-.38-.84s-.16-.6-.2-.98c-.06-.37-.1-.82-.12-1.37-.02-.55-.03-1.25-.03-2.1,0-.8,0-1.46,.03-1.99,.02-.52,.05-.98,.09-1.37,.04-.36,.1-.7,.18-1h0s0-.01,0-.01c.08-.3,.17-.62,.27-.96l1.78-5.75-.29-.63,.7-.68,1.85-5.99h1.26l-.83-1.4-1.27-.18-.41-.56-.21-2.11-.21-.46,2.83-3.26-.33-.84-2.17,.69-1.68-.74,.31-1.09-.91-.69,.18-1.19-.61,.59-.99-.61,.13-2.37-.53,.77-.63-.33-.93-1.43-1.16,.56-1.27,2.45-.35-.61-.69,1.15-.81-.59-.38,.61-1.12,.21,.61,.61v.87l1.58,.89,.49,1.15-.74,2.11-1.25-.49-2.85-2.85-.99,1.3-1.09-.69-1.78,.15-2.98,2.77-.61,.07-.58-.91v21.56c0,1.77-.25,3.35-.76,4.73s-1.19,2.56-2.05,3.55c-.86,.99-1.85,1.74-2.97,2.25-1.12,.52-2.29,.78-3.52,.78s-2.39-.26-3.52-.78c-1.12-.52-2.11-1.27-2.97-2.25-.86-.99-1.54-2.17-2.05-3.55-.51-1.38-.76-2.96-.76-4.73v-20.31l-.06,.28-.79,.21-1.3-.28,.13-1.43-1.55-.13-.13-.81-.71,.1-.71,1.05,1.12,1.43-1.33,1.19,.13,1.53-.49,.31,1.96,.81-.05,2.11,.99,.81,.41,1.96-1.43,.35-1.19,1.09-1.15-.43-1.3,2.14h-.13s0,18.88,0,18.88h-6.24v-16.19l-.19,.36-.61,.31,.07,1.05-1.02,.66,.43,.81-.61,2.24,.99,1.35-.59,1.53-.84,.46,1.05,2.29-.84,.41,.77,.56-.13,1.22,.87,.66-1.48,.43-.15,.53,1.09-.15-.77,1.58,.56,.15,.13,1.33,.46,.71-.51,1.02,2.17,.51-.82,1.15h52.76v-1.13l1.3-.97Zm-16.8-2.88h-3.08v-3.72h3.08v3.72Zm11.43-5.49c-.02,.55-.05,1-.09,1.37-.06,.39-.14,.72-.23,.98s-.21,.55-.35,.84c-.4,.8-.94,1.42-1.61,1.86-.67,.44-1.43,.66-2.28,.66s-1.6-.22-2.26-.67c-.66-.45-1.2-1.06-1.6-1.84-.16-.29-.29-.57-.38-.84s-.16-.6-.2-.98c-.06-.37-.1-.82-.12-1.37-.02-.55-.03-1.25-.03-2.1,0-.8,0-1.46,.03-1.99,.02-.52,.05-.98,.09-1.37,.04-.36,.1-.7,.18-1,.08-.3,.17-.62,.27-.97l4.04-13.05h3.44l-3.5,10.9,.06,.07c.1-.1,.26-.18,.47-.24s.49-.09,.83-.09c.54,0,1.04,.16,1.51,.47,.46,.32,.82,.72,1.09,1.2,.14,.27,.25,.53,.33,.8,.08,.27,.15,.62,.21,1.06,.04,.44,.07,.99,.09,1.66,.02,.67,.03,1.51,.03,2.53,0,.85,0,1.55-.03,2.1Z"/>
  <path class="cls-5" d="M219.17,92.65c.57,.72,1.3,1.07,2.2,1.07s1.63-.36,2.2-1.07c.57-.71,.86-1.61,.86-2.7v-20.13l-.39-.12-.25,.81-1.96-.46-1.71,2.57-1.05-.21-.76,.07v17.46c0,1.08,.28,1.98,.86,2.7Z"/>
  <polygon class="cls-5" points="224.25 67.65 223.66 67.93 224.43 69.16 224.43 65.54 224.04 65.89 224.25 67.65"/>
  <path class="cls-5" d="M242.43,88.78c-.4,0-.75,.17-1.06,.51-.3,.34-.45,.79-.45,1.35v4.81c0,.56,.15,1.01,.45,1.35s.65,.51,1.06,.51,.75-.17,1.05-.51c.3-.34,.45-.79,.45-1.35v-4.81c0-.56-.15-1.01-.45-1.35-.3-.34-.65-.51-1.05-.51Z"/>
  <path class="cls-5" d="M253.11,97.2l-.28-.63-.59-.46c.07,.26,.18,.5,.35,.69,.16,.18,.33,.31,.52,.39Z"/>
  <polygon class="cls-5" points="246.66 59.61 246.59 59.52 246.65 59.62 246.66 59.61"/>
  <polygon class="cls-4" points="198.25 56.16 198.25 59.52 204.49 59.52 204.49 48.17 198.25 48.17 192.02 53.72 192.02 59.52 194.47 59.52 198.25 56.16"/>
  <polygon class="cls-4" points="194.47 59.52 192.02 59.52 192.02 61.7 194.47 59.52"/>
  <polygon class="cls-4" points="198.25 84.63 198.84 83.49 199.45 83.87 200.8 82.31 201.82 82.93 201.94 81.86 204.49 81.93 204.49 59.52 198.25 59.52 198.25 84.63"/>
  <polygon class="cls-3" points="201.82 82.93 200.8 82.31 199.45 83.87 198.84 83.49 198.25 84.63 198.25 100.82 204.49 100.82 204.49 81.93 201.94 81.86 201.82 82.93"/>
  <polygon class="cls-4" points="212.3 68.55 214.66 67.73 214.59 68.42 216.05 69.11 216.02 71.75 216.79 71.73 217.45 72.57 218.31 72.48 218.31 59.52 212.07 59.52 212.07 69.64 212.3 68.55"/>
  <polygon points="224.93 69.97 224.43 69.16 224.43 69.81 224.93 69.97"/>
  <path class="cls-4" d="M218.31,59.04c0-1.08,.28-1.98,.86-2.7,.57-.71,1.3-1.07,2.2-1.07s1.63,.36,2.2,1.07c.57,.72,.86,1.62,.86,2.7v.48h6.24v-.48c0-1.77-.25-3.35-.76-4.73-.51-1.38-1.19-2.56-2.05-3.55-.86-.99-1.85-1.74-2.97-2.26-1.12-.52-2.29-.78-3.52-.78s-2.39,.26-3.52,.78c-1.12,.52-2.11,1.27-2.97,2.26-.86,.99-1.54,2.17-2.05,3.55-.51,1.38-.76,2.96-.76,4.73v.48h6.24v-.48Z"/>
  <polygon class="cls-4" points="224.43 65.54 224.57 65.4 225.08 65.15 226.61 65.53 227.57 66.24 226.27 67.16 225.66 69.06 226.15 69.68 227.83 68.28 229.28 68.68 230.63 68.33 230.66 68.39 230.66 59.52 224.43 59.52 224.43 65.54"/>
  <path class="cls-3" d="M229.28,68.68l-1.45-.41-1.68,1.4-.49-.61,.61-1.91,1.3-.91-.97-.71-1.53-.38-.51,.25-.15,.14v3.62l.51,.82-.51-.16v20.13c0,1.08-.29,1.98-.86,2.7-.57,.72-1.31,1.07-2.2,1.07s-1.63-.36-2.2-1.07c-.57-.71-.86-1.61-.86-2.7v-17.46l-.87,.08-.66-.84-.77,.03,.03-2.65-1.45-.69,.07-.69-2.37,.81-.22,1.09v20.31c0,1.77,.25,3.35,.76,4.73,.51,1.38,1.19,2.56,2.05,3.55,.86,.99,1.84,1.74,2.97,2.25,1.12,.52,2.29,.78,3.52,.78s2.39-.26,3.52-.78c1.12-.52,2.11-1.27,2.97-2.25,.86-.99,1.54-2.17,2.05-3.55s.76-2.96,.76-4.73v-21.56l-.04-.06-1.35,.35Z"/>
  <rect class="cls-3" x="232.48" y="97.1" width="3.08" height="3.72"/>
  <path class="cls-3" d="M246.89,89.04c-.06-.44-.13-.79-.21-1.06-.08-.27-.19-.53-.33-.8-.26-.49-.62-.89-1.09-1.2-.46-.32-.96-.47-1.51-.47-.34,0-.62,.03-.83,.09s-.37,.14-.47,.24l-.06-.07,3.5-10.9h-3.44l-4.04,13.05c-.1,.34-.19,.66-.27,.97-.08,.3-.14,.64-.18,1-.04,.39-.07,.84-.09,1.37-.02,.52-.03,1.19-.03,1.99,0,.85,0,1.55,.03,2.1,.02,.55,.06,1,.12,1.37,.04,.39,.11,.72,.2,.98s.22,.55,.38,.84c.4,.78,.93,1.39,1.6,1.84,.66,.45,1.42,.67,2.26,.67s1.6-.22,2.28-.66c.67-.44,1.21-1.06,1.61-1.86,.14-.29,.26-.57,.35-.84s.17-.6,.23-.98c.04-.37,.07-.82,.09-1.37,.02-.55,.03-1.25,.03-2.1,0-1.02,0-1.87-.03-2.53-.02-.67-.05-1.22-.09-1.66Zm-2.96,6.42c0,.56-.15,1.01-.45,1.35-.3,.34-.65,.51-1.05,.51s-.75-.17-1.06-.51-.45-.79-.45-1.35v-4.81c0-.56,.15-1.01,.45-1.35,.3-.34,.65-.51,1.06-.51s.75,.17,1.05,.51c.3,.34,.45,.79,.45,1.35v4.81Z"/>
  <path class="cls-6" d="M253.42,76.43l.69,2.04-1.43,.23-.46,1.76-.39,.38-.41,1.32,.32,.69-.56,1.4,.51,1.55-.28,1.17-2.03,1.88s0,0,0,.01c0,0,0,0,0,0l1.02,1.09,.79,2.73-.51,1.48,.59,1.17,.99,.76c-.06-.2-.1-.41-.1-.65v-4.81c0-.56,.15-1.01,.45-1.35,.3-.34,.65-.51,1.06-.51s.75,.17,1.05,.51c.3,.34,.45,.79,.45,1.35v4.81c0,.56-.15,1.01-.45,1.35-.3,.34-.65,.51-1.05,.51-.19,0-.37-.04-.54-.12l.21,.46-.71,.33-1.35-.74-.79,1.48,.27,1.08c.2,.2,.41,.39,.65,.55,.66,.45,1.42,.67,2.26,.67s1.6-.22,2.28-.66c.67-.44,1.21-1.06,1.61-1.86,.14-.29,.26-.57,.35-.84s.17-.6,.23-.98c.04-.37,.07-.82,.09-1.37,.02-.55,.03-1.25,.03-2.1,0-1.02,0-1.87-.03-2.53-.02-.67-.05-1.22-.09-1.66-.06-.44-.13-.79-.21-1.06-.08-.27-.19-.53-.33-.8-.26-.49-.62-.89-1.09-1.2-.46-.32-.96-.47-1.51-.47-.34,0-.62,.03-.83,.09s-.37,.14-.47,.24l-.06-.07,3.5-10.9h-2.18l.11,.18-1.63,1.4Z"/>
  <path class="cls-3" d="M251.68,85.81l-.51-1.55,.56-1.4-.32-.69-1.78,5.75c-.1,.34-.19,.65-.27,.96l2.03-1.88,.28-1.17Z"/>
  <polygon class="cls-3" points="251.82 80.84 252.22 80.46 252.68 78.7 254.1 78.47 253.42 76.43 255.04 75.03 254.94 74.85 253.68 74.85 251.82 80.84"/>
  <path class="cls-3" d="M251.26,97.25l1.35,.74,.71-.33-.21-.46c-.19-.08-.36-.21-.52-.39-.17-.19-.28-.43-.35-.69l-.99-.76-.59-1.17,.51-1.48-.79-2.73-1.02-1.09c-.08,.3-.14,.64-.18,1-.04,.39-.07,.84-.09,1.37-.02,.52-.03,1.19-.03,1.99,0,.85,0,1.55,.03,2.1,.02,.55,.06,1,.12,1.37,.04,.39,.11,.72,.2,.98s.22,.55,.38,.84c.26,.5,.58,.93,.95,1.3l-.27-1.08,.79-1.48Z"/>
  <path class="cls-6" d="M269.45,97.1h-5.55l4.52-10.54c.24-.56,.43-1.03,.57-1.42,.14-.39,.24-.78,.3-1.17,.06-.39,.1-.8,.12-1.22,.02-.42,.03-.95,.03-1.59,0-.88-.09-1.7-.26-2.48-.17-.78-.44-1.47-.8-2.08-.38-.61-.86-1.09-1.43-1.44-.57-.35-1.26-.53-2.07-.53-.64,0-1.25,.15-1.81,.46-.56,.3-1.05,.71-1.45,1.22-.42,.51-.75,1.11-1,1.79-.24,.68-.36,1.41-.36,2.19v2.04h3.08v-2.12c0-.61,.14-1.07,.41-1.39,.27-.32,.64-.47,1.1-.47,.38,0,.67,.09,.87,.27s.35,.41,.45,.67,.16,.58,.17,.93c0,.35,.02,.69,.02,1,0,.71-.02,1.29-.06,1.77-.04,.47-.2,1.03-.48,1.66l-5.55,12.65v3.5h9.17v-3.72Z"/>
  <path class="cls-3" d="M142.88,178.68c.25-.74,.4-1.67,.46-2.81,.06-1.13,.09-2.61,.09-4.44,0-3.2-.18-5.62-.55-7.25-.2-.84-.46-1.55-.76-2.14-.31-.59-.66-1.18-1.07-1.77-.57-.84-1.42-1.66-2.54-2.48s-2.54-1.22-4.25-1.22c-1.31,0-2.53,.3-3.67,.89-1.14,.59-2.14,1.38-3,2.37-.86,.99-1.53,2.17-2.02,3.55-.49,1.38-.73,2.83-.73,4.36v4.36h6.24v-4.29c0-.79,.23-1.6,.7-2.44,.47-.84,1.25-1.26,2.35-1.26,.94,0,1.68,.35,2.23,1.04,.55,.69,.83,1.58,.83,2.66v6.8c0,1.97-.36,3.23-1.07,3.77-.71,.54-2.01,.81-3.88,.81v6.66c1.02,0,1.84,.05,2.48,.15,.63,.1,1.13,.35,1.5,.74,.65,.64,.98,2,.98,4.07v7.54c0,1.28-.28,2.3-.83,3.07-.55,.76-1.29,1.15-2.23,1.15s-1.68-.38-2.23-1.15c-.55-.76-.83-1.74-.83-2.92v-3.92h-6.24v4.29c0,2.07,.29,3.82,.89,5.25,.59,1.43,1.33,2.59,2.23,3.48s1.9,1.53,3,1.92c1.1,.39,2.14,.59,3.12,.59,1.96,0,3.54-.46,4.74-1.37,1.2-.91,2.19-2.06,2.96-3.44,.33-.59,.59-1.16,.79-1.7,.2-.54,.37-1.21,.49-2,.12-.74,.21-1.67,.28-2.81,.06-1.13,.09-2.56,.09-4.29,0-1.87-.02-3.41-.06-4.62-.04-1.21-.18-2.25-.43-3.14-.24-.84-.62-1.58-1.13-2.22-.51-.64-1.25-1.33-2.23-2.07,.9-.64,1.6-1.23,2.11-1.77,.51-.54,.91-1.21,1.19-2Z"/>
  <polygon class="cls-4" points="156.71 193.03 153.04 191.91 153.67 190.89 152.38 188.15 151.73 189.65 152.04 193.33 153.16 192.52 150.82 195.17 150.54 196.78 148.96 198.64 148.18 198.54 148.96 198.97 148.18 200.86 147.77 203.94 149.7 205.62 147.69 206.43 146.6 205.62 146.06 206.36 146.06 209.66 164.65 209.66 164.65 202.12 153.4 202.12 157.9 191.64 157.45 191.81 156.71 193.03"/>
  <path class="cls-3" d="M163.74,177.86c.28-.79,.49-1.58,.61-2.37,.12-.79,.2-1.61,.24-2.48,.04-.86,.06-1.93,.06-3.22,0-1.78-.17-3.45-.52-5.03-.35-1.58-.89-2.98-1.62-4.21-.77-1.23-1.74-2.21-2.9-2.92-1.16-.71-2.56-1.07-4.19-1.07-1.3,0-2.53,.31-3.67,.92-1.14,.62-2.12,1.44-2.93,2.48-.86,1.04-1.53,2.24-2.02,3.62-.49,1.38-.73,2.86-.73,4.44v4.14h6.24v-4.29c0-1.23,.27-2.17,.83-2.81s1.29-.96,2.23-.96c.77,0,1.37,.19,1.77,.55,.41,.37,.71,.83,.92,1.37,.2,.54,.31,1.17,.34,1.89,.02,.71,.03,1.39,.03,2.03,0,1.43-.04,2.62-.12,3.59-.08,.96-.41,2.08-.98,3.36l-4.93,11.25,1.29,2.73-.63,1.02,3.67,1.12,.74-1.22,.45-.16,4.68-10.9c.49-1.13,.88-2.09,1.16-2.88Z"/>
  <polygon class="cls-3" points="147.69 206.43 149.7 205.62 147.77 203.94 148.18 200.86 148.96 198.97 148.18 198.54 148.96 198.64 150.54 196.78 150.82 195.17 153.16 192.52 152.04 193.33 151.73 189.65 146.06 202.56 146.06 206.36 146.6 205.62 147.69 206.43"/>
  <rect class="cls-6" x="166.47" y="205.94" width="3.08" height="3.72"/>
  <path class="cls-6" d="M176.03,185.05l-3.62,11.7c-.1,.34-.19,.66-.27,.97-.08,.3-.14,.64-.18,1-.04,.39-.07,.84-.09,1.37-.02,.52-.03,1.19-.03,1.99,0,.85,0,1.55,.03,2.1,.02,.55,.06,1,.12,1.37,.04,.39,.11,.72,.2,.98s.22,.55,.38,.84c.4,.78,.93,1.39,1.6,1.84,.66,.45,1.42,.67,2.26,.67s1.6-.22,2.28-.66c.67-.44,1.21-1.06,1.61-1.86,.14-.29,.26-.57,.35-.84s.17-.6,.23-.98c.04-.37,.07-.82,.09-1.37,.02-.55,.03-1.25,.03-2.1,0-1.02,0-1.87-.03-2.53-.02-.67-.05-1.22-.09-1.66-.06-.44-.13-.79-.21-1.06-.08-.27-.19-.53-.33-.8-.26-.49-.62-.89-1.09-1.2-.46-.32-.96-.47-1.51-.47-.34,0-.62,.03-.83,.09s-.37,.14-.47,.24l-.06-.07,3.47-10.81-3.48,1.29-.35-.03Zm.39,12.57c.4,0,.75,.17,1.05,.51,.3,.34,.45,.79,.45,1.35v4.81c0,.56-.15,1.01-.45,1.35-.3,.34-.65,.51-1.05,.51s-.75-.17-1.06-.51-.45-.79-.45-1.35v-4.81c0-.56,.15-1.01,.45-1.35,.3-.34,.65-.51,1.06-.51Z"/>
  <polygon class="cls-3" points="176.45 183.69 176.03 185.05 176.38 185.09 179.86 183.79 179.89 183.69 176.45 183.69"/>
  <polygon class="cls-6" points="186.7 183.69 183.63 186.43 183.63 190.37 186.7 187.63 186.7 209.66 189.78 209.66 189.78 183.92 188.89 183.69 186.7 183.69"/>
  <polygon class="cls-3" points="188.89 183.69 189.78 183.92 189.78 183.69 188.89 183.69"/>
  <path class="cls-6" d="M197.46,188.3l-2.62,8.45c-.1,.34-.19,.66-.27,.97-.08,.3-.14,.64-.18,1-.04,.39-.07,.84-.09,1.37-.02,.52-.03,1.19-.03,1.99,0,.85,0,1.55,.03,2.1,.02,.55,.06,1,.12,1.37,.04,.39,.11,.72,.2,.98s.22,.55,.38,.84c.4,.78,.93,1.39,1.6,1.84,.66,.45,1.42,.67,2.26,.67s1.6-.22,2.28-.66c.67-.44,1.21-1.06,1.61-1.86,.14-.29,.26-.57,.35-.84s.17-.6,.23-.98c.04-.37,.07-.82,.09-1.37,.02-.55,.03-1.25,.03-2.1,0-1.02,0-1.87-.03-2.53-.02-.67-.05-1.22-.09-1.66-.06-.44-.13-.79-.21-1.06-.08-.27-.19-.53-.33-.8-.26-.49-.62-.89-1.09-1.2-.46-.32-.96-.47-1.51-.47-.34,0-.62,.03-.83,.09s-.37,.14-.47,.24l-.06-.07,1.36-4.25-1.86-1.51-.87-.54Zm1.4,9.33c.4,0,.75,.17,1.05,.51,.3,.34,.45,.79,.45,1.35v4.81c0,.56-.15,1.01-.45,1.35-.3,.34-.65,.51-1.05,.51s-.75-.17-1.06-.51-.45-.79-.45-1.35v-4.81c0-.56,.15-1.01,.45-1.35,.3-.34,.65-.51,1.06-.51Z"/>
  <polygon points="200.23 190.22 200.34 189.88 199.22 189.37 200.23 190.22"/>
  <polygon class="cls-3" points="198.89 183.69 197.46 188.3 198.33 188.84 200.19 190.34 200.23 190.22 199.22 189.37 200.34 189.88 202.32 183.69 198.89 183.69"/>
</svg>