<?xml version="1.0" encoding="UTF-8"?>
<svg id="Layer_1" data-name="Layer 1" xmlns="http://www.w3.org/2000/svg" viewBox="0 0 283.46 283.46">
  <defs>
    <style>
      .cls-1 {
        fill: none;
      }

      .cls-2 {
        fill: #f25d55;
      }

      .cls-3 {
        fill: #fff;
      }

      .cls-4 {
        fill: #d1c1c1;
      }

      .cls-5 {
        fill: #082cff;
      }

      .cls-6 {
        fill: #6d8cf2;
      }

      .cls-7 {
        fill: #606060;
      }
    </style>
  </defs>
  <polygon class="cls-2" points="86.14 123.08 86.66 122.76 87.32 123.74 87.65 123.28 86.53 121.65 86.46 121.19 85.06 121.19 85.4 121.9 86.14 123.08"/>
  <polygon class="cls-1" points="67.64 121.04 67.55 121.19 68.37 121.19 68.14 121.17 67.64 121.04"/>
  <polygon class="cls-1" points="157.35 123.18 154.56 123.39 153.24 123.3 152.09 123.22 153.15 124.23 154.49 123.97 155.71 124.19 157.26 123.47 157.71 123.43 158.56 124.14 158.99 124.1 159.87 123.23 159.95 122.29 160.98 122.46 161.33 121.41 161.64 121.19 158.65 121.19 158.64 121.21 157.35 123.18"/>
  <path class="cls-1" d="M192.36,182.16h-.34l-.33,.33-.93,.75-.33,.93-1,.25-.59,.33c1.2-.1,2.07-.35,2.61-.76,.44-.34,.75-.95,.91-1.83Z"/>
  <path class="cls-1" d="M209.83,207.55l.48,.58c.12,.02,.23,.04,.36,.04,.82,0,1.53-.36,2.14-1.07,.61-.71,.92-1.59,.92-2.62v-10.35c0-1.04-.31-1.91-.92-2.62-.61-.71-1.33-1.07-2.14-1.07s-1.53,.36-2.14,1.07c-.61,.71-.92,1.59-.92,2.62v10.35c0,1.02,.3,1.87,.89,2.58l.73,.5h.6Z"/>
  <path class="cls-1" d="M187.22,207.03c.55,.76,1.29,1.15,2.23,1.15s1.68-.38,2.23-1.15c.55-.76,.83-1.79,.83-3.07v-7.06l-.16,.19-.27,.16-.61,.22-2.14,2.19-.3,.31-.79,.17-.82,3.04-1.03-.07v1.01c0,1.18,.27,2.16,.83,2.92Z"/>
  <path class="cls-1" d="M201.44,195.57c0-.16,.01-.32,.02-.48l-1.85,.65-.89,.89c.02,1,.03,2.15,.03,3.48,0,1.21-.02,2.27-.05,3.19l2.72,.14c-.03-.84-.04-1.79-.04-2.89,0-1.97,.02-3.63,.06-4.99Z"/>
  <path class="cls-1" d="M208.53,183.73c.61,.71,1.32,1.07,2.14,1.07s1.53-.36,2.14-1.07c.61-.71,.92-1.59,.92-2.62v-7.69c0-1.04-.31-1.91-.92-2.62-.61-.71-1.33-1.07-2.14-1.07s-1.53,.36-2.14,1.07c-.14,.16-.26,.33-.36,.51l.21,.86,.58,.11,.06,.39-1.15,1.56-.11,.63-.14,.08v6.17c0,1.04,.31,1.91,.92,2.62Z"/>
  <path class="cls-1" d="M198.63,181.89l2.2,.2-1.26,1.07-1.13,2.71,.09,.69,.42,1.26,.87,.63,2.69,.41,.29,.42h.23c.39-.56,.88-1.11,1.47-1.67-.73-.74-1.31-1.44-1.74-2.11-.43-.67-.74-1.42-.95-2.25-.19-.78-.3-1.69-.35-2.69l-.24,.7-1.83-.93-.69,.18c-.01,.34-.03,.67-.04,.96,0,.14-.02,.27-.03,.41Z"/>
  <path class="cls-1" d="M180.04,205.58l-.8-.39-.33,.13,.21,.17-.41-.13-.21-.55-1.31-.25-.5-.42-.79,.09-.52-.04-.46-.04-.47-.28h-.41l-.68-.09-1.75-.08-1.57-1.64-.69-.38-1.26-1.31,1,1.69,1.09,.68,.5,.79,.33,.56,.16,.06,.42,.14,.68-.02,1,.31,1.09,.66,2.47,.85,2.48,.69,.28,.04,.38-.17-.06,.25,.41,.09c-.06-.4-.1-.81-.13-1.24l-.17-.16Z"/>
  <polygon class="cls-1" points="186.07 186.31 185.3 186.27 183.79 186.85 183.83 187.1 183.35 187.35 185.22 187.51 186.12 187.05 187.56 186.31 187.56 185.47 186.07 186.31"/>
  <polygon class="cls-1" points="165.43 97.47 164.76 99.57 165.12 101.05 164.62 101.68 164.31 104.15 162.73 104.19 159.39 103.19 156.81 103.52 155.18 102.56 156.58 104.06 159.1 103.87 160.21 105.08 161.79 104.83 164.04 105.56 165.47 104.79 165.47 97.46 165.43 97.47"/>
  <path class="cls-1" d="M192.46,196l.04,.02s0,0,0-.01h-.04Z"/>
  <path class="cls-1" d="M254.17,192.81c-.44,0-.8,.18-1.09,.53-.28,.35-.42,.8-.42,1.33v15.24c0,.54,.14,.98,.42,1.33,.28,.35,.64,.53,1.09,.53s.8-.18,1.08-.53,.42-.8,.42-1.33v-15.24c0-.54-.14-.98-.42-1.33s-.64-.53-1.08-.53Z"/>
  <polygon class="cls-6" points="81.99 77.86 81.98 77.86 81.99 77.86 81.99 77.86"/>
  <polygon class="cls-2" points="103.96 121.24 104.29 122.5 104.12 123 103.19 122.75 102.2 125.06 102.14 128.81 102.86 130.12 104.83 128.67 104.17 127.16 103.96 124.58 105.47 121.43 105.39 121.19 104.05 121.19 103.96 121.24"/>
  <polygon class="cls-1" points="105.16 120.5 104.05 121.19 105.39 121.19 105.16 120.5 105.16 120.5"/>
  <polygon class="cls-6" points="106.54 117.02 106.08 116.18 105.03 118.99 105.68 119.92 106.54 117.02"/>
  <polygon class="cls-6" points="82.91 79.76 82.26 80.04 82.51 80.62 83.69 80.47 84.88 81 84.88 79.97 83.54 79.07 83.18 78.07 81.99 77.86 82.38 79.7 82.91 79.76"/>
  <polygon class="cls-6" points="95.68 86.84 94.5 87.3 95.77 87.51 95.69 86.85 95.68 86.84"/>
  <polygon class="cls-6" points="100.85 64.96 100.86 64.98 100.87 64.96 100.85 64.96"/>
  <polygon class="cls-6" points="75.87 88.19 77.06 87.55 77.41 87.93 76.41 88.68 76.12 89.51 76.94 89.86 76.56 90.36 76.08 91.09 75.5 90.77 75.02 91.7 74.36 92 74.67 92.38 75.07 91.96 75.27 93.51 75.9 93.36 76.88 94.45 78.17 94.45 79.81 95.16 81.07 95.96 81.6 96.46 81.65 97.52 80.99 97.47 79.55 96.95 78.77 97.39 78.63 98.05 79.35 98.71 79.15 98.96 78.71 98.96 77.79 99.23 77.38 98.96 76.99 100.02 76.08 100.74 75.02 101.33 74.6 100.87 73.98 100.36 73.16 100.54 73.46 101.7 74.48 102.3 75.62 104.14 77.37 106.84 78.37 106.06 79.68 104.89 80.4 103.94 80.69 103.3 81.32 102.84 81.65 102.26 82.15 102.56 82.9 102.92 83 101.43 84 101.87 84.74 102 84.68 101.13 84.2 100.55 83.8 99.65 82.95 99.29 83.23 98.6 83.03 97.9 83.95 97.9 85.18 98.85 86.88 98.97 86.97 98.09 85.76 97.13 86.82 96.75 85.24 93.02 87.73 97.18 88.91 97.26 89.64 97.33 90.49 97.27 90.87 96.67 91.53 96.75 92.38 96.09 92.84 96.22 93.1 95.12 93.68 94.92 93.72 93.63 89.89 92.55 94.19 92.1 95.61 93.02 96.32 92.17 96.63 90.79 94.27 90.35 96.13 90.05 96.51 89.15 96.24 88.11 95.53 87.78 94.65 88.11 93.72 87.69 93.17 88.03 90.54 87.7 93.81 87.06 94.68 86.06 95.7 85.68 96.62 85.92 96.71 85.13 96.11 84.88 96.63 84.61 96.32 83.04 97.04 82.52 97.7 82.59 98.35 81.98 99.23 81.98 100.19 83.29 101.25 83.1 101.75 82.31 102.87 81.48 103.84 79.34 103.14 78.84 102.29 79.7 101.17 80.93 100.44 81.06 99.66 81.66 99.01 81.41 98.09 80.68 97.37 81.14 96.66 80.76 97.16 80.08 98.47 79.8 98.58 78.38 99.4 78.32 100.06 77.07 100.89 77.12 102.29 74.85 103.36 74.68 102.48 73.85 102.02 73.03 102.78 71.01 103.43 70.55 103.33 69.67 103 68.81 103.17 67.67 102.4 66.98 102.15 65.85 100.86 64.98 100.43 65.34 100.75 65.91 99.8 66.64 98.92 66.86 98.37 67.69 94.04 70.89 93.19 70.84 92.33 72.53 90.17 73.62 89.29 73.08 88.1 74.29 86.77 74.66 84.65 75.54 84.01 76.48 85.51 76.84 84.34 77.32 85.13 79.51 86.15 80.7 86.23 81.14 85.65 80.88 85.65 81.6 86.39 81.65 87.16 82.26 86.18 83.09 85.51 82.1 83.62 81.12 82.53 81.5 82.07 81.71 82.24 82.51 81.69 83.16 81.6 81.81 80.43 81.77 79.8 80.88 80.85 80.75 81.06 80.04 80.31 79.96 79.9 79.03 79.35 79.69 78.12 78.83 77.96 78.25 76.99 79.88 76.86 80.88 77.32 81.27 77.83 81.39 77.16 82.39 76.95 81.56 76.05 81.27 75.44 81.56 75.8 82.91 74.97 83.9 74.17 84.67 75.14 87.42 75.87 88.19"/>
  <polygon class="cls-2" points="97.32 140.8 97.74 140 98.23 139.71 98.5 139.25 98.12 138.88 97.31 138.83 97.32 138.84 96.03 139.59 97.32 140.8"/>
  <polygon class="cls-6" points="73.18 112.82 74.45 111.04 74.03 110.66 73.52 110.72 73.18 109.79 73.17 109.8 72.77 109.96 72.86 110.43 71.73 110.16 71.17 110.68 71.17 111.14 71.3 111.64 72.01 111.8 72.72 111.49 72.56 112.07 73.18 112.82"/>
  <polygon class="cls-2" points="96.14 156.09 95.09 156.34 94.68 156.34 94.96 157.14 95.86 157.88 96.74 157.06 96.15 156.08 96.14 156.09"/>
  <polygon class="cls-2" points="93.25 175.51 92.43 175.45 92.28 176.41 94.37 177.16 96.14 177.32 96.98 177.4 97.02 176.51 96.02 176.32 94.87 175.35 94.88 175.35 94.17 175.64 93.25 175.51"/>
  <polygon class="cls-2" points="104.38 130.45 104.37 130.45 103.71 131.56 104.78 132.88 106.42 132.88 106.61 131.83 105.43 130.65 104.38 130.45"/>
  <polygon class="cls-2" points="98.62 152.34 97.73 152.53 97.19 153.98 98.11 154.98 99.46 155.33 100.13 152.89 99.38 151.26 98.23 151.59 98.62 152.34"/>
  <polygon class="cls-2" points="62.41 142.19 61.85 143.11 62.41 143.19 62.87 142.73 62.41 142.18 62.41 142.19"/>
  <polygon class="cls-6" points="85.98 99.23 85.98 99.23 85.99 99.23 85.98 99.23"/>
  <polygon class="cls-2" points="99.38 151.25 99.38 151.26 99.38 151.26 99.38 151.25"/>
  <polygon class="cls-6" points="77.46 96.29 77.46 96.29 77.47 96.29 77.46 96.29"/>
  <polygon class="cls-2" points="57.21 150.89 57.71 151.93 58.5 151.53 57.94 150.71 57.21 150.89"/>
  <polygon class="cls-2" points="60.2 142.19 60.21 142.19 60.21 142.19 60.2 142.19"/>
  <polygon class="cls-2" points="54.21 154.37 54.21 154.37 54.21 154.37 54.21 154.37"/>
  <polygon class="cls-2" points="53.29 154.67 52.92 155.81 53.58 156.25 54.18 155.81 54.41 155 54.21 154.37 53.29 154.67"/>
  <polygon class="cls-2" points="61.97 145.67 61.97 145.67 61.97 145.67 61.97 145.67"/>
  <polygon class="cls-2" points="61.64 145.84 61.74 146.52 62.22 146.67 62.27 146.06 61.97 145.67 61.64 145.84"/>
  <polygon class="cls-2" points="60.77 145.35 61.72 145.3 60.51 144.21 61.09 143.79 61.3 143.19 60.77 142.83 60.72 142.23 60.21 142.19 60.18 143.99 59.34 144.67 57.94 144.59 58.46 145.96 57.96 145.96 57.99 146.67 57.11 146.84 56.73 147.57 58.17 148.35 58.5 147.6 58.84 147.7 59.09 148.28 60.02 148.37 60.63 148.06 60.23 147.68 60.73 147.47 60.98 146.84 61.4 146.76 61.28 146.04 60.77 145.35"/>
  <polygon class="cls-2" points="57.45 148.28 56.41 147.99 56.4 148 56.2 148.75 57.11 149.11 56.94 149.49 56.45 149.38 56.95 150.12 58.26 149.63 57.46 149.44 57.76 149.08 58.88 149.08 57.32 148.61 57.45 148.28"/>
  <polygon class="cls-6" points="74.06 91.03 74.32 91.51 74.98 90.85 74.7 89.79 73.99 89.46 73.99 89.46 72.73 90.04 73.27 90.9 74.06 91.03"/>
  <polygon class="cls-6" points="75.69 97.33 74.78 97.33 74.85 98.18 76.16 97.6 76.82 98.13 77.59 97.21 77.46 96.29 76.49 96.33 75.69 97.33"/>
  <polygon class="cls-6" points="70.72 105.65 69.79 107.16 70.85 107.37 71.96 106.71 72.42 105.91 71.96 105.45 71.96 105.45 70.72 105.65"/>
  <polygon class="cls-6" points="69.87 104.06 71.05 103.41 70.32 102.58 68.94 103.24 69.87 104.06"/>
  <polygon class="cls-6" points="70.32 102.58 70.32 102.58 70.33 102.58 70.32 102.58"/>
  <polygon class="cls-6" points="65.26 108.74 64.17 108.65 64.17 108.66 63.9 109.05 64.55 109.53 65.26 108.74"/>
  <polygon class="cls-2" points="53.38 156.54 52.92 156.76 53.56 157.09 54.36 156.92 53.38 156.54 53.38 156.54"/>
  <polygon class="cls-6" points="86.83 100.67 87.7 100.48 87.24 99.61 85.98 99.23 85.73 99.94 86.83 100.67"/>
  <polygon class="cls-2" points="92.57 145.04 90.48 146.67 90.56 148.08 92.32 149.51 93.5 151.35 95.09 151.46 96.03 149.95 96.54 147.7 96.1 146.35 94.1 144.71 94.1 144.71 92.57 145.04"/>
  <polygon class="cls-6" points="192.59 46.81 193.28 47.35 193.59 46.97 193.43 46.59 194.14 46.94 194.43 47.48 194.4 48.13 195.03 47.64 194.56 47.03 194.47 46.61 193.82 46.2 193.24 45.87 193.52 45.68 193.78 45.05 193.5 44.72 193.3 45.16 192.96 45.61 192.6 45.72 192.11 45.52 192.56 46.13 192.59 46.81"/>
  <polygon class="cls-6" points="188.4 57.83 188.93 59.09 190.03 59.28 189.65 58.8 190.15 58.38 190.7 57.99 190.25 57.55 190.13 56.99 190.13 56.68 189.29 56 188.96 55.91 188.87 55.5 188.42 55.3 188.42 55.29 187.88 55.55 187.43 56.76 188.03 56.9 188.4 57.83"/>
  <polygon class="cls-6" points="193.5 44.72 193.5 44.72 193.5 44.72 193.5 44.72"/>
  <polygon class="cls-6" points="95.34 108.8 95.35 108.8 95.35 108.8 95.34 108.8"/>
  <polygon class="cls-6" points="191.28 57.51 191.06 57.77 191.09 58.02 191.48 58.09 191.84 58.13 191.76 57.87 191.57 57.7 191.92 57.51 191.28 57.51"/>
  <polygon class="cls-6" points="190.86 58.47 190.32 58.51 190.29 58.95 190.51 59.09 191.25 58.9 190.86 58.47 190.86 58.47"/>
  <polygon class="cls-6" points="194.59 44.88 194.75 44.43 194.5 44.17 194.49 44.17 194.11 45.68 194.63 45.65 194.59 44.88"/>
  <polygon class="cls-6" points="195.53 49.82 195.66 50.24 196.3 50.05 196.01 48.96 196.26 48.31 196.01 47.64 196.01 47.64 195.69 47.9 195.72 48.99 195.46 49.15 195.18 48.96 195.21 49.49 195.53 49.82"/>
  <polygon class="cls-2" points="86.53 121.65 87.65 123.28 87.32 123.74 86.66 122.76 86.14 123.08 85.4 121.9 85.06 121.19 83.2 121.19 83.32 121.82 81.74 121.65 81.46 123.41 82.72 123.82 82.97 125.2 82.59 125.58 83.17 126.43 83.82 126.51 85.74 127.61 87.08 128.82 87.79 128.47 87.66 125.97 88.84 125.2 89.17 126.76 90.14 125.33 90.47 126.63 90.82 128.68 92.51 128.14 92.87 129.27 91.28 129.48 90.3 130.19 89.97 131.37 90.47 131.71 93.45 137.3 95.15 136.5 94.3 138.62 97.52 138.22 98.66 138.22 98.79 137.12 100.3 137.43 100.51 140.53 101.23 140.91 102.87 138.22 102.95 135.79 103.97 137.37 104.25 138.88 106.74 138.82 104.7 140.58 103.53 142.91 102.45 144.74 102.78 147.19 105.1 146.37 106.48 144.94 108.32 142.37 109.5 142.12 109.83 139.93 109.7 138.88 110.82 139.27 113.59 137.55 114.11 135.79 114.11 134.21 112.51 134.14 111.74 133.6 108.11 135.11 106.93 135.11 106.33 133.88 104.37 133.55 103.64 132.5 101.93 133.35 102.93 131.96 102.65 130.91 101.01 130.58 101.06 129.4 100.21 127.56 100.87 126.58 100.54 125.78 98.65 126.17 98.83 125.11 100.29 124.53 100.58 121.19 86.46 121.19 86.53 121.65"/>
  <polygon class="cls-6" points="83.85 118.67 82.84 119.25 83.2 121.19 85.06 121.19 83.85 118.67"/>
  <polygon class="cls-6" points="101.14 115.77 99.62 113 98.49 112.75 97.39 109.79 96.34 109.13 95.35 108.8 95.27 110.23 94.5 111.1 93.57 111.23 92.91 112.23 93.64 113.94 93.77 115.17 94.63 115.17 94.1 116.56 93.45 116.88 94.05 118.06 93.97 118.99 93.37 118.53 92.99 119.53 92.19 120.17 92.25 119.07 91.19 119.86 88.96 117.03 88.17 114.8 86.54 113.66 85.73 116.72 86.54 117.16 88.43 119.25 88.3 119.99 87.53 119.25 86.14 119.21 86.46 121.19 100.58 121.19 100.75 119.25 101.14 115.77"/>
  <polygon class="cls-6" points="197.59 49.79 197.59 49.79 197.59 49.79 197.59 49.79"/>
  <polygon class="cls-6" points="196.81 51.76 197.3 51.89 197.33 51.4 197.71 51.3 197.93 51.82 198.15 51.82 198.41 51.63 198.74 51.82 198.93 51.4 198.6 51.08 198.74 50.69 198.12 50.89 197.97 50.5 198.22 50.24 197.67 50.11 197.59 49.79 197.07 49.89 197.65 50.79 197.16 51.05 196.81 51.76"/>
  <polygon class="cls-6" points="193.73 49.61 194.01 50.5 194.14 49.64 193.73 49.61"/>
  <polygon class="cls-6" points="193.73 49.61 193.73 49.61 193.73 49.6 193.73 49.61"/>
  <polygon class="cls-6" points="195.21 51.53 195.21 51.53 194.85 51.89 194.73 52.2 194.18 51.76 193.92 52.91 195.05 53.13 195.3 52.97 195.27 52.37 195.56 51.6 195.21 51.53"/>
  <polygon class="cls-6" points="192.6 50.59 193.4 50.37 193.3 49.57 193.59 49.34 193.4 49.15 193.02 49.24 192.6 49.3 192.29 48.89 192.03 48.79 192.02 48.8 191.48 49.27 191.84 49.92 192.6 50.59"/>
  <polygon class="cls-2" points="94.21 197.14 93.01 197.52 92.45 199.08 91.51 200.54 92.07 201.72 92.38 202.73 93.39 201.84 93.89 201.59 94.77 199.83 95.09 198.9 96.53 196.25 95.91 195.63 94.65 196.68 94.21 197.14"/>
  <polygon class="cls-2" points="95.9 195.62 95.91 195.63 95.91 195.63 95.9 195.62"/>
  <polygon class="cls-2" points="87.46 184.88 88.47 185.56 89.56 183.54 88.22 183.72 87.46 184.88"/>
  <polygon class="cls-2" points="90.47 185.82 90.98 187.66 92.82 188.16 93.49 187.16 96.59 187.33 97.17 186.75 98.78 186.5 99.61 187.08 101.55 185.56 103.39 185.23 105.08 183.88 105.99 184.23 104.58 185.65 106.34 186.5 110.28 183.63 110.45 182.88 109.62 182.72 107.85 183.22 109.19 181.79 109.12 181.11 110.12 181.04 109.95 181.87 111.04 182.62 111.88 181.96 111.79 180.79 112.14 180.36 111.96 178.85 110.53 177.68 108.68 176.58 106.67 175.32 104.33 174.91 102.97 174.41 102.82 173.66 102.06 170.96 100.8 169.28 100.05 168.11 98.7 167.11 97.61 166.86 97.62 166.84 95.43 168.01 96.11 170.37 94.17 169.11 92.15 169.44 93.16 171.03 91.57 172.2 92.75 173.97 94.84 173.8 97.36 175.73 97.78 176.91 101.39 175.65 101.72 176.74 99.95 178.17 97.61 178.33 96.68 180.52 95.17 181.78 95.51 182.87 96.68 182.79 99.7 182.37 101.14 181.61 101.31 182.54 99.55 183.54 96.18 184.37 93.66 183.97 93.91 185.31 92.82 185.13 93.15 184.63 92.24 183.88 90.63 183.63 89.88 184.89 90.47 185.82"/>
  <polygon class="cls-2" points="89.73 187.23 90.14 186.41 89.69 186.06 89.23 186.94 89.73 187.23"/>
  <polygon class="cls-2" points="89.68 186.06 89.69 186.06 89.69 186.06 89.68 186.06"/>
  <polygon class="cls-2" points="110.09 191.44 110.09 191.44 109.51 192.13 110.01 192.53 110.45 192.6 110.09 191.44"/>
  <polygon class="cls-2" points="87.53 143.41 85.74 143.9 85.71 144.84 86.54 145.05 87.75 144.53 89.04 145.43 89.67 144.75 89.26 143.84 87.53 143.41"/>
  <polygon class="cls-2" points="112.22 188.51 112.65 189.18 113.34 188.46 112.96 187.7 113.44 187.57 113.65 186.36 112.84 186.19 111.77 187.61 112.22 188.51"/>
  <polygon class="cls-2" points="108.45 194.4 109.25 194.88 110.58 194.66 110.59 193.27 110.04 192.87 110.04 192.86 109.08 193.46 108.45 194.4"/>
  <polygon class="cls-2" points="112.83 186.19 112.84 186.19 112.84 186.19 112.83 186.19"/>
  <polygon class="cls-2" points="112.81 191.38 112.81 191.38 112.81 191.38 112.81 191.38"/>
  <polygon class="cls-2" points="111.6 189.71 111.18 191.9 111.98 193.4 112.48 190.38 112.18 189.97 112.08 189.22 112.08 189.21 111.6 189.71"/>
  <polygon class="cls-2" points="112.72 193.08 113.31 192.6 113.36 191.77 112.81 191.38 112.56 192.58 112.72 193.08"/>
  <polygon class="cls-2" points="113.09 189.75 112.86 189.38 112.59 189.76 112.9 190.19 113.09 189.75"/>
  <polygon class="cls-6" points="218.33 2.98 218.34 3 218.34 2.99 218.33 2.98"/>
  <path class="cls-2" d="M207.87,174.23l1.15-1.56-.06-.39-.58-.11-.21-.86c-.37,.61-.55,1.31-.55,2.11v1.52l.14-.08,.11-.63Z"/>
  <polygon class="cls-6" points="212.13 15.75 212.34 15.79 212.55 15.51 212.23 15.46 212.23 15.45 212.13 15.75"/>
  <polygon class="cls-6" points="212.68 22.81 213.18 22.11 213.16 22.69 213.62 21.11 213.48 20.72 213.48 20.72 213.29 21.03 212.98 21.16 213.17 21.41 212.82 21.97 212.68 22.81"/>
  <polygon class="cls-6" points="214.75 22.67 214.72 22.9 215.09 22.94 214.76 22.67 214.75 22.67"/>
  <polygon class="cls-6" points="123.85 92.88 123.85 92.89 123.51 93.89 124.17 94.22 124.67 93.92 124.05 93.67 124.26 93.14 123.85 92.88"/>
  <polygon class="cls-6" points="213.71 12.92 213.3 13.02 212.95 13.73 212.68 14.11 212.22 14.11 212.28 14.35 212.45 14.49 212.78 14.24 212.97 14.49 212.77 14.78 213.49 14.78 213.8 15.27 213.09 15.13 213.07 15.58 212.8 15.43 212.61 16.06 213.17 16.4 212.65 16.85 212.39 16.32 212.09 15.99 211.56 16.03 211.75 16.33 211.34 16.37 210.93 16.04 210.55 16.33 210.41 16.71 209.77 16.38 208.87 16.41 208.58 16.9 208.8 17.72 209.21 18.35 209.73 18.62 210.29 18.21 210.37 18.88 210.78 18.28 211.11 18.17 211.08 18.62 210.63 18.87 210.55 19.32 210.89 19.32 211.05 19.73 211.6 20.22 211.79 18.98 212.06 19.65 212.28 19.43 212.28 18.57 212.42 18.79 212.76 18.57 213.09 18.65 213.54 17.83 213.54 20.41 213.95 21.26 213.35 23.47 213.02 24.03 212.68 25.26 212.46 26.05 212.95 26.46 213.28 26.46 213.8 27.39 213.88 26.64 213.69 25.79 214.03 24.78 213.84 23.99 214.66 24.29 214.52 23.58 214.41 22.91 214.78 22.38 214.52 21.42 214.86 20.67 215.46 20.07 215.46 19.14 214.6 19.4 215.09 18.24 214.75 18.13 214.64 17.53 214.64 17.23 215.09 17.79 215.34 17.64 215.76 17.27 215.31 17.08 215.46 16.6 215.94 16.41 216.05 15.85 215.34 15.77 215.12 15.85 214.9 15.18 215.53 15.29 216.2 14.95 216.16 14.24 215.49 14.54 215.49 14.02 215.12 14.13 215.04 13.8 214.22 13.57 214.77 13.24 214.89 12.72 214.55 12.12 214.29 11.76 213.93 12.1 213.63 11.89 213.49 12.3 213.71 12.92"/>
  <polygon class="cls-6" points="214.28 11.76 214.29 11.76 214.31 11.74 214.28 11.76"/>
  <path class="cls-2" d="M202.51,188.86l-2.69-.41-.87-.63-.42-1.26-.09-.69,1.13-2.71,1.26-1.07-2.2-.2c-.07,.95-.21,1.75-.43,2.4-.29,.79-.68,1.45-1.19,2-.51,.54-1.21,1.13-2.11,1.77,.98,.74,1.72,1.43,2.23,2.07,.51,.64,.89,1.38,1.13,2.22,.24,.89,.39,1.94,.43,3.14,.01,.35,.02,.73,.03,1.14l.89-.89,1.85-.65c.05-1.15,.17-2.14,.34-2.96,.2-.94,.52-1.75,.95-2.44,.08-.13,.18-.27,.27-.4h-.23l-.29-.42Z"/>
  <polygon class="cls-6" points="213.21 11.63 213.31 11.98 213.52 11.74 213.21 11.63 213.21 11.63"/>
  <polygon class="cls-6" points="213.18 8.43 213.18 8.43 213.19 8.43 213.18 8.43"/>
  <polygon class="cls-6" points="172.64 92.36 179.69 86.82 180.76 85.3 186.58 60.87 185.95 61 185 60.76 184.06 59.33 184.04 59.27 183.27 59.82 182.96 60.83 184.77 62.21 184.66 62.79 184.14 63.58 181.59 62.51 179.69 63.34 178.93 62.69 179.44 61.87 175.78 61.83 173.96 63.17 171.88 64.3 171.71 64.32 171.71 92.74 172.64 92.36"/>
  <polygon class="cls-6" points="211.36 15.94 211.87 15.81 211.32 15.45 211.36 15.94"/>
  <polygon class="cls-5" points="171.74 103.39 171.71 103.4 171.71 103.45 171.74 103.39"/>
  <polygon class="cls-6" points="211.84 14.4 211.32 14.81 211.82 15.39 212.34 15.22 212.29 14.64 211.84 14.4"/>
  <polygon class="cls-6" points="196.74 48.63 196.97 49.12 197.7 48.02 198 48.05 198.26 47.9 198.28 48.26 198.86 47.93 199.12 48.15 199.37 47.45 199.82 47 200.46 47.05 200.26 46.41 200.32 46.04 199.93 46.17 199.83 46.61 198.93 47 198.34 47.31 198.38 46.81 198.55 46.78 198.86 46.3 198.64 46.26 198.19 46.61 197.78 46.49 198.06 47.03 197.93 47.31 196.74 48.63"/>
  <polygon class="cls-2" points="133.08 216.48 133.08 216.48 133.08 216.48 133.08 216.48"/>
  <polygon class="cls-2" points="131.99 219.09 132.95 218.51 133.13 219 133.74 217.94 133.63 216.5 133.08 216.48 131.99 218.32 131.99 219.09"/>
  <polygon class="cls-6" points="216.94 20.49 217.24 20.32 217.16 19.99 216.75 20.13 216.94 20.49"/>
  <path class="cls-1" d="M210.32,208.13l-.48-.58h-.6l-.73-.5s.02,.03,.03,.04c.52,.61,1.12,.94,1.78,1.03Z"/>
  <polygon class="cls-2" points="115.92 181.44 114.82 181.56 114.16 183.08 114.92 183.58 116.99 180.92 116.71 180.73 115.92 181.44"/>
  <polygon class="cls-6" points="215.65 19.35 215.65 19.84 215.78 20.83 216.34 21.26 216.65 19.68 216.16 19.15 216.17 19.14 215.65 19.35"/>
  <polygon class="cls-6" points="216.82 15.69 217.42 15.69 218.19 14.64 218.3 14.33 218.29 14.32 218.01 14.4 217.57 14.44 216.91 15.3 216.82 15.69"/>
  <polygon class="cls-6" points="216.85 9.05 217.04 9.11 217.43 8.75 217.05 8.56 216.85 9.05"/>
  <polygon class="cls-6" points="217.37 6.92 217.71 7.27 218.1 6.83 218.7 7.14 219.01 6.97 218.62 6.6 218.89 5.81 219.26 5.34 218.68 5.2 219.33 5.14 218.96 4.41 219.46 4.58 219.55 4.11 219.4 3.87 219.75 3.65 219.31 3.17 219.03 3.29 218.98 3.04 218.6 3.95 218.34 3.95 218.43 3.26 218.34 3 218.15 3.18 218.2 3.44 217.92 3.77 217.58 3.85 217.63 4.86 217.41 5.63 217.58 6.07 217.24 6.15 217.37 6.92"/>
  <polygon class="cls-6" points="215.37 11.94 215.71 11.96 215.6 11.7 215.62 11.26 216.25 11.72 216.67 11.75 216.68 10.78 216.48 10.3 216.86 10.25 217.01 9.62 216.63 9.29 216.43 9 216.73 8.6 216.62 8.08 217.13 8.13 217.07 7.03 216.94 6.09 216.14 5.79 216.13 5.78 215.46 5.99 215.38 8.46 215.18 8.57 215.09 7.66 214.66 8.34 214.65 9.69 214.94 11.04 215.37 11.94"/>
  <polygon class="cls-6" points="215.66 13.22 215.54 13.59 215.74 13.79 216.18 13.71 216.59 12.92 216.44 12.75 215.93 13.54 215.66 13.22"/>
  <polygon class="cls-6" points="219.46 8.74 219.37 8.96 219.13 8.38 218.64 8.27 218.65 8.26 218.29 8.51 218.19 8.28 217.73 8.28 217.64 8.62 217.74 8.96 218.37 10.01 218.79 9.78 218.3 9.26 218.77 9.13 218.93 9.43 219.13 9.29 219.41 9.74 219.88 8.91 219.69 8.57 219.46 8.74"/>
  <polygon class="cls-6" points="210.23 12.1 210.78 12.06 211.11 12.49 211.5 11.89 211.67 12.86 212 13.83 212.5 13.96 212.68 13.46 213.14 12.69 212.97 11.01 212.71 10.88 212.71 10.5 213.31 10.28 213.02 9.57 213.35 9.23 213.18 8.43 212.85 8.47 212.89 9.02 212.47 8.94 211.92 8.77 211.79 9.11 211.75 9.74 211.17 10.34 211.17 10.76 210.83 10.71 210.7 10.21 210.33 10.54 209.97 11.39 209.73 11.39 209.51 11.86 209.56 12.19 210.23 12.1"/>
  <polygon class="cls-2" points="118 173.52 116.58 175.73 114.69 176.58 113.91 178.62 116.71 176.83 119.23 173.31 118 173.52"/>
  <polygon class="cls-2" points="125.37 235.31 126.14 235.58 127.02 234.87 127.25 234.22 126.83 232.73 127.35 231.75 125.84 230.66 126.24 230.01 127.34 229.38 126.57 228.29 125 227.56 126.04 226.33 125.83 224.27 125.2 222.33 124.02 220.99 122.35 219.9 122.35 219.93 121.41 219.97 121.12 220.3 121.47 220.8 120.46 220.63 120.02 221.53 118.89 222.09 117.7 225.38 119.11 228.15 119.4 229.2 118.86 230.09 118.71 231.53 119.57 232.05 120.03 233.99 121.79 235.41 123.37 235.79 125.37 235.31"/>
  <polygon class="cls-2" points="79.06 171.37 79.06 171.37 79.06 171.37 79.06 171.37"/>
  <polygon class="cls-6" points="70.5 120.11 71.08 119.55 70.7 119.12 71.03 118.79 70.79 118.32 69.95 118.29 70.07 118.82 70.21 119.25 70.07 119.96 70.5 120.11"/>
  <polygon class="cls-6" points="61.73 113.99 63.12 114.17 64.61 116.81 64.55 118.29 65.26 118.16 65.88 117.31 66.27 118.24 67.05 118.9 67.82 119.23 69.34 119.79 69.87 119.54 69.02 118.24 68.82 117.59 69.87 117.72 71.43 118.11 72.09 116.59 72.09 115.67 71.17 115.46 67.31 115.42 70.58 114.96 71.96 115.29 72.54 115 73.02 113.57 71.63 113.65 71.55 112.84 71.55 112.26 70.58 111.93 70.72 111.28 70.2 110.67 70.72 110.17 71.43 109.52 71.75 108.7 70.84 107.68 69.99 108.06 69.45 108.78 68.61 109.11 69.2 109.77 68.61 110.21 67.76 110.42 67.51 109.96 66.72 109.69 66.76 109.11 67.17 108.19 67.25 107.49 66.39 108.07 66.39 108.67 65.74 109 65.41 109.71 65.01 110.76 64.36 110.43 63.24 109.12 61.73 109.12 61.93 109.38 61.46 110.64 60.8 111.87 60.01 111.94 61.01 113.19 61.73 113.99"/>
  <polygon class="cls-2" points="107.87 218.46 107.87 218.46 107.31 219.04 107.62 219.72 108.31 218.92 107.87 218.46"/>
  <polygon class="cls-2" points="78.06 171.95 76.47 172.03 74.88 172.63 72.61 172.28 71.51 173.38 71.68 176.4 72.44 175.98 73.44 177.07 74.37 176.91 75.03 174.72 76.89 175.05 77.72 172.96 78.72 173.21 79.81 172.03 79.06 171.37 78.06 171.95"/>
  <polygon class="cls-2" points="104.97 205.22 105.6 205.03 106.99 202.82 110.21 197.63 110.09 196.65 109.71 195.55 108.69 195.98 106.56 197.55 103.65 199.88 101.86 201.32 100.07 204.61 101.89 205.44 101.01 205.85 99.94 205.87 98.68 206.5 96.91 209.15 97.1 212.67 97.58 213.85 99.37 214.56 100.56 214.73 101.35 213.04 101.63 210.95 102.36 210.65 102.91 209.59 103.54 209.59 103.34 210.07 103.84 209.56 104.09 208.24 104.8 206.82 104.97 205.22"/>
  <polygon class="cls-2" points="109.71 195.53 109.71 195.55 109.71 195.55 109.71 195.53"/>
  <polygon class="cls-2" points="84.95 169.7 85.95 167.93 86.61 168.11 88.37 165.49 88.72 164.58 87.54 164.33 87.55 164.32 85.53 165.74 84.44 166.67 83.18 167.93 81.5 169.02 79.65 171.03 80.92 171.03 82.08 170.2 83.26 170.53 84.95 169.7"/>
  <polygon class="cls-2" points="97.55 217.3 97.8 216.04 96.73 214.95 96.35 212.38 95.91 206.51 95.91 206.51 93.64 206.88 90.94 209.4 89.61 212.05 89.05 211.8 89.49 209.23 88.49 209.36 87.41 210.41 86.03 210.37 85.47 211.17 85.34 213.06 84.52 213.94 85.02 214.57 85.08 216.03 83.76 216.92 83.89 218.05 82.94 218.98 84.27 220.36 86.15 218.8 88.36 215.4 88.67 214.4 91.5 214.65 91.31 215.45 89.11 216.97 88.79 218.06 89.68 218.31 90.94 221.38 89.68 222.21 88.29 224.9 90.24 225.78 91.57 225.03 92.32 223.26 92.95 223.22 93.77 223.39 96.1 222.64 96.73 222.85 97.49 221.58 98.75 220.58 98.37 218.56 97.55 217.3"/>
  <polygon class="cls-6" points="67.25 107.48 67.25 107.49 67.26 107.49 67.25 107.48"/>
  <polygon class="cls-2" points="69.79 123.51 69.8 123.51 69.79 123.5 69.79 123.51"/>
  <polygon class="cls-2" points="68.48 129.36 68.27 128.18 67.53 127.82 68.27 127.3 67.32 126.73 68.11 126.56 66.42 125.38 67.31 125.23 65.97 124.55 67 124.3 66.12 124.03 64.13 122.87 64.08 123.48 62.53 124.2 63.28 126.41 63.25 128.93 62.41 129.56 62.07 131.59 61.11 132.25 61.74 132.59 62.15 138.31 62.45 138.54 62.35 139.25 62.98 140 64.56 140.05 65.19 139.72 67.2 140.63 67.36 140.1 67.84 139.42 67.46 138.94 66.9 139.19 66.95 138.51 66.07 137.99 64.49 138.21 64.13 137.86 64.16 137.25 65.31 137.11 66.32 137.55 67.15 136.8 67.02 135.85 66.55 135.27 66.75 134.52 66.5 134.14 65.89 133.93 65.79 133.4 66.64 133.51 67.43 132.25 67.3 131.63 68.1 130.61 68.83 130.57 69.24 129.7 69.14 129.31 68.48 129.36"/>
  <polygon class="cls-2" points="66.12 140.88 66.13 140.88 66.12 140.88 66.12 140.88"/>
  <polygon class="cls-2" points="64.75 142.45 65.26 142.96 65.68 142.45 66.12 140.88 64.79 140.97 64.75 142.45"/>
  <polygon class="cls-2" points="64.12 122.86 64.13 122.87 64.13 122.85 64.12 122.86"/>
  <polygon class="cls-2" points="68.44 124.35 69.65 124.32 69.79 123.51 68.9 123.68 68.44 124.35"/>
  <polygon class="cls-1" points="68.97 121.24 69.02 121.19 68.37 121.19 68.97 121.24"/>
  <polygon class="cls-6" points="69.68 120.63 68.52 119.83 67.79 119.61 66.91 119.32 65.7 118.44 64.49 118.73 64.37 119.4 63.48 119.54 63.36 120.11 63.41 120.78 63.5 121.19 67.55 121.19 67.64 121.04 68.14 121.17 68.37 121.19 69.02 121.19 69.28 120.88 69.68 120.63"/>
  <polygon class="cls-2" points="63.72 122.17 66.49 123.8 67.39 123.93 68.06 123.7 68.47 123.43 69.39 123.1 69.53 122.52 69.14 122 68.14 121.76 68.25 122.32 67.22 121.76 67.55 121.19 63.5 121.19 63.72 122.17"/>
  <polygon class="cls-6" points="65.7 118.44 65.7 118.44 65.71 118.44 65.7 118.44"/>
  <polygon class="cls-5" points="189.42 60.12 189.27 60.17 189.46 60.17 189.42 60.12"/>
  <path class="cls-2" d="M227.64,129.78l.47-.88,.3,.36,.69-.96-.13-.42,1.26-1.76,.04-.42-.61-.5,.38-.44-.25-.52,.63-.3-.04,.52,.16-.52-.92-.58-.21-2.14-.02-.02h-67.76l-.31,.22-.35,1.06-1.04-.17-.08,.94-.88,.87-.42,.04-.85-.71-.46,.03-1.54,.73-1.23-.22-1.34,.25-1.06-1,1.15,.08,1.32,.09,2.79-.22,1.29-1.97v-.02s-49.56,0-49.56,0l-.28,1.29,.31,1.73,1.45,.08-.5,2.47-.31,1.56,.88,1.09,1.95-.38,3.49-2.06,.47,.6-1.26,.83,1.51,.88,2.55-1.84,1.79-1.51,.06,1.09-2.77,2.52-1.51,.13-2.21,.68-1.51,.71-.75,1.76,1.26,.5,1.06-.22,1.21,.6,1.95-.21,1.07-.63,.44-.17-.38,1.26,3.15,2.61-1.26,.99-2.65-3.35-1.64,.5-1.64,.42-.69,1.21,.94,.63-1.51,1.56-.75,1.26,.82,1.21,1.64-.04,1.64,1.9,1.94,.74-.8,.85-1.62-.71-2.23-1.86-2.19,.5-2.46,2.52,1.71,2.14,1.06-.25,1,.55-.65,.49,.46,1.4,1.57,.13,2.88-.65,.3,.73-3.81,1-2.21-1.13-.69-1.59-2.94,.42-.46,2.22-1.83,2.22,1.26,.8-.31,.58-.88-.3-.88,.55-.04,.75,.99,.25,2.08-.33,2.55-.39,.33,.6-1.75,1.06,1.57,.75-.88,.33-1.95,.63-1.51-.25,.08,1.35,3.57,1.42-4.33-.04,.11,.85,.98,.58,.03,1-.92-.25,.16-.71-.56-.25-.56,.46-1.45-1.84-1.83,.58-2.14,.04-2.39,.8-1.26,.71-.69,1,1.13,1.81,1.07,.33,1.32-.55,1.26,.25,1,.55,1.42,.03,.33,.65,1.34-.55,.13,.46,2.77,.13,1.89-1.34,.88,.08-2.3,1.79-1.67,.6,.06,.68h-.82l-.44-.8-2.65,.3-.13,1.26,2.9,4.23,3.4,.93,.63,.75,1.98,.79,.41,.8,4.03-2.85,2.28-3.42,4.08-3,2.02-2.06,1.51-.25,3.65-5.92,.88-.25v.68l-4.09,6.42,1.38,.33,.65,.42-2.22,.33-.69,.98-.69-.42-1.45,1.21,.75,.63-.94,.96-1.94,2.31,.42,.55-.6,.38-.58-.13-.33,.71,.82,.38,1.13,.98-1,.63-1.07-.88-.75,.54-.75,1.67,.46,.44,.96-.93,.6,.88-.25,.88,1.19,.08,.63-.46,1.98,.74,.92-.11,.69,.75,1-.3,1.34-2.3,.68-.3,1.17-1.52,.63-1.32,.41-.14-1,1.89-1.46,2.39-1.29,1.61-1.18,.5h-.92l-.68-.5-1.26-.5-.68,.16-1.42-.08-2.11,.17-.83,.92v1.1l-1.18,.92-.75,2.02,1.51,.68-1.09,.42-1.18-.42-.83,1.76-.08,1.34-.35,1.94,1.44-.42,1.26-.25,.5,.42-2.44,1.09,.6,1-.75,1.1-1.94,3.43,.68,.09,.83-1.26,1.69-1.51,.41,.33-2.02,3.7,.17,1.26-1.18,.41-1.26,2.69-2.77,3.95,.75,.83,.85-2.19,1.09-.66,.75-1.61,1.34-.58-.25,1-2.52,3.1-1.26,2.77,.25,1.1,3.27-2.69-1.67,2.85-.75,1.26-.93,3.19,1.44,1.09,.25,1.26,3.1-1.34-1.09,1.43-1.69,.92-.58,1.94-2.02,1.43,.5,1.51-1.26,3.86-.75,.68,.08,2.42-.68,5.63-.75,.16-1.59,1.86-.17,2.93-.25,1.35,1.26,1,1.51-.25,2.61-.42,1.92-.68,1.35-1.76v-2.27l-1.35-1.34,.68-.58,.42-2.19,1-.58,.41-2.52,.85-2.69,.83,.25-.42-3.52,.75-2.34,1.76-3.44,1.94-1.18,.83-.58-1.76-4.53-.83-.33,.17-1.26-.6-3.44-.66-1.76,.5-2.94,.92,1.69,1.86-.93,.16-1.51,2.77-2.34,3.02-3.19,1.26-.41,3.02-4.78,.35,1.09,3.1-1.59-4.11,3.1-.85,2.02-3.1,1.94-2.34,2.93-1.69,2.77-1.34,1.76,.08,1.94-.42,2.52,.93,1.94,.17,1.17,.83,.35,1.26,.92,.75,.68,.25-1.18-1.18-2.67,1.51-2.52,.25-1.69,.6,2.27,1.84,1.43,.93,.16-.85-5.54,1.61,2.94,.33,4.36,1.76,.42,1.84-3.95,.75-1.42-1.42-1.69,1.76,.42-.17-3.62,.93-1.92-.85-1.26,.1-3.02,1,2.85,.66,.42,1.86-3.62,1.84-1.76-.08,.93-3.19,4.71-1.34,2.67,1.34,3.95,1.69-.33-.25-1.26-1.44-1.94,.08-1.18,1.69,2.27,.83,1.1,1.35,.92,.16,1.43,1,1.51,1.35-.08,.54-.71v.69l-.25,.13-.21,.31,.03,.41-.58-.16-1.18-.06-.71-.36-.33-1-.68-.25-.75-.33-1-.68-.38,.83-.13,.3-.54-.3-1.83,.98-.21,1.54,.33,.3-.88,.93,.22,.99-.08,3.07,.93,2.47-.04,.9-.08,.63-.3-.06-.3-.46-.17,.25,.39,.46-.17,.69-.33,.11-.6,.33-.04,1.38,1.23,.75,1.37,2.03-.21,.58,.73-.04,.25,.52,.66-.13,.38,.08,.17,.46,1.59,1,.08,.09,.04,.08,.68,.8,.35,1.04-.06,1.21-.74-.17-.09,.22,.68,.3,1.04,1.29,.19,1.38-.17,.6-.09,.36-.55,.38-.25,.9-.33,.42-1.59,.61-1.31,.85-.54,.83-.25,2.23-2.28,1.83,.17,2.33-.79,1.67,.11,.46-.31-.08,.11,1.04-1.67,1.48-1.02,1.86-1.62,1.07-.75,2.91-1.4,2.06-.31,1.42,.58,1.56,.23,1.31,.38,.25,.73,2.3-.08,.8-.58,.38-.44-.22-.16,.25-1.04-1.26-.25-1.97,.49-.21-1.09-2.85-1.26,.56-.6-.11-.38,.41-.61,1.27,.23,.58-.41,1.92,.09,1.18,1.09,2.19-.02,.8,2.06,2.39,.73,.33,.3,.99,.99,.52,.35,1.06-.21,.5,.56,.33-.23,.8,1.12,.41-.33,.58,.55,1-.8,.52,.17,1.42,1.42,1.29,1.83,.55,.28-.21-.79-.13-.17-.8,.11-.88,.5-.68-1.21-1.12-.28-2.31-1.23-3.4,.98-1.64,2.55-1.18,.63,.22h1.13l.47,1.26,2.3,.55,1.1,1.37,2.25,1.35,.85,2.17,.83,.3,.02,.5,.88,.73,3.78,2.02,.99-.73-.03-.5,.23,.25,.3-.68-.03-.5-.5-.3,.49-2.46-.5-.31,.35-.25-.28-.87,.74,.17,.17-.47v-.88l-.41-.58-.25-.52-.06-.79-.49-.66-.27-.63,.3-.31,1.61,1.48,2.06,.98,1.38,.41,.36,.85,.9,.31,.03,.9,.6,.68,.66,.25,.54-.65-.08,.55,.39,.04,.06,.49,.44,.19,.19-.52-.5-.21,.52-.17v-1.21l.61,.35,.27,.82,.55,.47,1.21,.04,1.43-.21,.66-.75,3.78-1.57,.13-.44,.55-.63,1.09-.75,.75-.13,.22,.21,.71-.02,.38-.23,1.09,.17,.35,.13,.33,.38,.58-.04,.75-.83,.42-.31,1.34-1.45,.54-.52,.35-.33,.55-.33,.55-.21,.69-.13,1.07-.14,.49-.08,.39-.58,.19-.39,1-.83,1.19,.04,.56-.3,1.32,.13,2.04,.02,1.13,.06,.54,.35,.27-.04,.99-.68,.85,.04,.5-.3,.6-.58,.44-.38-.19-.58,.79-1.48-.88-.61,.08-.33,2.94,.25,.71-.55-.11-.55,.82-.5,.56,.03,.33-.88,1.09-.74,.35-.77,.46-.21,.04-.66,1.29-.17,1.67-1.42,.93-.3,.42-.85,.21-.75,.55-1.04,1.1-.13,.06-1.15,.56-.13-1.07-.71,.63-.13,.55-1.17,1.13-.73,.46-1.17,1.23-.27,1-1.59,1.38-.38h.92l.47,.6,.66-.04,1.31-.98-.28-.33,.5-.46-.46-.98,.41-.61,.6,.17,1.64-1.4,.94,.25,1.13-.92,.17-.9,1.09-.44-1.46-.35-.03-.79-.83-1.1,.16-.73-.5-1.83-1.48-1.35-.03-1.29-.83-.93,.25-.46-.5,.16-.35-.33,.33-.6,.68-.23,2.15,.33-.42-.6,.92-.66v-.65l1.61-1.64-.27-.74,.75-.17,.17-.85,.83-.03,.35-1.21,.71-.13-.03-1.65,1.62-1-1.09-1.75-.13-.75-.25-1.06-.23,.3-.06-.42-.38,.13-.71-.47-.41-1.84-1.1,.08-.15-.1c-.68,1.12-1.57,2.09-2.7,2.91-1.26,.91-2.81,1.37-4.65,1.37s-3.38-.46-4.65-1.37c-1.26-.91-2.24-2.01-2.94-3.29-.33-.59-.6-1.16-.83-1.7-.22-.54-.4-1.21-.52-2-.12-.79-.21-1.71-.28-2.77-.02-.35-.04-.74-.05-1.14l-2.72-.14c-.01,.39-.03,.76-.05,1.1-.06,1.13-.15,2.07-.28,2.81-.12,.79-.29,1.45-.49,2-.2,.54-.47,1.11-.79,1.7-.77,1.38-1.76,2.53-2.97,3.44s-2.78,1.37-4.74,1.37c-.98,0-2.02-.2-3.12-.59-1.1-.39-2.1-1.04-3-1.92s-1.64-2.04-2.23-3.48c-.33-.81-.56-1.73-.71-2.74l-.41-.09,.06-.25-.38,.17-.28-.04-2.48-.69-2.47-.85-1.09-.66-1-.31-.68,.02-.42-.14-.16-.06-.33-.56-.5-.79-1.09-.68-1-1.69,1.26,1.31,.69,.38,1.57,1.64,1.75,.08,.68,.09h.41l.47,.28,.46,.04,.52,.04,.79-.09,.5,.42,1.31,.25,.21,.55,.41,.13-.21-.17,.33-.13,.8,.39,.17,.16c-.03-.41-.05-.83-.05-1.27v-4.29h6.24v2.91l1.03,.07,.82-3.04,.79-.17,.3-.31,2.14-2.19,.61-.22,.27-.16,.16-.19v-.48c0-.14,0-.26,0-.39l-.04-.02h.04c-.04-1.83-.36-3.05-.97-3.65-.37-.39-.87-.64-1.5-.74s-1.46-.15-2.48-.15v-5.15l-1.44,.74-.9,.46-1.87-.16,.49-.25-.04-.25,1.51-.58,.77,.04,1.49-.84v-.67c.46,0,.88-.02,1.27-.05l.59-.33,1-.25,.33-.93,.93-.75,.33-.33h.34c.1-.54,.16-1.19,.16-1.94v-6.8c0-1.08-.28-1.97-.83-2.66-.55-.69-1.29-1.04-2.23-1.04-1.1,0-1.89,.42-2.35,1.26-.47,.84-.7,1.65-.7,2.44v4.29h-6.24v-4.36c0-1.53,.24-2.98,.73-4.36,.49-1.38,1.16-2.56,2.02-3.55,.86-.99,1.85-1.77,3-2.37,1.14-.59,2.36-.89,3.67-.89,1.71,0,3.13,.41,4.25,1.22s1.97,1.64,2.54,2.48c.41,.59,.76,1.18,1.07,1.77s.56,1.31,.76,2.14c.37,1.63,.55,4.04,.55,7.25,0,1.35-.02,2.5-.05,3.47l.69-.18,1.83,.93,.24-.7c0-.07-.01-.13-.02-.2-.04-1.08-.06-2.42-.06-3.99,0-1.43,.04-2.65,.12-3.66,.08-1.01,.22-1.88,.43-2.62,.2-.74,.44-1.41,.7-2,.26-.59,.6-1.21,1.01-1.85,.81-1.28,1.83-2.28,3.06-2.99,1.22-.71,2.55-1.07,3.97-1.07,1.13,0,2.2,.24,3.2,.68l.19-.12,.82-1.42,.38-.13,.06-.88,.38,.08,.88-1,.61-1.17-.11-.6,.61-.79-.11-2.19,.29-.09-.55-.93,.96-.66,.5-2.14,2.08-2.74,.21-.99,.17-.38h.03l.16-.33,.39-.06,.23-.23,.14-.25,.5-.35,.16-.71v-.58l-.23-.3-.06-.09-.19-.21-.39-.46-.04-.5-.28-.16-.3-.38,.08-.31,.38-1.62,2.11-5.18-.13-.75,.21,.52,2.31-3.07,1.04-.85,.5-.49-.21-.58Z"/>
  <polygon class="cls-6" points="228.77 120.57 228.82 118.1 226.96 116.67 226.84 116.88 225.96 114.67 225.31 114.36 224.99 114.67 223.77 114.36 223.56 113.36 222.36 113.74 221.94 113.41 220.13 113.22 217.99 114.86 217.36 114.4 215.82 114.4 214.84 113.47 213.96 114.03 214 114.5 213.41 114.92 212.92 114.58 211.9 115 210.98 114.67 210.4 114.96 208.92 114.74 208.25 115.76 208.21 114.86 207.29 114.86 206.66 114.17 206.37 114.46 204.76 114.3 203.92 113.74 203.43 114.13 202.55 113.57 201.78 114.17 201.28 113.5 200.66 113.57 200.19 113.15 199.81 113.32 199.19 113.54 198.64 113.23 198.6 112.79 197.75 112.82 196.41 113.24 196.11 113.82 193.53 115.05 191.14 114.36 190.95 114.58 190.96 114.29 188.98 113.65 186.06 112.06 186.29 112.53 185.79 111.97 185.92 111.59 185.21 111.78 184.04 111.52 181.19 112.18 180.6 112.61 179.43 112.56 179.68 113.02 179.43 113.95 178.49 114.73 175.66 114.75 176.77 115.67 176.91 116.25 176.64 116.55 175.72 116.13 175.64 115.76 175.78 115.18 175.09 114.74 172.96 115.13 172.74 115.29 173.7 115.08 173.32 115.62 172.13 116.21 172.76 115.71 172.41 115.68 171.53 116.43 170.48 116.8 169.56 117.68 171.02 116.72 170.39 117.55 168.33 118.6 166.46 118.76 164.31 117.76 165.77 118.6 165.28 118.73 164.11 117.85 163.95 118.31 162.72 118.39 162.17 118.81 163.02 119.16 163.19 120.08 161.64 121.19 229.4 121.19 228.77 120.57"/>
  <polygon class="cls-6" points="158.81 120.75 159.24 119.65 160.28 119.04 161.74 119.29 161.11 118.39 161.45 117.43 164.51 114.17 164.52 113.92 163.39 113.67 161.96 114.63 160.4 114.42 159.85 113.9 157.83 114.2 157.55 114.2 157.45 114.33 157.17 114.49 156.63 114.99 155.9 115.54 155.7 115.81 154.68 116.52 153.39 117.48 152.63 118.21 154.69 115.19 156.31 114.59 156.44 113.91 158.55 113.05 159.9 113.26 161.65 111.79 162.86 111.75 163.8 113.13 164.75 113.34 165.47 112.47 165.47 104.79 164.04 105.56 161.79 104.83 160.21 105.08 159.1 103.87 156.58 104.06 155.18 102.56 156.81 103.52 159.39 103.19 162.73 104.19 164.31 104.15 164.62 101.68 165.12 101.05 164.76 99.57 165.43 97.47 165.47 97.46 165.47 68.16 159.23 73.71 159.23 66 158.85 66.48 158.22 66.69 158.12 65.96 155.82 65.85 154.84 67.37 152.86 67.87 153.68 66.1 153.62 64.93 152.83 65.25 152.99 64.55 151.48 63.54 149.02 63.45 148.83 65.48 148.08 66.74 147.45 66.7 147.12 64.84 145.68 64.4 144.64 62.92 143.8 61.78 142.35 64.02 142.33 62.11 138.89 61.15 137.14 60.3 136.84 62.95 135.55 64.73 133.82 65.9 133.66 68.29 134.48 68.81 135.3 69.01 134.67 69.82 133.52 71.03 133.73 71.66 134.23 72.16 134.88 72.19 136.17 74 135.42 74.16 134.17 72.96 132.72 71.89 132.41 73.17 131.72 74.3 132.22 75.01 131.39 75.21 131.66 75.94 131.69 76.82 132.35 76.57 132.54 77.45 132.5 78.57 133.33 79.51 135.75 81.01 134.56 81.05 133.17 79.92 132.35 80.25 131.18 80.64 129.83 80.55 128.87 79.63 128.32 80.19 129.07 80.79 127.36 82 127.12 81.12 126.61 80.45 125.99 80.41 125.57 79.66 124.8 81.42 125.74 82.94 126.49 83.49 126.93 84.75 127.31 85.63 128.83 86.51 127.46 86.8 128.5 87.76 127.29 87.78 128.09 88.31 127.62 89.82 127.31 90.67 126.37 89.79 125.74 89.96 125.36 91 124.61 88.99 123.63 88.33 122.78 89.16 122.91 90.54 123.91 91.3 123.51 91.97 124.36 92.51 125.55 93.01 126.3 93.94 126.81 95.57 129.12 96.79 130.46 96.96 129.7 98.17 130.59 99.81 128.59 98.97 126.75 99.3 125.11 97.63 123.8 98 125.36 100.48 123.22 99.18 122.55 101.31 121.72 102.23 119.66 101.19 119.18 98.5 117.51 98.04 116.33 99.93 116.55 101.62 117.68 102.12 118.19 102.95 117.87 104.46 118.38 105.34 117.37 104.97 117.01 105.44 117.62 106.61 115.67 104.81 115.29 102.88 115.45 101.19 113.18 100.78 111.59 101.36 111.13 107.36 112.77 108.45 114.64 108.62 114.71 109.5 114.9 110.68 113.35 109.76 111.82 110.26 110.63 113.33 112.58 114.38 113.27 116.52 114.52 117.09 114.91 118.49 112.75 118.85 111.64 117.06 110.06 116.71 109.08 121.19 158.65 121.19 158.81 120.75"/>
  <polygon class="cls-6" points="200.64 45.05 200.57 44.68 200.9 44.46 200.82 44.15 200.83 44.15 200.23 44.3 200.03 44.85 200.38 45.2 200.64 45.05"/>
  <polygon class="cls-6" points="193.78 60.1 193.88 59.62 193.63 59.27 193.85 58.72 194.3 58.08 194.07 57.63 193.74 57.5 194.52 57.37 194.3 56.86 194.36 56.47 194.36 56.19 195.03 56.72 195.51 55.93 195.93 55.79 196.45 55.6 196.55 55.02 196.58 54.45 195.32 54.96 195.55 55.27 195.62 55.53 195.42 55.66 195.03 55.59 194.95 55.04 194.92 54.63 195.55 54.56 195.42 53.89 194.95 54.02 194.34 54.6 193.92 54.41 194.21 53.51 193.78 53.37 193.37 53.96 192.92 53.44 192.25 53.73 191.58 53.48 191.81 53.15 192.09 53.12 192.12 52.54 192.83 52.7 192.93 51.87 192.22 51.26 192.44 51.04 191.96 50.62 191.71 50.68 190.48 49.88 190.48 49.89 188.81 50.38 188.51 51.12 188.51 52.05 188.45 52.4 188.32 53.4 188.25 54.01 188.92 54.78 189.41 54.54 189.63 54.13 189.99 55 190.51 55.77 191.31 55.75 191.59 55.45 192.14 55.23 193 54.65 193.23 54.65 193.45 55.68 193.81 56.39 194.13 56.28 194.1 56.67 193.81 56.9 193.84 57.19 193.58 57.09 193.17 57.38 193.58 57.57 193.33 57.9 192.76 57.79 192.5 58.01 193.04 58.21 192.59 58.4 193.01 58.95 192.91 59.69 193.26 60.17 193.27 60.17 193.78 60.1"/>
  <polygon class="cls-6" points="192.37 66.25 192.73 63.91 193.58 63.58 194.16 61.06 193.11 61.15 191.62 67.14 192.37 66.25"/>
  <polygon class="cls-6" points="191.52 76.07 192.99 72.2 193.33 70.23 191.11 70.08 191.07 69.36 188.65 79.13 191.52 76.07"/>
  <polygon class="cls-6" points="208.97 15.91 209.01 15.48 208.13 15.4 208.13 15.41 208.34 15.95 208.97 15.91"/>
  <polygon class="cls-2" points="126.95 210.37 125.13 208.86 125.12 208.85 123.93 209.98 125.5 212.88 126.63 213.43 126.82 217.08 128.15 217.34 129.34 219.93 130.22 219.6 129.59 218.3 130.47 217.54 129.78 213.56 128.9 213.39 128.02 212.26 128.15 211.25 126.95 210.37"/>
  <polygon class="cls-2" points="63.03 144.8 63.8 145.46 63.96 145.06 63.36 144.68 63.03 144.8"/>
  <polygon class="cls-6" points="200.33 46.03 200.32 46.04 200.34 46.04 200.33 46.03"/>
  <polygon class="cls-2" points="106.05 221.68 106.43 223.07 107.81 220.8 106.99 219.97 106.05 221.68"/>
  <polygon class="cls-2" points="126 216.7 125.37 215.27 125.06 216.15 125.31 217.29 126 216.7"/>
  <polygon class="cls-4" points="167.33 109.48 165.75 112.13 165.47 112.47 165.47 112.82 171.71 112.82 171.71 103.45 170.92 105.1 167.33 109.48"/>
  <polygon class="cls-4" points="160.92 65.68 161.57 64.68 163.26 64.85 164.77 63.25 165.51 62.69 166.03 64.47 167.29 64.09 169.05 64.63 171.71 64.32 171.71 60.17 165.47 60.17 159.23 65.72 159.23 66 159.79 65.31 160.92 65.68"/>
  <polygon class="cls-4" points="169.57 95.68 165.47 97.46 165.47 104.79 165.88 104.57 167.64 105.2 168.95 105.7 169.97 104.95 170.35 103.77 171.71 103.4 171.71 92.74 170.47 93.24 169.57 95.68"/>
  <polygon class="cls-3" points="165.47 68.16 165.47 97.46 169.57 95.68 170.47 93.24 171.71 92.74 171.71 64.32 169.05 64.63 167.29 64.09 166.03 64.47 165.51 62.69 164.77 63.25 163.26 64.85 161.57 64.68 160.92 65.68 159.79 65.31 159.23 66 159.23 73.71 165.47 68.16"/>
  <polygon class="cls-3" points="169.97 104.95 168.95 105.7 167.64 105.2 165.88 104.57 165.47 104.79 165.47 112.47 165.75 112.13 167.33 109.48 170.92 105.1 171.71 103.45 171.71 103.4 170.35 103.77 169.97 104.95"/>
  <polygon class="cls-4" points="191.07 69.36 191.62 67.14 190.99 67.89 191.07 69.36"/>
  <polygon class="cls-4" points="183.5 81.48 182.49 82.82 180.76 85.3 177.76 97.88 177.76 104.98 190.17 104.98 190.17 112.82 196.41 112.82 196.41 104.98 199.41 104.98 199.41 97.88 196.41 97.88 196.41 82.87 190.17 82.87 190.17 97.88 184 97.88 188.65 79.13 188.17 79.64 183.5 81.48"/>
  <polygon class="cls-4" points="193.11 61.15 193.35 60.17 193.27 60.17 193.26 60.17 193.26 60.17 189.46 60.17 190.34 61.39 193.11 61.15"/>
  <polygon class="cls-4" points="189.27 60.17 186.75 60.17 186.58 60.87 188.33 60.51 189.27 60.17"/>
  <polygon class="cls-3" points="182.49 82.82 183.5 81.48 188.17 79.64 188.65 79.13 191.07 69.36 190.99 67.89 191.62 67.14 193.11 61.15 190.34 61.39 189.46 60.17 189.27 60.17 188.33 60.51 186.58 60.87 180.76 85.3 182.49 82.82"/>
  <polygon class="cls-5" points="193.27 60.17 193.26 60.17 193.26 60.17 193.27 60.17"/>
  <rect class="cls-7" x="199.69" y="109.1" width="3.08" height="3.72"/>
  <path class="cls-7" d="M206.6,111.8c.44,.44,.93,.75,1.48,.95s1.06,.29,1.54,.29c.96,0,1.74-.22,2.34-.67,.59-.45,1.08-1.01,1.46-1.7,.16-.29,.29-.57,.39-.84s.18-.6,.24-.98c.06-.36,.11-.83,.14-1.39,.03-.56,.04-1.26,.04-2.12,0-.92,0-1.68-.03-2.28-.02-.6-.09-1.11-.21-1.55-.12-.41-.31-.78-.56-1.09-.25-.32-.62-.66-1.1-1.02,.44-.32,.79-.61,1.04-.88,.25-.27,.45-.6,.59-.98,.12-.36,.2-.83,.23-1.39,.03-.56,.04-1.29,.04-2.19,0-1.58-.09-2.77-.27-3.57-.1-.41-.23-.77-.38-1.06-.15-.29-.33-.58-.53-.88-.28-.41-.7-.82-1.25-1.22-.55-.4-1.25-.6-2.1-.6-.64,0-1.25,.15-1.81,.44-.56,.29-1.06,.68-1.48,1.17-.42,.49-.75,1.07-1,1.75-.24,.68-.36,1.4-.36,2.15v2.15h3.08v-2.12c0-.39,.12-.79,.35-1.2,.23-.41,.62-.62,1.16-.62,.46,0,.83,.17,1.1,.51s.41,.78,.41,1.31v3.35c0,.97-.18,1.59-.53,1.86-.35,.27-.99,.4-1.92,.4v3.28c.5,0,.91,.02,1.22,.07,.31,.05,.56,.17,.74,.37,.32,.32,.48,.98,.48,2v3.72c0,.63-.13,1.14-.41,1.51s-.64,.56-1.1,.56-.83-.19-1.1-.56c-.27-.38-.41-.86-.41-1.44v-1.93h-3.08v2.11c0,1.02,.15,1.88,.44,2.59,.29,.71,.66,1.28,1.1,1.71Z"/>
  <polygon class="cls-7" points="215.52 108.95 221.65 108.95 221.65 112.82 224.72 112.82 224.72 108.95 226.2 108.95 226.2 105.45 224.72 105.45 224.72 98.05 221.65 98.05 221.65 105.45 218.6 105.45 223.21 86.86 219.96 86.86 215.52 105.45 215.52 108.95"/>
  <polygon class="cls-7" points="231.14 112.82 234.22 112.82 234.22 86.86 231.14 86.86 228.07 89.59 228.07 93.53 231.14 90.8 231.14 112.82"/>
  <path class="cls-4" d="M198.72,196.63l-.07,.07-.17-.36-.63,.33-.93-.21,.09-.33h-.47l.22-.27-.55-.5-1.56-.38-.88,.42-.75,.71-.51-.1s0,0,0,.01l.51,.26-.5,.61v7.06c0,1.28-.28,2.3-.83,3.07-.55,.76-1.29,1.15-2.23,1.15s-1.68-.38-2.23-1.15c-.55-.76-.83-1.74-.83-2.92v-1.01l-.3-.02-.6,.55-.46-.39-.52,.09-.5,.13,.02,.33-.35-.16-.87,1.06-.52-.31-.55,.73-.46,.03-.58,.02,.08,.13-.11,.92-.48-.45c.03,.43,.07,.84,.13,1.24l.37,.08,1.17-.63,1.15,.08,.41,.06,.5,.5,.6,.33,.28,.13,.13,.04,.75-.3,.27,.41v-.03l.63,.03,.5-.61,.99,.96,.14,.16,.88,.83,1.19,.56,.85-.09,.09-.21h1.13l1.25-1.21,1.56-.14,.16-.17,.06-.58,.11-.61,.17-.69,.33-.46,.88-.74,.85-.17,.79-1.21h.16c.03-.91,.05-1.97,.05-3.18,0-1.33-.01-2.49-.03-3.48Z"/>
  <path class="cls-4" d="M191.89,183.79l1.51-.25,2.11-1.65,1.18-.04h1.37l.57,.05c.01-.14,.02-.27,.03-.41,.02-.3,.03-.62,.04-.96l-.65,.17-.96,.63-1.38-.3-1.38,.42h-.03l-.42,.22-.42,.21-1,.3h-.08c-.17,.88-.47,1.49-.91,1.83-.54,.41-1.41,.66-2.61,.76l-1.27,.72v.84l3.58-1.83,.75-.69Z"/>
  <path class="cls-3" d="M192.51,196.02c0,.13,0,.26,0,.39v.48l.5-.61-.51-.26Z"/>
  <path class="cls-3" d="M193.77,195.4l.88-.42,1.56,.38,.55,.5-.22,.27h.47l-.09,.33,.93,.21,.63-.33,.17,.36,.07-.07c0-.4-.02-.79-.03-1.14-.04-1.21-.18-2.26-.43-3.14-.25-.84-.62-1.58-1.13-2.22-.51-.64-1.25-1.33-2.23-2.07,.9-.64,1.6-1.23,2.11-1.77,.51-.54,.91-1.21,1.19-2,.21-.65,.35-1.45,.43-2.4l-.57-.05h-1.37l-1.18,.04-2.11,1.65-1.51,.25-.75,.69-3.58,1.83v5.15c1.02,0,1.84,.05,2.48,.15s1.13,.34,1.5,.74c.61,.6,.93,1.82,.97,3.66l.51,.1,.75-.71Z"/>
  <path class="cls-3" d="M180.8,205.28l-.08-.13,.58-.02,.46-.03,.55-.73,.52,.31,.87-1.06,.35,.16-.02-.33,.5-.13,.52-.09,.46,.39,.6-.55,.3,.02v-2.91h-6.24v4.29c0,.44,.02,.86,.05,1.27l.48,.45,.11-.92Z"/>
  <path class="cls-3" d="M197.76,204.51l-.85,.17-.88,.74-.33,.46-.17,.69-.11,.61-.06,.58-.16,.17-1.56,.14-1.25,1.21h-1.13l-.09,.21-.85,.09-1.19-.56-.88-.83-.14-.16-.99-.96-.5,.61-.63-.03v.03l-.27-.41-.75,.3-.13-.04-.28-.13-.6-.33-.5-.5-.41-.06-1.15-.08-1.17,.63-.37-.08c.15,1.01,.37,1.93,.71,2.74,.59,1.43,1.33,2.59,2.23,3.48s1.9,1.53,3,1.92c1.1,.39,2.14,.59,3.12,.59,1.96,0,3.54-.46,4.74-1.37s2.19-2.06,2.97-3.44c.33-.59,.59-1.16,.79-1.7,.2-.54,.37-1.21,.49-2,.12-.74,.21-1.67,.28-2.81,.02-.34,.03-.71,.05-1.1h-.16s-.79,1.2-.79,1.2Z"/>
  <path class="cls-3" d="M193.44,181.86l.42-.21,.42-.22h.03l1.38-.42,1.38,.3,.96-.63,.65-.17c.03-.97,.05-2.13,.05-3.47,0-3.2-.18-5.62-.55-7.25-.2-.84-.46-1.55-.76-2.14s-.66-1.18-1.07-1.77c-.57-.84-1.42-1.66-2.54-2.48s-2.54-1.22-4.25-1.22c-1.31,0-2.53,.3-3.67,.89-1.14,.59-2.14,1.38-3,2.37-.86,.99-1.53,2.17-2.02,3.55-.49,1.38-.73,2.83-.73,4.36v4.36h6.24v-4.29c0-.79,.23-1.6,.7-2.44,.47-.84,1.25-1.26,2.35-1.26,.94,0,1.68,.35,2.23,1.04,.55,.69,.83,1.58,.83,2.66v6.8c0,.75-.05,1.4-.16,1.94h.08l1-.3Z"/>
  <path class="cls-3" d="M187.56,184.81v.67l1.27-.72c-.39,.03-.81,.05-1.27,.05Z"/>
  <path class="cls-4" d="M212.25,164.28h-.75l-.73,1.04-.92,2.72-.08,.09,.58,.08-.35,1.1-.61,.63-.44-.04-.87,1.09,.08,.32c.11-.18,.23-.35,.36-.51,.61-.71,1.32-1.07,2.14-1.07s1.53,.36,2.14,1.07c.61,.71,.92,1.59,.92,2.62v7.69c0,1.04-.31,1.91-.92,2.62-.61,.71-1.33,1.07-2.14,1.07s-1.53-.36-2.14-1.07c-.61-.71-.92-1.59-.92-2.62v-6.17l-.36,.21v.5l-2.08,.92-.96,1.27-1.54,1.17-.04-.04-.83,.6-.34,1.02c.05,1,.16,1.9,.35,2.69,.2,.84,.52,1.59,.95,2.25,.43,.67,1.01,1.37,1.74,2.11-.59,.56-1.08,1.12-1.47,1.67h.37l.93,1.43,1.37,.75-.54,.87-.83,.33-.52,.8-2.08,1.52-.26,.09c0,.16-.02,.31-.02,.48-.04,1.36-.06,3.02-.06,4.99,0,1.09,.02,2.05,.04,2.89l2.04,.1,1.02,.66,.19,.8,.98,.54-.28,.39,.25,.5-.27-.39-.13,.55-.49-.13,.41,.5,.58-.08,.14-.73,.69,.85,.31-.46,.75-.09,.16,.09,.73,.5c-.59-.71-.89-1.57-.89-2.58v-10.35c0-1.04,.31-1.91,.92-2.62,.61-.71,1.32-1.07,2.14-1.07s1.53,.36,2.14,1.07c.61,.71,.92,1.59,.92,2.62v10.35c0,1.04-.31,1.91-.92,2.62-.61,.72-1.33,1.07-2.14,1.07-.12,0-.24-.02-.36-.04l.32,.38,.5-.08,.31,.85,.82,.68,1.12,.79,2.19,.35,1.1-.5,1.34,.85c.08-.13,.17-.25,.24-.38,.33-.59,.6-1.16,.83-1.7,.22-.54,.4-1.21,.52-2,.12-.79,.21-1.71,.28-2.77,.06-1.06,.09-2.4,.09-4.03,0-1.97-.02-3.63-.06-4.99-.04-1.36-.16-2.5-.37-3.44-.21-.94-.52-1.75-.95-2.44-.43-.69-1.01-1.38-1.74-2.07,.73-.74,1.32-1.44,1.74-2.11,.43-.67,.74-1.42,.95-2.25,.2-.84,.33-1.8,.37-2.88,.04-1.08,.06-2.42,.06-3.99,0-1.43-.03-2.65-.09-3.66-.06-1.01-.19-1.88-.4-2.62-.2-.74-.45-1.41-.73-2-.29-.59-.63-1.21-1.04-1.85-.82-1.28-1.83-2.28-3.06-2.99-.25-.15-.51-.27-.77-.39l-1.09,.69-.54,.73Z"/>
  <path class="cls-3" d="M206.7,163.25c-1.22,.71-2.24,1.71-3.06,2.99-.41,.64-.74,1.26-1.01,1.85-.27,.59-.5,1.26-.7,2-.2,.74-.35,1.61-.43,2.62-.08,1.01-.12,2.23-.12,3.66,0,1.58,.02,2.91,.06,3.99,0,.07,.01,.13,.02,.2l.34-1.02,.83-.6,.04,.04,1.54-1.17,.96-1.27,2.08-.92v-.5l.36-.21v-1.52c0-.8,.19-1.5,.55-2.11l-.08-.32,.87-1.09,.44,.04,.61-.63,.35-1.1-.58-.08,.08-.09,.92-2.72,.73-1.04h.75l.54-.73,1.09-.69c-1-.45-2.07-.68-3.2-.68-1.43,0-2.75,.36-3.97,1.07Z"/>
  <path class="cls-3" d="M215.58,211.09l-2.19-.35-1.12-.79-.82-.68-.31-.85-.5,.08-.32-.38c-.67-.09-1.26-.42-1.78-1.03-.01-.01-.02-.03-.03-.04l-.73-.5-.16-.09-.75,.09-.31,.46-.69-.85-.14,.73-.58,.08-.41-.5,.49,.13,.13-.55,.27,.39-.25-.5,.28-.39-.98-.54-.19-.8-1.02-.66-2.04-.1c.01,.41,.03,.8,.05,1.14,.06,1.06,.15,1.99,.28,2.77,.12,.79,.29,1.46,.52,2,.22,.54,.5,1.11,.83,1.7,.69,1.28,1.67,2.38,2.94,3.29,1.26,.91,2.81,1.37,4.65,1.37s3.38-.46,4.65-1.37c1.13-.82,2.02-1.79,2.7-2.91l-1.34-.85-1.1,.5Z"/>
  <path class="cls-3" d="M201.81,192.13c-.18,.82-.29,1.82-.34,2.96l.26-.09,2.08-1.52,.52-.8,.83-.33,.54-.87-1.37-.75-.93-1.43h-.37c-.09,.13-.19,.27-.27,.4-.43,.69-.74,1.5-.95,2.44Z"/>
  <rect class="cls-7" x="221.78" y="211.55" width="3.08" height="3.72"/>
  <polygon class="cls-7" points="227.72 192.04 227.72 195.98 230.8 193.24 230.8 215.27 233.88 215.27 233.88 189.31 230.8 189.31 227.72 192.04"/>
  <path class="cls-7" d="M247.08,199.59c.14-.39,.24-.78,.3-1.17s.1-.8,.12-1.22c.02-.42,.03-.95,.03-1.59,0-.88-.09-1.7-.26-2.48-.17-.78-.44-1.47-.8-2.08-.38-.61-.86-1.09-1.43-1.44-.57-.35-1.26-.53-2.07-.53-.64,0-1.25,.15-1.81,.46-.56,.3-1.05,.71-1.45,1.22-.42,.51-.75,1.11-1,1.79s-.36,1.41-.36,2.19v2.04h3.08v-2.11c0-.61,.14-1.07,.41-1.39,.27-.32,.64-.47,1.1-.47,.38,0,.67,.09,.87,.27,.2,.18,.35,.41,.45,.67,.1,.27,.16,.58,.17,.93,0,.35,.01,.69,.01,1,0,.71-.02,1.29-.06,1.77-.04,.47-.2,1.03-.48,1.66l-5.55,12.65v3.5h9.17v-3.72h-5.55l4.52-10.54c.24-.56,.43-1.03,.57-1.42Z"/>
  <path class="cls-7" d="M258.38,192.33c-.25-.68-.59-1.26-1.01-1.75-.42-.49-.91-.86-1.46-1.11-.55-.26-1.13-.38-1.73-.38s-1.18,.13-1.73,.38c-.55,.25-1.04,.63-1.46,1.11-.42,.49-.76,1.07-1.01,1.75-.25,.68-.38,1.46-.38,2.33v15.24c0,.88,.12,1.65,.38,2.33,.25,.68,.59,1.26,1.01,1.75,.42,.49,.91,.86,1.46,1.11s1.13,.38,1.73,.38,1.18-.13,1.73-.38,1.04-.63,1.46-1.11c.42-.49,.76-1.07,1.01-1.75s.38-1.46,.38-2.33v-15.24c0-.88-.13-1.65-.38-2.33Zm-2.7,17.58c0,.54-.14,.98-.42,1.33s-.64,.53-1.08,.53-.8-.18-1.09-.53c-.28-.35-.42-.8-.42-1.33v-15.24c0-.54,.14-.98,.42-1.33,.28-.35,.64-.53,1.09-.53s.8,.18,1.08,.53,.42,.8,.42,1.33v15.24Z"/>
</svg>