<?xml version="1.0" encoding="UTF-8"?>
<svg id="Layer_1" data-name="Layer 1" xmlns="http://www.w3.org/2000/svg" viewBox="0 0 283.46 283.46">
  <defs>
    <style>
      .cls-1 {
        fill: none;
      }

      .cls-2 {
        fill: #f25d55;
      }

      .cls-3 {
        fill: #fff;
      }

      .cls-4 {
        fill: #d1c1c1;
      }

      .cls-5 {
        fill: #6d8cf2;
      }

      .cls-6 {
        fill: #606060;
      }
    </style>
  </defs>
  <path class="cls-1" d="M214.8,205.82c-.4,0-.75,.18-1.06,.53-.3,.35-.45,.78-.45,1.29v5.1c0,.51,.15,.94,.45,1.29s.65,.53,1.06,.53,.75-.18,1.05-.53c.3-.35,.45-.78,.45-1.29v-5.1c0-.51-.15-.94-.45-1.29-.3-.35-.65-.53-1.05-.53Z"/>
  <path class="cls-1" d="M141.3,26.15c-.61-.69-1.33-1.04-2.14-1.04s-1.53,.35-2.14,1.04c-.32,.36-.55,.78-.7,1.25h5.68c-.15-.48-.38-.9-.7-1.25Z"/>
  <path class="cls-1" d="M203.59,195.61c-.4,0-.75,.17-1.06,.51s-.45,.79-.45,1.35v4.81c0,.56,.15,1.01,.45,1.35,.3,.34,.65,.51,1.06,.51s.75-.17,1.05-.51c.3-.34,.45-.79,.45-1.35v-4.81c0-.56-.15-1.01-.45-1.35-.3-.34-.65-.51-1.05-.51Z"/>
  <path class="cls-1" d="M185.58,183.91v-7.69c0-.57-.1-1.08-.29-1.56l-.37,.26,.25,1.18-.73,.82,.42,2.73-1,1.97-1.76,1.36,.7,2.51,1.06,.73-.21,1.12h0c.36-.17,.7-.44,1.01-.8,.61-.71,.92-1.59,.92-2.62Z"/>
  <polygon class="cls-1" points="158.36 48.2 158.36 51.19 156.54 51.19 156.63 51.39 158.29 51.99 158.32 53.81 159.69 55.08 158.39 56.11 157.76 58.53 155.97 59.83 157.91 63.08 157.33 63.89 157.72 64.92 161.73 48.2 158.36 48.2"/>
  <path class="cls-1" d="M171.44,67.16c.44,0,.8-.18,1.08-.53s.42-.8,.42-1.33v-15.24c0-.53-.14-.98-.42-1.33-.28-.35-.64-.53-1.08-.53s-.8,.18-1.09,.53c-.28,.35-.42,.8-.42,1.33v15.24c0,.54,.14,.98,.42,1.33,.28,.35,.64,.53,1.09,.53Z"/>
  <path class="cls-1" d="M214.8,195.61c-.4,0-.75,.18-1.06,.53-.3,.35-.45,.78-.45,1.29v3.79c0,.51,.15,.94,.45,1.29,.3,.35,.65,.53,1.06,.53s.75-.18,1.05-.53c.3-.35,.45-.78,.45-1.29v-3.79c0-.51-.15-.94-.45-1.29-.3-.35-.65-.53-1.05-.53Z"/>
  <path class="cls-1" d="M148.42,29.85l.22-.18,1.81-.63,.75-1.5-.06-.09,.13-.04h-2.96c.04,.53,.07,1.11,.09,1.74,0,.22,.01,.46,.02,.71Z"/>
  <path class="cls-1" d="M105.1,67.78l2.58-7.09,1.93-2.36,1.73-.88-.03,.4v.03l3.48,2.3-.33-1.85,1.48,.15,.88-1.12-.27-.97-1.27,.82-2.09-.97-.25-.73,1.76-2.36,2.33-.3,.97-.91,2.78,.37,1.85,1.93,2.24,.55,2.76-1.03-3.45,.3,.88-.33-.75-.06-.21-.97,1.42-.18-.3-.45,.63-.12-.78-.63,1.3-.58-.6-.55,1.63,.09,1.3-1.3v-.91l.82-.73-.33-1.18,1.28-2.38c-.05-.22-.1-.45-.14-.7l-1.29-.94,.15-.58,.96,.08c-.1-.84-.17-1.86-.21-3.08-.04-1.35-.06-3.07-.06-5.14,0-1.73,.02-3.14,.06-4.25,.02-.63,.06-1.21,.11-1.74H45.37v48.06h56.5l3.07-2.92,.15-4.76Z"/>
  <path class="cls-1" d="M151.27,27.4l-.07,.14,.85,1.3-.52,.97,.33,1.21,1.85,2.58,2.91,.73,.27,2.09,.78,1.03,.75-.12,.7,1.66,1.48-.21,1.81-.82,.97,.82-.88,.85,.52,.73-.73,.6,1.27,2.39-2.66,.73-.99,.61h4.89v3.72l-4.6,19.6,.06,.05,2.39-.4,2.12-2.51,2.08-.79v-14.32c0-.88,.12-1.65,.38-2.33,.25-.68,.59-1.26,1.01-1.75,.42-.49,.91-.86,1.46-1.11s1.13-.38,1.73-.38,1.18,.13,1.73,.38,1.04,.63,1.46,1.11c.42,.49,.76,1.07,1.01,1.75,.25,.68,.38,1.46,.38,2.33v15.24c0,.88-.13,1.65-.38,2.33s-.59,1.26-1.01,1.75c-.23,.27-.49,.5-.77,.69l.21,1.55-.88,1.03-.5,2.81h59.49V27.4h-80.92Zm35.98,39.54v3.72h-9.17v-3.5l5.55-12.65c.28-.63,.44-1.19,.48-1.66,.04-.47,.06-1.06,.06-1.77,0-.32,0-.65-.02-1-.01-.35-.07-.66-.17-.93-.1-.27-.25-.49-.45-.67-.2-.18-.49-.27-.87-.27-.46,0-.83,.16-1.1,.47-.27,.32-.41,.78-.41,1.39v2.11h-3.08v-2.04c0-.78,.12-1.51,.36-2.19,.24-.68,.57-1.28,1-1.79,.4-.51,.88-.92,1.45-1.22,.56-.3,1.17-.46,1.81-.46,.8,0,1.49,.18,2.07,.53,.57,.35,1.05,.83,1.43,1.44,.36,.61,.63,1.3,.8,2.08,.17,.78,.26,1.6,.26,2.48,0,.63,0,1.16-.03,1.59-.02,.43-.06,.83-.12,1.22-.06,.39-.16,.78-.3,1.17-.14,.39-.33,.86-.57,1.42l-4.52,10.54h5.55Z"/>
  <path class="cls-1" d="M138.62,38.96l.63-1.7,2.09-1.45,.67-1.45,.21-.09v-5.39c0-.55-.07-1.04-.22-1.48h-5.68c-.14,.44-.22,.94-.22,1.48v9.76c0,.39,.05,.74,.12,1.08l1.27-.8,1.12,.03Z"/>
  <polygon class="cls-2" points="121.91 224.74 122.72 227.45 123.56 226.68 123.48 226.56 121.91 224.74"/>
  <path class="cls-2" d="M183.86,186.22l-1.06-.73-.7-2.51,1.76-1.36,1-1.97-.42-2.73,.73-.82-.25-1.18,.37-.26c-.15-.39-.36-.75-.63-1.07-.61-.71-1.33-1.07-2.14-1.07s-1.53,.36-2.14,1.07c-.61,.72-.92,1.59-.92,2.62v7.69c0,1.04,.31,1.91,.92,2.62,.61,.71,1.32,1.07,2.14,1.07,.4,0,.78-.09,1.13-.26h0s.21-1.12,.21-1.12Z"/>
  <polygon class="cls-2" points="123.48 226.56 123.56 226.68 123.57 226.67 123.48 226.56"/>
  <polygon class="cls-2" points="121.91 224.73 121.91 224.74 121.91 224.72 121.91 224.73"/>
  <polygon class="cls-2" points="119.96 147.95 120.03 147.1 119.94 147.58 119.64 147.1 118.01 147.43 117.71 146.02 116.89 145.77 117.08 144.37 115.35 142.59 115.28 139.53 114.4 137.6 115.22 136.81 115.22 136.81 113.74 137.78 114.15 141.47 117.63 147.86 119.96 147.95"/>
  <path class="cls-2" d="M179.47,207.28c0,1.04,.31,1.91,.92,2.62,.61,.72,1.32,1.07,2.14,1.07s1.53-.36,2.14-1.07c.61-.71,.92-1.59,.92-2.62v-10.35c0-1.04-.31-1.91-.92-2.62-.61-.71-1.33-1.07-2.14-1.07s-1.53,.36-2.14,1.07c-.61,.71-.92,1.59-.92,2.62v10.35Z"/>
  <path class="cls-2" d="M190.1,169.95v-.45s-.7-.68-.7-.68c.05,.08,.11,.15,.16,.23,.19,.31,.37,.61,.54,.9Z"/>
  <path class="cls-2" d="M100.69,76.6h-.18l-.63,2.6-3.3,4.36-.52-.12,.75,4.24-.48,1.27-2.66,7.9-1.55,.73,.15,1.12,.91,1.7,1.66,1,4.99,7.17,4.45,7.75,.75,.4-.03,5.84,6.21,10.23,1.15,.09,.78-.88,2.06,.6,.93-1.18-.73-1.4,1.15-1.3-.33-.48,.91-1.51-.42-.3,.55-.12-.4-.88,.91,.33,.97,2.96,.58-.55-1.06,1.76-.63,3.33-.52-.25,.33,1.12-2.48,1,.45,1.36h.75l-.37,4.84,1.3,2.09,1.63-1.51,1.27,2.24-.3,.88,.4-.48,1.3,1.6-1.36-1.85,1.91-1.6,2.43-2.36,1.7-3.6,1.06-.82v-1.93l.3-1.63,1.55-1.6-.4,1.48,1.76,2.15,.27-.33-.09,.85,.88-.09-.58,.7,.33,1.58-.25-.09v1.36l-.58-.09-.78,1.4,1.36-.15,1.93-1.78,1.48-1.6,.78,1.08-.15-1.7,1.85-2.88,3.96-1.12-1.4,1.42,.42,1.36-.75,.25,.37,2.27,1.66,.52,.91,2.91,1.06,.06v-.91l.78,.18-1.06,2.27-1.18,.88-.12,1.06,.58,.09-1.76,1.21-1.93,.3-1.78,3.69-1.12,.85,1.27,1.12,.33,3.15,.88-.4,.18,.55,.33-1.85,.93,.33,.48-.12,1.48,.97-1.7-.37-1.45,2.15,.45,.97,1.6,.48-.73,.52-.25-.42-.63,.88-.97-.21,1,.73-.75,.45,.42,.67-.58,.45,.18-.97-.75-.06,.48,.48-1.18,.33-1-.82,.42-.58-5.11,2.09-.06,2.36,.4-.3,.33,.78-.67-.15,.12,.82,1,1.81-1.85-2.18,.09-2.81-2.73,.73-.63,10.75-.09,4.51,.48,2.03,2.09,2.03,2.58,.55,2.21-.55-.75,.63,3.18,.06,2.63-.48,4.06-1.45-4.39,1.88-3.21,.78-.88,.09,.25,.52-.82-.52-.63,1.4,.82,.78-1.25-.09,.48,.67-.58,.15-.97,.52,.12-.6-4.69,6.48-2.81,5.14-.75,1.33-.48,2.91,1.73,2.55,.85-.06,.33-.73-.48,2.76,1.73,4.6,1.76,2.48,1.4,5.51,3.36,2.73,3.33,2.91,2.66,.82,.63-.48-.4-.63,3,1.51,.48-.73-.03-.25,1.21-1.78-.3-.6,1.91,.85,.37-.73,2.24-.73,1.15,.52,.73-1.12-.73,1.45-1.55-.33-1.25,1.21-.21,.06-1.97,.09-.63,1.3,.63,1.76-2.39,1.85-2.58-1.21-1.08,.18,.52,.82-1,.48,.6,.3-1.93,.03-3.26-1.93-4.18-6.33-1.06-3.63-1.66-4.36-6.87,3.43-3.33,2.33,.82,2.39,3,3.33,.33-.25,2.22,3.14,.09,.11h-.01s.03,.05,.03,.05l-.58,1.78,.67,.4,.45-.45,.15,.97,1,.45-1.48-.3,.58,.73-.55,.73-.58-.63,.42,1.08,4.24,1.3,4.84,4.03,1.63,2.36,.09,1.27-1.48,1.25-3.06,.88,1.73,2.51,1.27,1.21,2.58,1.06,1.45-1-.45,1.78-.91,1.36,1.63,1.12-.37,.73,1.25,1.48-.67,.33,.82,.37-.73,.91,.91,.88-.33,1.48,1.06,.6,.48,2.18,2.09,.82,.88-.63,1.45,.09,.42,.93,2.09,.25,1.78-1.18,1.6,1.03,2.66-1.12,.7,1.06,.91-.18,.09,.97,.73-.06-.18,1.78,.67,.78,1.66-.97,1.97,1.88,.55-2.85,2.58,1.63,3-1.08-.15-1.76,3.78-1.27-.3-.97,.78-.75-.88-1.21,.09-2.43,2.27-.78,2-2.6,1.4,.27,.85-.18,1.78-1.45,.42,.4,2.27-2.66,3.54-4.66,.93,.3-.12-3.24,1.85,1.97,2.27-.15,1.27-.6,.78-1.76,1.78,.4,1.12-.48,.82-2.15-.15-.97,.97-.85-1.6-1.51-.63-1.63,.55-6.18-.78-1.45,.6-1.4-.3-1.7-1.15-.18-.21-.7-.18-.58,.75,.06,1.08-1.21,.75-3.06-1.36-.06-.82-1.48,.82-1.08,.6,.45-.25-.58,1.73-2.3-.48-1.81,.88-.88,.18-1.7,.48-.58,.78,.6,1.85-.6,.27-.37-.58-.82,1.06-1.85-.18-1.4-1.88-1.06-.37-1.18-3.88-4.63-.82,.09-.25-.91-.25-.55h-.03l.09-.73-.73-.48,.25-2.27-.56-.58c-.38,.51-.84,1.04-1.38,1.59,.73,.69,1.31,1.38,1.74,2.07,.43,.69,.74,1.5,.95,2.44,.2,.94,.33,2.08,.37,3.44,.04,1.36,.06,3.02,.06,4.99,0,1.63-.03,2.97-.09,4.03-.06,1.06-.15,1.99-.28,2.77-.12,.79-.3,1.46-.52,2-.22,.54-.5,1.11-.83,1.7-.69,1.28-1.67,2.38-2.94,3.29s-2.81,1.37-4.65,1.37-3.38-.46-4.65-1.37c-1.26-.91-2.24-2.01-2.94-3.29-.33-.59-.6-1.16-.83-1.7-.22-.54-.4-1.21-.52-2-.12-.79-.21-1.71-.28-2.77-.06-1.06-.09-2.4-.09-4.03,0-1.97,.02-3.63,.06-4.99,.04-1.36,.16-2.5,.37-3.44,.2-.94,.52-1.75,.95-2.44,.43-.69,1.01-1.38,1.74-2.07-.73-.74-1.31-1.44-1.74-2.11-.43-.67-.74-1.42-.95-2.26-.2-.84-.33-1.8-.37-2.88-.04-1.08-.06-2.41-.06-3.99,0-1.43,.04-2.65,.12-3.66,.08-1.01,.22-1.89,.43-2.62,.2-.74,.44-1.41,.7-2,.26-.59,.6-1.21,1.01-1.85,.81-1.28,1.83-2.28,3.06-2.99,1.22-.71,2.55-1.07,3.97-1.07s2.75,.36,3.97,1.07c.42,.25,.81,.54,1.18,.85l.15-.31-1.27-1.4-1.33-3.45-2.43-.42-.55-1.06-.67,.25,.18-1.18-.3-.63-.73-1.81-1.81,.85-.4-1.06,.67-.73-.58-.33-4.03,.73-1.55-2.09-1.27,.48-.75-.58v-1.7l.75,.15-.25-.82-.82-.21-.27-2.27-.78-.91-3.21,1.15-2.06-.3-.7-.58,.4-1.6v-1.48l-2.81-2.15-.91,.06v-.78l-2.51-2.66,.27-2.76,1.66-.48,4.6-7.27,1.58,.4,1.93-.25,.45-1.45,1.48-.09,.06-.88,.63-.15,1.48,1.3,.73-.37,.45-1.7,.25-1.36-.63-1.03,.55-.75-.37-2.58,.85-1.36-3.78-3.45,1.6-.33,1.73-1.73,1.21-.06,.33-1.51-.82-.67-.15-2.36,.93-2.09,1.36-.15,.18-.67,1.15-.48,3.69,.27,.78-1.3,.75,.55,.33-1.66-.82-6.39-1.55-.06-.73-1.97-5.81-4.76-1.27-3.78,2.3-1.97-.3-1.42-2.09-.73-1.48-1.6-.25-1.25,1.81-3.06-.37-.58,.1-.59H101.88l-1.19,1.13Zm51.32,126.39h6.24v3.92c0,1.18,.27,2.16,.83,2.92,.55,.76,1.29,1.15,2.23,1.15s1.68-.38,2.23-1.15c.55-.76,.83-1.79,.83-3.07v-7.54c0-2.07-.33-3.43-.98-4.07-.37-.39-.87-.64-1.5-.74-.63-.1-1.46-.15-2.48-.15v-6.65c1.88,0,3.17-.27,3.88-.81,.71-.54,1.07-1.8,1.07-3.77v-6.8c0-1.08-.28-1.97-.83-2.66-.55-.69-1.29-1.04-2.23-1.04-1.1,0-1.89,.42-2.35,1.26-.47,.84-.7,1.65-.7,2.44v4.29h-6.24v-4.36c0-1.53,.24-2.98,.73-4.36,.49-1.38,1.16-2.56,2.02-3.55,.86-.99,1.85-1.77,3-2.37,1.14-.59,2.36-.89,3.67-.89,1.71,0,3.13,.41,4.25,1.22s1.97,1.64,2.54,2.48c.41,.59,.76,1.18,1.07,1.77,.31,.59,.56,1.31,.76,2.14,.37,1.63,.55,4.04,.55,7.25,0,1.82-.03,3.3-.09,4.44-.06,1.13-.21,2.07-.46,2.81-.29,.79-.68,1.45-1.19,2-.51,.54-1.21,1.13-2.11,1.77,.98,.74,1.72,1.43,2.23,2.07,.51,.64,.89,1.38,1.13,2.22,.25,.89,.39,1.94,.43,3.14,.04,1.21,.06,2.75,.06,4.62,0,1.73-.03,3.15-.09,4.29-.06,1.13-.15,2.07-.28,2.81-.12,.79-.29,1.45-.49,2-.2,.54-.47,1.11-.79,1.7-.77,1.38-1.76,2.53-2.96,3.44-1.2,.91-2.78,1.37-4.74,1.37-.98,0-2.02-.2-3.12-.59-1.1-.39-2.1-1.04-3-1.92s-1.64-2.04-2.23-3.48c-.59-1.43-.89-3.18-.89-5.25v-4.29Z"/>
  <path class="cls-5" d="M130.14,41.62l-.96-.08-.15,.58,1.29,.94c-.06-.35-.11-.74-.14-1.16-.01-.09-.02-.19-.03-.28Z"/>
  <polygon class="cls-5" points="151.2 27.54 151.27 27.4 151.14 27.44 151.2 27.54"/>
  <path class="cls-5" d="M174.08,71.62l-.21-1.55c-.22,.16-.45,.3-.7,.42-.55,.25-1.13,.38-1.73,.38s-1.18-.13-1.73-.38-1.04-.63-1.46-1.11c-.42-.49-.76-1.07-1.01-1.75-.25-.68-.38-1.46-.38-2.33v-.93l-2.08,.79-2.12,2.51-2.39,.4-.06-.05-.62,2.64h-3.26l1.38-5.74-.39-1.02,.58-.82-1.93-3.24,1.78-1.3,.63-2.43,1.3-1.03-1.36-1.27-.03-1.81-1.66-.6-.08-.21h-.9v-6.49h4.27l.99-.61,2.66-.73-1.27-2.39,.73-.6-.52-.73,.88-.85-.97-.82-1.81,.82-1.48,.21-.7-1.66-.75,.12-.78-1.03-.27-2.09-2.91-.73-1.85-2.58-.33-1.21,.52-.97-.85-1.3-.75,1.5-1.81,.63-.22,.18c.03,.99,.04,2.16,.04,3.54,0,1.63-.02,2.97-.06,4.03-.04,1.06-.1,1.96-.18,2.7-.12,.79-.26,1.49-.4,2.11-.14,.62-.32,1.27-.52,1.96l-8.19,26.47h-6.97l7.09-22.11-.12-.15c-.21,.2-.52,.36-.95,.48-.43,.12-.99,.18-1.68,.18-1.1,0-2.12-.32-3.06-.96-.94-.64-1.67-1.45-2.2-2.44-.29-.49-.51-1.02-.67-1.59-.03-.1-.05-.21-.08-.32l-1.28,2.38,.33,1.18-.82,.73v.91l-1.3,1.3-1.63-.09,.6,.55-1.3,.58,.78,.63-.63,.12,.3,.45-1.42,.18,.21,.97,.75,.06-.88,.33,3.45-.3-2.76,1.03-2.24-.55-1.85-1.93-2.78-.37-.97,.91-2.33,.3-1.76,2.36,.25,.73,2.09,.97,1.27-.82,.27,.97-.88,1.12-1.48-.15,.33,1.85-3.48-2.3v-.03l.03-.4-1.73,.88-1.93,2.36-2.58,7.09-.15,4.76-3.07,2.92h70.82l.5-2.81,.88-1.03Zm-20.73-.97h-3.08v-3.72h3.08v3.72Z"/>
  <path class="cls-5" d="M139.16,42.41c.82,0,1.53-.34,2.14-1.04,.61-.69,.92-1.6,.92-2.74v-4.37l-.21,.09-.67,1.45-2.09,1.45-.63,1.7-1.12-.03-1.27,.8c.14,.65,.39,1.21,.8,1.66,.61,.69,1.32,1.04,2.14,1.04Z"/>
  <path class="cls-4" d="M137.02,26.15c.61-.69,1.32-1.04,2.14-1.04s1.53,.35,2.14,1.04c.32,.36,.55,.78,.7,1.25h6.3c-.03-.4-.06-.77-.09-1.11-.12-.74-.29-1.38-.49-1.92-.21-.54-.45-1.11-.73-1.7-.82-1.58-1.9-2.82-3.24-3.73-1.35-.91-2.87-1.37-4.59-1.37s-3.25,.44-4.62,1.33c-1.37,.89-2.46,2.14-3.27,3.77-.29,.59-.52,1.16-.7,1.7-.18,.54-.32,1.18-.4,1.92-.05,.34-.1,.71-.13,1.11h6.28c.15-.48,.38-.9,.7-1.25Z"/>
  <path class="cls-4" d="M142.22,28.88v5.39l.67-.28,.09-1.33,2.48-.33,2.96-2.48c0-.25-.01-.49-.02-.71-.02-.63-.05-1.21-.09-1.74h-6.3c.14,.44,.22,.94,.22,1.48Z"/>
  <path class="cls-4" d="M129.87,33.39c0,2.07,.02,3.78,.06,5.14,.04,1.22,.11,2.24,.21,3.08l4.66,.4,1.36-1.06-.21-1.06,.27-.17c-.07-.34-.12-.69-.12-1.08v-9.76c0-.55,.07-1.04,.22-1.48h-6.28c-.05,.53-.09,1.11-.11,1.74-.04,1.11-.06,2.53-.06,4.25Z"/>
  <path d="M130.32,43.06c.04,.25,.09,.49,.14,.7l.23-.43-.37-.27Z"/>
  <path class="cls-3" d="M142.98,32.66l-.09,1.33-.67,.28v4.37c0,1.13-.31,2.05-.92,2.74-.61,.69-1.33,1.04-2.14,1.04s-1.53-.34-2.14-1.04c-.4-.45-.66-1.01-.8-1.66l-.27,.17,.21,1.06-1.36,1.06-4.66-.4c.01,.09,.02,.19,.03,.28,.04,.42,.09,.81,.14,1.16l.37,.27-.23,.43c.03,.11,.05,.22,.08,.32,.16,.57,.39,1.1,.67,1.59,.53,.99,1.26,1.8,2.2,2.44,.94,.64,1.96,.96,3.06,.96,.69,0,1.25-.06,1.68-.18,.43-.12,.74-.28,.95-.48l.12,.15-7.09,22.11h6.97l8.19-26.47c.2-.69,.38-1.34,.52-1.96,.14-.62,.27-1.32,.4-2.11,.08-.74,.14-1.64,.18-2.7,.04-1.06,.06-2.4,.06-4.03,0-1.38-.01-2.56-.04-3.54l-2.96,2.48-2.48,.33Z"/>
  <rect class="cls-3" x="150.27" y="66.94" width="3.08" height="3.72"/>
  <polygon class="cls-6" points="158.06 48.88 156.29 50.58 156.54 51.19 158.36 51.19 158.36 48.2 161.73 48.2 157.72 64.92 158.24 66.29 160.21 68.02 164.81 48.42 164.81 44.7 159.91 44.7 158.09 45.82 158.06 48.88"/>
  <polygon class="cls-3" points="157.72 64.92 156.34 70.66 159.59 70.66 160.21 68.02 158.24 66.29 157.72 64.92"/>
  <polygon class="cls-3" points="155.64 51.19 156.54 51.19 156.29 50.58 158.06 48.88 158.09 45.82 159.91 44.7 155.64 44.7 155.64 51.19"/>
  <path class="cls-6" d="M167.78,62.83l1.36,2.6,2.48,2.66,1.3,.15,.25,1.12,.67,.42,.04,.3c.27-.2,.53-.42,.77-.69,.42-.49,.76-1.07,1.01-1.75s.38-1.46,.38-2.33v-15.24c0-.88-.13-1.65-.38-2.33-.25-.68-.59-1.26-1.01-1.75-.42-.49-.91-.86-1.46-1.11s-1.13-.38-1.73-.38-1.18,.13-1.73,.38-1.04,.63-1.46,1.11c-.42,.49-.76,1.07-1.01,1.75-.25,.68-.38,1.46-.38,2.33v14.32l.25-.09,.67-1.45Zm2.16-12.77c0-.53,.14-.98,.42-1.33,.28-.35,.64-.53,1.09-.53s.8,.18,1.08,.53c.28,.35,.42,.8,.42,1.33v15.24c0,.54-.14,.98-.42,1.33s-.64,.53-1.08,.53-.8-.18-1.09-.53c-.28-.35-.42-.8-.42-1.33v-15.24Z"/>
  <path class="cls-3" d="M167.24,67.63c.25,.68,.59,1.26,1.01,1.75,.42,.49,.91,.86,1.46,1.11s1.13,.38,1.73,.38,1.18-.13,1.73-.38c.25-.11,.47-.26,.7-.42l-.04-.3-.67-.42-.25-1.12-1.3-.15-2.48-2.66-1.36-2.6-.67,1.45-.25,.09v.93c0,.88,.12,1.65,.38,2.33Z"/>
  <path class="cls-6" d="M186.79,54.98c.14-.39,.24-.78,.3-1.17,.06-.39,.1-.8,.12-1.22,.02-.42,.03-.95,.03-1.59,0-.88-.09-1.7-.26-2.48-.17-.78-.44-1.47-.8-2.08-.38-.61-.86-1.09-1.43-1.44-.57-.35-1.26-.53-2.07-.53-.64,0-1.25,.15-1.81,.46-.56,.3-1.05,.71-1.45,1.22-.42,.51-.75,1.11-1,1.79-.24,.68-.36,1.41-.36,2.19v2.04h3.08v-2.11c0-.61,.14-1.07,.41-1.39,.27-.32,.64-.47,1.1-.47,.38,0,.67,.09,.87,.27,.2,.18,.35,.41,.45,.67,.1,.27,.16,.58,.17,.93,0,.35,.02,.69,.02,1,0,.71-.02,1.29-.06,1.77-.04,.47-.2,1.03-.48,1.66l-5.55,12.65v3.5h9.17v-3.72h-5.55l4.52-10.54c.24-.56,.43-1.03,.57-1.42Z"/>
  <path class="cls-3" d="M155.13,216c.9,.89,1.9,1.53,3,1.92,1.1,.39,2.14,.59,3.12,.59,1.96,0,3.54-.46,4.74-1.37,1.2-.91,2.19-2.06,2.96-3.44,.33-.59,.59-1.16,.79-1.7,.2-.54,.37-1.21,.49-2,.12-.74,.21-1.67,.28-2.81,.06-1.13,.09-2.56,.09-4.29,0-1.87-.02-3.41-.06-4.62-.04-1.21-.18-2.26-.43-3.14-.24-.84-.62-1.58-1.13-2.22-.51-.64-1.25-1.33-2.23-2.07,.9-.64,1.6-1.23,2.11-1.77,.51-.54,.91-1.21,1.19-2,.25-.74,.4-1.68,.46-2.81,.06-1.13,.09-2.61,.09-4.44,0-3.2-.18-5.62-.55-7.25-.2-.84-.46-1.55-.76-2.14-.31-.59-.66-1.18-1.07-1.77-.57-.84-1.42-1.66-2.54-2.48s-2.54-1.22-4.25-1.22c-1.31,0-2.53,.3-3.67,.89-1.14,.59-2.14,1.38-3,2.37-.86,.99-1.53,2.17-2.02,3.55-.49,1.38-.73,2.83-.73,4.36v4.36h6.24v-4.29c0-.79,.23-1.6,.7-2.44,.47-.84,1.25-1.26,2.35-1.26,.94,0,1.68,.35,2.23,1.04,.55,.69,.83,1.58,.83,2.66v6.8c0,1.97-.36,3.23-1.07,3.77-.71,.54-2.01,.81-3.88,.81v6.65c1.02,0,1.84,.05,2.48,.15,.63,.1,1.13,.35,1.5,.74,.65,.64,.98,2,.98,4.07v7.54c0,1.28-.28,2.3-.83,3.07-.55,.76-1.29,1.15-2.23,1.15s-1.68-.38-2.23-1.15c-.55-.76-.83-1.74-.83-2.92v-3.92h-6.24v4.29c0,2.07,.29,3.82,.89,5.25,.59,1.43,1.33,2.59,2.23,3.48Z"/>
  <path class="cls-4" d="M189.14,172.13l-3.18,2.06-.66,.47c.18,.47,.29,.99,.29,1.56v7.69c0,1.04-.31,1.91-.92,2.62-.31,.36-.65,.63-1.01,.81l.39,.41,.55-.82,.97,1.51,1.6,.15,.67-.88,1.93-.58-.18,1.15,.51,.53c.13-.18,.25-.35,.36-.52,.43-.67,.74-1.42,.95-2.26,.2-.84,.33-1.8,.37-2.88,.04-1.08,.06-2.41,.06-3.99,0-1.43-.03-2.65-.09-3.66-.06-1.01-.19-1.89-.4-2.62-.2-.74-.45-1.41-.73-2-.15-.31-.32-.63-.5-.95l-.03,1.73-.93,.45Z"/>
  <path class="cls-4" d="M187.92,167.41l1.47,1.41c-.5-.74-1.07-1.37-1.71-1.91l-.34,.72,.58-.21Z"/>
  <path class="cls-3" d="M182.52,164.98c-1.43,0-2.75,.36-3.97,1.07-1.22,.72-2.24,1.71-3.06,2.99-.41,.64-.74,1.26-1.01,1.85-.27,.59-.5,1.26-.7,2-.2,.74-.35,1.61-.43,2.62-.08,1.01-.12,2.23-.12,3.66,0,1.58,.02,2.91,.06,3.99,.04,1.08,.16,2.05,.37,2.88,.2,.84,.52,1.59,.95,2.26,.43,.67,1.01,1.37,1.74,2.11-.73,.69-1.31,1.38-1.74,2.07-.43,.69-.74,1.5-.95,2.44-.2,.94-.33,2.08-.37,3.44-.04,1.36-.06,3.02-.06,4.99,0,1.63,.03,2.97,.09,4.03,.06,1.06,.15,1.99,.28,2.77,.12,.79,.29,1.46,.52,2,.22,.54,.5,1.11,.83,1.7,.69,1.28,1.67,2.38,2.94,3.29,1.26,.91,2.81,1.37,4.65,1.37s3.38-.46,4.65-1.37,2.24-2.01,2.94-3.29c.33-.59,.6-1.16,.83-1.7,.22-.54,.4-1.21,.52-2,.12-.79,.21-1.71,.28-2.77,.06-1.06,.09-2.4,.09-4.03,0-1.97-.02-3.63-.06-4.99-.04-1.36-.16-2.5-.37-3.44-.21-.94-.52-1.75-.95-2.44-.43-.69-1.01-1.38-1.74-2.07,.55-.55,1.01-1.08,1.38-1.59l-.51-.53,.18-1.15-1.93,.58-.67,.88-1.6-.15-.97-1.51-.55,.82-.39-.41c-.35,.17-.73,.26-1.13,.26-.82,0-1.53-.36-2.14-1.07-.61-.71-.92-1.59-.92-2.62v-7.69c0-1.04,.31-1.91,.92-2.62,.61-.71,1.32-1.07,2.14-1.07s1.53,.36,2.14,1.07c.28,.32,.48,.68,.63,1.07l.66-.47,3.18-2.06,.93-.45,.03-1.73c-.17-.29-.35-.59-.54-.9-.05-.08-.11-.15-.16-.23l-1.47-1.41-.58,.21,.34-.72c-.37-.31-.76-.61-1.18-.85-1.22-.71-2.55-1.07-3.97-1.07Zm-2.14,29.32c.61-.71,1.32-1.07,2.14-1.07s1.53,.36,2.14,1.07c.61,.71,.92,1.59,.92,2.62v10.35c0,1.04-.31,1.91-.92,2.62-.61,.72-1.33,1.07-2.14,1.07s-1.53-.36-2.14-1.07c-.61-.71-.92-1.59-.92-2.62v-10.35c0-1.04,.31-1.91,.92-2.62Z"/>
  <rect class="cls-6" x="193.63" y="214.35" width="3.08" height="3.72"/>
  <path class="cls-6" d="M208.05,196.19c-.06-.36-.14-.68-.24-.95-.1-.27-.22-.55-.36-.84-.4-.78-.93-1.39-1.6-1.84-.66-.45-1.42-.67-2.26-.67s-1.6,.22-2.28,.66-1.21,1.06-1.61,1.86c-.14,.29-.26,.57-.35,.84-.09,.27-.16,.58-.2,.95-.06,.39-.1,.86-.12,1.4-.02,.55-.03,1.25-.03,2.1,0,1.02,0,1.87,.03,2.53,.02,.67,.06,1.22,.12,1.66,.04,.44,.1,.8,.18,1.08,.08,.28,.19,.54,.33,.78,.26,.49,.62,.89,1.09,1.2,.46,.32,.96,.47,1.51,.47,.34,0,.62-.03,.83-.09,.21-.06,.37-.14,.47-.24l.06,.07-3.5,10.9h3.44l4.04-13.05c.1-.34,.19-.66,.26-.97,.07-.3,.14-.65,.2-1.04,.04-.36,.07-.81,.09-1.33,.02-.52,.03-1.19,.03-1.99,0-.85,0-1.55-.03-2.1-.02-.55-.05-1.01-.09-1.4Zm-2.96,6.09c0,.56-.15,1.01-.45,1.35-.3,.34-.65,.51-1.05,.51s-.75-.17-1.06-.51c-.3-.34-.45-.79-.45-1.35v-4.81c0-.56,.15-1.01,.45-1.35s.65-.51,1.06-.51,.75,.17,1.05,.51c.3,.34,.45,.79,.45,1.35v4.81Z"/>
  <path class="cls-6" d="M219.18,202.28c.1-.41,.16-.89,.18-1.42,.02-.53,.03-1.19,.03-1.97,0-.7-.01-1.31-.04-1.8-.03-.5-.1-.93-.2-1.29-.1-.36-.22-.69-.36-.98-.14-.29-.31-.6-.51-.91-.4-.63-.91-1.12-1.51-1.48-.6-.35-1.26-.53-1.96-.53s-1.36,.18-1.96,.53c-.6,.35-1.11,.84-1.51,1.48-.2,.32-.37,.62-.5,.91-.13,.29-.25,.62-.35,.98-.1,.36-.17,.8-.21,1.29-.04,.5-.06,1.1-.06,1.8,0,.78,0,1.44,.03,1.97,.02,.54,.08,1.01,.18,1.42,.1,.41,.26,.78,.47,1.11s.5,.67,.86,1.04c-.36,.34-.65,.68-.86,1.02-.21,.34-.37,.74-.47,1.2s-.16,1.03-.18,1.7c-.02,.67-.03,1.49-.03,2.46,0,.8,.01,1.46,.04,1.99,.03,.52,.08,.98,.14,1.37s.15,.72,.26,.98c.11,.27,.25,.55,.41,.84,.34,.63,.82,1.17,1.45,1.62,.62,.45,1.39,.67,2.29,.67s1.67-.22,2.29-.67c.62-.45,1.11-.99,1.45-1.62,.16-.29,.3-.57,.41-.84s.2-.6,.26-.98,.11-.84,.14-1.37c.03-.52,.04-1.18,.04-1.99,0-.97,0-1.79-.03-2.46-.02-.67-.08-1.23-.18-1.7s-.26-.86-.47-1.2c-.21-.34-.5-.68-.86-1.02,.36-.36,.65-.71,.86-1.04,.21-.33,.37-.7,.47-1.11Zm-2.86,10.46c0,.51-.15,.94-.45,1.29-.3,.35-.65,.53-1.05,.53s-.75-.18-1.06-.53-.45-.78-.45-1.29v-5.1c0-.51,.15-.94,.45-1.29,.3-.35,.65-.53,1.06-.53s.75,.18,1.05,.53c.3,.35,.45,.78,.45,1.29v5.1Zm0-11.52c0,.51-.15,.94-.45,1.29-.3,.35-.65,.53-1.05,.53s-.75-.18-1.06-.53c-.3-.35-.45-.78-.45-1.29v-3.79c0-.51,.15-.94,.45-1.29,.3-.35,.65-.53,1.06-.53s.75,.18,1.05,.53c.3,.35,.45,.78,.45,1.29v3.79Z"/>
  <path class="cls-6" d="M230.33,202.79c.12-.36,.2-.83,.23-1.39,.03-.56,.04-1.29,.04-2.19,0-1.58-.09-2.77-.27-3.57-.1-.41-.23-.77-.38-1.06-.15-.29-.33-.58-.53-.88-.28-.41-.7-.82-1.25-1.22-.55-.4-1.25-.6-2.1-.6-.64,0-1.25,.15-1.81,.44-.56,.29-1.06,.68-1.48,1.17-.42,.49-.75,1.07-1,1.75-.24,.68-.36,1.4-.36,2.15v2.15h3.08v-2.12c0-.39,.12-.79,.35-1.2,.23-.41,.62-.62,1.16-.62,.46,0,.83,.17,1.1,.51s.41,.78,.41,1.31v3.35c0,.97-.18,1.59-.53,1.86-.35,.27-.99,.4-1.92,.4v3.28c.5,0,.91,.02,1.22,.07,.31,.05,.56,.17,.74,.37,.32,.32,.48,.98,.48,2v3.72c0,.63-.14,1.14-.41,1.51s-.64,.56-1.1,.56-.83-.19-1.1-.56c-.27-.38-.41-.86-.41-1.44v-1.93h-3.08v2.11c0,1.02,.15,1.88,.44,2.59,.29,.71,.66,1.28,1.1,1.71,.44,.44,.93,.75,1.48,.95s1.06,.29,1.54,.29c.96,0,1.74-.22,2.34-.67,.59-.45,1.08-1.01,1.46-1.7,.16-.29,.29-.57,.39-.84s.18-.6,.24-.98c.06-.36,.11-.83,.14-1.39,.03-.56,.04-1.26,.04-2.12,0-.92,0-1.68-.03-2.28-.02-.6-.09-1.11-.21-1.55-.12-.41-.31-.78-.56-1.09-.25-.32-.62-.66-1.1-1.02,.44-.32,.79-.61,1.04-.88,.25-.27,.45-.6,.59-.98Z"/>
</svg>