<?xml version="1.0" encoding="UTF-8"?>
<svg id="Layer_1" data-name="Layer 1" xmlns="http://www.w3.org/2000/svg" viewBox="0 0 283.46 283.46">
  <defs>
    <style>
      .cls-1, .cls-2 {
        fill: none;
      }

      .cls-3 {
        fill: #f25d55;
      }

      .cls-4 {
        fill: #fff;
      }

      .cls-5 {
        fill: #d1c1c1;
      }

      .cls-6 {
        fill: #6d8cf2;
      }

      .cls-7 {
        fill: #606060;
      }

      .cls-2 {
        stroke: #010101;
        stroke-miterlimit: 1;
        stroke-width: .75px;
      }
    </style>
  </defs>
  <path class="cls-7" d="M171.36,106.12v-3.72h3.08v3.72h-3.08Z"/>
  <path class="cls-7" d="M176.73,86.94c0-.7,.02-1.31,.06-1.8,.04-.5,.11-.93,.21-1.29,.1-.37,.22-.69,.35-.99,.13-.29,.3-.59,.5-.91,.4-.63,.91-1.12,1.51-1.48,.6-.35,1.26-.53,1.96-.53s1.36,.18,1.96,.53c.6,.35,1.11,.84,1.51,1.48,.2,.32,.37,.62,.51,.91,.14,.29,.26,.62,.36,.99,.1,.36,.17,.8,.2,1.29,.03,.5,.04,1.1,.04,1.8,0,.78,0,1.44-.03,1.97-.02,.54-.08,1.01-.18,1.42-.1,.41-.26,.78-.47,1.11-.21,.33-.5,.67-.86,1.04,.36,.34,.65,.68,.86,1.02,.21,.34,.37,.74,.47,1.2s.16,1.03,.18,1.7c.02,.67,.03,1.49,.03,2.46,0,.8-.01,1.46-.04,1.99-.03,.52-.08,.98-.14,1.37s-.15,.72-.26,.98-.25,.55-.41,.84c-.34,.63-.83,1.17-1.45,1.62-.62,.45-1.39,.67-2.29,.67s-1.67-.22-2.29-.67c-.62-.45-1.11-.99-1.45-1.62-.16-.29-.3-.57-.41-.84-.11-.27-.2-.6-.26-.98-.06-.39-.11-.84-.14-1.37-.03-.52-.04-1.18-.04-1.99,0-.97,0-1.79,.03-2.46,.02-.67,.08-1.23,.18-1.7s.26-.86,.47-1.2c.21-.34,.5-.68,.86-1.02-.36-.36-.65-.71-.86-1.04s-.37-.7-.47-1.11c-.1-.41-.16-.89-.18-1.42-.02-.53-.03-1.19-.03-1.97Zm6.09-1.46c0-.51-.15-.94-.45-1.29-.3-.35-.65-.53-1.05-.53s-.75,.18-1.06,.53c-.3,.35-.45,.78-.45,1.29v3.79c0,.51,.15,.94,.45,1.29s.65,.53,1.06,.53,.75-.18,1.05-.53c.3-.35,.45-.78,.45-1.29v-3.79Zm0,10.21c0-.51-.15-.94-.45-1.29-.3-.35-.65-.53-1.05-.53s-.75,.18-1.06,.53c-.3,.35-.45,.78-.45,1.29v5.1c0,.51,.15,.94,.45,1.29s.65,.53,1.06,.53,.75-.18,1.05-.53c.3-.35,.45-.78,.45-1.29v-5.1Z"/>
  <path class="cls-7" d="M191.59,91.1c.92,0,1.56-.13,1.92-.4,.35-.27,.53-.89,.53-1.86v-3.35c0-.53-.13-.97-.41-1.31-.27-.34-.64-.51-1.1-.51-.54,0-.93,.21-1.16,.62-.23,.41-.35,.81-.35,1.2v2.12h-3.08v-2.15c0-.75,.12-1.47,.36-2.15,.24-.68,.57-1.26,1-1.75,.42-.49,.92-.88,1.48-1.17,.56-.29,1.17-.44,1.81-.44,.84,0,1.54,.2,2.1,.6,.55,.4,.97,.81,1.25,1.22,.2,.29,.38,.58,.53,.88,.15,.29,.28,.64,.38,1.06,.18,.8,.27,1.99,.27,3.57,0,.9-.01,1.63-.04,2.19-.03,.56-.11,1.02-.23,1.39-.14,.39-.34,.72-.59,.98-.25,.27-.6,.56-1.04,.88,.48,.36,.85,.71,1.1,1.02,.25,.32,.44,.68,.56,1.09,.12,.44,.19,.95,.21,1.55,.02,.6,.03,1.36,.03,2.28,0,.85-.01,1.56-.04,2.12-.03,.56-.08,1.02-.14,1.39-.06,.39-.14,.72-.24,.98s-.23,.55-.39,.84c-.38,.68-.87,1.25-1.46,1.7-.59,.45-1.37,.67-2.34,.67-.48,0-1-.1-1.54-.29s-1.04-.51-1.48-.95c-.44-.44-.81-1.01-1.1-1.71-.29-.71-.44-1.57-.44-2.59v-2.11h3.08v1.93c0,.58,.14,1.06,.41,1.44,.27,.38,.64,.56,1.1,.56s.83-.19,1.1-.56,.41-.88,.41-1.51v-3.72c0-1.02-.16-1.69-.48-2-.18-.19-.43-.32-.74-.37-.31-.05-.72-.07-1.22-.07v-3.28Z"/>
  <path class="cls-7" d="M199.16,86.94c0-.7,.02-1.31,.06-1.8,.04-.5,.11-.93,.21-1.29,.1-.37,.22-.69,.35-.99,.13-.29,.3-.59,.5-.91,.4-.63,.91-1.12,1.51-1.48,.6-.35,1.26-.53,1.96-.53s1.36,.18,1.96,.53c.6,.35,1.11,.84,1.51,1.48,.2,.32,.37,.62,.51,.91,.14,.29,.26,.62,.36,.99,.1,.36,.17,.8,.2,1.29,.03,.5,.04,1.1,.04,1.8,0,.78,0,1.44-.03,1.97-.02,.54-.08,1.01-.18,1.42-.1,.41-.26,.78-.47,1.11-.21,.33-.5,.67-.86,1.04,.36,.34,.65,.68,.86,1.02,.21,.34,.37,.74,.47,1.2s.16,1.03,.18,1.7c.02,.67,.03,1.49,.03,2.46,0,.8-.01,1.46-.04,1.99-.03,.52-.08,.98-.14,1.37s-.15,.72-.26,.98-.25,.55-.41,.84c-.34,.63-.83,1.17-1.45,1.62-.62,.45-1.39,.67-2.29,.67s-1.67-.22-2.29-.67c-.62-.45-1.11-.99-1.45-1.62-.16-.29-.3-.57-.41-.84-.11-.27-.2-.6-.26-.98-.06-.39-.11-.84-.14-1.37-.03-.52-.04-1.18-.04-1.99,0-.97,0-1.79,.03-2.46,.02-.67,.08-1.23,.18-1.7s.26-.86,.47-1.2c.21-.34,.5-.68,.86-1.02-.36-.36-.65-.71-.86-1.04s-.37-.7-.47-1.11c-.1-.41-.16-.89-.18-1.42-.02-.53-.03-1.19-.03-1.97Zm6.09-1.46c0-.51-.15-.94-.45-1.29-.3-.35-.65-.53-1.05-.53s-.75,.18-1.06,.53c-.3,.35-.45,.78-.45,1.29v3.79c0,.51,.15,.94,.45,1.29s.65,.53,1.06,.53,.75-.18,1.05-.53c.3-.35,.45-.78,.45-1.29v-3.79Zm0,10.21c0-.51-.15-.94-.45-1.29-.3-.35-.65-.53-1.05-.53s-.75,.18-1.06,.53c-.3,.35-.45,.78-.45,1.29v5.1c0,.51,.15,.94,.45,1.29s.65,.53,1.06,.53,.75-.18,1.05-.53c.3-.35,.45-.78,.45-1.29v-5.1Z"/>
  <polygon class="cls-3" points="107.09 104.53 109.05 106.32 108.43 105.15 108.79 104.68 109.8 105.06 109.3 104.18 109.61 102.66 109.11 101.83 108.38 101.51 106.81 101.51 106.71 102.59 107.09 104.53"/>
  <polygon class="cls-1" points="74.4 101.51 75.26 101.51 74.42 101.14 74.4 101.51"/>
  <polygon class="cls-1" points="113.53 101.51 112.28 101.51 113.14 101.94 113.53 101.51"/>
  <polygon class="cls-3" points="86.76 108.52 86.77 108.52 86.77 108.51 86.76 108.52"/>
  <polygon class="cls-6" points="182.29 58.19 181.74 58.22 181.71 58.67 181.93 58.8 182.68 58.61 182.29 58.18 182.29 58.19"/>
  <polygon class="cls-6" points="179.82 57.54 180.35 58.8 181.45 59 181.07 58.51 181.57 58.1 182.12 57.71 181.67 57.26 181.56 56.71 181.56 56.39 180.71 55.71 180.38 55.62 180.29 55.21 179.85 55.01 179.85 55 179.3 55.26 178.85 56.48 179.46 56.61 179.82 57.54"/>
  <polygon class="cls-3" points="72.88 123.13 74.14 123.53 74.39 124.92 74.01 125.3 74.59 126.15 75.24 126.22 77.16 127.32 78.5 128.53 79.21 128.19 79.08 125.69 80.26 124.92 80.59 126.47 81.57 125.04 81.9 126.35 82.24 128.39 83.93 127.85 84.29 128.99 82.7 129.19 81.72 129.9 81.39 131.08 81.9 131.43 84.87 137.02 86.57 136.21 85.72 138.34 88.95 137.93 90.08 137.93 90.21 136.83 91.72 137.14 91.93 140.24 92.65 140.62 94.29 137.93 94.37 135.51 95.39 137.08 95.68 138.6 98.16 138.53 96.13 140.3 94.95 142.63 93.88 144.45 94.21 146.91 96.52 146.09 97.9 144.65 99.74 142.08 100.92 141.83 101.25 139.64 101.12 138.59 102.24 138.98 105.01 137.27 105.53 135.5 105.53 133.93 103.94 133.85 103.17 133.31 99.53 134.83 98.35 134.83 97.76 133.6 95.79 133.27 95.07 132.21 93.35 133.06 94.36 131.68 94.07 130.62 92.44 130.29 92.48 129.12 91.63 127.27 92.29 126.3 91.96 125.49 90.08 125.88 90.25 124.83 91.71 124.25 92.17 118.96 92.56 115.48 91.05 112.71 89.91 112.46 88.81 109.5 87.76 108.84 86.77 108.52 86.69 109.94 85.92 110.81 85 110.95 84.34 111.94 85.06 113.66 85.19 114.89 86.06 114.89 85.52 116.27 84.87 116.6 85.47 117.78 85.39 118.7 84.79 118.25 84.41 119.24 83.61 119.89 83.67 118.79 82.62 119.57 80.38 116.74 79.6 114.51 77.96 113.38 77.16 116.43 77.96 116.87 79.85 118.97 79.72 119.7 78.95 118.97 77.56 118.92 77.96 121.36 79.07 123 78.74 123.45 78.08 122.48 77.56 122.79 76.83 121.61 75.27 118.39 74.27 118.97 74.74 121.53 73.17 121.36 72.88 123.13"/>
  <polygon class="cls-3" points="86.85 167.72 87.53 170.08 85.59 168.82 83.58 169.15 84.58 170.74 82.99 171.92 84.17 173.68 86.26 173.51 88.78 175.45 89.2 176.63 92.81 175.36 93.14 176.45 91.38 177.89 89.03 178.04 88.1 180.23 86.59 181.49 86.94 182.58 88.1 182.5 91.13 182.08 92.56 181.33 92.73 182.25 90.97 183.26 87.6 184.09 85.08 183.68 85.34 185.02 84.25 184.85 84.58 184.35 83.66 183.59 82.05 183.34 81.3 184.6 81.9 185.53 82.4 187.37 84.24 187.87 84.92 186.87 88.02 187.04 88.6 186.46 90.2 186.21 91.04 186.79 92.97 185.28 94.82 184.95 96.5 183.6 97.42 183.94 96 185.36 97.76 186.21 101.7 183.35 101.87 182.59 101.04 182.44 99.28 182.94 100.62 181.5 100.54 180.83 101.54 180.75 101.37 181.58 102.46 182.34 103.31 181.68 103.21 180.5 103.56 180.08 103.38 178.56 101.95 177.4 100.11 176.3 98.09 175.03 95.75 174.63 94.4 174.12 94.24 173.37 93.49 170.68 92.22 168.99 91.47 167.83 90.12 166.82 89.03 166.57 89.04 166.55 86.85 167.72"/>
  <polygon class="cls-3" points="103.65 188.22 104.07 188.9 104.76 188.17 104.38 187.42 104.86 187.29 105.08 186.08 104.26 185.9 103.19 187.32 103.65 188.22"/>
  <polygon class="cls-2" points="104.23 191.1 104.23 191.1 104.23 191.1 104.23 191.1"/>
  <polygon class="cls-2" points="104.26 185.9 104.26 185.9 104.26 185.9 104.26 185.9"/>
  <polygon class="cls-6" points="185.15 49.32 185.43 50.21 185.56 49.35 185.15 49.32"/>
  <polygon class="cls-6" points="184.92 44.43 184.93 44.43 184.93 44.43 184.92 44.43"/>
  <polygon class="cls-6" points="186.02 44.6 186.18 44.14 185.92 43.88 185.92 43.88 185.54 45.4 186.05 45.36 186.02 44.6"/>
  <polygon class="cls-6" points="182.71 57.23 182.48 57.48 182.52 57.73 182.9 57.81 183.26 57.84 183.19 57.58 183 57.42 183.35 57.23 182.71 57.23"/>
  <polygon class="cls-6" points="180.83 54.26 181.05 53.84 181.41 54.72 181.93 55.48 182.73 55.46 183.01 55.17 183.56 54.94 184.42 54.36 184.65 54.36 184.88 55.39 185.23 56.1 185.55 56 185.52 56.39 185.23 56.61 185.26 56.91 185.01 56.81 184.59 57.09 185.01 57.28 184.75 57.61 184.18 57.51 183.92 57.73 184.46 57.92 184.02 58.11 184.44 58.66 184.34 59.4 184.69 59.89 185.2 59.82 185.31 59.33 185.05 58.98 185.27 58.43 185.72 57.8 185.5 57.35 185.17 57.21 185.94 57.09 185.72 56.57 185.78 56.18 185.78 55.9 186.45 56.43 186.94 55.64 187.35 55.51 187.87 55.31 187.97 54.73 188 54.16 186.75 54.67 186.97 54.99 187.04 55.24 186.85 55.38 186.46 55.31 186.37 54.76 186.34 54.35 186.98 54.27 186.85 53.6 186.37 53.74 185.76 54.31 185.34 54.12 185.64 53.22 185.21 53.09 184.79 53.67 184.35 53.15 183.68 53.45 183.01 53.19 183.23 52.87 183.51 52.83 183.54 52.26 184.25 52.42 184.35 51.59 183.64 50.97 183.87 50.75 183.38 50.34 183.13 50.39 181.9 49.59 181.9 49.61 180.23 50.09 179.94 50.83 179.94 51.77 179.87 52.11 179.75 53.11 179.67 53.73 180.34 54.5 180.83 54.26"/>
  <polygon class="cls-6" points="184.02 50.31 184.83 50.09 184.72 49.28 185.02 49.06 184.83 48.87 184.44 48.96 184.02 49.02 183.71 48.61 183.45 48.51 183.45 48.51 182.9 48.99 183.26 49.64 184.02 50.31"/>
  <polygon class="cls-6" points="184.02 46.52 184.7 47.07 185.01 46.69 184.85 46.3 185.56 46.65 185.85 47.2 185.82 47.84 186.46 47.36 185.98 46.75 185.89 46.33 185.24 45.91 184.66 45.59 184.94 45.4 185.2 44.76 184.93 44.43 184.73 44.88 184.38 45.32 184.02 45.43 183.54 45.23 183.98 45.84 184.02 46.52"/>
  <polygon class="cls-2" points="81.1 185.78 81.11 185.78 81.11 185.78 81.1 185.78"/>
  <polygon class="cls-3" points="80.69 143.55 78.95 143.13 77.16 143.61 77.13 144.56 77.96 144.76 79.17 144.24 80.46 145.14 81.09 144.47 80.69 143.55"/>
  <polygon class="cls-3" points="78.89 184.6 79.89 185.27 80.98 183.26 79.64 183.43 78.89 184.6"/>
  <polygon class="cls-3" points="81.56 186.12 81.11 185.78 80.65 186.66 81.15 186.94 81.56 186.12"/>
  <polygon class="cls-3" points="88.17 156.77 87.57 155.8 87.56 155.8 86.51 156.05 86.1 156.05 86.39 156.86 87.28 157.59 88.17 156.77"/>
  <polygon class="cls-3" points="84 144.75 81.9 146.39 81.98 147.79 83.74 149.22 84.92 151.07 86.51 151.18 87.46 149.67 87.96 147.42 87.52 146.06 85.52 144.43 85.52 144.42 84 144.75"/>
  <polygon class="cls-3" points="84.68 175.22 83.86 175.16 83.7 176.12 85.79 176.88 87.56 177.03 88.41 177.11 88.44 176.23 87.45 176.04 86.3 175.06 86.3 175.07 85.59 175.35 84.68 175.22"/>
  <polygon class="cls-3" points="104.51 189.46 104.28 189.1 104.01 189.48 104.32 189.9 104.51 189.46"/>
  <polygon class="cls-3" points="99.87 194.12 100.68 194.59 102 194.37 102.02 192.99 101.46 192.58 101.46 192.58 100.5 193.17 99.87 194.12"/>
  <polygon class="cls-3" points="85.63 196.86 84.44 197.24 83.87 198.79 82.93 200.26 83.49 201.44 83.81 202.44 84.81 201.56 85.31 201.31 86.2 199.54 86.51 198.62 87.95 195.97 87.33 195.35 86.07 196.4 85.63 196.86"/>
  <polygon class="cls-3" points="104.14 192.79 104.74 192.32 104.78 191.49 104.23 191.1 103.98 192.29 104.14 192.79"/>
  <polygon class="cls-3" points="89.17 139.71 89.65 139.43 89.92 138.97 89.54 138.59 88.74 138.54 88.74 138.55 87.45 139.3 88.74 140.52 89.17 139.71"/>
  <polygon class="cls-3" points="101.51 191.15 101.51 191.16 100.93 191.85 101.43 192.24 101.87 192.32 101.51 191.15"/>
  <polygon class="cls-2" points="87.32 195.34 87.33 195.35 87.33 195.34 87.32 195.34"/>
  <polygon class="cls-3" points="103.02 189.43 102.6 191.61 103.4 193.11 103.9 190.09 103.6 189.68 103.51 188.93 103.51 188.92 103.02 189.43"/>
  <polygon class="cls-6" points="205.71 11.48 205.71 11.48 205.73 11.46 205.71 11.48"/>
  <polygon class="cls-6" points="207.08 12.93 206.96 13.31 207.16 13.5 207.6 13.42 208.01 12.64 207.87 12.47 207.35 13.26 207.08 12.93"/>
  <polygon class="cls-6" points="207.07 19.07 207.07 19.56 207.2 20.54 207.76 20.98 208.07 19.39 207.59 18.86 207.59 18.86 207.07 19.07"/>
  <polygon class="cls-6" points="204.1 22.53 204.61 21.83 204.58 22.41 205.05 20.82 204.9 20.43 204.9 20.44 204.71 20.75 204.4 20.88 204.59 21.12 204.24 21.68 204.1 22.53"/>
  <polygon class="cls-6" points="206.79 11.65 207.13 11.67 207.02 11.41 207.04 10.98 207.68 11.44 208.09 11.46 208.11 10.5 207.91 10.01 208.28 9.97 208.44 9.34 208.06 9 207.86 8.72 208.16 8.31 208.05 7.79 208.55 7.85 208.49 6.74 208.36 5.8 207.56 5.51 207.55 5.5 206.88 5.71 206.8 8.18 206.6 8.28 206.52 7.37 206.09 8.06 206.07 9.41 206.37 10.75 206.79 11.65"/>
  <polygon class="cls-6" points="206.18 22.39 206.14 22.61 206.52 22.66 206.18 22.39 206.18 22.39"/>
  <polygon class="cls-6" points="205.14 12.63 204.72 12.73 204.38 13.44 204.1 13.82 203.65 13.82 203.7 14.06 203.87 14.2 204.2 13.95 204.39 14.2 204.19 14.49 204.91 14.49 205.22 14.99 204.51 14.84 204.49 15.3 204.22 15.14 204.04 15.78 204.6 16.11 204.07 16.56 203.81 16.04 203.51 15.7 202.99 15.75 203.18 16.04 202.76 16.09 202.36 15.75 201.98 16.05 201.83 16.43 201.2 16.09 200.3 16.13 200 16.61 200.22 17.44 200.63 18.07 201.16 18.34 201.71 17.92 201.79 18.59 202.2 18 202.54 17.88 202.5 18.33 202.06 18.59 201.98 19.03 202.31 19.03 202.47 19.45 203.03 19.93 203.21 18.7 203.48 19.37 203.7 19.15 203.7 18.29 203.85 18.51 204.18 18.29 204.52 18.36 204.96 17.54 204.96 20.12 205.38 20.98 204.77 23.18 204.44 23.74 204.1 24.97 203.88 25.76 204.37 26.17 204.71 26.17 205.23 27.11 205.3 26.36 205.11 25.5 205.45 24.49 205.27 23.71 206.09 24 205.94 23.29 205.83 22.62 206.2 22.1 205.95 21.13 206.28 20.39 206.88 19.79 206.88 18.85 206.02 19.12 206.51 17.96 206.18 17.85 206.06 17.25 206.06 16.95 206.51 17.5 206.77 17.36 207.18 16.99 206.73 16.8 206.88 16.31 207.36 16.12 207.48 15.56 206.77 15.48 206.54 15.56 206.32 14.89 206.96 15 207.63 14.67 207.58 13.96 206.91 14.26 206.91 13.74 206.54 13.85 206.46 13.51 205.64 13.29 206.2 12.95 206.31 12.43 205.97 11.83 205.71 11.48 205.35 11.81 205.05 11.61 204.91 12.02 205.14 12.63"/>
  <polygon class="cls-6" points="210.35 9.14 210.55 9.01 210.83 9.45 211.3 8.62 211.11 8.29 210.88 8.45 210.8 8.68 210.55 8.09 210.07 7.98 210.07 7.97 209.71 8.22 209.61 8 209.15 8 209.06 8.33 209.17 8.68 209.79 9.72 210.21 9.49 209.73 8.97 210.19 8.85 210.35 9.14"/>
  <polygon class="cls-6" points="208.36 20.21 208.67 20.04 208.59 19.7 208.17 19.85 208.36 20.21"/>
  <polygon class="cls-6" points="209.61 14.36 209.72 14.04 209.71 14.04 209.43 14.11 208.99 14.15 208.33 15.01 208.24 15.4 208.84 15.4 209.61 14.36"/>
  <polygon class="cls-6" points="203.56 15.46 203.76 15.51 203.97 15.22 203.66 15.17 203.66 15.17 203.56 15.46"/>
  <polygon class="cls-6" points="208.79 6.63 209.13 6.99 209.52 6.55 210.12 6.86 210.43 6.68 210.04 6.31 210.32 5.52 210.68 5.05 210.1 4.91 210.75 4.85 210.38 4.12 210.88 4.3 210.97 3.83 210.83 3.58 211.18 3.37 210.74 2.88 210.46 3 210.4 2.75 210.02 3.66 209.76 3.66 209.85 2.97 209.76 2.71 209.57 2.89 209.63 3.15 209.35 3.49 209 3.56 209.06 4.57 208.83 5.35 209.01 5.79 208.66 5.86 208.79 6.63"/>
  <polygon class="cls-6" points="209.75 2.69 209.76 2.71 209.76 2.7 209.75 2.69"/>
  <polygon class="cls-6" points="208.27 8.77 208.46 8.82 208.85 8.47 208.48 8.28 208.27 8.77"/>
  <polygon class="cls-6" points="202.79 15.65 203.29 15.52 202.74 15.17 202.79 15.65"/>
  <polygon class="cls-6" points="189.01 49.5 189.01 49.51 189.01 49.5 189.01 49.5"/>
  <polygon class="cls-6" points="188.17 48.35 188.39 48.84 189.13 47.74 189.42 47.77 189.68 47.61 189.71 47.97 190.28 47.64 190.54 47.86 190.79 47.16 191.24 46.71 191.88 46.77 191.69 46.13 191.75 45.76 191.35 45.88 191.25 46.33 190.35 46.72 189.77 47.03 189.8 46.52 189.97 46.5 190.28 46.01 190.06 45.98 189.61 46.33 189.2 46.2 189.48 46.75 189.35 47.03 188.17 48.35"/>
  <polygon class="cls-6" points="188.23 51.47 188.72 51.6 188.75 51.12 189.13 51.02 189.35 51.54 189.58 51.54 189.83 51.34 190.16 51.54 190.35 51.12 190.02 50.79 190.16 50.4 189.54 50.6 189.39 50.21 189.64 49.96 189.09 49.83 189.01 49.51 188.49 49.61 189.07 50.5 188.58 50.76 188.23 51.47"/>
  <polygon class="cls-6" points="191.75 45.75 191.75 45.76 191.77 45.75 191.75 45.75"/>
  <polygon class="cls-6" points="186.95 49.54 187.08 49.95 187.72 49.76 187.43 48.67 187.68 48.02 187.43 47.35 187.43 47.36 187.12 47.61 187.14 48.7 186.89 48.87 186.61 48.68 186.64 49.21 186.95 49.54"/>
  <polygon class="cls-6" points="186.64 51.24 186.63 51.25 186.27 51.6 186.16 51.92 185.6 51.47 185.35 52.63 186.47 52.85 186.72 52.69 186.69 52.08 186.99 51.31 186.64 51.24"/>
  <polygon class="cls-6" points="203.27 14.11 202.74 14.52 203.24 15.1 203.76 14.94 203.71 14.36 203.27 14.11"/>
  <polygon class="cls-6" points="204.61 8.14 204.61 8.14 204.61 8.14 204.61 8.14"/>
  <polygon class="cls-6" points="204.63 11.35 204.73 11.7 204.95 11.46 204.63 11.35 204.63 11.35"/>
  <polygon class="cls-6" points="185.15 49.32 185.15 49.32 185.15 49.32 185.15 49.32"/>
  <polygon class="cls-6" points="200.39 15.62 200.44 15.19 199.55 15.12 199.55 15.12 199.76 15.67 200.39 15.62"/>
  <polygon class="cls-6" points="201.65 11.82 202.2 11.77 202.54 12.2 202.92 11.6 203.09 12.57 203.42 13.55 203.93 13.67 204.1 13.17 204.56 12.41 204.39 10.72 204.14 10.59 204.14 10.21 204.73 10 204.44 9.28 204.77 8.95 204.61 8.14 204.28 8.19 204.31 8.73 203.9 8.66 203.34 8.49 203.21 8.82 203.18 9.45 202.59 10.05 202.59 10.47 202.26 10.43 202.13 9.92 201.75 10.26 201.4 11.1 201.15 11.1 200.93 11.57 200.98 11.9 201.65 11.82"/>
  <polygon class="cls-6" points="192.06 44.76 191.99 44.4 192.32 44.17 192.25 43.87 192.25 43.86 191.65 44.02 191.45 44.56 191.81 44.92 192.06 44.76"/>
  <polygon class="cls-3" points="57.54 140.59 57.55 140.59 57.54 140.59 57.54 140.59"/>
  <polygon class="cls-3" points="62.45 118.51 62.22 118.03 61.37 118 61.5 118.54 61.64 118.96 61.5 119.67 61.92 119.83 62.5 119.26 62.12 118.84 62.45 118.51"/>
  <polygon class="cls-3" points="58.67 107.19 58.67 107.21 58.68 107.2 58.67 107.19"/>
  <polygon class="cls-3" points="61.21 123.22 61.22 123.22 61.21 123.21 61.21 123.22"/>
  <polygon class="cls-3" points="70.48 171.09 70.48 171.09 70.49 171.09 70.48 171.09"/>
  <polygon class="cls-3" points="63.51 115.38 62.6 115.18 58.73 115.13 62 114.67 63.38 115 63.96 114.72 64.44 113.28 63.05 113.36 62.98 112.56 62.98 111.98 62 111.65 62.14 111 61.62 110.39 62.14 109.88 62.85 109.24 63.18 108.41 62.26 107.39 61.41 107.77 60.88 108.5 60.03 108.83 60.63 109.49 60.03 109.93 59.18 110.13 58.93 109.68 58.14 109.41 58.19 108.83 58.59 107.9 58.67 107.21 57.81 107.78 57.81 108.38 57.16 108.71 56.84 109.42 56.43 110.47 55.78 110.15 54.66 108.84 53.15 108.84 53.36 109.09 52.88 110.35 52.22 111.58 51.44 111.66 52.43 112.9 53.16 113.71 54.54 113.88 56.04 116.53 55.98 118.01 56.68 117.88 57.3 117.03 57.69 117.96 58.48 118.61 59.25 118.94 60.76 119.51 61.3 119.26 60.45 117.95 60.24 117.3 61.3 117.43 62.85 117.82 63.51 116.31 63.51 115.38"/>
  <polygon class="cls-3" points="59.86 124.07 61.07 124.04 61.21 123.22 60.32 123.39 59.86 124.07"/>
  <polygon class="cls-3" points="69.48 171.67 67.89 171.75 66.3 172.34 64.03 172 62.93 173.1 63.11 176.12 63.86 175.69 64.86 176.78 65.79 176.63 66.45 174.44 68.31 174.77 69.14 172.67 70.14 172.92 71.23 171.75 70.48 171.09 69.48 171.67"/>
  <polygon class="cls-3" points="76.37 169.41 77.37 167.65 78.03 167.82 79.8 165.21 80.14 164.29 78.97 164.04 78.97 164.04 76.96 165.45 75.87 166.38 74.61 167.64 72.92 168.73 71.08 170.75 72.34 170.75 73.51 169.91 74.68 170.24 76.37 169.41"/>
  <polygon class="cls-3" points="56.18 142.17 56.68 142.67 57.1 142.17 57.54 140.59 56.21 140.69 56.18 142.17"/>
  <polygon class="cls-3" points="54.45 144.52 55.22 145.18 55.38 144.77 54.78 144.39 54.45 144.52"/>
  <polygon class="cls-3" points="55.55 122.58 55.55 122.58 55.55 122.56 55.55 122.58"/>
  <polygon class="cls-3" points="59.91 129.07 59.69 127.89 58.95 127.53 59.69 127.01 58.74 126.45 59.53 126.27 57.85 125.1 58.73 124.94 57.39 124.26 58.43 124.01 57.54 123.74 55.55 122.58 55.51 123.19 53.95 123.92 54.7 126.12 54.67 128.64 53.84 129.27 53.49 131.3 52.53 131.96 53.16 132.31 53.57 138.02 53.87 138.25 53.78 138.96 54.41 139.72 55.98 139.76 56.61 139.43 58.63 140.35 58.78 139.81 59.26 139.14 58.88 138.65 58.33 138.9 58.37 138.23 57.49 137.71 55.91 137.93 55.55 137.58 55.59 136.96 56.74 136.83 57.74 137.27 58.57 136.51 58.44 135.57 57.97 134.99 58.18 134.23 57.92 133.86 57.31 133.65 57.22 133.11 58.06 133.22 58.85 131.96 58.72 131.35 59.53 130.33 60.25 130.28 60.66 129.42 60.56 129.03 59.91 129.07"/>
  <polygon class="cls-3" points="57.12 118.16 57.12 118.16 57.14 118.16 57.12 118.16"/>
  <polygon class="cls-3" points="55.8 119.12 54.9 119.26 54.79 119.82 54.83 120.5 55.14 121.88 57.91 123.52 58.81 123.64 59.49 123.41 59.89 123.14 60.81 122.81 60.95 122.23 60.56 121.71 59.57 121.48 59.68 122.03 58.64 121.48 59.06 120.75 59.57 120.88 60.4 120.96 60.7 120.6 61.11 120.35 59.94 119.54 59.21 119.32 58.33 119.04 57.12 118.16 55.91 118.44 55.8 119.12"/>
  <polygon class="cls-2" points="124.5 216.2 124.5 216.2 124.5 216.2 124.5 216.2"/>
  <polygon class="cls-3" points="123.42 218.81 124.38 218.23 124.55 218.71 125.16 217.66 125.05 216.21 124.5 216.2 123.42 218.04 123.42 218.81"/>
  <polygon class="cls-3" points="88.97 217.02 89.22 215.75 88.15 214.67 87.77 212.1 87.33 206.23 87.33 206.22 85.07 206.6 82.36 209.12 81.04 211.76 80.47 211.51 80.91 208.94 79.91 209.07 78.84 210.13 77.45 210.08 76.89 210.89 76.76 212.77 75.94 213.66 76.44 214.29 76.5 215.75 75.18 216.63 75.31 217.76 74.37 218.69 75.69 220.08 77.58 218.52 79.78 215.12 80.09 214.11 82.92 214.36 82.73 215.17 80.53 216.68 80.22 217.77 81.1 218.02 82.36 221.09 81.1 221.92 79.71 224.61 81.67 225.5 82.99 224.74 83.74 222.98 84.38 222.93 85.2 223.11 87.52 222.35 88.16 222.56 88.91 221.3 90.17 220.29 89.79 218.28 88.97 217.02"/>
  <polygon class="cls-3" points="53.84 141.9 53.27 142.83 53.84 142.91 54.3 142.45 53.84 141.89 53.84 141.9"/>
  <polygon class="cls-3" points="109.42 173.23 108 175.45 106.11 176.3 105.33 178.34 108.13 176.55 110.65 173.02 109.42 173.23"/>
  <polygon class="cls-3" points="107.34 181.16 106.24 181.27 105.58 182.79 106.34 183.3 108.41 180.64 108.13 180.45 107.34 181.16"/>
  <polygon class="cls-6" points="115.28 92.6 115.28 92.6 114.93 93.61 115.59 93.94 116.09 93.64 115.48 93.39 115.68 92.85 115.28 92.6"/>
  <polygon class="cls-6" points="106.87 100.91 104.6 100.5 103.01 101.08 102.98 101.51 106.81 101.51 106.87 100.91"/>
  <polygon class="cls-6" points="111.08 100.91 110.6 98.21 108.93 97.76 107.76 99.64 107.97 101.33 108.38 101.51 112.28 101.51 111.08 100.91"/>
  <polygon class="cls-1" points="150.82 102.9 148.24 103.23 146.6 102.27 148 103.77 150.52 103.58 151.64 104.79 153.21 104.54 153.68 104.69 153.95 103.85 150.82 102.9"/>
  <path class="cls-1" d="M160.25,60.57c-.82,0-1.53,.35-2.14,1.04-.45,.51-.74,1.15-.86,1.91l.19,.67,1.26-.38,1.76,.54,2.81-.33c-.06-.98-.34-1.79-.89-2.41-.61-.69-1.33-1.04-2.14-1.04Z"/>
  <path class="cls-5" d="M152.35,65.4l.65-1,1.69,.17,1.51-1.61,.74-.55,.32,1.11c.12-.76,.4-1.4,.86-1.91,.61-.69,1.32-1.04,2.14-1.04s1.53,.35,2.14,1.04c.55,.62,.84,1.43,.89,2.41h.02s2.08-1.14,2.08-1.14l1.83-1.34,2.05,.03c-.12-.65-.26-1.24-.45-1.73-.2-.54-.45-1.11-.73-1.7-.82-1.58-1.9-2.82-3.24-3.73-1.35-.91-2.87-1.37-4.59-1.37s-3.25,.44-4.62,1.33c-1.37,.89-2.46,2.14-3.27,3.77-.29,.59-.52,1.16-.7,1.7-.18,.54-.32,1.18-.4,1.92-.12,.79-.2,1.74-.24,2.85,0,.21-.01,.45-.02,.69l.22-.27,1.13,.38Z"/>
  <polygon class="cls-5" points="161.89 92.96 160.99 95.4 156.86 97.19 156.18 99.28 156.54 100.76 156.04 101.39 156.03 101.51 155.73 103.86 154.15 103.91 153.95 103.85 153.68 104.69 155.46 105.28 157.3 104.28 159.07 104.91 160.37 105.42 160.42 105.38 164.69 91.58 164.06 92.07 161.89 92.96"/>
  <path class="cls-1" d="M183.78,181.88h-.34l-.33,.33-.93,.75-.33,.93-1,.25-.59,.33c1.2-.1,2.07-.35,2.61-.76,.44-.34,.75-.95,.91-1.83Z"/>
  <path class="cls-1" d="M178.65,206.74c.55,.76,1.29,1.15,2.23,1.15s1.68-.38,2.23-1.15c.55-.76,.83-1.79,.83-3.07v-7.06l-.16,.19-.27,.16-.61,.22-2.14,2.19-.3,.31-.79,.17-.82,3.04-1.03-.07v1.01c0,1.18,.27,2.16,.83,2.92Z"/>
  <path class="cls-1" d="M192.86,195.28c0-.17,.01-.32,.02-.48l-1.85,.65-.89,.89c.02,1,.03,2.15,.03,3.48,0,1.21-.02,2.27-.05,3.19l2.72,.14c-.03-.84-.04-1.79-.04-2.89,0-1.97,.02-3.63,.06-4.99Z"/>
  <path class="cls-1" d="M201.26,207.27l.48,.58c.12,.02,.23,.04,.36,.04,.82,0,1.53-.36,2.14-1.07,.61-.71,.92-1.59,.92-2.62v-10.35c0-1.04-.31-1.91-.92-2.62-.61-.71-1.33-1.07-2.14-1.07s-1.53,.36-2.14,1.07c-.61,.71-.92,1.59-.92,2.62v10.35c0,1.01,.3,1.87,.89,2.58l.73,.5h.6Z"/>
  <path class="cls-1" d="M190.05,181.61l2.2,.2-1.26,1.07-1.13,2.71,.09,.69,.42,1.26,.87,.63,2.69,.41,.28,.42h.23c.39-.56,.88-1.11,1.47-1.67-.73-.74-1.31-1.44-1.74-2.11-.43-.67-.74-1.42-.95-2.25-.19-.78-.3-1.69-.35-2.69l-.24,.7-1.83-.93-.69,.18c-.01,.34-.03,.67-.04,.96,0,.14-.02,.27-.03,.41Z"/>
  <path class="cls-1" d="M171.46,205.3l-.8-.39-.33,.13,.21,.17-.41-.13-.21-.55-1.31-.25-.5-.42-.79,.09-.52-.04-.46-.04-.47-.28h-.41l-.68-.09-1.75-.08-1.57-1.64-.69-.38-1.26-1.31,1,1.69,1.09,.68,.5,.79,.33,.56,.16,.06,.42,.14,.68-.02,1,.31,1.09,.66,2.47,.85,2.48,.69,.28,.04,.38-.17-.06,.25,.41,.09c-.06-.4-.1-.81-.13-1.24l-.17-.16Z"/>
  <path class="cls-1" d="M183.88,195.71l.04,.02s0,0,0-.01h-.04Z"/>
  <path class="cls-1" d="M199.96,183.45c.61,.71,1.32,1.07,2.14,1.07s1.53-.36,2.14-1.07c.61-.71,.92-1.59,.92-2.62v-7.69c0-1.04-.31-1.91-.92-2.62-.61-.71-1.33-1.07-2.14-1.07s-1.53,.36-2.14,1.07c-.14,.16-.26,.33-.36,.51l.21,.86,.58,.11,.06,.39-1.15,1.56-.11,.63-.14,.08v6.17c0,1.04,.31,1.91,.92,2.62Z"/>
  <polygon class="cls-1" points="177.5 186.03 176.73 185.98 175.21 186.56 175.26 186.81 174.77 187.06 176.64 187.22 177.54 186.76 178.98 186.03 178.98 185.19 177.5 186.03"/>
  <path class="cls-5" d="M183.31,183.5l1.51-.25,2.11-1.65,1.18-.04h1.37l.57,.05c.01-.14,.02-.27,.03-.41,.02-.3,.03-.62,.04-.96l-.65,.17-.96,.63-1.38-.3-1.38,.42h-.03l-.42,.22-.42,.21-1,.3h-.08c-.17,.88-.47,1.49-.91,1.83-.54,.41-1.41,.66-2.61,.76l-1.27,.72v.84l3.58-1.83,.75-.69Z"/>
  <path class="cls-5" d="M190.14,196.34l-.07,.07-.17-.36-.63,.33-.93-.21,.09-.33h-.47l.22-.27-.55-.5-1.56-.38-.88,.42-.75,.71-.51-.1s0,0,0,.01l.51,.26-.5,.61v7.06c0,1.28-.28,2.3-.83,3.07-.55,.76-1.29,1.15-2.23,1.15s-1.68-.38-2.23-1.15c-.55-.76-.83-1.74-.83-2.92v-1.01l-.3-.02-.6,.55-.46-.39-.52,.09-.5,.13,.02,.33-.35-.16-.87,1.06-.52-.31-.55,.73-.46,.03-.58,.02,.08,.13-.11,.92-.48-.45c.03,.43,.07,.84,.13,1.24l.37,.08,1.17-.63,1.15,.08,.41,.06,.5,.5,.6,.33,.28,.13,.13,.04,.75-.3,.27,.41v-.03l.63,.03,.5-.61,.99,.96,.14,.16,.88,.83,1.19,.56,.85-.09,.09-.21h1.13l1.24-1.21,1.56-.14,.16-.17,.06-.58,.11-.61,.17-.69,.33-.46,.88-.74,.85-.17,.79-1.21h.16c.03-.91,.05-1.97,.05-3.18,0-1.33-.01-2.49-.03-3.48Z"/>
  <path class="cls-5" d="M203.67,163.99h-.75l-.73,1.04-.92,2.72-.08,.09,.58,.08-.35,1.1-.61,.63-.44-.04-.87,1.09,.08,.32c.11-.18,.23-.35,.36-.51,.61-.71,1.32-1.07,2.14-1.07s1.53,.36,2.14,1.07c.61,.71,.92,1.59,.92,2.62v7.69c0,1.04-.31,1.91-.92,2.62-.61,.71-1.33,1.07-2.14,1.07s-1.53-.36-2.14-1.07c-.61-.71-.92-1.59-.92-2.62v-6.17l-.36,.21v.5l-2.08,.92-.96,1.27-1.54,1.17-.04-.04-.83,.6-.34,1.02c.05,1,.16,1.9,.35,2.69,.2,.84,.52,1.59,.95,2.25,.43,.67,1.01,1.37,1.74,2.11-.59,.56-1.08,1.11-1.47,1.67h.37l.93,1.43,1.37,.75-.54,.87-.83,.33-.52,.8-2.08,1.52-.26,.09c0,.16-.02,.31-.02,.48-.04,1.36-.06,3.02-.06,4.99,0,1.09,.01,2.05,.04,2.89l2.04,.1,1.02,.66,.19,.8,.98,.54-.28,.39,.25,.5-.27-.39-.13,.55-.49-.13,.41,.5,.58-.08,.14-.73,.69,.85,.31-.46,.75-.09,.16,.09,.73,.49c-.59-.71-.89-1.56-.89-2.58v-10.35c0-1.04,.31-1.91,.92-2.62,.61-.71,1.32-1.07,2.14-1.07s1.53,.36,2.14,1.07c.61,.71,.92,1.59,.92,2.62v10.35c0,1.04-.31,1.91-.92,2.62-.61,.72-1.33,1.07-2.14,1.07-.12,0-.24-.02-.36-.04l.32,.38,.5-.08,.31,.85,.82,.68,1.12,.79,2.19,.35,1.1-.5,1.34,.85c.08-.13,.16-.25,.24-.38,.33-.59,.6-1.16,.83-1.7,.22-.54,.4-1.21,.52-2,.12-.79,.21-1.71,.28-2.77,.06-1.06,.09-2.4,.09-4.03,0-1.97-.02-3.63-.06-4.99-.04-1.36-.16-2.5-.37-3.44-.21-.94-.52-1.75-.95-2.44-.43-.69-1.01-1.38-1.74-2.07,.73-.74,1.32-1.44,1.74-2.11,.43-.67,.74-1.42,.95-2.25,.2-.84,.33-1.8,.37-2.88,.04-1.08,.06-2.42,.06-3.99,0-1.43-.03-2.65-.09-3.66-.06-1.01-.19-1.88-.4-2.62-.2-.74-.45-1.41-.73-2-.29-.59-.63-1.21-1.04-1.85-.82-1.28-1.83-2.28-3.06-2.99-.25-.15-.51-.27-.77-.39l-1.09,.69-.54,.73Z"/>
  <rect class="cls-7" x="213.21" y="211.27" width="3.08" height="3.72"/>
  <polygon class="cls-7" points="218.57 195.51 221.29 195.51 221.29 192.52 224.67 192.52 219.27 214.99 222.52 214.99 227.74 192.74 227.74 189.02 218.57 189.02 218.57 195.51"/>
  <polygon class="cls-7" points="238.24 200.22 235.16 200.22 235.16 207.62 232.11 207.62 236.73 189.02 233.47 189.02 229.04 207.62 229.04 211.12 235.16 211.12 235.16 214.99 238.24 214.99 238.24 211.12 239.71 211.12 239.71 207.62 238.24 207.62 238.24 200.22"/>
  <path class="cls-7" d="M249.94,203.68c-.12-.41-.31-.78-.56-1.09-.25-.32-.62-.66-1.1-1.02,.44-.32,.79-.61,1.04-.88,.25-.27,.45-.59,.59-.98,.12-.36,.2-.83,.23-1.39,.03-.56,.04-1.29,.04-2.19,0-1.58-.09-2.77-.27-3.57-.1-.41-.23-.77-.38-1.06-.15-.29-.33-.58-.53-.88-.28-.41-.7-.82-1.25-1.22s-1.25-.6-2.1-.6c-.64,0-1.25,.15-1.81,.44-.56,.29-1.06,.68-1.48,1.17-.42,.49-.75,1.07-1,1.75s-.36,1.4-.36,2.15v2.15h3.08v-2.12c0-.39,.12-.79,.35-1.2,.23-.41,.62-.62,1.16-.62,.46,0,.83,.17,1.1,.51,.27,.34,.41,.78,.41,1.31v3.36c0,.97-.18,1.59-.53,1.86s-.99,.4-1.92,.4v3.28c.5,0,.91,.02,1.22,.07,.31,.05,.56,.17,.74,.37,.32,.32,.48,.98,.48,2v3.72c0,.63-.13,1.14-.41,1.51s-.64,.56-1.1,.56-.83-.19-1.1-.56c-.27-.38-.41-.86-.41-1.44v-1.93h-3.08v2.11c0,1.02,.15,1.88,.44,2.59,.29,.71,.66,1.28,1.1,1.71,.44,.44,.93,.75,1.48,.95s1.06,.29,1.54,.29c.96,0,1.74-.22,2.34-.67,.59-.45,1.08-1.01,1.46-1.7,.16-.29,.29-.57,.39-.84s.18-.6,.24-.98c.06-.36,.11-.83,.14-1.39,.03-.56,.04-1.26,.04-2.12,0-.92,0-1.68-.03-2.28-.02-.6-.09-1.11-.21-1.55Z"/>
  <path class="cls-3" d="M219.27,130.08l-.21-.58,.47-.88,.3,.36,.69-.96-.13-.42,1.26-1.76,.04-.42-.61-.5,.38-.44-.25-.52,.63-.3-.04,.52,.16-.52-.92-.58-.21-2.14-.65-.63,.04-2.47-1.86-1.43-.11,.22-.88-2.22-.65-.31-.33,.31-1.21-.31-.22-.99-1.19,.38-.42-.33-1.81-.19-2.14,1.64-.63-.46h-1.54l-.98-.93-.88,.55,.04,.47-.6,.42-.49-.35-1.02,.42-.92-.33-.58,.28-1.48-.22-.68,1.02-.03-.9h-.93l-.63-.69-.28,.28-1.61-.16-.85-.56-.49,.39-.88-.55-.77,.6-.5-.68-.61,.08-.47-.42-.38,.17-.61,.22-.55-.31-.04-.44-.85,.03-1.34,.42-.3,.58-2.58,1.23-2.39-.69-.19,.22,.02-.28-1.98-.65-2.93-1.59,.23,.47-.5-.56,.13-.38-.71,.19-1.17-.25-2.85,.66-.6,.42-1.17-.04,.25,.46-.25,.93-.94,.79-2.83,.02,1.12,.92,.14,.58-.27,.3-.93-.42-.08-.36,.14-.58-.69-.44-2.13,.39-.22,.16,.96-.21-.38,.54-1.19,.6,.63-.5-.35-.03-.88,.75-1.06,.36-.92,.88,1.46-.96-.63,.83-2.06,1.06-1.87,.16-2.15-1,1.46,.85-.49,.13-1.18-.88-.16,.46-1.23,.08-.55,.42,.85,.35,.17,.93-1.86,1.32-.35,1.06-1.04-.17-.08,.94-.88,.87-.42,.04-.85-.71-.46,.03-1.54,.73-1.23-.22-1.34,.25-1.06-1,1.15,.08,1.32,.09,2.79-.22,1.29-1.97,.17-.46,.42-1.1,1.04-.61,1.46,.25-.63-.9,.35-.96,3.05-3.26,.02-.25-1.13-.25-1.43,.96-1.56-.21-.55-.52-2.02,.3h-.28l-.09,.13-.28,.16-.54,.5-.73,.55-.21,.27-1.02,.71-1.29,.96-.75,.73,2.06-3.02,1.62-.6,.13-.68,2.11-.87,1.35,.21,1.75-1.46,1.21-.04,.94,1.38,.94,.21,1-1.21,1.57-2.65,3.59-4.38,.82-1.71-1.38,.38-.38,1.18-.98,.72-.23,.74h-6.97l.46-1.43-.47-.15-1.57,.25-1.12-1.21-2.52,.19-1.4-1.5,1.64,.96,2.58-.33,3.13,.94,.75-2.34h-41.17l-.39,.43-.86-.43h-3.9l.73,.32,.5,.83-.31,1.51,.5,.88-1-.38-.36,.47,.61,1.17-1.95-1.79-.38-1.94,.1-1.08h-3.83l-.42,5.56,1.64,1.09,1.87,.17,.08,.88,.19,1.18-1.56-.93-1.52,.5-1.19,3.07,1.95,1.06,.69,2.14,1.24,.56,.39,1.4-2.15,.36-1.12-1.79-1.57-.35-1.26,5.76,.31,1.73,1.45,.08-.5,2.47-.31,1.56,.88,1.09,1.95-.38,3.49-2.06,.47,.6-1.26,.83,1.51,.88,2.55-1.84,1.79-1.51,.06,1.09-2.77,2.52-1.51,.13-2.21,.68-1.51,.71-.75,1.76,1.26,.5,1.06-.22,1.21,.6,1.95-.21,1.07-.63,.44-.17-.38,1.26,3.15,2.61-1.26,.99-2.65-3.35-1.64,.5-1.64,.42-.69,1.21,.94,.63-1.51,1.56-.75,1.26,.82,1.21,1.64-.04,1.64,1.9,1.94,.74-.8,.85-1.62-.71-2.23-1.86-2.19,.5-2.46,2.52,1.71,2.14,1.06-.25,1,.55-.65,.49,.46,1.4,1.57,.13,2.88-.65,.3,.73-3.81,1-2.21-1.13-.69-1.59-2.94,.42-.46,2.22-1.83,2.22,1.26,.8-.31,.58-.88-.3-.88,.55-.04,.75,.99,.25,2.08-.33,2.55-.39,.33,.6-1.75,1.06,1.57,.75-.88,.33-1.95,.63-1.51-.25,.08,1.35,3.57,1.42-4.33-.04,.11,.85,.98,.58,.03,1-.92-.25,.16-.71-.56-.25-.56,.46-1.45-1.84-1.83,.58-2.14,.04-2.39,.8-1.26,.71-.69,1,1.13,1.81,1.07,.33,1.32-.55,1.26,.25,1,.55,1.42,.03,.33,.65,1.34-.55,.13,.46,2.77,.13,1.89-1.34,.88,.08-2.3,1.79-1.67,.6,.06,.68h-.82l-.44-.8-2.65,.3-.13,1.26,2.9,4.23,3.4,.93,.63,.75,1.98,.79,.41,.8,4.03-2.85,2.28-3.42,4.08-3,2.02-2.06,1.51-.25,3.65-5.92,.88-.25v.68l-4.09,6.42,1.38,.33,.65,.42-2.22,.33-.69,.98-.69-.42-1.45,1.21,.75,.63-.94,.96-1.94,2.31,.42,.55-.6,.38-.58-.13-.33,.71,.82,.38,1.13,.98-1,.63-1.07-.88-.75,.54-.75,1.67,.46,.44,.96-.93,.6,.88-.25,.88,1.19,.08,.63-.46,1.98,.74,.92-.11,.69,.75,1-.3,1.34-2.3,.68-.3,1.17-1.52,.63-1.32,.41-.14-1,1.89-1.46,2.39-1.29,1.61-1.18,.5h-.92l-.68-.5-1.26-.5-.68,.16-1.42-.08-2.11,.17-.83,.92v1.1l-1.18,.92-.75,2.02,1.51,.68-1.09,.42-1.18-.42-.83,1.76-.08,1.34-.35,1.94,1.43-.42,1.26-.25,.5,.42-2.44,1.09,.6,1-.75,1.1-1.94,3.43,.68,.09,.83-1.26,1.69-1.51,.41,.33-2.02,3.7,.17,1.26-1.18,.41-1.26,2.69-2.77,3.95,.75,.83,.85-2.19,1.09-.66,.75-1.61,1.34-.58-.25,1-2.52,3.1-1.26,2.77,.25,1.1,3.27-2.69-1.67,2.85-.75,1.26-.93,3.19,1.43,1.09,.25,1.26,3.1-1.34-1.09,1.43-1.69,.92-.58,1.94-2.02,1.43,.5,1.51-1.26,3.86-.75,.68,.08,2.42-.68,5.63-.75,.16-1.59,1.86-.17,2.93-.25,1.35,1.26,1,1.51-.25,2.61-.42,1.92-.68,1.35-1.76v-2.27l-1.35-1.34,.68-.58,.42-2.19,1-.58,.41-2.52,.85-2.69,.83,.25-.42-3.52,.75-2.34,1.76-3.44,1.94-1.18,.83-.58-1.76-4.53-.83-.33,.17-1.26-.6-3.44-.66-1.76,.5-2.94,.92,1.69,1.86-.93,.16-1.51,2.77-2.34,3.02-3.19,1.26-.41,3.02-4.78,.35,1.09,3.1-1.59-4.11,3.1-.85,2.02-3.1,1.94-2.34,2.93-1.69,2.77-1.34,1.76,.08,1.94-.42,2.52,.93,1.94,.17,1.17,.83,.35,1.26,.92,.75,.68,.25-1.18-1.18-2.67,1.51-2.52,.25-1.69,.6,2.27,1.84,1.43,.93,.16-.85-5.54,1.61,2.94,.33,4.36,1.76,.42,1.84-3.95,.75-1.42-1.42-1.69,1.76,.42-.17-3.62,.93-1.92-.85-1.26,.09-3.02,1,2.85,.66,.42,1.86-3.62,1.84-1.76-.08,.93-3.19,4.71-1.34,2.67,1.34,3.95,1.69-.33-.25-1.26-1.43-1.94,.08-1.18,1.69,2.27,.83,1.1,1.35,.92,.16,1.43,1,1.51,1.35-.08,.54-.71v.69l-.25,.13-.21,.31,.03,.41-.58-.16-1.18-.06-.71-.36-.33-1-.68-.25-.75-.33-1-.68-.38,.83-.13,.3-.54-.3-1.83,.98-.21,1.54,.33,.3-.88,.93,.22,.99-.08,3.07,.93,2.47-.04,.9-.08,.63-.3-.06-.3-.46-.17,.25,.39,.46-.17,.69-.33,.11-.6,.33-.04,1.38,1.23,.75,1.37,2.03-.21,.58,.73-.04,.25,.52,.66-.13,.38,.08,.17,.46,1.59,1,.08,.09,.04,.08,.68,.8,.35,1.04-.06,1.21-.74-.17-.09,.22,.68,.3,1.04,1.29,.19,1.38-.17,.6-.09,.36-.55,.38-.25,.9-.33,.42-1.59,.61-1.31,.85-.54,.83-.25,2.23-2.28,1.83,.17,2.33-.79,1.67,.11,.46-.31-.08,.11,1.04-1.67,1.48-1.02,1.86-1.62,1.07-.75,2.91-1.4,2.06-.31,1.42,.58,1.56,.23,1.31,.38,.25,.73,2.3-.08,.8-.58,.38-.44-.22-.16,.25-1.04-1.26-.25-1.97,.49-.21-1.09-2.85-1.26,.56-.6-.11-.38,.41-.61,1.27,.23,.58-.41,1.92,.09,1.18,1.09,2.19-.02,.8,2.06,2.39,.73,.33,.3,.99,.99,.52,.35,1.06-.21,.5,.56,.33-.23,.8,1.12,.41-.33,.58,.55,1-.8,.52,.17,1.42,1.42,1.29,1.83,.55,.28-.21-.79-.13-.17-.8,.11-.88,.5-.68-1.21-1.12-.28-2.31-1.23-3.4,.98-1.64,2.55-1.18,.63,.22h1.13l.47,1.26,2.3,.55,1.1,1.37,2.25,1.35,.85,2.17,.83,.3,.02,.5,.88,.73,3.78,2.02,.99-.73-.03-.5,.23,.25,.3-.68-.03-.5-.5-.3,.49-2.46-.5-.31,.35-.25-.28-.87,.74,.17,.17-.47v-.88l-.41-.58-.25-.52-.06-.79-.49-.66-.27-.63,.3-.31,1.61,1.48,2.06,.98,1.38,.41,.36,.85,.9,.31,.03,.9,.6,.68,.66,.25,.54-.65-.08,.55,.39,.04,.06,.49,.44,.19,.19-.52-.5-.21,.52-.17v-1.21l.61,.35,.27,.82,.55,.47,1.21,.04,1.43-.21,.66-.75,3.78-1.57,.13-.44,.55-.63,1.09-.75,.75-.13,.22,.21,.71-.02,.38-.23,1.09,.17,.35,.13,.33,.38,.58-.04,.75-.83,.42-.31,1.34-1.45,.54-.52,.35-.33,.55-.33,.55-.21,.69-.13,1.07-.14,.49-.08,.39-.58,.19-.39,1-.83,1.19,.04,.56-.3,1.32,.13,2.04,.02,1.13,.06,.54,.35,.27-.04,.99-.68,.85,.04,.5-.3,.6-.58,.44-.38-.19-.58,.79-1.48-.88-.61,.08-.33,2.94,.25,.71-.55-.11-.55,.82-.5,.56,.03,.33-.88,1.09-.74,.35-.77,.46-.21,.04-.66,1.29-.17,1.67-1.42,.93-.3,.42-.85,.21-.75,.55-1.04,1.1-.13,.06-1.15,.56-.13-1.07-.71,.63-.13,.55-1.17,1.13-.73,.46-1.17,1.23-.27,1-1.59,1.38-.38h.92l.47,.6,.66-.04,1.31-.98-.28-.33,.5-.46-.46-.98,.41-.61,.6,.17,1.64-1.4,.94,.25,1.13-.92,.17-.9,1.09-.44-1.46-.35-.03-.79-.83-1.1,.16-.73-.5-1.83-1.48-1.35-.03-1.29-.83-.93,.25-.46-.5,.16-.35-.33,.33-.6,.68-.23,2.15,.33-.42-.6,.92-.66v-.65l1.61-1.64-.27-.74,.75-.17,.17-.85,.83-.03,.35-1.21,.71-.13-.03-1.65,1.62-1-1.09-1.75-.13-.75-.25-1.06-.23,.3-.06-.42-.38,.13-.71-.47-.41-1.84-1.1,.08-.15-.1c-.68,1.12-1.57,2.09-2.7,2.91-1.26,.91-2.81,1.37-4.65,1.37s-3.38-.46-4.65-1.37c-1.26-.91-2.24-2.01-2.94-3.29-.33-.59-.6-1.16-.83-1.7-.22-.54-.4-1.21-.52-2-.12-.79-.21-1.71-.28-2.77-.02-.35-.04-.74-.05-1.14l-2.72-.14c-.01,.39-.03,.76-.05,1.1-.06,1.13-.15,2.07-.28,2.81-.12,.79-.29,1.45-.49,2-.2,.54-.47,1.11-.79,1.7-.77,1.38-1.76,2.53-2.97,3.44s-2.78,1.37-4.74,1.37c-.98,0-2.02-.2-3.12-.59-1.1-.39-2.1-1.04-3-1.92s-1.64-2.04-2.23-3.48c-.33-.81-.56-1.73-.71-2.74l-.41-.09,.06-.25-.38,.17-.28-.04-2.48-.69-2.47-.85-1.09-.66-1-.31-.68,.02-.42-.14-.16-.06-.33-.56-.5-.79-1.09-.68-1-1.69,1.26,1.31,.69,.38,1.57,1.64,1.75,.08,.68,.09h.41l.47,.28,.46,.04,.52,.04,.79-.09,.5,.42,1.31,.25,.21,.55,.41,.13-.21-.17,.33-.13,.8,.39,.17,.16c-.03-.41-.05-.83-.05-1.27v-4.29h6.24v2.91l1.03,.07,.82-3.04,.79-.17,.3-.31,2.14-2.19,.61-.22,.27-.16,.16-.19v-.48c0-.14,0-.26,0-.39l-.04-.02h.04c-.04-1.83-.36-3.05-.97-3.65-.37-.39-.87-.64-1.5-.74s-1.46-.15-2.48-.15v-5.15l-1.44,.74-.9,.46-1.87-.16,.49-.25-.04-.25,1.51-.58,.77,.04,1.49-.84v-.67c.46,0,.88-.02,1.27-.05l.59-.33,1-.25,.33-.93,.93-.75,.33-.33h.34c.1-.54,.16-1.19,.16-1.94v-6.8c0-1.08-.28-1.97-.83-2.66-.55-.69-1.29-1.04-2.23-1.04-1.1,0-1.89,.42-2.35,1.26-.47,.84-.7,1.65-.7,2.44v4.29h-6.24v-4.36c0-1.53,.24-2.98,.73-4.36,.49-1.38,1.16-2.56,2.02-3.55,.86-.99,1.85-1.77,3-2.37,1.14-.59,2.36-.89,3.67-.89,1.71,0,3.13,.41,4.25,1.22s1.97,1.64,2.54,2.48c.41,.59,.76,1.18,1.07,1.77s.56,1.31,.76,2.14c.37,1.63,.55,4.04,.55,7.25,0,1.35-.02,2.5-.05,3.47l.69-.18,1.83,.93,.24-.7c0-.07-.01-.13-.02-.2-.04-1.08-.06-2.42-.06-3.99,0-1.43,.04-2.65,.12-3.66,.08-1.01,.22-1.88,.43-2.62,.2-.74,.44-1.41,.7-2,.26-.59,.6-1.21,1.01-1.85,.81-1.28,1.83-2.28,3.06-2.99,1.22-.71,2.55-1.07,3.97-1.07,1.13,0,2.2,.23,3.2,.68l.19-.12,.82-1.42,.38-.13,.06-.88,.38,.08,.88-1,.61-1.17-.11-.6,.61-.79-.11-2.19,.28-.09-.55-.93,.96-.66,.5-2.14,2.08-2.74,.21-.99,.17-.38h.03l.16-.33,.39-.06,.23-.23,.14-.25,.5-.35,.16-.71v-.58l-.23-.3-.06-.09-.19-.21-.39-.46-.04-.5-.28-.16-.3-.38,.08-.31,.38-1.62,2.11-5.18-.13-.75,.21,.52,2.31-3.07,1.04-.85,.5-.49Z"/>
  <path class="cls-3" d="M193.93,188.58l-2.69-.41-.87-.63-.42-1.26-.09-.69,1.13-2.71,1.26-1.07-2.2-.2c-.07,.95-.21,1.75-.43,2.4-.29,.79-.68,1.45-1.19,2-.51,.54-1.21,1.13-2.11,1.77,.98,.74,1.72,1.43,2.23,2.07,.51,.64,.89,1.38,1.13,2.22,.24,.89,.39,1.94,.43,3.14,.01,.35,.02,.73,.03,1.14l.89-.89,1.85-.65c.05-1.15,.16-2.14,.34-2.96,.2-.94,.52-1.75,.95-2.44,.08-.13,.18-.27,.27-.4h-.23l-.28-.42Z"/>
  <path class="cls-3" d="M199.29,173.94l1.15-1.56-.06-.39-.58-.11-.21-.86c-.37,.61-.55,1.31-.55,2.11v1.52l.14-.08,.11-.63Z"/>
  <path class="cls-3" d="M201.74,207.85l-.48-.58h-.6l-.73-.5s.02,.03,.03,.04c.52,.61,1.12,.94,1.78,1.03Z"/>
  <path class="cls-4" d="M184.87,181.58l.42-.21,.42-.22h.03l1.38-.42,1.38,.3,.96-.63,.65-.17c.03-.97,.05-2.13,.05-3.47,0-3.2-.18-5.62-.55-7.25-.2-.84-.46-1.55-.76-2.14s-.66-1.18-1.07-1.77c-.57-.84-1.42-1.66-2.54-2.48s-2.54-1.22-4.25-1.22c-1.31,0-2.53,.3-3.67,.89-1.14,.59-2.14,1.38-3,2.37-.86,.99-1.53,2.17-2.02,3.55-.49,1.38-.73,2.83-.73,4.36v4.36h6.24v-4.29c0-.79,.23-1.6,.7-2.44,.47-.84,1.25-1.26,2.35-1.26,.94,0,1.68,.35,2.23,1.04,.55,.69,.83,1.58,.83,2.66v6.8c0,.75-.05,1.4-.16,1.94h.08l1-.3Z"/>
  <path class="cls-3" d="M172.22,205l-.08-.13,.58-.02,.46-.03,.55-.73,.52,.31,.87-1.06,.35,.16-.02-.33,.5-.13,.52-.09,.46,.39,.6-.55,.3,.02v-2.91h-6.24v4.29c0,.44,.02,.86,.05,1.27l.48,.45,.11-.92Z"/>
  <path class="cls-3" d="M178.98,184.52v.67l1.27-.72c-.39,.03-.81,.05-1.27,.05Z"/>
  <path class="cls-4" d="M189.18,204.22l-.85,.17-.88,.74-.33,.46-.17,.69-.11,.61-.06,.58-.16,.17-1.56,.14-1.24,1.21h-1.13l-.09,.21-.85,.09-1.19-.56-.88-.83-.14-.16-.99-.96-.5,.61-.63-.03v.03l-.27-.41-.75,.3-.13-.04-.28-.13-.6-.33-.5-.5-.41-.06-1.15-.08-1.17,.63-.37-.08c.15,1.01,.37,1.93,.71,2.74,.59,1.43,1.33,2.59,2.23,3.48s1.9,1.53,3,1.92c1.1,.39,2.14,.59,3.12,.59,1.96,0,3.54-.46,4.74-1.37s2.19-2.06,2.97-3.44c.33-.59,.59-1.16,.79-1.7,.2-.54,.37-1.21,.49-2,.12-.74,.21-1.67,.28-2.81,.02-.34,.03-.71,.05-1.1h-.16s-.79,1.2-.79,1.2Z"/>
  <path class="cls-3" d="M183.93,195.74c0,.13,0,.26,0,.39v.48l.5-.61-.51-.26Z"/>
  <path class="cls-4" d="M185.19,195.12l.88-.42,1.56,.38,.55,.5-.22,.27h.47l-.09,.33,.93,.21,.63-.33,.17,.36,.07-.07c0-.4-.02-.79-.03-1.14-.04-1.21-.18-2.26-.43-3.14-.25-.84-.62-1.58-1.13-2.22-.51-.64-1.25-1.33-2.23-2.07,.9-.64,1.6-1.23,2.11-1.77,.51-.54,.91-1.21,1.19-2,.21-.65,.35-1.45,.43-2.4l-.57-.05h-1.37l-1.18,.04-2.11,1.65-1.51,.25-.75,.69-3.58,1.83v5.15c1.02,0,1.84,.05,2.48,.15s1.13,.34,1.5,.74c.61,.6,.93,1.82,.97,3.66l.51,.1,.75-.71Z"/>
  <path class="cls-4" d="M207,210.81l-2.19-.35-1.12-.79-.82-.68-.31-.85-.5,.08-.32-.38c-.67-.09-1.26-.42-1.78-1.03-.01-.01-.02-.03-.03-.04l-.73-.49-.16-.09-.75,.09-.31,.46-.69-.85-.14,.73-.58,.08-.41-.5,.49,.13,.13-.55,.27,.39-.25-.5,.28-.39-.98-.54-.19-.8-1.02-.66-2.04-.1c.01,.41,.03,.8,.05,1.14,.06,1.06,.15,1.99,.28,2.77,.12,.79,.29,1.46,.52,2,.22,.54,.5,1.11,.83,1.7,.69,1.28,1.67,2.38,2.94,3.29,1.26,.91,2.81,1.37,4.65,1.37s3.38-.46,4.65-1.37c1.13-.82,2.02-1.79,2.7-2.91l-1.34-.85-1.1,.5Z"/>
  <path class="cls-4" d="M198.12,162.97c-1.22,.71-2.24,1.71-3.06,2.99-.41,.64-.74,1.26-1.01,1.85-.27,.59-.5,1.26-.7,2-.2,.74-.35,1.61-.43,2.62-.08,1.01-.12,2.23-.12,3.66,0,1.58,.02,2.91,.06,3.99,0,.07,.01,.13,.02,.2l.34-1.02,.83-.6,.04,.04,1.54-1.17,.96-1.27,2.08-.92v-.5l.36-.21v-1.52c0-.8,.19-1.5,.55-2.11l-.08-.32,.87-1.09,.44,.04,.61-.63,.35-1.1-.58-.08,.08-.09,.92-2.72,.73-1.04h.75l.54-.73,1.09-.69c-1-.45-2.07-.68-3.2-.68-1.43,0-2.75,.36-3.97,1.07Z"/>
  <path class="cls-3" d="M193.23,191.84c-.18,.82-.29,1.82-.34,2.96l.26-.09,2.08-1.52,.52-.8,.83-.33,.54-.87-1.37-.75-.93-1.43h-.37c-.09,.13-.19,.27-.27,.4-.43,.69-.74,1.5-.95,2.44Z"/>
  <polygon class="cls-3" points="155.73 103.86 156.03 101.51 154.7 101.51 153.95 103.85 154.15 103.91 155.73 103.86"/>
  <polygon class="cls-4" points="159.07 104.91 157.3 104.28 155.46 105.28 153.68 104.69 153.22 106.12 160.19 106.12 160.42 105.38 160.37 105.42 159.07 104.91"/>
  <path class="cls-6" d="M160.31,84.01l-.12-.15c-.21,.2-.52,.36-.95,.48-.43,.12-.99,.18-1.68,.18-1.1,0-2.12-.32-3.06-.96-.94-.64-1.67-1.45-2.2-2.44-.29-.49-.51-1.02-.67-1.59-.16-.57-.29-1.29-.37-2.18-.12-.89-.2-2.01-.24-3.36-.04-1.36-.06-3.07-.06-5.14,0-1.39,.01-2.58,.04-3.57l-.73,.91-.63,.21-.09-.73-2.3-.11-.98,1.51-1.98,.5,.82-1.76-.06-1.18-.79,.33,.16-.71-1.51-1-2.46-.09-.19,2.03-.75,1.26-.63-.04-.33-1.86-1.43-.44-1.04-1.48-.85-1.13-1.45,2.23-.02-1.9-3.44-.96-1.75-.85-.3,2.65-1.29,1.78-1.73,1.17-.16,2.39,.82,.52,.82,.21-.63,.8-1.15,1.21,.21,.63,.5,.5,.65,.03,1.29,1.81-.75,.16-1.24-1.19-1.45-1.07-.31,1.27-.69,1.13,.5,.71-.83,.21,.27,.73,.03,.88,.66-.25,.19,.88-.04,1.12,.83,.94,2.42,1.5-1.19,.04-1.38-1.13-.82,.33-1.17,.39-1.35-.09-.96-.92-.55,.56,.75,.6-1.71,1.21-.23-.88-.52-.68-.61-.03-.42-.75-.77,1.76,.94,1.51,.75,.55,.44,1.26,.38,.88,1.51,.88-1.37,.28,1.04,.96-1.21,.02,.8,.54-.47,1.51-.3,.85-.94-.88-.63,.17-.38,1.04-.75-2.02-.98-.66-.85,.83,.13,1.38,1,.75-.41,.68,.85,.54,1.19,.5,.75,.93,.5,1.64,2.31,1.21,1.34,.17-.75,1.21,.88,1.64-2-.83-1.84,.33-1.64-1.67-1.31,.36,1.56,2.48-2.14-1.31-.68,2.14-.44,.48h41.17l5.61-17.5Z"/>
  <path class="cls-6" d="M169.48,64.61c.04,1.11,.06,2.53,.06,4.25,0,1.63-.02,2.97-.06,4.03-.04,1.06-.1,1.96-.18,2.7-.12,.79-.25,1.49-.4,2.11s-.32,1.27-.52,1.96l-3.69,11.93,6.43-5.05,2.8-4,1-1.34,4.67-1.84,3.35-3.57,1.46-3.87,.35-1.97-2.22-.16-.13-2.19,1.38-1.64,.36-2.34,.85-.33,.58-2.52-3.82,.33-.92-1.27-1.09,.39-2.39,.49-.94-.23-.94-1.43-.02-.06-.77,.55-.3,1,1.81,1.38-.11,.58-.52,.79-2.55-1.07-1.9,.83-.75-.65,.5-.82-1.6-.02c.01,.07,.03,.12,.04,.19,.08,.79,.14,1.74,.18,2.85Z"/>
  <path class="cls-6" d="M158.71,63.81l-1.26,.38-.19-.67c-.04,.26-.06,.54-.06,.83v9.76c0,1.13,.31,2.05,.92,2.74,.61,.69,1.32,1.04,2.14,1.04s1.53-.34,2.14-1.04c.61-.69,.92-1.6,.92-2.74v-9.76c0-.12-.02-.22-.02-.33l-2.81,.33-1.76-.54Z"/>
  <path class="cls-4" d="M151.02,74c.04,1.36,.12,2.48,.24,3.36,.08,.89,.2,1.62,.37,2.18,.16,.57,.39,1.1,.67,1.59,.53,.99,1.26,1.8,2.2,2.44,.94,.64,1.96,.96,3.06,.96,.69,0,1.25-.06,1.68-.18,.43-.12,.74-.28,.95-.48l.12,.15-5.61,17.5h1.33l.02-.12,.5-.63-.36-1.48,.68-2.09,4.14-1.79,.9-2.44,2.17-.88,.63-.49,3.69-11.93c.2-.69,.38-1.34,.52-1.96s.28-1.32,.4-2.11c.08-.74,.14-1.64,.18-2.7,.04-1.06,.06-2.4,.06-4.03,0-1.73-.02-3.14-.06-4.25-.04-1.11-.1-2.06-.18-2.85-.01-.07-.03-.13-.04-.19l-2.05-.03-1.83,1.34-2.08,1.13h-.02c0,.11,.02,.22,.02,.33v9.76c0,1.13-.31,2.05-.92,2.74-.61,.69-1.33,1.04-2.14,1.04s-1.53-.34-2.14-1.04c-.61-.69-.92-1.6-.92-2.74v-9.76c0-.29,.02-.56,.06-.83l-.32-1.11-.74,.55-1.51,1.61-1.69-.17-.65,1-1.13-.38-.22,.27c-.03,.99-.04,2.17-.04,3.57,0,2.07,.02,3.78,.06,5.14Z"/>
  <polygon class="cls-3" points="97.47 221.4 97.85 222.78 99.24 220.52 98.42 219.69 97.47 221.4"/>
  <polygon class="cls-3" points="117.43 216.42 116.79 214.98 116.48 215.87 116.73 217 117.43 216.42"/>
  <polygon class="cls-3" points="96.4 204.93 97.03 204.74 98.41 202.53 101.64 197.34 101.51 196.37 101.13 195.25 101.14 195.27 100.11 195.69 97.99 197.26 95.07 199.59 93.28 201.04 91.49 204.33 93.31 205.16 92.43 205.57 91.36 205.58 90.1 206.21 88.33 208.86 88.52 212.38 89 213.56 90.79 214.27 91.98 214.44 92.77 212.76 93.06 210.66 93.78 210.36 94.34 209.31 94.97 209.31 94.76 209.78 95.26 209.28 95.51 207.96 96.22 206.54 96.4 204.93"/>
  <polygon class="cls-3" points="99.29 218.17 99.29 218.18 98.73 218.76 99.04 219.43 99.73 218.63 99.29 218.17"/>
  <polygon class="cls-3" points="118.37 210.08 116.55 208.57 116.54 208.56 115.35 209.7 116.92 212.6 118.06 213.15 118.25 216.8 119.57 217.05 120.76 219.65 121.65 219.32 121.02 218.01 121.9 217.26 121.21 213.28 120.32 213.1 119.44 211.97 119.57 210.96 118.37 210.08"/>
  <polygon class="cls-3" points="116.79 235.03 117.56 235.29 118.44 234.59 118.68 233.94 118.25 232.44 118.77 231.46 117.26 230.38 117.67 229.73 118.77 229.1 118 228.01 116.42 227.27 117.46 226.04 117.25 223.98 116.62 222.05 115.44 220.71 113.77 219.62 113.77 219.64 112.83 219.69 112.55 220.01 112.89 220.52 111.89 220.34 111.45 221.24 110.31 221.81 109.12 225.09 110.54 227.86 110.82 228.92 110.29 229.8 110.13 231.25 110.99 231.77 111.45 233.7 113.22 235.12 114.79 235.5 116.79 235.03"/>
  <polygon class="cls-6" points="87.11 86.56 85.93 87.02 87.19 87.22 87.11 86.56 87.11 86.56"/>
  <polygon class="cls-3" points="65.91 102.02 67.04 103.86 68.79 106.55 69.79 105.78 71.1 104.6 71.83 103.66 72.11 103.01 72.74 102.55 73.07 101.97 73.57 102.27 74.33 102.64 74.4 101.51 65.04 101.51 65.91 102.02"/>
  <polygon class="cls-3" points="75.43 101.58 76.16 101.71 76.15 101.51 75.26 101.51 75.43 101.58"/>
  <polygon class="cls-6" points="75.63 100.26 75.22 99.36 74.37 99 74.66 98.31 74.45 97.62 75.38 97.62 76.6 98.56 78.3 98.69 78.4 97.81 77.18 96.85 78.24 96.47 76.67 92.74 79.15 96.89 80.33 96.97 81.06 97.05 81.91 96.99 82.29 96.39 82.95 96.47 83.8 95.81 84.26 95.94 84.53 94.84 85.11 94.63 85.14 93.34 81.32 92.27 85.61 91.81 87.03 92.74 87.74 91.89 88.05 90.5 85.69 90.06 87.55 89.76 87.93 88.86 87.66 87.83 86.95 87.5 86.07 87.83 85.15 87.4 84.59 87.75 81.96 87.42 85.24 86.77 86.1 85.78 87.12 85.4 88.04 85.63 88.13 84.84 87.54 84.59 88.05 84.32 87.74 82.75 88.47 82.23 89.13 82.31 89.77 81.7 90.66 81.7 91.62 83 92.67 82.81 93.17 82.02 94.29 81.19 95.27 79.05 94.56 78.55 93.71 79.42 92.59 80.65 91.87 80.77 91.08 81.37 90.43 81.12 89.52 80.39 88.79 80.85 88.08 80.47 88.58 79.8 89.89 79.51 90 78.09 90.82 78.03 91.48 76.79 92.31 76.83 93.72 74.57 94.79 74.39 93.91 73.56 93.45 72.74 94.2 70.73 94.85 70.27 94.75 69.39 94.42 68.52 94.6 67.39 93.83 66.69 93.58 65.56 92.29 64.69 91.86 65.06 92.17 65.62 91.23 66.36 90.34 66.58 89.79 67.41 85.46 70.6 84.62 70.56 83.75 72.24 81.6 73.33 80.71 72.8 79.52 74.01 78.2 74.37 76.07 75.25 75.44 76.2 76.93 76.56 75.77 77.03 76.55 79.22 77.58 80.42 77.65 80.86 77.07 80.59 77.07 81.32 77.81 81.36 78.58 81.97 77.6 82.81 76.93 81.81 75.04 80.84 73.95 81.22 73.49 81.42 73.67 82.23 73.11 82.87 73.02 81.52 71.85 81.49 71.22 80.59 72.28 80.46 72.48 79.75 71.73 79.67 71.32 78.75 70.77 79.41 69.54 78.54 69.39 77.96 68.41 79.6 68.28 80.59 68.74 80.98 69.26 81.11 68.58 82.1 68.38 81.27 67.48 80.99 66.86 81.27 67.23 82.62 66.39 83.62 65.59 84.39 66.57 87.14 67.29 87.91 68.49 87.26 68.83 87.64 67.83 88.39 67.54 89.23 68.36 89.57 67.98 90.08 67.5 90.8 66.92 90.49 66.44 91.41 65.78 91.72 66.1 92.1 66.49 91.67 66.69 93.23 67.33 93.07 68.3 94.16 69.59 94.16 71.23 94.87 72.49 95.67 73.03 96.18 73.07 97.23 72.41 97.19 70.98 96.67 70.19 97.11 70.05 97.77 70.78 98.43 70.57 98.68 70.13 98.68 69.21 98.95 68.81 98.68 68.41 99.73 67.5 100.46 66.44 101.04 66.02 100.58 65.41 100.08 64.58 100.25 64.89 101.42 65.04 101.51 74.4 101.51 74.42 101.14 75.26 101.51 76.15 101.51 76.1 100.84 75.63 100.26"/>
  <polygon class="cls-6" points="92.27 64.68 92.29 64.69 92.3 64.68 92.27 64.68"/>
  <polygon class="cls-6" points="73.41 77.57 73.41 77.57 73.41 77.57 73.41 77.57"/>
  <polygon class="cls-6" points="74.34 79.47 73.68 79.76 73.93 80.34 75.11 80.18 76.3 80.72 76.3 79.68 74.96 78.78 74.6 77.79 73.41 77.57 73.8 79.41 74.34 79.47"/>
  <polygon class="cls-6" points="68.88 96 68.88 96 68.89 96 68.88 96"/>
  <polygon class="cls-3" points="62.6 110.4 62.6 110.85 62.73 111.36 63.43 111.51 64.14 111.2 63.99 111.78 64.6 112.53 65.87 110.75 65.45 110.37 64.95 110.44 64.6 109.51 64.6 109.51 64.19 109.67 64.28 110.15 63.15 109.88 62.6 110.4"/>
  <polygon class="cls-3" points="90.8 150.97 90.8 150.97 90.81 150.97 90.8 150.97"/>
  <polygon class="cls-3" points="95.8 130.16 95.79 130.16 95.13 131.28 96.21 132.6 97.84 132.6 98.03 131.54 96.85 130.37 95.8 130.16"/>
  <polygon class="cls-6" points="77.4 98.95 77.41 98.95 77.41 98.95 77.4 98.95"/>
  <polygon class="cls-3" points="90.88 155.04 91.55 152.6 90.8 150.97 89.66 151.3 90.05 152.06 89.15 152.25 88.61 153.69 89.53 154.7 90.88 155.04"/>
  <polygon class="cls-6" points="78.26 100.38 79.12 100.19 78.66 99.33 77.41 98.95 77.16 99.66 78.26 100.38"/>
  <polygon class="cls-3" points="96.45 118.71 97.1 119.64 97.96 116.74 97.51 115.89 96.45 118.71"/>
  <polygon class="cls-6" points="67.11 97.04 66.2 97.04 66.28 97.89 67.58 97.31 68.24 97.85 69.01 96.92 68.88 96 67.92 96.05 67.11 97.04"/>
  <polygon class="cls-3" points="94.61 122.47 93.62 124.78 93.56 128.52 94.28 129.83 96.25 128.38 95.59 126.87 95.38 124.29 96.9 121.14 96.59 120.22 96.58 120.22 95.38 120.95 95.71 122.22 95.54 122.72 94.61 122.47"/>
  <polygon class="cls-3" points="51.63 141.9 51.63 141.9 51.63 141.9 51.63 141.9"/>
  <polygon class="cls-3" points="45.63 154.09 45.63 154.09 45.64 154.09 45.63 154.09"/>
  <polygon class="cls-6" points="65.48 90.75 65.75 91.22 66.4 90.56 66.12 89.51 65.41 89.18 65.42 89.17 64.15 89.75 64.69 90.62 65.48 90.75"/>
  <polygon class="cls-3" points="48.63 150.61 49.13 151.65 49.92 151.24 49.37 150.42 48.63 150.61"/>
  <polygon class="cls-3" points="48.87 147.99 47.83 147.71 47.82 147.71 47.62 148.47 48.53 148.83 48.36 149.21 47.88 149.1 48.38 149.83 49.68 149.35 48.88 149.16 49.18 148.79 50.3 148.79 48.74 148.32 48.87 147.99"/>
  <polygon class="cls-3" points="53.07 145.56 53.16 146.23 53.65 146.39 53.69 145.77 53.39 145.39 53.07 145.56"/>
  <polygon class="cls-3" points="52.2 145.06 53.14 145.02 51.93 143.93 52.51 143.5 52.73 142.91 52.19 142.54 52.15 141.94 51.63 141.9 51.6 143.71 50.77 144.38 49.37 144.31 49.89 145.67 49.38 145.67 49.42 146.38 48.53 146.56 48.15 147.28 49.59 148.07 49.92 147.32 50.26 147.41 50.52 147.99 51.44 148.09 52.06 147.77 51.65 147.39 52.15 147.19 52.4 146.56 52.83 146.48 52.7 145.75 52.2 145.06"/>
  <polygon class="cls-3" points="53.39 145.38 53.39 145.39 53.4 145.38 53.39 145.38"/>
  <polygon class="cls-3" points="44.71 154.39 44.35 155.52 45.01 155.96 45.6 155.52 45.84 154.72 45.63 154.09 44.71 154.39"/>
  <polygon class="cls-3" points="62.14 105.37 61.21 106.88 62.27 107.09 63.38 106.43 63.84 105.62 63.38 105.17 63.38 105.16 62.14 105.37"/>
  <polygon class="cls-3" points="61.29 103.78 62.47 103.13 61.74 102.3 60.36 102.95 61.29 103.78"/>
  <polygon class="cls-3" points="61.74 102.3 61.74 102.3 61.75 102.3 61.74 102.3"/>
  <polygon class="cls-3" points="44.8 156.26 44.35 156.48 44.98 156.81 45.78 156.63 44.8 156.25 44.8 156.26"/>
  <polygon class="cls-3" points="56.68 108.46 55.59 108.36 55.59 108.37 55.32 108.76 55.97 109.25 56.68 108.46"/>
</svg>