<?xml version="1.0" encoding="UTF-8"?>
<svg id="Layer_1" data-name="Layer 1" xmlns="http://www.w3.org/2000/svg" viewBox="0 0 790.64 485.73">
  <defs>
    <style>
      .cls-1 {
        font-family: Helvetica-Light, Helvetica;
        font-size: 22px;
        font-weight: 300;
      }

      .cls-1, .cls-2, .cls-3 {
        fill: #fff;
      }

      .cls-4 {
        letter-spacing: -.04em;
      }

      .cls-5 {
        letter-spacing: -.07em;
      }

      .cls-6 {
        fill: none;
        stroke: #fff;
        stroke-miterlimit: 10;
      }

      .cls-3 {
        font-family: Helvetica-Bold, Helvetica;
        font-size: 14px;
        font-weight: 700;
      }
    </style>
  </defs>
  <text class="cls-3" transform="translate(504.91 254.71)"><tspan x="0" y="0">IMD Quintile</tspan></text>
  <text class="cls-3" transform="translate(199.72 254.71)"><tspan x="0" y="0">Building </tspan><tspan class="cls-5" x="59.88" y="0">T</tspan><tspan x="67.4" y="0">ype</tspan></text>
  <text class="cls-3" transform="translate(72.53 254.15)"><tspan class="cls-5" x="0" y="0">T</tspan><tspan x="7.52" y="0">enure</tspan></text>
  <g>
    <path class="cls-2" d="M663.94,237.91h-4.57v-10.08h4.89c1.24,.02,2.11,.38,2.62,1.07,.31,.43,.46,.94,.46,1.54s-.16,1.11-.46,1.48c-.17,.21-.43,.4-.77,.57,.51,.19,.9,.48,1.17,.89,.26,.41,.39,.9,.39,1.48s-.15,1.13-.45,1.61c-.19,.31-.43,.58-.72,.79-.32,.25-.71,.42-1.14,.51-.44,.09-.92,.14-1.43,.14Zm1-6.36c.27-.16,.41-.46,.41-.88,0-.47-.18-.78-.55-.93-.31-.1-.72-.16-1.2-.16h-2.21v2.22h2.47c.44,0,.8-.08,1.08-.25Zm-1.05,1.92h-2.51v2.69h2.47c.44,0,.79-.06,1.03-.18,.45-.22,.67-.64,.67-1.26,0-.52-.22-.88-.65-1.08-.24-.11-.58-.17-1.02-.17Z"/>
    <path class="cls-2" d="M675.5,231.41c.63,.79,.94,1.72,.94,2.8s-.31,2.03-.94,2.81c-.63,.78-1.58,1.17-2.86,1.17s-2.24-.39-2.86-1.17c-.63-.78-.94-1.71-.94-2.81s.31-2.01,.94-2.8,1.58-1.18,2.86-1.18,2.24,.39,2.86,1.18Zm-2.87,.46c-.57,0-1.01,.2-1.32,.61-.31,.4-.46,.98-.46,1.73s.15,1.32,.46,1.73c.31,.41,.75,.61,1.32,.61s1.01-.2,1.31-.61,.46-.98,.46-1.73-.15-1.32-.46-1.73c-.31-.4-.74-.61-1.31-.61Z"/>
    <path class="cls-2" d="M679.84,227.78v1.8h-1.98v-1.8h1.98Zm0,2.69v7.45h-1.98v-7.45h1.98Z"/>
    <path class="cls-2" d="M681.77,227.84h1.95v10.08h-1.95v-10.08Z"/>
    <path class="cls-2" d="M692,235.73c-.05,.44-.28,.89-.69,1.35-.64,.72-1.53,1.09-2.68,1.09-.95,0-1.78-.31-2.51-.92s-1.09-1.6-1.09-2.98c0-1.29,.33-2.28,.98-2.97,.65-.69,1.5-1.03,2.55-1.03,.62,0,1.18,.12,1.67,.35s.91,.6,1.23,1.1c.29,.44,.48,.96,.57,1.54,.05,.34,.07,.83,.06,1.48h-5.1c.03,.75,.26,1.27,.7,1.57,.27,.19,.59,.28,.97,.28,.4,0,.73-.11,.98-.34,.14-.12,.26-.29,.36-.51h1.99Zm-1.93-2.28c-.03-.51-.19-.91-.47-1.17-.28-.27-.63-.4-1.04-.4-.45,0-.8,.14-1.05,.42-.25,.28-.4,.67-.47,1.15h3.03Z"/>
    <path class="cls-2" d="M697.15,232.26c-.78,0-1.31,.25-1.58,.77-.15,.29-.23,.73-.23,1.33v3.56h-1.96v-7.45h1.86v1.3c.3-.5,.56-.84,.79-1.02,.36-.31,.84-.46,1.42-.46,.04,0,.07,0,.09,0,.02,0,.08,0,.17,0v2c-.12-.01-.23-.02-.33-.03s-.17,0-.23,0Z"/>
    <path class="cls-2" d="M710.22,227.84v1.78h-3.01v8.29h-2.12v-8.29h-3.03v-1.78h8.16Z"/>
    <path class="cls-2" d="M713.29,235.96l1.54-5.5h2.07l-2.56,7.33c-.49,1.41-.88,2.29-1.17,2.63-.29,.34-.86,.51-1.72,.51-.17,0-.31,0-.42,0-.1,0-.26-.01-.47-.02v-1.56h.25c.19,.02,.37,.02,.55,0s.32-.08,.44-.16c.11-.08,.22-.24,.32-.49,.1-.25,.14-.4,.12-.45l-2.73-7.78h2.17l1.63,5.5Z"/>
    <path class="cls-2" d="M724.29,231.26c.6,.64,.9,1.59,.9,2.83,0,1.31-.29,2.31-.88,3-.59,.69-1.35,1.03-2.28,1.03-.59,0-1.08-.15-1.48-.44-.21-.16-.42-.4-.63-.72v3.88h-1.93v-10.38h1.87v1.1c.21-.32,.43-.58,.67-.77,.43-.33,.95-.5,1.54-.5,.87,0,1.61,.32,2.21,.96Zm-1.11,2.93c0-.57-.13-1.08-.39-1.52-.26-.44-.69-.66-1.28-.66-.71,0-1.19,.33-1.46,1-.14,.36-.21,.81-.21,1.35,0,.87,.23,1.47,.69,1.83,.27,.21,.6,.31,.97,.31,.54,0,.96-.21,1.24-.63,.29-.42,.43-.98,.43-1.67Z"/>
    <path class="cls-2" d="M732.98,235.73c-.05,.44-.28,.89-.69,1.35-.64,.72-1.53,1.09-2.68,1.09-.95,0-1.78-.31-2.51-.92s-1.09-1.6-1.09-2.98c0-1.29,.33-2.28,.98-2.97,.65-.69,1.5-1.03,2.55-1.03,.62,0,1.18,.12,1.67,.35s.91,.6,1.23,1.1c.29,.44,.48,.96,.57,1.54,.05,.34,.07,.83,.06,1.48h-5.1c.03,.75,.26,1.27,.7,1.57,.27,.19,.59,.28,.97,.28,.4,0,.73-.11,.98-.34,.14-.12,.26-.29,.36-.51h1.99Zm-1.93-2.28c-.03-.51-.19-.91-.47-1.17-.28-.27-.63-.4-1.04-.4-.45,0-.8,.14-1.05,.42-.25,.28-.4,.67-.47,1.15h3.03Z"/>
    <path class="cls-2" d="M677.63,246.42h-5.05v2.32h4.42v1.75h-4.42v4.22h-2.09v-10.06h7.14v1.77Z"/>
    <path class="cls-2" d="M685.1,248.21c.63,.79,.94,1.72,.94,2.8s-.31,2.03-.94,2.81c-.63,.78-1.58,1.17-2.86,1.17s-2.24-.39-2.86-1.17c-.63-.78-.94-1.71-.94-2.81s.31-2.01,.94-2.8,1.58-1.18,2.86-1.18,2.24,.39,2.86,1.18Zm-2.87,.46c-.57,0-1.01,.2-1.32,.61-.31,.4-.46,.98-.46,1.73s.15,1.32,.46,1.73c.31,.41,.75,.61,1.32,.61s1.01-.2,1.31-.61,.46-.98,.46-1.73-.15-1.32-.46-1.73c-.31-.4-.74-.61-1.31-.61Z"/>
    <path class="cls-2" d="M691.18,249.06c-.78,0-1.31,.25-1.58,.77-.15,.29-.23,.73-.23,1.33v3.56h-1.96v-7.45h1.86v1.3c.3-.5,.56-.84,.79-1.02,.36-.31,.84-.46,1.42-.46,.04,0,.07,0,.09,0,.02,0,.08,0,.17,0v2c-.12-.01-.23-.02-.33-.03s-.17,0-.23,0Z"/>
    <path class="cls-2" d="M703.11,254.47c-.56,.34-1.24,.51-2.05,.51-1.33,0-2.43-.46-3.28-1.39-.89-.93-1.33-2.2-1.33-3.81s.45-2.94,1.35-3.92,2.08-1.48,3.56-1.48c1.28,0,2.31,.32,3.09,.97,.78,.65,1.22,1.46,1.34,2.43h-2.07c-.16-.69-.55-1.17-1.17-1.44-.35-.15-.73-.23-1.16-.23-.81,0-1.48,.31-2,.92-.52,.61-.78,1.53-.78,2.76s.28,2.12,.85,2.63,1.21,.77,1.93,.77,1.29-.2,1.74-.61c.45-.41,.73-.94,.83-1.6h-2.33v-1.68h4.2v5.41h-1.39l-.21-1.26c-.41,.48-.77,.82-1.09,1.01Z"/>
    <path class="cls-2" d="M707.94,248.07c.51-.66,1.4-.98,2.65-.98,.82,0,1.54,.16,2.17,.49s.95,.93,.95,1.83v3.42c0,.24,0,.52,.01,.86,.01,.25,.05,.43,.12,.52s.16,.17,.29,.23v.29h-2.12c-.06-.15-.1-.29-.12-.42s-.04-.28-.05-.45c-.27,.29-.58,.54-.93,.75-.42,.24-.89,.36-1.42,.36-.67,0-1.23-.19-1.67-.58-.44-.38-.66-.93-.66-1.64,0-.92,.35-1.58,1.06-1.99,.39-.22,.96-.38,1.71-.48l.66-.08c.36-.05,.62-.1,.77-.17,.28-.12,.42-.3,.42-.55,0-.31-.11-.52-.32-.63-.21-.12-.52-.17-.93-.17-.46,0-.79,.11-.98,.34-.14,.17-.23,.4-.27,.68h-1.88c.04-.65,.22-1.19,.55-1.61Zm1.45,5.24c.18,.15,.41,.23,.67,.23,.42,0,.81-.12,1.16-.37,.35-.25,.54-.7,.55-1.35v-.72c-.12,.08-.25,.14-.37,.19-.12,.05-.3,.09-.52,.13l-.44,.08c-.41,.07-.7,.16-.88,.27-.3,.18-.45,.45-.45,.83,0,.33,.09,.57,.28,.72Z"/>
    <path class="cls-2" d="M720.58,247.6c.58,.37,.92,1.02,1,1.93h-1.95c-.03-.25-.1-.45-.21-.59-.21-.26-.58-.4-1.09-.4-.42,0-.73,.07-.91,.2-.18,.13-.27,.29-.27,.46,0,.22,.1,.38,.29,.49,.19,.1,.87,.29,2.03,.54,.77,.18,1.36,.46,1.74,.83,.38,.37,.57,.84,.57,1.4,0,.74-.27,1.34-.82,1.81-.55,.47-1.4,.7-2.55,.7s-2.04-.25-2.59-.74c-.56-.5-.84-1.12-.84-1.89h1.98c.04,.35,.13,.59,.27,.74,.24,.26,.69,.39,1.34,.39,.38,0,.69-.06,.91-.17,.23-.11,.34-.29,.34-.51s-.09-.38-.27-.5-.86-.31-2.03-.59c-.84-.21-1.44-.47-1.78-.79-.35-.31-.52-.76-.52-1.34,0-.69,.27-1.28,.81-1.77,.54-.49,1.3-.74,2.28-.74s1.69,.18,2.28,.55Z"/>
    <path class="cls-2" d="M658.95,270.76c-.75,.69-1.71,1.03-2.88,1.03-1.45,0-2.59-.46-3.42-1.39-.83-.93-1.24-2.21-1.24-3.84,0-1.76,.47-3.12,1.42-4.07,.82-.83,1.86-1.24,3.13-1.24,1.7,0,2.93,.56,3.72,1.67,.43,.62,.67,1.25,.7,1.88h-2.11c-.14-.48-.31-.85-.53-1.09-.38-.44-.95-.66-1.7-.66s-1.37,.31-1.81,.93c-.44,.62-.66,1.49-.66,2.62s.23,1.98,.7,2.54c.47,.56,1.06,.84,1.78,.84s1.3-.24,1.69-.72c.21-.26,.39-.65,.53-1.17h2.08c-.18,1.1-.65,1.99-1.39,2.68Z"/>
    <path class="cls-2" d="M668,265.01c.63,.79,.94,1.72,.94,2.8s-.31,2.03-.94,2.81c-.63,.78-1.58,1.17-2.86,1.17s-2.24-.39-2.86-1.17c-.63-.78-.94-1.71-.94-2.81s.31-2.01,.94-2.8,1.58-1.18,2.86-1.18,2.24,.39,2.86,1.18Zm-2.87,.46c-.57,0-1.01,.2-1.32,.61-.31,.4-.46,.98-.46,1.73s.15,1.32,.46,1.73c.31,.41,.75,.61,1.32,.61s1.01-.2,1.31-.61,.46-.98,.46-1.73-.15-1.32-.46-1.73c-.31-.4-.74-.61-1.31-.61Z"/>
    <path class="cls-2" d="M673.85,265.5c-.66,0-1.11,.28-1.36,.84-.13,.3-.19,.67-.19,1.13v4.03h-1.94v-7.44h1.88v1.09c.25-.38,.49-.66,.71-.83,.4-.3,.91-.45,1.52-.45,.77,0,1.4,.2,1.89,.61,.49,.4,.74,1.07,.74,2.01v5.02h-2v-4.53c0-.39-.05-.69-.16-.9-.19-.38-.56-.57-1.09-.57Z"/>
    <path class="cls-2" d="M684.03,264.4c.58,.37,.92,1.02,1,1.93h-1.95c-.03-.25-.1-.45-.21-.59-.21-.26-.58-.4-1.09-.4-.42,0-.73,.07-.91,.2-.18,.13-.27,.29-.27,.46,0,.22,.1,.38,.29,.49,.19,.1,.87,.29,2.03,.54,.77,.18,1.36,.46,1.74,.83,.38,.37,.57,.84,.57,1.4,0,.74-.27,1.34-.82,1.81-.55,.47-1.4,.7-2.55,.7s-2.04-.25-2.59-.74c-.56-.5-.84-1.12-.84-1.89h1.98c.04,.35,.13,.59,.27,.74,.24,.26,.69,.39,1.34,.39,.38,0,.69-.06,.91-.17,.23-.11,.34-.29,.34-.51s-.09-.38-.27-.5-.86-.31-2.03-.59c-.84-.21-1.44-.47-1.78-.79-.35-.31-.52-.76-.52-1.34,0-.69,.27-1.28,.81-1.77,.54-.49,1.3-.74,2.28-.74s1.69,.18,2.28,.55Z"/>
    <path class="cls-2" d="M691.46,270.46s-.06,.09-.14,.21-.16,.21-.26,.3c-.31,.27-.6,.46-.88,.56-.29,.1-.62,.15-1,.15-1.1,0-1.85-.4-2.23-1.19-.21-.44-.32-1.08-.32-1.93v-4.49h2v4.49c0,.42,.05,.74,.15,.96,.18,.38,.53,.57,1.05,.57,.67,0,1.12-.27,1.37-.81,.13-.29,.19-.68,.19-1.16v-4.05h1.98v7.45h-1.89v-1.05Z"/>
    <path class="cls-2" d="M699.41,266.11c-.16-.36-.49-.54-.96-.54-.56,0-.93,.18-1.12,.54-.1,.21-.16,.51-.16,.92v4.48h-1.98v-7.44h1.89v1.09c.24-.39,.47-.66,.68-.83,.38-.29,.87-.44,1.47-.44,.57,0,1.03,.12,1.38,.38,.28,.23,.5,.53,.64,.9,.25-.44,.57-.76,.95-.96,.4-.21,.85-.31,1.34-.31,.33,0,.65,.06,.97,.19s.61,.35,.87,.67c.21,.26,.35,.58,.42,.96,.05,.25,.07,.62,.07,1.1v4.7h-2.01v-4.74c0-.28-.05-.51-.14-.7-.17-.35-.49-.52-.96-.52-.54,0-.91,.22-1.11,.67-.1,.24-.16,.52-.16,.85v4.44h-1.96v-4.44c0-.44-.05-.76-.14-.96Z"/>
    <path class="cls-2" d="M713.92,264.86c.6,.64,.9,1.59,.9,2.83,0,1.31-.29,2.31-.88,3-.59,.69-1.35,1.03-2.28,1.03-.59,0-1.08-.15-1.48-.44-.21-.16-.42-.4-.63-.72v3.88h-1.93v-10.38h1.87v1.1c.21-.32,.43-.58,.67-.77,.43-.33,.95-.5,1.54-.5,.87,0,1.61,.32,2.21,.96Zm-1.11,2.93c0-.57-.13-1.08-.39-1.52-.26-.44-.69-.66-1.28-.66-.71,0-1.19,.33-1.46,1-.14,.36-.21,.81-.21,1.35,0,.87,.23,1.47,.69,1.83,.27,.21,.6,.31,.97,.31,.54,0,.96-.21,1.24-.63,.29-.42,.43-.98,.43-1.67Z"/>
    <path class="cls-2" d="M719.64,270.13v1.46l-.92,.03c-.92,.03-1.55-.13-1.89-.48-.22-.22-.33-.57-.33-1.03v-4.59h-1.04v-1.39h1.04v-2.08h1.93v2.08h1.21v1.39h-1.21v3.94c0,.31,.04,.5,.12,.57,.08,.07,.31,.11,.71,.11,.06,0,.12,0,.19,0,.07,0,.13,0,.2-.01Z"/>
    <path class="cls-2" d="M722.9,261.38v1.8h-1.98v-1.8h1.98Zm0,2.69v7.45h-1.98v-7.45h1.98Z"/>
    <path class="cls-2" d="M731,265.01c.63,.79,.94,1.72,.94,2.8s-.31,2.03-.94,2.81c-.63,.78-1.58,1.17-2.86,1.17s-2.24-.39-2.86-1.17c-.63-.78-.94-1.71-.94-2.81s.31-2.01,.94-2.8,1.58-1.18,2.86-1.18,2.24,.39,2.86,1.18Zm-2.87,.46c-.57,0-1.01,.2-1.32,.61-.31,.4-.46,.98-.46,1.73s.15,1.32,.46,1.73c.31,.41,.75,.61,1.32,.61s1.01-.2,1.31-.61,.46-.98,.46-1.73-.15-1.32-.46-1.73c-.31-.4-.74-.61-1.31-.61Z"/>
    <path class="cls-2" d="M736.84,265.5c-.66,0-1.11,.28-1.36,.84-.13,.3-.19,.67-.19,1.13v4.03h-1.94v-7.44h1.88v1.09c.25-.38,.49-.66,.71-.83,.4-.3,.91-.45,1.52-.45,.77,0,1.4,.2,1.89,.61,.49,.4,.74,1.07,.74,2.01v5.02h-2v-4.53c0-.39-.05-.69-.16-.9-.19-.38-.56-.57-1.09-.57Z"/>
  </g>
  <g>
    <path class="cls-2" d="M389.84,237.91v-4.5h-3.94v4.5h-2.08v-10.08h2.08v3.84h3.94v-3.84h2.09v10.08h-2.09Z"/>
    <path class="cls-2" d="M394.07,231.27c.51-.66,1.4-.98,2.65-.98,.82,0,1.54,.16,2.17,.49s.95,.93,.95,1.83v3.42c0,.24,0,.52,.01,.86,.01,.25,.05,.43,.12,.52s.16,.17,.29,.23v.29h-2.12c-.06-.15-.1-.29-.12-.42s-.04-.28-.05-.45c-.27,.29-.58,.54-.93,.75-.42,.24-.89,.36-1.42,.36-.67,0-1.23-.19-1.67-.58-.44-.38-.66-.93-.66-1.64,0-.92,.35-1.58,1.06-1.99,.39-.22,.96-.38,1.71-.48l.66-.08c.36-.05,.62-.1,.77-.17,.28-.12,.42-.3,.42-.55,0-.31-.11-.52-.32-.63-.21-.12-.52-.17-.93-.17-.46,0-.79,.11-.98,.34-.14,.17-.23,.4-.27,.68h-1.88c.04-.65,.22-1.19,.55-1.61Zm1.45,5.24c.18,.15,.41,.23,.67,.23,.42,0,.81-.12,1.16-.37,.35-.25,.54-.7,.55-1.35v-.72c-.12,.08-.25,.14-.37,.19-.12,.05-.3,.09-.52,.13l-.44,.08c-.41,.07-.7,.16-.88,.27-.3,.18-.45,.45-.45,.83,0,.33,.09,.57,.28,.72Z"/>
    <path class="cls-2" d="M406.71,230.81c.58,.37,.92,1.02,1,1.93h-1.95c-.03-.25-.1-.45-.21-.59-.21-.26-.58-.4-1.09-.4-.42,0-.73,.07-.91,.2-.18,.13-.27,.29-.27,.46,0,.22,.1,.38,.29,.49,.19,.1,.87,.29,2.03,.54,.77,.18,1.36,.46,1.74,.83,.38,.37,.57,.84,.57,1.4,0,.74-.27,1.34-.82,1.81-.55,.47-1.4,.7-2.55,.7s-2.04-.25-2.59-.74c-.56-.5-.84-1.12-.84-1.89h1.98c.04,.35,.13,.59,.27,.74,.24,.26,.69,.39,1.34,.39,.38,0,.69-.06,.91-.17,.23-.11,.34-.29,.34-.51s-.09-.38-.27-.5-.86-.31-2.03-.59c-.84-.21-1.44-.47-1.78-.79-.35-.31-.52-.76-.52-1.34,0-.69,.27-1.28,.81-1.77,.54-.49,1.3-.74,2.28-.74s1.69,.18,2.28,.55Z"/>
    <path class="cls-2" d="M372.56,250.31h-4.89v2.59h5.58v1.81h-7.64v-10.08h7.39v1.78h-5.33v2.14h4.89v1.75Z"/>
    <path class="cls-2" d="M374.77,244.64h1.95v10.08h-1.95v-10.08Z"/>
    <path class="cls-2" d="M384.99,252.53c-.05,.44-.28,.89-.69,1.35-.64,.72-1.53,1.09-2.68,1.09-.95,0-1.78-.31-2.51-.92s-1.09-1.6-1.09-2.98c0-1.29,.33-2.28,.98-2.97,.65-.69,1.5-1.03,2.55-1.03,.62,0,1.18,.12,1.67,.35s.91,.6,1.23,1.1c.29,.44,.48,.96,.57,1.54,.05,.34,.07,.83,.06,1.48h-5.1c.03,.75,.26,1.27,.7,1.57,.27,.19,.59,.28,.97,.28,.4,0,.73-.11,.98-.34,.14-.12,.26-.29,.36-.51h1.99Zm-1.93-2.28c-.03-.51-.19-.91-.47-1.17-.28-.27-.63-.4-1.04-.4-.45,0-.8,.14-1.05,.42-.25,.28-.4,.67-.47,1.15h3.03Z"/>
    <path class="cls-2" d="M392.85,249.94h-2c-.04-.28-.13-.53-.28-.75-.22-.3-.56-.45-1.02-.45-.66,0-1.11,.33-1.35,.98-.13,.35-.19,.81-.19,1.38s.06,.99,.19,1.32c.23,.62,.67,.93,1.31,.93,.46,0,.78-.12,.97-.37s.31-.57,.35-.96h1.99c-.05,.59-.26,1.15-.64,1.68-.61,.85-1.52,1.28-2.71,1.28s-2.08-.36-2.65-1.07-.85-1.63-.85-2.77c0-1.28,.31-2.28,.94-2.99s1.49-1.07,2.58-1.07c.93,0,1.7,.21,2.29,.63,.6,.42,.95,1.16,1.06,2.22Z"/>
    <path class="cls-2" d="M397.6,253.33v1.46l-.92,.03c-.92,.03-1.55-.13-1.89-.48-.22-.22-.33-.57-.33-1.03v-4.59h-1.04v-1.39h1.04v-2.08h1.93v2.08h1.21v1.39h-1.21v3.94c0,.31,.04,.5,.12,.57,.08,.07,.31,.11,.71,.11,.06,0,.12,0,.19,0,.07,0,.13,0,.2-.01Z"/>
    <path class="cls-2" d="M402.6,249.06c-.78,0-1.31,.25-1.58,.77-.15,.29-.23,.73-.23,1.33v3.56h-1.96v-7.45h1.86v1.3c.3-.5,.56-.84,.79-1.02,.36-.31,.84-.46,1.42-.46,.04,0,.07,0,.09,0,.02,0,.08,0,.17,0v2c-.12-.01-.23-.02-.33-.03s-.17,0-.23,0Z"/>
    <path class="cls-2" d="M406.3,244.58v1.8h-1.98v-1.8h1.98Zm0,2.69v7.45h-1.98v-7.45h1.98Z"/>
    <path class="cls-2" d="M414.63,249.94h-2c-.04-.28-.13-.53-.28-.75-.22-.3-.56-.45-1.02-.45-.66,0-1.11,.33-1.35,.98-.13,.35-.19,.81-.19,1.38s.06,.99,.19,1.32c.23,.62,.67,.93,1.31,.93,.46,0,.78-.12,.97-.37s.31-.57,.35-.96h1.99c-.05,.59-.26,1.15-.64,1.68-.61,.85-1.52,1.28-2.71,1.28s-2.08-.36-2.65-1.07-.85-1.63-.85-2.77c0-1.28,.31-2.28,.94-2.99s1.49-1.07,2.58-1.07c.93,0,1.7,.21,2.29,.63,.6,.42,.95,1.16,1.06,2.22Z"/>
    <path class="cls-2" d="M416.25,248.07c.51-.66,1.4-.98,2.65-.98,.82,0,1.54,.16,2.17,.49s.95,.93,.95,1.83v3.42c0,.24,0,.52,.01,.86,.01,.25,.05,.43,.12,.52s.16,.17,.29,.23v.29h-2.12c-.06-.15-.1-.29-.12-.42s-.04-.28-.05-.45c-.27,.29-.58,.54-.93,.75-.42,.24-.89,.36-1.42,.36-.67,0-1.23-.19-1.67-.58-.44-.38-.66-.93-.66-1.64,0-.92,.35-1.58,1.06-1.99,.39-.22,.96-.38,1.71-.48l.66-.08c.36-.05,.62-.1,.77-.17,.28-.12,.42-.3,.42-.55,0-.31-.11-.52-.32-.63-.21-.12-.52-.17-.93-.17-.46,0-.79,.11-.98,.34-.14,.17-.23,.4-.27,.68h-1.88c.04-.65,.22-1.19,.55-1.61Zm1.45,5.24c.18,.15,.41,.23,.67,.23,.42,0,.81-.12,1.16-.37,.35-.25,.54-.7,.55-1.35v-.72c-.12,.08-.25,.14-.37,.19-.12,.05-.3,.09-.52,.13l-.44,.08c-.41,.07-.7,.16-.88,.27-.3,.18-.45,.45-.45,.83,0,.33,.09,.57,.28,.72Z"/>
    <path class="cls-2" d="M423.8,244.64h1.95v10.08h-1.95v-10.08Z"/>
    <path class="cls-2" d="M367.91,261.44h2.25l2.19,7.65,2.21-7.65h2.19l-3.44,10.08h-1.99l-3.4-10.08Z"/>
    <path class="cls-2" d="M383.45,269.33c-.05,.44-.28,.89-.69,1.35-.64,.72-1.53,1.09-2.68,1.09-.95,0-1.78-.31-2.51-.92s-1.09-1.6-1.09-2.98c0-1.29,.33-2.28,.98-2.97,.65-.69,1.5-1.03,2.55-1.03,.62,0,1.18,.12,1.67,.35s.91,.6,1.23,1.1c.29,.44,.48,.96,.57,1.54,.05,.34,.07,.83,.06,1.48h-5.1c.03,.75,.26,1.27,.7,1.57,.27,.19,.59,.28,.97,.28,.4,0,.73-.11,.98-.34,.14-.12,.26-.29,.36-.51h1.99Zm-1.93-2.28c-.03-.51-.19-.91-.47-1.17-.28-.27-.63-.4-1.04-.4-.45,0-.8,.14-1.05,.42-.25,.28-.4,.67-.47,1.15h3.03Z"/>
    <path class="cls-2" d="M391.59,267.14v4.38h-1.99v-4.53c0-.4-.07-.72-.21-.97-.18-.35-.51-.52-1.01-.52s-.91,.17-1.17,.52c-.27,.34-.4,.83-.4,1.47v4.03h-1.94v-10.04h1.94v3.56c.28-.43,.61-.73,.98-.91,.37-.17,.76-.26,1.17-.26,.46,0,.88,.08,1.25,.24,.38,.16,.69,.4,.93,.73,.21,.28,.33,.56,.38,.86,.05,.29,.07,.77,.07,1.44Z"/>
    <path class="cls-2" d="M395.41,261.38v1.8h-1.98v-1.8h1.98Zm0,2.69v7.45h-1.98v-7.45h1.98Z"/>
    <path class="cls-2" d="M403.74,266.74h-2c-.04-.28-.13-.53-.28-.75-.22-.3-.56-.45-1.02-.45-.66,0-1.11,.33-1.35,.98-.13,.35-.19,.81-.19,1.38s.06,.99,.19,1.32c.23,.62,.67,.93,1.31,.93,.46,0,.78-.12,.97-.37s.31-.57,.35-.96h1.99c-.05,.59-.26,1.15-.64,1.68-.61,.85-1.52,1.28-2.71,1.28s-2.08-.36-2.65-1.07-.85-1.63-.85-2.77c0-1.28,.31-2.28,.94-2.99s1.49-1.07,2.58-1.07c.93,0,1.7,.21,2.29,.63,.6,.42,.95,1.16,1.06,2.22Z"/>
    <path class="cls-2" d="M405.12,261.44h1.95v10.08h-1.95v-10.08Z"/>
    <path class="cls-2" d="M415.35,269.33c-.05,.44-.28,.89-.69,1.35-.64,.72-1.53,1.09-2.68,1.09-.95,0-1.78-.31-2.51-.92s-1.09-1.6-1.09-2.98c0-1.29,.33-2.28,.98-2.97,.65-.69,1.5-1.03,2.55-1.03,.62,0,1.18,.12,1.67,.35s.91,.6,1.23,1.1c.29,.44,.48,.96,.57,1.54,.05,.34,.07,.83,.06,1.48h-5.1c.03,.75,.26,1.27,.7,1.57,.27,.19,.59,.28,.97,.28,.4,0,.73-.11,.98-.34,.14-.12,.26-.29,.36-.51h1.99Zm-1.93-2.28c-.03-.51-.19-.91-.47-1.17-.28-.27-.63-.4-1.04-.4-.45,0-.8,.14-1.05,.42-.25,.28-.4,.67-.47,1.15h3.03Z"/>
    <path class="cls-2" d="M421.89,264.4c.58,.37,.92,1.02,1,1.93h-1.95c-.03-.25-.1-.45-.21-.59-.21-.26-.58-.4-1.09-.4-.42,0-.73,.07-.91,.2-.18,.13-.27,.29-.27,.46,0,.22,.1,.38,.29,.49,.19,.1,.87,.29,2.03,.54,.77,.18,1.36,.46,1.74,.83,.38,.37,.57,.84,.57,1.4,0,.74-.27,1.34-.82,1.81-.55,.47-1.4,.7-2.55,.7s-2.04-.25-2.59-.74c-.56-.5-.84-1.12-.84-1.89h1.98c.04,.35,.13,.59,.27,.74,.24,.26,.69,.39,1.34,.39,.38,0,.69-.06,.91-.17,.23-.11,.34-.29,.34-.51s-.09-.38-.27-.5-.86-.31-2.03-.59c-.84-.21-1.44-.47-1.78-.79-.35-.31-.52-.76-.52-1.34,0-.69,.27-1.28,.81-1.77,.54-.49,1.3-.74,2.28-.74s1.69,.18,2.28,.55Z"/>
  </g>
  <g>
    <path class="cls-2" d="M218.16,94.67h-2.11l-4.12-7.16v7.16h-1.96v-10.08h2.21l4.01,7.03v-7.03h1.96v10.08Z"/>
    <path class="cls-2" d="M224.74,93.62s-.06,.09-.14,.21-.16,.21-.26,.3c-.31,.27-.6,.46-.88,.56-.29,.1-.62,.15-1,.15-1.1,0-1.85-.4-2.23-1.19-.21-.44-.32-1.08-.32-1.93v-4.49h2v4.49c0,.42,.05,.74,.15,.96,.18,.38,.53,.57,1.05,.57,.67,0,1.12-.27,1.37-.81,.13-.29,.19-.68,.19-1.16v-4.05h1.98v7.45h-1.89v-1.05Z"/>
    <path class="cls-2" d="M232.7,89.27c-.16-.36-.49-.54-.96-.54-.56,0-.93,.18-1.12,.54-.1,.21-.16,.51-.16,.92v4.48h-1.98v-7.44h1.89v1.09c.24-.39,.47-.66,.68-.83,.38-.29,.87-.44,1.47-.44,.57,0,1.03,.12,1.38,.38,.28,.23,.5,.53,.64,.9,.25-.44,.57-.76,.95-.96,.4-.21,.85-.31,1.34-.31,.33,0,.65,.06,.97,.19s.61,.35,.87,.67c.21,.26,.35,.58,.42,.96,.05,.25,.07,.62,.07,1.1v4.7h-2.01v-4.74c0-.28-.05-.51-.14-.7-.17-.35-.49-.52-.96-.52-.54,0-.91,.22-1.11,.67-.1,.24-.16,.52-.16,.85v4.44h-1.96v-4.44c0-.44-.05-.76-.14-.96Z"/>
    <path class="cls-2" d="M245.01,94.87c-.62,0-1.11-.12-1.48-.37-.22-.15-.46-.4-.72-.77v.94h-1.91v-10.06h1.94v3.58c.25-.35,.52-.61,.81-.79,.35-.23,.8-.34,1.34-.34,.98,0,1.75,.35,2.3,1.06,.55,.71,.83,1.62,.83,2.73s-.27,2.12-.82,2.88-1.31,1.14-2.29,1.14Zm1.07-3.81c0-.53-.07-.97-.21-1.31-.26-.66-.74-.98-1.44-.98s-1.19,.32-1.46,.96c-.14,.34-.21,.78-.21,1.33,0,.64,.14,1.17,.42,1.59s.71,.63,1.29,.63c.5,0,.89-.2,1.17-.61s.42-.94,.42-1.6Z"/>
    <path class="cls-2" d="M255.9,92.48c-.05,.44-.28,.89-.69,1.35-.64,.72-1.53,1.09-2.68,1.09-.95,0-1.78-.31-2.51-.92s-1.09-1.6-1.09-2.98c0-1.29,.33-2.28,.98-2.97,.65-.69,1.5-1.03,2.55-1.03,.62,0,1.18,.12,1.67,.35s.91,.6,1.23,1.1c.29,.44,.48,.96,.57,1.54,.05,.34,.07,.83,.06,1.48h-5.1c.03,.75,.26,1.27,.7,1.57,.27,.19,.59,.28,.97,.28,.4,0,.73-.11,.98-.34,.14-.12,.26-.29,.36-.51h1.99Zm-1.93-2.28c-.03-.51-.19-.91-.47-1.17-.28-.27-.63-.4-1.04-.4-.45,0-.8,.14-1.05,.42-.25,.28-.4,.67-.47,1.15h3.03Z"/>
    <path class="cls-2" d="M261.05,89.02c-.78,0-1.31,.25-1.58,.77-.15,.29-.23,.73-.23,1.33v3.56h-1.96v-7.45h1.86v1.3c.3-.5,.56-.84,.79-1.02,.36-.31,.84-.46,1.42-.46,.04,0,.07,0,.09,0,.02,0,.08,0,.17,0v2c-.12-.01-.23-.02-.33-.03s-.17,0-.23,0Z"/>
    <path class="cls-2" d="M271.26,94.95c-1.44,0-2.54-.39-3.3-1.18-1.02-.96-1.53-2.35-1.53-4.16s.51-3.23,1.53-4.16c.76-.78,1.86-1.18,3.3-1.18s2.54,.39,3.3,1.18c1.02,.92,1.52,2.31,1.52,4.16s-.51,3.19-1.52,4.16c-.76,.78-1.86,1.18-3.3,1.18Zm1.99-2.71c.49-.62,.73-1.49,.73-2.62s-.25-2-.73-2.62c-.49-.62-1.15-.93-1.99-.93s-1.5,.31-2,.92-.75,1.49-.75,2.62,.25,2.01,.75,2.62,1.16,.92,2,.92,1.5-.31,1.99-.92Z"/>
    <path class="cls-2" d="M281.02,84.53v1.59c-.11-.01-.29-.02-.55-.03-.26,0-.43,.05-.53,.17-.1,.12-.15,.25-.15,.4v.63h1.28v1.37h-1.28v6.01h-1.94v-6.01h-1.09v-1.37h1.07v-.48c0-.8,.13-1.35,.4-1.65,.28-.45,.96-.67,2.04-.67,.12,0,.23,0,.33,.01,.1,0,.24,.02,.41,.03Z"/>
    <path class="cls-2" d="M214.46,111.75c-1.44,0-2.54-.39-3.3-1.18-1.02-.96-1.53-2.35-1.53-4.16s.51-3.23,1.53-4.16c.76-.78,1.86-1.18,3.3-1.18s2.54,.39,3.3,1.18c1.02,.92,1.52,2.31,1.52,4.16s-.51,3.19-1.52,4.16c-.76,.78-1.86,1.18-3.3,1.18Zm1.99-2.71c.49-.62,.73-1.49,.73-2.62s-.25-2-.73-2.62c-.49-.62-1.15-.93-1.99-.93s-1.5,.31-2,.92-.75,1.49-.75,2.62,.25,2.01,.75,2.62,1.16,.92,2,.92,1.5-.31,1.99-.92Z"/>
    <path class="cls-2" d="M227.18,106.69h-2c-.04-.28-.13-.53-.28-.75-.22-.3-.56-.45-1.02-.45-.66,0-1.11,.33-1.35,.98-.13,.35-.19,.81-.19,1.38s.06,.99,.19,1.32c.23,.62,.67,.93,1.31,.93,.46,0,.78-.12,.97-.37s.31-.57,.35-.96h1.99c-.05,.59-.26,1.15-.64,1.68-.61,.85-1.52,1.28-2.71,1.28s-2.08-.36-2.65-1.07-.85-1.63-.85-2.77c0-1.28,.31-2.28,.94-2.99s1.49-1.07,2.58-1.07c.93,0,1.7,.21,2.29,.63,.6,.42,.95,1.16,1.06,2.22Z"/>
    <path class="cls-2" d="M234.97,106.69h-2c-.04-.28-.13-.53-.28-.75-.22-.3-.56-.45-1.02-.45-.66,0-1.11,.33-1.35,.98-.13,.35-.19,.81-.19,1.38s.06,.99,.19,1.32c.23,.62,.67,.93,1.31,.93,.46,0,.78-.12,.97-.37s.31-.57,.35-.96h1.99c-.05,.59-.26,1.15-.64,1.68-.61,.85-1.52,1.28-2.71,1.28s-2.08-.36-2.65-1.07-.85-1.63-.85-2.77c0-1.28,.31-2.28,.94-2.99s1.49-1.07,2.58-1.07c.93,0,1.7,.21,2.29,.63,.6,.42,.95,1.16,1.06,2.22Z"/>
    <path class="cls-2" d="M241.09,110.42s-.06,.09-.14,.21-.16,.21-.26,.3c-.31,.27-.6,.46-.88,.56-.29,.1-.62,.15-1,.15-1.1,0-1.85-.4-2.23-1.19-.21-.44-.32-1.08-.32-1.93v-4.49h2v4.49c0,.42,.05,.74,.15,.96,.18,.38,.53,.57,1.05,.57,.67,0,1.12-.27,1.37-.81,.13-.29,.19-.68,.19-1.16v-4.05h1.98v7.45h-1.89v-1.05Z"/>
    <path class="cls-2" d="M251.1,104.82c.6,.64,.9,1.59,.9,2.83,0,1.31-.29,2.31-.88,3-.59,.69-1.35,1.03-2.28,1.03-.59,0-1.08-.15-1.48-.44-.21-.16-.42-.4-.63-.72v3.88h-1.93v-10.38h1.87v1.1c.21-.32,.43-.58,.67-.77,.43-.33,.95-.5,1.54-.5,.87,0,1.61,.32,2.21,.96Zm-1.11,2.93c0-.57-.13-1.08-.39-1.52-.26-.44-.69-.66-1.28-.66-.71,0-1.19,.33-1.46,1-.14,.36-.21,.81-.21,1.35,0,.87,.23,1.47,.69,1.83,.27,.21,.6,.31,.97,.31,.54,0,.96-.21,1.24-.63,.29-.42,.43-.98,.43-1.67Z"/>
    <path class="cls-2" d="M253.69,104.83c.51-.66,1.4-.98,2.65-.98,.82,0,1.54,.16,2.17,.49s.95,.93,.95,1.83v3.42c0,.24,0,.52,.01,.86,.01,.25,.05,.43,.12,.52s.16,.17,.29,.23v.29h-2.12c-.06-.15-.1-.29-.12-.42s-.04-.28-.05-.45c-.27,.29-.58,.54-.93,.75-.42,.24-.89,.36-1.42,.36-.67,0-1.23-.19-1.67-.58-.44-.38-.66-.93-.66-1.64,0-.92,.35-1.58,1.06-1.99,.39-.22,.96-.38,1.71-.48l.66-.08c.36-.05,.62-.1,.77-.17,.28-.12,.42-.3,.42-.55,0-.31-.11-.52-.32-.63-.21-.12-.52-.17-.93-.17-.46,0-.79,.11-.98,.34-.14,.17-.23,.4-.27,.68h-1.88c.04-.65,.22-1.19,.55-1.61Zm1.45,5.24c.18,.15,.41,.23,.67,.23,.42,0,.81-.12,1.16-.37,.35-.25,.54-.7,.55-1.35v-.72c-.12,.08-.25,.14-.37,.19-.12,.05-.3,.09-.52,.13l-.44,.08c-.41,.07-.7,.16-.88,.27-.3,.18-.45,.45-.45,.83,0,.33,.09,.57,.28,.72Z"/>
    <path class="cls-2" d="M264.71,105.46c-.66,0-1.11,.28-1.36,.84-.13,.3-.19,.67-.19,1.13v4.03h-1.94v-7.44h1.88v1.09c.25-.38,.49-.66,.71-.83,.4-.3,.91-.45,1.52-.45,.77,0,1.4,.2,1.89,.61,.49,.4,.74,1.07,.74,2.01v5.02h-2v-4.53c0-.39-.05-.69-.16-.9-.19-.38-.56-.57-1.09-.57Z"/>
    <path class="cls-2" d="M273.16,110.08v1.46l-.92,.03c-.92,.03-1.55-.13-1.89-.48-.22-.22-.33-.57-.33-1.03v-4.59h-1.04v-1.39h1.04v-2.08h1.93v2.08h1.21v1.39h-1.21v3.94c0,.31,.04,.5,.12,.57,.08,.07,.31,.11,.71,.11,.06,0,.12,0,.19,0,.07,0,.13,0,.2-.01Z"/>
    <path class="cls-2" d="M279.55,104.36c.58,.37,.92,1.02,1,1.93h-1.95c-.03-.25-.1-.45-.21-.59-.21-.26-.58-.4-1.09-.4-.42,0-.73,.07-.91,.2-.18,.13-.27,.29-.27,.46,0,.22,.1,.38,.29,.49,.19,.1,.87,.29,2.03,.54,.77,.18,1.36,.46,1.74,.83,.38,.37,.57,.84,.57,1.4,0,.74-.27,1.34-.82,1.81-.55,.47-1.4,.7-2.55,.7s-2.04-.25-2.59-.74c-.56-.5-.84-1.12-.84-1.89h1.98c.04,.35,.13,.59,.27,.74,.24,.26,.69,.39,1.34,.39,.38,0,.69-.06,.91-.17,.23-.11,.34-.29,.34-.51s-.09-.38-.27-.5-.86-.31-2.03-.59c-.84-.21-1.44-.47-1.78-.79-.35-.31-.52-.76-.52-1.34,0-.69,.27-1.28,.81-1.77,.54-.49,1.3-.74,2.28-.74s1.69,.18,2.28,.55Z"/>
  </g>
  <g>
    <path class="cls-2" d="M368.94,94.67h-2.11l-4.12-7.16v7.16h-1.96v-10.08h2.21l4.01,7.03v-7.03h1.96v10.08Z"/>
    <path class="cls-2" d="M375.52,93.62s-.06,.09-.14,.21-.16,.21-.26,.3c-.31,.27-.6,.46-.88,.56-.29,.1-.62,.15-1,.15-1.1,0-1.85-.4-2.23-1.19-.21-.44-.32-1.08-.32-1.93v-4.49h2v4.49c0,.42,.05,.74,.15,.96,.18,.38,.53,.57,1.05,.57,.67,0,1.12-.27,1.37-.81,.13-.29,.19-.68,.19-1.16v-4.05h1.98v7.45h-1.89v-1.05Z"/>
    <path class="cls-2" d="M383.48,89.27c-.16-.36-.49-.54-.96-.54-.56,0-.93,.18-1.12,.54-.1,.21-.16,.51-.16,.92v4.48h-1.98v-7.44h1.89v1.09c.24-.39,.47-.66,.68-.83,.38-.29,.87-.44,1.47-.44,.57,0,1.03,.12,1.38,.38,.28,.23,.5,.53,.64,.9,.25-.44,.57-.76,.95-.96,.4-.21,.85-.31,1.34-.31,.33,0,.65,.06,.97,.19s.61,.35,.87,.67c.21,.26,.35,.58,.42,.96,.05,.25,.07,.62,.07,1.1v4.7h-2.01v-4.74c0-.28-.05-.51-.14-.7-.17-.35-.49-.52-.96-.52-.54,0-.91,.22-1.11,.67-.1,.24-.16,.52-.16,.85v4.44h-1.96v-4.44c0-.44-.05-.76-.14-.96Z"/>
    <path class="cls-2" d="M395.79,94.87c-.62,0-1.11-.12-1.48-.37-.22-.15-.46-.4-.72-.77v.94h-1.91v-10.06h1.94v3.58c.25-.35,.52-.61,.81-.79,.35-.23,.8-.34,1.34-.34,.98,0,1.75,.35,2.3,1.06,.55,.71,.83,1.62,.83,2.73s-.27,2.12-.82,2.88-1.31,1.14-2.29,1.14Zm1.07-3.81c0-.53-.07-.97-.21-1.31-.26-.66-.74-.98-1.44-.98s-1.19,.32-1.46,.96c-.14,.34-.21,.78-.21,1.33,0,.64,.14,1.17,.42,1.59s.71,.63,1.29,.63c.5,0,.89-.2,1.17-.61s.42-.94,.42-1.6Z"/>
    <path class="cls-2" d="M406.67,92.48c-.05,.44-.28,.89-.69,1.35-.64,.72-1.53,1.09-2.68,1.09-.95,0-1.78-.31-2.51-.92s-1.09-1.6-1.09-2.98c0-1.29,.33-2.28,.98-2.97,.65-.69,1.5-1.03,2.55-1.03,.62,0,1.18,.12,1.67,.35s.91,.6,1.23,1.1c.29,.44,.48,.96,.57,1.54,.05,.34,.07,.83,.06,1.48h-5.1c.03,.75,.26,1.27,.7,1.57,.27,.19,.59,.28,.97,.28,.4,0,.73-.11,.98-.34,.14-.12,.26-.29,.36-.51h1.99Zm-1.93-2.28c-.03-.51-.19-.91-.47-1.17-.28-.27-.63-.4-1.04-.4-.45,0-.8,.14-1.05,.42-.25,.28-.4,.67-.47,1.15h3.03Z"/>
    <path class="cls-2" d="M411.83,89.02c-.78,0-1.31,.25-1.58,.77-.15,.29-.23,.73-.23,1.33v3.56h-1.96v-7.45h1.86v1.3c.3-.5,.56-.84,.79-1.02,.36-.31,.84-.46,1.42-.46,.04,0,.07,0,.09,0,.02,0,.08,0,.17,0v2c-.12-.01-.23-.02-.33-.03s-.17,0-.23,0Z"/>
    <path class="cls-2" d="M422.03,94.95c-1.44,0-2.54-.39-3.3-1.18-1.02-.96-1.53-2.35-1.53-4.16s.51-3.23,1.53-4.16c.76-.78,1.86-1.18,3.3-1.18s2.54,.39,3.3,1.18c1.02,.92,1.52,2.31,1.52,4.16s-.51,3.19-1.52,4.16c-.76,.78-1.86,1.18-3.3,1.18Zm1.99-2.71c.49-.62,.73-1.49,.73-2.62s-.25-2-.73-2.62c-.49-.62-1.15-.93-1.99-.93s-1.5,.31-2,.92-.75,1.49-.75,2.62,.25,2.01,.75,2.62,1.16,.92,2,.92,1.5-.31,1.99-.92Z"/>
    <path class="cls-2" d="M431.8,84.53v1.59c-.11-.01-.29-.02-.55-.03-.26,0-.43,.05-.53,.17-.1,.12-.15,.25-.15,.4v.63h1.28v1.37h-1.28v6.01h-1.94v-6.01h-1.09v-1.37h1.07v-.48c0-.8,.13-1.35,.4-1.65,.28-.45,.96-.67,2.04-.67,.12,0,.23,0,.33,.01,.1,0,.24,.02,.41,.03Z"/>
    <path class="cls-2" d="M366.94,111.47h-4.57v-10.08h4.89c1.24,.02,2.11,.38,2.62,1.07,.31,.43,.46,.94,.46,1.54s-.16,1.11-.46,1.48c-.17,.21-.43,.4-.77,.57,.51,.19,.9,.48,1.17,.89,.26,.41,.39,.9,.39,1.48s-.15,1.13-.45,1.61c-.19,.31-.43,.58-.72,.79-.32,.25-.71,.42-1.14,.51-.44,.09-.92,.14-1.43,.14Zm1-6.36c.27-.16,.41-.46,.41-.88,0-.47-.18-.78-.55-.93-.31-.1-.72-.16-1.2-.16h-2.21v2.22h2.47c.44,0,.8-.08,1.08-.25Zm-1.05,1.92h-2.51v2.69h2.47c.44,0,.79-.06,1.03-.18,.45-.22,.67-.64,.67-1.26,0-.52-.22-.88-.65-1.08-.24-.11-.58-.17-1.02-.17Z"/>
    <path class="cls-2" d="M378.67,109.28c-.05,.44-.28,.89-.69,1.35-.64,.72-1.53,1.09-2.68,1.09-.95,0-1.78-.31-2.51-.92s-1.09-1.6-1.09-2.98c0-1.29,.33-2.28,.98-2.97,.65-.69,1.5-1.03,2.55-1.03,.62,0,1.18,.12,1.67,.35s.91,.6,1.23,1.1c.29,.44,.48,.96,.57,1.54,.05,.34,.07,.83,.06,1.48h-5.1c.03,.75,.26,1.27,.7,1.57,.27,.19,.59,.28,.97,.28,.4,0,.73-.11,.98-.34,.14-.12,.26-.29,.36-.51h1.99Zm-1.93-2.28c-.03-.51-.19-.91-.47-1.17-.28-.27-.63-.4-1.04-.4-.45,0-.8,.14-1.05,.42-.25,.28-.4,.67-.47,1.15h3.03Z"/>
    <path class="cls-2" d="M386.86,101.41v10.06h-1.89v-1.03c-.28,.44-.59,.76-.95,.96s-.8,.3-1.33,.3c-.87,0-1.6-.35-2.2-1.06-.59-.7-.89-1.61-.89-2.71,0-1.27,.29-2.27,.88-3,.59-.73,1.37-1.09,2.35-1.09,.45,0,.85,.1,1.2,.3,.35,.2,.64,.47,.85,.82v-3.55h1.98Zm-5.25,6.38c0,.69,.14,1.24,.41,1.65,.27,.42,.68,.62,1.23,.62s.97-.21,1.26-.62,.43-.94,.43-1.59c0-.91-.23-1.56-.69-1.96-.28-.24-.61-.36-.98-.36-.57,0-.99,.22-1.25,.65-.27,.43-.4,.97-.4,1.6Z"/>
    <path class="cls-2" d="M392.38,105.82c-.78,0-1.31,.25-1.58,.77-.15,.29-.23,.73-.23,1.33v3.56h-1.96v-7.45h1.86v1.3c.3-.5,.56-.84,.79-1.02,.36-.31,.84-.46,1.42-.46,.04,0,.07,0,.09,0,.02,0,.08,0,.17,0v2c-.12-.01-.23-.02-.33-.03s-.17,0-.23,0Z"/>
    <path class="cls-2" d="M400.3,104.96c.63,.79,.94,1.72,.94,2.8s-.31,2.03-.94,2.81c-.63,.78-1.58,1.17-2.86,1.17s-2.24-.39-2.86-1.17c-.63-.78-.94-1.71-.94-2.81s.31-2.01,.94-2.8,1.58-1.18,2.86-1.18,2.24,.39,2.86,1.18Zm-2.87,.46c-.57,0-1.01,.2-1.32,.61-.31,.4-.46,.98-.46,1.73s.15,1.32,.46,1.73c.31,.41,.75,.61,1.32,.61s1.01-.2,1.31-.61,.46-.98,.46-1.73-.15-1.32-.46-1.73c-.31-.4-.74-.61-1.31-.61Z"/>
    <path class="cls-2" d="M408.85,104.96c.63,.79,.94,1.72,.94,2.8s-.31,2.03-.94,2.81c-.63,.78-1.58,1.17-2.86,1.17s-2.24-.39-2.86-1.17c-.63-.78-.94-1.71-.94-2.81s.31-2.01,.94-2.8,1.58-1.18,2.86-1.18,2.24,.39,2.86,1.18Zm-2.87,.46c-.57,0-1.01,.2-1.32,.61-.31,.4-.46,.98-.46,1.73s.15,1.32,.46,1.73c.31,.41,.75,.61,1.32,.61s1.01-.2,1.31-.61,.46-.98,.46-1.73-.15-1.32-.46-1.73c-.31-.4-.74-.61-1.31-.61Z"/>
    <path class="cls-2" d="M415.37,106.07c-.16-.36-.49-.54-.96-.54-.56,0-.93,.18-1.12,.54-.1,.21-.16,.51-.16,.92v4.48h-1.98v-7.44h1.89v1.09c.24-.39,.47-.66,.68-.83,.38-.29,.87-.44,1.47-.44,.57,0,1.03,.12,1.38,.38,.28,.23,.5,.53,.64,.9,.25-.44,.57-.76,.95-.96,.4-.21,.85-.31,1.34-.31,.33,0,.65,.06,.97,.19s.61,.35,.87,.67c.21,.26,.35,.58,.42,.96,.05,.25,.07,.62,.07,1.1v4.7h-2.01v-4.74c0-.28-.05-.51-.14-.7-.17-.35-.49-.52-.96-.52-.54,0-.91,.22-1.11,.67-.1,.24-.16,.52-.16,.85v4.44h-1.96v-4.44c0-.44-.05-.76-.14-.96Z"/>
    <path class="cls-2" d="M428.77,104.36c.58,.37,.92,1.02,1,1.93h-1.95c-.03-.25-.1-.45-.21-.59-.21-.26-.58-.4-1.09-.4-.42,0-.73,.07-.91,.2-.18,.13-.27,.29-.27,.46,0,.22,.1,.38,.29,.49,.19,.1,.87,.29,2.03,.54,.77,.18,1.36,.46,1.74,.83,.38,.37,.57,.84,.57,1.4,0,.74-.27,1.34-.82,1.81-.55,.47-1.4,.7-2.55,.7s-2.04-.25-2.59-.74c-.56-.5-.84-1.12-.84-1.89h1.98c.04,.35,.13,.59,.27,.74,.24,.26,.69,.39,1.34,.39,.38,0,.69-.06,.91-.17,.23-.11,.34-.29,.34-.51s-.09-.38-.27-.5-.86-.31-2.03-.59c-.84-.21-1.44-.47-1.78-.79-.35-.31-.52-.76-.52-1.34,0-.69,.27-1.28,.81-1.77,.54-.49,1.3-.74,2.28-.74s1.69,.18,2.28,.55Z"/>
  </g>
  <g>
    <path class="cls-2" d="M664.22,86.18h-4.57v-10.08h4.89c1.24,.02,2.11,.38,2.62,1.07,.31,.43,.46,.94,.46,1.54s-.16,1.11-.46,1.48c-.17,.21-.43,.4-.77,.57,.51,.19,.9,.48,1.17,.89,.26,.41,.39,.9,.39,1.48s-.15,1.13-.45,1.61c-.19,.31-.43,.58-.72,.79-.32,.25-.71,.41-1.14,.51-.44,.09-.92,.14-1.43,.14Zm1-6.36c.27-.16,.41-.46,.41-.88,0-.47-.18-.78-.55-.93-.31-.1-.72-.16-1.2-.16h-2.21v2.22h2.47c.44,0,.8-.08,1.08-.25Zm-1.05,1.92h-2.51v2.69h2.47c.44,0,.79-.06,1.03-.18,.45-.22,.67-.64,.67-1.26,0-.53-.22-.88-.65-1.08-.24-.11-.58-.17-1.02-.17Z"/>
    <path class="cls-2" d="M675.79,79.68c.63,.79,.94,1.72,.94,2.79s-.31,2.03-.94,2.81-1.58,1.17-2.86,1.17-2.24-.39-2.86-1.17-.94-1.71-.94-2.81,.31-2.01,.94-2.79c.63-.79,1.58-1.18,2.86-1.18s2.24,.39,2.86,1.18Zm-2.87,.46c-.57,0-1.01,.2-1.32,.61-.31,.4-.46,.98-.46,1.72s.15,1.32,.46,1.73c.31,.4,.75,.61,1.32,.61s1.01-.2,1.31-.61c.31-.41,.46-.98,.46-1.73s-.15-1.32-.46-1.72c-.31-.4-.74-.61-1.31-.61Z"/>
    <path class="cls-2" d="M680.13,76.04v1.8h-1.98v-1.8h1.98Zm0,2.69v7.45h-1.98v-7.45h1.98Z"/>
    <path class="cls-2" d="M682.05,76.11h1.95v10.08h-1.95v-10.08Z"/>
    <path class="cls-2" d="M692.28,84c-.05,.44-.28,.89-.69,1.35-.64,.72-1.53,1.09-2.68,1.09-.95,0-1.78-.31-2.51-.92-.72-.61-1.09-1.61-1.09-2.98,0-1.29,.33-2.28,.98-2.97,.65-.69,1.5-1.03,2.55-1.03,.62,0,1.18,.12,1.67,.35s.91,.6,1.23,1.1c.29,.44,.48,.96,.57,1.54,.05,.34,.07,.83,.06,1.48h-5.1c.03,.75,.26,1.27,.7,1.57,.27,.19,.59,.28,.97,.28,.4,0,.73-.11,.98-.34,.14-.12,.26-.29,.36-.51h1.99Zm-1.93-2.28c-.03-.52-.19-.91-.47-1.17-.28-.27-.63-.4-1.04-.4-.45,0-.8,.14-1.05,.42-.25,.28-.4,.66-.47,1.15h3.03Z"/>
    <path class="cls-2" d="M697.44,80.53c-.78,0-1.31,.26-1.58,.77-.15,.29-.23,.73-.23,1.33v3.56h-1.96v-7.45h1.86v1.3c.3-.5,.56-.84,.79-1.02,.36-.3,.84-.46,1.42-.46,.04,0,.07,0,.09,0,.02,0,.08,0,.17,0v2c-.12-.01-.23-.02-.33-.03-.1,0-.17,0-.23,0Z"/>
    <path class="cls-2" d="M710.51,76.11v1.78h-3.01v8.29h-2.12v-8.29h-3.03v-1.78h8.16Z"/>
    <path class="cls-2" d="M713.57,84.23l1.54-5.5h2.07l-2.56,7.33c-.49,1.41-.88,2.29-1.17,2.63-.29,.34-.86,.51-1.72,.51-.17,0-.31,0-.42,0-.1,0-.26-.01-.47-.03v-1.56h.25c.19,.02,.37,.02,.55,0,.17-.02,.32-.08,.44-.16,.11-.08,.22-.24,.32-.48,.1-.25,.14-.4,.12-.45l-2.73-7.78h2.17l1.63,5.5Z"/>
    <path class="cls-2" d="M724.57,79.53c.6,.64,.9,1.59,.9,2.83,0,1.31-.29,2.31-.88,3-.59,.69-1.35,1.03-2.28,1.03-.59,0-1.08-.15-1.48-.44-.21-.16-.42-.4-.63-.72v3.88h-1.93v-10.38h1.87v1.1c.21-.32,.43-.58,.67-.77,.43-.33,.95-.5,1.54-.5,.87,0,1.61,.32,2.21,.96Zm-1.11,2.93c0-.57-.13-1.08-.39-1.52-.26-.44-.69-.66-1.28-.66-.71,0-1.19,.34-1.46,1.01-.14,.36-.21,.81-.21,1.35,0,.87,.23,1.47,.69,1.82,.27,.21,.6,.31,.97,.31,.54,0,.96-.21,1.24-.63,.29-.42,.43-.98,.43-1.68Z"/>
    <path class="cls-2" d="M733.26,84c-.05,.44-.28,.89-.69,1.35-.64,.72-1.53,1.09-2.68,1.09-.95,0-1.78-.31-2.51-.92-.72-.61-1.09-1.61-1.09-2.98,0-1.29,.33-2.28,.98-2.97,.65-.69,1.5-1.03,2.55-1.03,.62,0,1.18,.12,1.67,.35s.91,.6,1.23,1.1c.29,.44,.48,.96,.57,1.54,.05,.34,.07,.83,.06,1.48h-5.1c.03,.75,.26,1.27,.7,1.57,.27,.19,.59,.28,.97,.28,.4,0,.73-.11,.98-.34,.14-.12,.26-.29,.36-.51h1.99Zm-1.93-2.28c-.03-.52-.19-.91-.47-1.17-.28-.27-.63-.4-1.04-.4-.45,0-.8,.14-1.05,.42-.25,.28-.4,.66-.47,1.15h3.03Z"/>
    <path class="cls-2" d="M657.68,94.69h-5.05v2.32h4.42v1.75h-4.42v4.22h-2.09v-10.06h7.14v1.77Z"/>
    <path class="cls-2" d="M665.15,96.48c.63,.79,.94,1.72,.94,2.79s-.31,2.03-.94,2.81-1.58,1.17-2.86,1.17-2.24-.39-2.86-1.17-.94-1.71-.94-2.81,.31-2.01,.94-2.79c.63-.79,1.58-1.18,2.86-1.18s2.24,.39,2.86,1.18Zm-2.87,.46c-.57,0-1.01,.2-1.32,.61-.31,.4-.46,.98-.46,1.72s.15,1.32,.46,1.73c.31,.4,.75,.61,1.32,.61s1.01-.2,1.31-.61c.31-.41,.46-.98,.46-1.73s-.15-1.32-.46-1.72c-.31-.4-.74-.61-1.31-.61Z"/>
    <path class="cls-2" d="M671.23,97.33c-.78,0-1.31,.26-1.58,.77-.15,.29-.23,.73-.23,1.33v3.56h-1.96v-7.45h1.86v1.3c.3-.5,.56-.84,.79-1.02,.36-.3,.84-.46,1.42-.46,.04,0,.07,0,.09,0,.02,0,.08,0,.17,0v2c-.12-.01-.23-.02-.33-.03-.1,0-.17,0-.23,0Z"/>
    <path class="cls-2" d="M684,98.58h-4.89v2.59h5.58v1.81h-7.64v-10.08h7.39v1.78h-5.33v2.14h4.89v1.75Z"/>
    <path class="cls-2" d="M686.2,92.91h1.95v10.08h-1.95v-10.08Z"/>
    <path class="cls-2" d="M696.43,100.8c-.05,.44-.28,.89-.69,1.35-.64,.72-1.53,1.09-2.68,1.09-.95,0-1.78-.31-2.51-.92-.72-.61-1.09-1.61-1.09-2.98,0-1.29,.33-2.28,.98-2.97,.65-.69,1.5-1.03,2.55-1.03,.62,0,1.18,.12,1.67,.35s.91,.6,1.23,1.1c.29,.44,.48,.96,.57,1.54,.05,.34,.07,.83,.06,1.48h-5.1c.03,.75,.26,1.27,.7,1.57,.27,.19,.59,.28,.97,.28,.4,0,.73-.11,.98-.34,.14-.12,.26-.29,.36-.51h1.99Zm-1.93-2.28c-.03-.52-.19-.91-.47-1.17-.28-.27-.63-.4-1.04-.4-.45,0-.8,.14-1.05,.42-.25,.28-.4,.66-.47,1.15h3.03Z"/>
    <path class="cls-2" d="M704.28,98.2h-2c-.04-.28-.13-.53-.28-.75-.22-.3-.56-.45-1.02-.45-.66,0-1.11,.33-1.35,.98-.13,.35-.19,.81-.19,1.38s.06,.99,.19,1.32c.23,.62,.67,.93,1.31,.93,.46,0,.78-.12,.97-.37s.31-.56,.35-.96h1.99c-.05,.59-.26,1.15-.64,1.68-.61,.85-1.52,1.28-2.71,1.28s-2.08-.36-2.65-1.07-.85-1.63-.85-2.77c0-1.28,.31-2.28,.94-2.99s1.49-1.07,2.58-1.07c.93,0,1.7,.21,2.29,.63,.6,.42,.95,1.16,1.06,2.22Z"/>
    <path class="cls-2" d="M709.04,101.6v1.46l-.92,.03c-.92,.03-1.55-.13-1.89-.48-.22-.22-.33-.57-.33-1.03v-4.59h-1.04v-1.39h1.04v-2.08h1.93v2.08h1.21v1.39h-1.21v3.94c0,.31,.04,.5,.12,.57,.08,.07,.31,.11,.71,.11,.06,0,.12,0,.19,0,.07,0,.13,0,.2-.01Z"/>
    <path class="cls-2" d="M714.03,97.33c-.78,0-1.31,.26-1.58,.77-.15,.29-.23,.73-.23,1.33v3.56h-1.96v-7.45h1.86v1.3c.3-.5,.56-.84,.79-1.02,.36-.3,.84-.46,1.42-.46,.04,0,.07,0,.09,0,.02,0,.08,0,.17,0v2c-.12-.01-.23-.02-.33-.03-.1,0-.17,0-.23,0Z"/>
    <path class="cls-2" d="M717.74,92.85v1.8h-1.98v-1.8h1.98Zm0,2.69v7.45h-1.98v-7.45h1.98Z"/>
    <path class="cls-2" d="M726.07,98.2h-2c-.04-.28-.13-.53-.28-.75-.22-.3-.56-.45-1.02-.45-.66,0-1.11,.33-1.35,.98-.13,.35-.19,.81-.19,1.38s.06,.99,.19,1.32c.23,.62,.67,.93,1.31,.93,.46,0,.78-.12,.97-.37s.31-.56,.35-.96h1.99c-.05,.59-.26,1.15-.64,1.68-.61,.85-1.52,1.28-2.71,1.28s-2.08-.36-2.65-1.07-.85-1.63-.85-2.77c0-1.28,.31-2.28,.94-2.99s1.49-1.07,2.58-1.07c.93,0,1.7,.21,2.29,.63,.6,.42,.95,1.16,1.06,2.22Z"/>
    <path class="cls-2" d="M729.41,92.85v1.8h-1.98v-1.8h1.98Zm0,2.69v7.45h-1.98v-7.45h1.98Z"/>
    <path class="cls-2" d="M734.71,101.6v1.46l-.92,.03c-.92,.03-1.55-.13-1.89-.48-.22-.22-.33-.57-.33-1.03v-4.59h-1.04v-1.39h1.04v-2.08h1.93v2.08h1.21v1.39h-1.21v3.94c0,.31,.04,.5,.12,.57,.08,.07,.31,.11,.71,.11,.06,0,.12,0,.19,0,.07,0,.13,0,.2-.01Z"/>
    <path class="cls-2" d="M738.99,101.03l1.54-5.5h2.07l-2.56,7.33c-.49,1.41-.88,2.29-1.17,2.63-.29,.34-.86,.51-1.72,.51-.17,0-.31,0-.42,0-.1,0-.26-.01-.47-.03v-1.56h.25c.19,.02,.37,.02,.55,0,.17-.02,.32-.08,.44-.16,.11-.08,.22-.24,.32-.48,.1-.25,.14-.4,.12-.45l-2.73-7.78h2.17l1.63,5.5Z"/>
    <path class="cls-2" d="M659.23,119.03c-.75,.69-1.71,1.03-2.88,1.03-1.45,0-2.59-.46-3.42-1.39-.83-.94-1.24-2.21-1.24-3.84,0-1.76,.47-3.12,1.42-4.07,.82-.83,1.86-1.24,3.13-1.24,1.7,0,2.93,.56,3.72,1.67,.43,.62,.67,1.25,.7,1.88h-2.11c-.14-.48-.31-.85-.53-1.09-.38-.44-.95-.66-1.7-.66s-1.37,.31-1.81,.93-.66,1.49-.66,2.62,.23,1.98,.7,2.54c.47,.56,1.06,.85,1.78,.85s1.3-.24,1.69-.72c.21-.26,.39-.65,.53-1.17h2.08c-.18,1.1-.65,1.99-1.39,2.68Z"/>
    <path class="cls-2" d="M668.29,113.28c.63,.79,.94,1.72,.94,2.8s-.31,2.03-.94,2.8c-.63,.78-1.58,1.17-2.86,1.17s-2.24-.39-2.86-1.17c-.63-.78-.94-1.71-.94-2.8s.31-2.01,.94-2.8c.63-.79,1.58-1.18,2.86-1.18s2.24,.39,2.86,1.18Zm-2.87,.46c-.57,0-1.01,.2-1.32,.61-.31,.4-.46,.98-.46,1.73s.15,1.32,.46,1.73c.31,.41,.75,.61,1.32,.61s1.01-.2,1.31-.61c.31-.4,.46-.98,.46-1.73s-.15-1.32-.46-1.73c-.31-.4-.74-.61-1.31-.61Z"/>
    <path class="cls-2" d="M674.13,113.78c-.66,0-1.11,.28-1.36,.84-.13,.3-.19,.68-.19,1.13v4.03h-1.94v-7.44h1.88v1.09c.25-.38,.49-.66,.71-.83,.4-.3,.91-.45,1.52-.45,.77,0,1.4,.2,1.89,.61,.49,.4,.74,1.07,.74,2.01v5.02h-2v-4.53c0-.39-.05-.69-.16-.9-.19-.38-.56-.57-1.09-.57Z"/>
    <path class="cls-2" d="M684.31,112.67c.58,.38,.92,1.02,1,1.93h-1.95c-.03-.25-.1-.45-.21-.59-.21-.27-.58-.4-1.09-.4-.42,0-.73,.07-.91,.2-.18,.13-.27,.29-.27,.46,0,.22,.1,.38,.29,.49,.19,.1,.87,.29,2.03,.54,.77,.18,1.36,.46,1.74,.83,.38,.37,.57,.84,.57,1.4,0,.74-.27,1.34-.82,1.81-.55,.47-1.4,.7-2.55,.7s-2.04-.25-2.59-.74c-.56-.49-.84-1.12-.84-1.89h1.98c.04,.35,.13,.59,.27,.74,.24,.26,.69,.39,1.34,.39,.38,0,.69-.06,.91-.17,.23-.11,.34-.29,.34-.51s-.09-.38-.27-.5c-.18-.11-.86-.31-2.03-.59-.84-.21-1.44-.47-1.78-.79-.35-.31-.52-.76-.52-1.34,0-.69,.27-1.28,.81-1.78,.54-.49,1.3-.74,2.28-.74s1.69,.18,2.28,.55Z"/>
    <path class="cls-2" d="M691.74,118.73s-.06,.09-.14,.21c-.07,.12-.16,.21-.26,.3-.31,.27-.6,.46-.88,.56-.29,.1-.62,.15-1,.15-1.1,0-1.85-.4-2.23-1.19-.21-.44-.32-1.08-.32-1.93v-4.49h2v4.49c0,.42,.05,.74,.15,.96,.18,.38,.53,.57,1.05,.57,.67,0,1.12-.27,1.37-.81,.13-.29,.19-.68,.19-1.15v-4.05h1.98v7.45h-1.89v-1.05Z"/>
    <path class="cls-2" d="M699.7,114.38c-.16-.36-.49-.54-.96-.54-.56,0-.93,.18-1.12,.54-.1,.21-.16,.51-.16,.92v4.48h-1.98v-7.44h1.89v1.09c.24-.39,.47-.66,.68-.83,.38-.29,.87-.44,1.47-.44,.57,0,1.03,.12,1.38,.38,.28,.23,.5,.53,.64,.89,.25-.44,.57-.76,.95-.96,.4-.21,.85-.31,1.34-.31,.33,0,.65,.06,.97,.19,.32,.13,.61,.35,.87,.67,.21,.26,.35,.58,.42,.96,.05,.25,.07,.62,.07,1.1v4.7h-2.01v-4.74c0-.28-.05-.51-.14-.7-.17-.35-.49-.52-.96-.52-.54,0-.91,.22-1.11,.67-.1,.24-.16,.52-.16,.86v4.44h-1.96v-4.44c0-.44-.05-.76-.14-.96Z"/>
    <path class="cls-2" d="M714.2,113.13c.6,.64,.9,1.59,.9,2.83,0,1.31-.29,2.31-.88,3-.59,.69-1.35,1.03-2.28,1.03-.59,0-1.08-.15-1.48-.45-.21-.16-.42-.4-.63-.72v3.88h-1.93v-10.38h1.87v1.1c.21-.32,.43-.58,.67-.77,.43-.33,.95-.5,1.54-.5,.87,0,1.61,.32,2.21,.96Zm-1.11,2.93c0-.57-.13-1.08-.39-1.53-.26-.44-.69-.66-1.28-.66-.71,0-1.19,.33-1.46,1-.14,.36-.21,.81-.21,1.35,0,.87,.23,1.47,.69,1.83,.27,.21,.6,.31,.97,.31,.54,0,.96-.21,1.24-.63,.29-.42,.43-.98,.43-1.67Z"/>
    <path class="cls-2" d="M719.93,118.4v1.46l-.92,.04c-.92,.03-1.55-.13-1.89-.48-.22-.22-.33-.57-.33-1.03v-4.59h-1.04v-1.39h1.04v-2.08h1.93v2.08h1.21v1.39h-1.21v3.94c0,.3,.04,.49,.12,.57,.08,.07,.31,.11,.71,.11,.06,0,.12,0,.19,0,.07,0,.13,0,.2,0Z"/>
    <path class="cls-2" d="M723.18,109.65v1.8h-1.98v-1.8h1.98Zm0,2.69v7.45h-1.98v-7.45h1.98Z"/>
    <path class="cls-2" d="M731.28,113.28c.63,.79,.94,1.72,.94,2.8s-.31,2.03-.94,2.8c-.63,.78-1.58,1.17-2.86,1.17s-2.24-.39-2.86-1.17c-.63-.78-.94-1.71-.94-2.8s.31-2.01,.94-2.8c.63-.79,1.58-1.18,2.86-1.18s2.24,.39,2.86,1.18Zm-2.87,.46c-.57,0-1.01,.2-1.32,.61-.31,.4-.46,.98-.46,1.73s.15,1.32,.46,1.73c.31,.41,.75,.61,1.32,.61s1.01-.2,1.31-.61c.31-.4,.46-.98,.46-1.73s-.15-1.32-.46-1.73c-.31-.4-.74-.61-1.31-.61Z"/>
    <path class="cls-2" d="M737.12,113.78c-.66,0-1.11,.28-1.36,.84-.13,.3-.19,.68-.19,1.13v4.03h-1.94v-7.44h1.88v1.09c.25-.38,.49-.66,.71-.83,.4-.3,.91-.45,1.52-.45,.77,0,1.4,.2,1.89,.61,.49,.4,.74,1.07,.74,2.01v5.02h-2v-4.53c0-.39-.05-.69-.16-.9-.19-.38-.56-.57-1.09-.57Z"/>
  </g>
  <text class="cls-3" transform="translate(71.91 102.15)"><tspan x="0" y="0">Region</tspan></text>
  <g>
    <path class="cls-2" d="M513.17,84.6v1.78h-3.01v8.29h-2.12v-8.29h-3.03v-1.78h8.16Z"/>
    <path class="cls-2" d="M519.59,92.48c-.05,.44-.28,.89-.69,1.35-.64,.72-1.53,1.09-2.68,1.09-.95,0-1.78-.31-2.51-.92s-1.09-1.6-1.09-2.98c0-1.29,.33-2.28,.98-2.97,.65-.69,1.5-1.03,2.55-1.03,.62,0,1.18,.12,1.67,.35s.91,.6,1.23,1.1c.29,.44,.48,.96,.57,1.54,.05,.34,.07,.83,.06,1.48h-5.1c.03,.75,.26,1.27,.7,1.57,.27,.19,.59,.28,.97,.28,.4,0,.73-.11,.98-.34,.14-.12,.26-.29,.36-.51h1.99Zm-1.93-2.28c-.03-.51-.19-.91-.47-1.17-.28-.27-.63-.4-1.04-.4-.45,0-.8,.14-1.05,.42-.25,.28-.4,.67-.47,1.15h3.03Z"/>
    <path class="cls-2" d="M525.18,89.27c-.16-.36-.49-.54-.96-.54-.56,0-.93,.18-1.12,.54-.1,.21-.16,.51-.16,.92v4.48h-1.98v-7.44h1.89v1.09c.24-.39,.47-.66,.68-.83,.38-.29,.87-.44,1.47-.44,.57,0,1.03,.12,1.38,.38,.28,.23,.5,.53,.64,.9,.25-.44,.57-.76,.95-.96,.4-.21,.85-.31,1.34-.31,.33,0,.65,.06,.97,.19s.61,.35,.87,.67c.21,.26,.35,.58,.42,.96,.05,.25,.07,.62,.07,1.1v4.7h-2.01v-4.74c0-.28-.05-.51-.14-.7-.17-.35-.49-.52-.96-.52-.54,0-.91,.22-1.11,.67-.1,.24-.16,.52-.16,.85v4.44h-1.96v-4.44c0-.44-.05-.76-.14-.96Z"/>
    <path class="cls-2" d="M539.69,88.02c.6,.64,.9,1.59,.9,2.83,0,1.31-.29,2.31-.88,3-.59,.69-1.35,1.03-2.28,1.03-.59,0-1.08-.15-1.48-.44-.21-.16-.42-.4-.63-.72v3.88h-1.93v-10.38h1.87v1.1c.21-.32,.43-.58,.67-.77,.43-.33,.95-.5,1.54-.5,.87,0,1.61,.32,2.21,.96Zm-1.11,2.93c0-.57-.13-1.08-.39-1.52-.26-.44-.69-.66-1.28-.66-.71,0-1.19,.33-1.46,1-.14,.36-.21,.81-.21,1.35,0,.87,.23,1.47,.69,1.83,.27,.21,.6,.31,.97,.31,.54,0,.96-.21,1.24-.63,.29-.42,.43-.98,.43-1.67Z"/>
    <path class="cls-2" d="M548.38,92.48c-.05,.44-.28,.89-.69,1.35-.64,.72-1.53,1.09-2.68,1.09-.95,0-1.78-.31-2.51-.92s-1.09-1.6-1.09-2.98c0-1.29,.33-2.28,.98-2.97,.65-.69,1.5-1.03,2.55-1.03,.62,0,1.18,.12,1.67,.35s.91,.6,1.23,1.1c.29,.44,.48,.96,.57,1.54,.05,.34,.07,.83,.06,1.48h-5.1c.03,.75,.26,1.27,.7,1.57,.27,.19,.59,.28,.97,.28,.4,0,.73-.11,.98-.34,.14-.12,.26-.29,.36-.51h1.99Zm-1.93-2.28c-.03-.51-.19-.91-.47-1.17-.28-.27-.63-.4-1.04-.4-.45,0-.8,.14-1.05,.42-.25,.28-.4,.67-.47,1.15h3.03Z"/>
    <path class="cls-2" d="M553.53,89.02c-.78,0-1.31,.25-1.58,.77-.15,.29-.23,.73-.23,1.33v3.56h-1.96v-7.45h1.86v1.3c.3-.5,.56-.84,.79-1.02,.36-.31,.84-.46,1.42-.46,.04,0,.07,0,.09,0,.02,0,.08,0,.17,0v2c-.12-.01-.23-.02-.33-.03s-.17,0-.23,0Z"/>
    <path class="cls-2" d="M555.51,88.03c.51-.66,1.4-.98,2.65-.98,.82,0,1.54,.16,2.17,.49s.95,.93,.95,1.83v3.42c0,.24,0,.52,.01,.86,.01,.25,.05,.43,.12,.52s.16,.17,.29,.23v.29h-2.12c-.06-.15-.1-.29-.12-.42s-.04-.28-.05-.45c-.27,.29-.58,.54-.93,.75-.42,.24-.89,.36-1.42,.36-.67,0-1.23-.19-1.67-.58-.44-.38-.66-.93-.66-1.64,0-.92,.35-1.58,1.06-1.99,.39-.22,.96-.38,1.71-.48l.66-.08c.36-.05,.62-.1,.77-.17,.28-.12,.42-.3,.42-.55,0-.31-.11-.52-.32-.63-.21-.12-.52-.17-.93-.17-.46,0-.79,.11-.98,.34-.14,.17-.23,.4-.27,.68h-1.88c.04-.65,.22-1.19,.55-1.61Zm1.45,5.24c.18,.15,.41,.23,.67,.23,.42,0,.81-.12,1.16-.37,.35-.25,.54-.7,.55-1.35v-.72c-.12,.08-.25,.14-.37,.19-.12,.05-.3,.09-.52,.13l-.44,.08c-.41,.07-.7,.16-.88,.27-.3,.18-.45,.45-.45,.83,0,.33,.09,.57,.28,.72Z"/>
    <path class="cls-2" d="M566.43,93.28v1.46l-.92,.03c-.92,.03-1.55-.13-1.89-.48-.22-.22-.33-.57-.33-1.03v-4.59h-1.04v-1.39h1.04v-2.08h1.93v2.08h1.21v1.39h-1.21v3.94c0,.31,.04,.5,.12,.57,.08,.07,.31,.11,.71,.11,.06,0,.12,0,.19,0,.07,0,.13,0,.2-.01Z"/>
    <path class="cls-2" d="M572.46,93.62s-.06,.09-.14,.21-.16,.21-.26,.3c-.31,.27-.6,.46-.88,.56-.29,.1-.62,.15-1,.15-1.1,0-1.85-.4-2.23-1.19-.21-.44-.32-1.08-.32-1.93v-4.49h2v4.49c0,.42,.05,.74,.15,.96,.18,.38,.53,.57,1.05,.57,.67,0,1.12-.27,1.37-.81,.13-.29,.19-.68,.19-1.16v-4.05h1.98v7.45h-1.89v-1.05Z"/>
    <path class="cls-2" d="M579.98,89.02c-.78,0-1.31,.25-1.58,.77-.15,.29-.23,.73-.23,1.33v3.56h-1.96v-7.45h1.86v1.3c.3-.5,.56-.84,.79-1.02,.36-.31,.84-.46,1.42-.46,.04,0,.07,0,.09,0,.02,0,.08,0,.17,0v2c-.12-.01-.23-.02-.33-.03s-.17,0-.23,0Z"/>
    <path class="cls-2" d="M588.06,92.48c-.05,.44-.28,.89-.69,1.35-.64,.72-1.53,1.09-2.68,1.09-.95,0-1.78-.31-2.51-.92s-1.09-1.6-1.09-2.98c0-1.29,.33-2.28,.98-2.97,.65-.69,1.5-1.03,2.55-1.03,.62,0,1.18,.12,1.67,.35s.91,.6,1.23,1.1c.29,.44,.48,.96,.57,1.54,.05,.34,.07,.83,.06,1.48h-5.1c.03,.75,.26,1.27,.7,1.57,.27,.19,.59,.28,.97,.28,.4,0,.73-.11,.98-.34,.14-.12,.26-.29,.36-.51h1.99Zm-1.93-2.28c-.03-.51-.19-.91-.47-1.17-.28-.27-.63-.4-1.04-.4-.45,0-.8,.14-1.05,.42-.25,.28-.4,.67-.47,1.15h3.03Z"/>
    <path class="cls-2" d="M534.84,111.47h-4.57v-10.08h4.89c1.24,.02,2.11,.38,2.62,1.07,.31,.43,.46,.94,.46,1.54s-.16,1.11-.46,1.48c-.17,.21-.43,.4-.77,.57,.51,.19,.9,.48,1.17,.89,.26,.41,.39,.9,.39,1.48s-.15,1.13-.45,1.61c-.19,.31-.43,.58-.72,.79-.32,.25-.71,.42-1.14,.51-.44,.09-.92,.14-1.43,.14Zm1-6.36c.27-.16,.41-.46,.41-.88,0-.47-.18-.78-.55-.93-.31-.1-.72-.16-1.2-.16h-2.21v2.22h2.47c.44,0,.8-.08,1.08-.25Zm-1.05,1.92h-2.51v2.69h2.47c.44,0,.79-.06,1.03-.18,.45-.22,.67-.64,.67-1.26,0-.52-.22-.88-.65-1.08-.24-.11-.58-.17-1.02-.17Z"/>
    <path class="cls-2" d="M540.47,104.83c.51-.66,1.4-.98,2.65-.98,.82,0,1.54,.16,2.17,.49s.95,.93,.95,1.83v3.42c0,.24,0,.52,.01,.86,.01,.25,.05,.43,.12,.52s.16,.17,.29,.23v.29h-2.12c-.06-.15-.1-.29-.12-.42s-.04-.28-.05-.45c-.27,.29-.58,.54-.93,.75-.42,.24-.89,.36-1.42,.36-.67,0-1.23-.19-1.67-.58-.44-.38-.66-.93-.66-1.64,0-.92,.35-1.58,1.06-1.99,.39-.22,.96-.38,1.71-.48l.66-.08c.36-.05,.62-.1,.77-.17,.28-.12,.42-.3,.42-.55,0-.31-.11-.52-.32-.63-.21-.12-.52-.17-.93-.17-.46,0-.79,.11-.98,.34-.14,.17-.23,.4-.27,.68h-1.88c.04-.65,.22-1.19,.55-1.61Zm1.45,5.24c.18,.15,.41,.23,.67,.23,.42,0,.81-.12,1.16-.37,.35-.25,.54-.7,.55-1.35v-.72c-.12,.08-.25,.14-.37,.19-.12,.05-.3,.09-.52,.13l-.44,.08c-.41,.07-.7,.16-.88,.27-.3,.18-.45,.45-.45,.83,0,.33,.09,.57,.28,.72Z"/>
    <path class="cls-2" d="M551.48,105.46c-.66,0-1.11,.28-1.36,.84-.13,.3-.19,.67-.19,1.13v4.03h-1.94v-7.44h1.88v1.09c.25-.38,.49-.66,.71-.83,.4-.3,.91-.45,1.52-.45,.77,0,1.4,.2,1.89,.61,.49,.4,.74,1.07,.74,2.01v5.02h-2v-4.53c0-.39-.05-.69-.16-.9-.19-.38-.56-.57-1.09-.57Z"/>
    <path class="cls-2" d="M563.31,101.41v10.06h-1.89v-1.03c-.28,.44-.59,.76-.95,.96s-.8,.3-1.33,.3c-.87,0-1.6-.35-2.2-1.06-.59-.7-.89-1.61-.89-2.71,0-1.27,.29-2.27,.88-3,.59-.73,1.37-1.09,2.35-1.09,.45,0,.85,.1,1.2,.3,.35,.2,.64,.47,.85,.82v-3.55h1.98Zm-5.25,6.38c0,.69,.14,1.24,.41,1.65,.27,.42,.68,.62,1.23,.62s.97-.21,1.26-.62,.43-.94,.43-1.59c0-.91-.23-1.56-.69-1.96-.28-.24-.61-.36-.98-.36-.57,0-.99,.22-1.25,.65-.27,.43-.4,.97-.4,1.6Z"/>
  </g>
  <g>
    <path class="cls-2" d="M528.96,387.4c-.75,.69-1.71,1.03-2.88,1.03-1.45,0-2.59-.46-3.42-1.39-.83-.93-1.24-2.21-1.24-3.84,0-1.76,.47-3.12,1.42-4.07,.82-.83,1.86-1.24,3.13-1.24,1.7,0,2.93,.56,3.72,1.67,.43,.62,.67,1.25,.7,1.88h-2.11c-.14-.48-.31-.85-.53-1.09-.38-.44-.95-.66-1.7-.66s-1.37,.31-1.81,.93c-.44,.62-.66,1.49-.66,2.62s.23,1.98,.7,2.54c.47,.56,1.06,.84,1.78,.84s1.3-.24,1.69-.72c.21-.26,.39-.65,.53-1.17h2.08c-.18,1.1-.65,1.99-1.39,2.68Z"/>
    <path class="cls-2" d="M536.58,387.1s-.06,.09-.14,.21-.16,.21-.26,.3c-.31,.27-.6,.46-.88,.56-.29,.1-.62,.15-1,.15-1.1,0-1.85-.4-2.23-1.19-.21-.44-.32-1.08-.32-1.93v-4.49h2v4.49c0,.42,.05,.74,.15,.96,.18,.38,.53,.57,1.05,.57,.67,0,1.12-.27,1.37-.81,.13-.29,.19-.68,.19-1.16v-4.05h1.98v7.45h-1.89v-1.05Z"/>
    <path class="cls-2" d="M544.1,382.5c-.78,0-1.31,.25-1.58,.77-.15,.29-.23,.73-.23,1.33v3.56h-1.96v-7.45h1.86v1.3c.3-.5,.56-.84,.79-1.02,.36-.31,.84-.46,1.42-.46,.04,0,.07,0,.09,0,.02,0,.08,0,.17,0v2c-.12-.01-.23-.02-.33-.03s-.17,0-.23,0Z"/>
    <path class="cls-2" d="M549.55,382.5c-.78,0-1.31,.25-1.58,.77-.15,.29-.23,.73-.23,1.33v3.56h-1.96v-7.45h1.86v1.3c.3-.5,.56-.84,.79-1.02,.36-.31,.84-.46,1.42-.46,.04,0,.07,0,.09,0,.02,0,.08,0,.17,0v2c-.12-.01-.23-.02-.33-.03s-.17,0-.23,0Z"/>
    <path class="cls-2" d="M557.63,385.96c-.05,.44-.28,.89-.69,1.35-.64,.72-1.53,1.09-2.68,1.09-.95,0-1.78-.31-2.51-.92s-1.09-1.6-1.09-2.98c0-1.29,.33-2.28,.98-2.97,.65-.69,1.5-1.03,2.55-1.03,.62,0,1.18,.12,1.67,.35s.91,.6,1.23,1.1c.29,.44,.48,.96,.57,1.54,.05,.34,.07,.83,.06,1.48h-5.1c.03,.75,.26,1.27,.7,1.57,.27,.19,.59,.28,.97,.28,.4,0,.73-.11,.98-.34,.14-.12,.26-.29,.36-.51h1.99Zm-1.93-2.28c-.03-.51-.19-.91-.47-1.17-.28-.27-.63-.4-1.04-.4-.45,0-.8,.14-1.05,.42-.25,.28-.4,.67-.47,1.15h3.03Z"/>
    <path class="cls-2" d="M562.54,382.14c-.66,0-1.11,.28-1.36,.84-.13,.3-.19,.67-.19,1.13v4.03h-1.94v-7.44h1.88v1.09c.25-.38,.49-.66,.71-.83,.4-.3,.91-.45,1.52-.45,.77,0,1.4,.2,1.89,.61,.49,.4,.74,1.07,.74,2.01v5.02h-2v-4.53c0-.39-.05-.69-.16-.9-.19-.38-.56-.57-1.09-.57Z"/>
    <path class="cls-2" d="M571,386.76v1.46l-.92,.03c-.92,.03-1.55-.13-1.89-.48-.22-.22-.33-.57-.33-1.03v-4.59h-1.04v-1.39h1.04v-2.08h1.93v2.08h1.21v1.39h-1.21v3.94c0,.31,.04,.5,.12,.57,.08,.07,.31,.11,.71,.11,.06,0,.12,0,.19,0,.07,0,.13,0,.2-.01Z"/>
    <path class="cls-2" d="M530.41,400.55h-4.89v2.59h5.58v1.81h-7.64v-10.08h7.39v1.78h-5.33v2.14h4.89v1.75Z"/>
    <path class="cls-2" d="M536.08,398.94c-.66,0-1.11,.28-1.36,.84-.13,.3-.19,.67-.19,1.13v4.03h-1.94v-7.44h1.88v1.09c.25-.38,.49-.66,.71-.83,.4-.3,.91-.45,1.52-.45,.77,0,1.4,.2,1.89,.61,.49,.4,.74,1.07,.74,2.01v5.02h-2v-4.53c0-.39-.05-.69-.16-.9-.19-.38-.56-.57-1.09-.57Z"/>
    <path class="cls-2" d="M547.5,402.76c-.05,.44-.28,.89-.69,1.35-.64,.72-1.53,1.09-2.68,1.09-.95,0-1.78-.31-2.51-.92s-1.09-1.6-1.09-2.98c0-1.29,.33-2.28,.98-2.97,.65-.69,1.5-1.03,2.55-1.03,.62,0,1.18,.12,1.67,.35s.91,.6,1.23,1.1c.29,.44,.48,.96,.57,1.54,.05,.34,.07,.83,.06,1.48h-5.1c.03,.75,.26,1.27,.7,1.57,.27,.19,.59,.28,.97,.28,.4,0,.73-.11,.98-.34,.14-.12,.26-.29,.36-.51h1.99Zm-1.93-2.28c-.03-.51-.19-.91-.47-1.17-.28-.27-.63-.4-1.04-.4-.45,0-.8,.14-1.05,.42-.25,.28-.4,.67-.47,1.15h3.03Z"/>
    <path class="cls-2" d="M552.66,399.3c-.78,0-1.31,.25-1.58,.77-.15,.29-.23,.73-.23,1.33v3.56h-1.96v-7.45h1.86v1.3c.3-.5,.56-.84,.79-1.02,.36-.31,.84-.46,1.42-.46,.04,0,.07,0,.09,0,.02,0,.08,0,.17,0v2c-.12-.01-.23-.02-.33-.03s-.17,0-.23,0Z"/>
    <path class="cls-2" d="M556.47,406.25c.21,.18,.56,.27,1.06,.27,.7,0,1.17-.23,1.41-.7,.16-.3,.23-.81,.23-1.52v-.48c-.19,.32-.39,.56-.6,.72-.39,.3-.89,.44-1.51,.44-.96,0-1.72-.34-2.29-1.01-.57-.67-.86-1.58-.86-2.73s.28-2.04,.83-2.79c.55-.75,1.33-1.13,2.34-1.13,.37,0,.7,.06,.98,.17,.47,.2,.86,.56,1.15,1.08v-1.07h1.89v7.07c0,.96-.16,1.69-.49,2.17-.56,.84-1.62,1.26-3.2,1.26-.95,0-1.73-.19-2.33-.56s-.93-.93-1-1.67h2.12c.05,.23,.14,.39,.27,.49Zm-.33-3.85c.26,.63,.74,.94,1.42,.94,.46,0,.84-.17,1.16-.52,.31-.34,.47-.89,.47-1.64,0-.71-.15-1.24-.45-1.61-.3-.37-.7-.55-1.2-.55-.68,0-1.16,.32-1.42,.96-.14,.34-.21,.76-.21,1.26,0,.43,.07,.82,.22,1.16Z"/>
    <path class="cls-2" d="M565.94,402.99l1.54-5.5h2.07l-2.56,7.33c-.49,1.41-.88,2.29-1.17,2.63-.29,.34-.86,.51-1.72,.51-.17,0-.31,0-.42,0-.1,0-.26-.01-.47-.02v-1.56h.25c.19,.02,.37,.02,.55,0s.32-.08,.44-.16c.11-.08,.22-.24,.32-.49,.1-.25,.14-.4,.12-.45l-2.73-7.78h2.17l1.63,5.5Z"/>
    <path class="cls-2" d="M529.63,417.8h-2.17v3.95h-2.06v-10.08h4.94c.71,.01,1.25,.1,1.63,.26,.38,.16,.7,.39,.97,.7,.22,.25,.39,.54,.52,.85s.19,.66,.19,1.06c0,.48-.12,.95-.36,1.41-.24,.46-.64,.79-1.2,.98,.46,.19,.79,.45,.99,.8,.19,.34,.29,.87,.29,1.58v.68c0,.46,.02,.77,.05,.94,.05,.26,.18,.45,.38,.57v.25h-2.32c-.06-.22-.11-.4-.14-.54-.05-.28-.08-.57-.09-.87v-.94c-.02-.64-.14-1.07-.37-1.29-.22-.21-.65-.32-1.27-.32Zm1.28-1.83c.42-.19,.63-.57,.63-1.13,0-.61-.2-1.02-.61-1.23-.23-.12-.57-.18-1.03-.18h-2.45v2.71h2.39c.47,0,.83-.05,1.07-.16Z"/>
    <path class="cls-2" d="M535.58,415.1c.51-.66,1.4-.98,2.65-.98,.82,0,1.54,.16,2.17,.49s.95,.93,.95,1.83v3.42c0,.24,0,.52,.01,.86,.01,.25,.05,.43,.12,.52s.16,.17,.29,.23v.29h-2.12c-.06-.15-.1-.29-.12-.42s-.04-.28-.05-.45c-.27,.29-.58,.54-.93,.75-.42,.24-.89,.36-1.42,.36-.67,0-1.23-.19-1.67-.58-.44-.38-.66-.93-.66-1.64,0-.92,.35-1.58,1.06-1.99,.39-.22,.96-.38,1.71-.48l.66-.08c.36-.05,.62-.1,.77-.17,.28-.12,.42-.3,.42-.55,0-.31-.11-.52-.32-.63-.21-.12-.52-.17-.93-.17-.46,0-.79,.11-.98,.34-.14,.17-.23,.4-.27,.68h-1.88c.04-.65,.22-1.19,.55-1.61Zm1.45,5.24c.18,.15,.41,.23,.67,.23,.42,0,.81-.12,1.16-.37,.35-.25,.54-.7,.55-1.35v-.72c-.12,.08-.25,.14-.37,.19-.12,.05-.3,.09-.52,.13l-.44,.08c-.41,.07-.7,.16-.88,.27-.3,.18-.45,.45-.45,.83,0,.33,.09,.57,.28,.72Z"/>
    <path class="cls-2" d="M546.5,420.36v1.46l-.92,.03c-.92,.03-1.55-.13-1.89-.48-.22-.22-.33-.57-.33-1.03v-4.59h-1.04v-1.39h1.04v-2.08h1.93v2.08h1.21v1.39h-1.21v3.94c0,.31,.04,.5,.12,.57,.08,.07,.31,.11,.71,.11,.06,0,.12,0,.19,0,.07,0,.13,0,.2-.01Z"/>
    <path class="cls-2" d="M549.75,411.61v1.8h-1.98v-1.8h1.98Zm0,2.69v7.45h-1.98v-7.45h1.98Z"/>
    <path class="cls-2" d="M555.15,415.74c-.66,0-1.11,.28-1.36,.84-.13,.3-.19,.67-.19,1.13v4.03h-1.94v-7.44h1.88v1.09c.25-.38,.49-.66,.71-.83,.4-.3,.91-.45,1.52-.45,.77,0,1.4,.2,1.89,.61,.49,.4,.74,1.07,.74,2.01v5.02h-2v-4.53c0-.39-.05-.69-.16-.9-.19-.38-.56-.57-1.09-.57Z"/>
    <path class="cls-2" d="M562.3,423.05c.21,.18,.56,.27,1.06,.27,.7,0,1.17-.23,1.41-.7,.16-.3,.23-.81,.23-1.52v-.48c-.19,.32-.39,.56-.6,.72-.39,.3-.89,.44-1.51,.44-.96,0-1.72-.34-2.29-1.01-.57-.67-.86-1.58-.86-2.73s.28-2.04,.83-2.79c.55-.75,1.33-1.13,2.34-1.13,.37,0,.7,.06,.98,.17,.47,.2,.86,.56,1.15,1.08v-1.07h1.89v7.07c0,.96-.16,1.69-.49,2.17-.56,.84-1.62,1.26-3.2,1.26-.95,0-1.73-.19-2.33-.56s-.93-.93-1-1.67h2.12c.05,.23,.14,.39,.27,.49Zm-.33-3.85c.26,.63,.74,.94,1.42,.94,.46,0,.84-.17,1.16-.52,.31-.34,.47-.89,.47-1.64,0-.71-.15-1.24-.45-1.61-.3-.37-.7-.55-1.2-.55-.68,0-1.16,.32-1.42,.96-.14,.34-.21,.76-.21,1.26,0,.43,.07,.82,.22,1.16Z"/>
  </g>
  <text class="cls-3" transform="translate(668.84 396.55)"><tspan x="0" y="0">Building </tspan><tspan x="14.77" y="16.8">Age</tspan></text>
  <text class="cls-3" transform="translate(58.97 404.95)"><tspan x="0" y="0">Floor</tspan><tspan class="cls-4" x="34.99" y="0"> </tspan><tspan x="38.37" y="0">Area</tspan></text>
  <g>
    <path class="cls-2" d="M389.51,394.85v-4.5h-3.94v4.5h-2.08v-10.08h2.08v3.84h3.94v-3.84h2.09v10.08h-2.09Z"/>
    <path class="cls-2" d="M393.74,388.2c.51-.66,1.4-.98,2.65-.98,.82,0,1.54,.16,2.17,.49s.95,.93,.95,1.83v3.42c0,.24,0,.52,.01,.86,.01,.25,.05,.43,.12,.52s.16,.17,.29,.23v.29h-2.12c-.06-.15-.1-.29-.12-.42s-.04-.28-.05-.45c-.27,.29-.58,.54-.93,.75-.42,.24-.89,.36-1.42,.36-.67,0-1.23-.19-1.67-.58-.44-.38-.66-.93-.66-1.64,0-.92,.35-1.58,1.06-1.99,.39-.22,.96-.38,1.71-.48l.66-.08c.36-.05,.62-.1,.77-.17,.28-.12,.42-.3,.42-.55,0-.31-.11-.52-.32-.63-.21-.12-.52-.17-.93-.17-.46,0-.79,.11-.98,.34-.14,.17-.23,.4-.27,.68h-1.88c.04-.65,.22-1.19,.55-1.61Zm1.45,5.24c.18,.15,.41,.23,.67,.23,.42,0,.81-.12,1.16-.37,.35-.25,.54-.7,.55-1.35v-.72c-.12,.08-.25,.14-.37,.19-.12,.05-.3,.09-.52,.13l-.44,.08c-.41,.07-.7,.16-.88,.27-.3,.18-.45,.45-.45,.83,0,.33,.09,.57,.28,.72Z"/>
    <path class="cls-2" d="M406.38,387.74c.58,.37,.92,1.02,1,1.93h-1.95c-.03-.25-.1-.45-.21-.59-.21-.26-.58-.4-1.09-.4-.42,0-.73,.07-.91,.2-.18,.13-.27,.29-.27,.46,0,.22,.1,.38,.29,.49,.19,.1,.87,.29,2.03,.54,.77,.18,1.36,.46,1.74,.83,.38,.37,.57,.84,.57,1.4,0,.74-.27,1.34-.82,1.81-.55,.47-1.4,.7-2.55,.7s-2.04-.25-2.59-.74c-.56-.5-.84-1.12-.84-1.89h1.98c.04,.35,.13,.59,.27,.74,.24,.26,.69,.39,1.34,.39,.38,0,.69-.06,.91-.17,.23-.11,.34-.29,.34-.51s-.09-.38-.27-.5-.86-.31-2.03-.59c-.84-.21-1.44-.47-1.78-.79-.35-.31-.52-.76-.52-1.34,0-.69,.27-1.28,.81-1.77,.54-.49,1.3-.74,2.28-.74s1.69,.18,2.28,.55Z"/>
    <path class="cls-2" d="M354.73,408.03h-2.14v3.62h-2.09v-10.08h4.39c1.01,0,1.82,.26,2.42,.78s.9,1.32,.9,2.41c0,1.19-.3,2.03-.9,2.52s-1.46,.74-2.58,.74Zm.98-2.1c.27-.24,.41-.62,.41-1.15s-.14-.9-.41-1.12c-.28-.22-.66-.33-1.16-.33h-1.96v2.97h1.96c.5,0,.88-.12,1.16-.36Z"/>
    <path class="cls-2" d="M366.36,407.27v4.38h-1.99v-4.53c0-.4-.07-.72-.21-.97-.18-.35-.51-.52-1.01-.52s-.91,.17-1.17,.52c-.27,.34-.4,.83-.4,1.47v4.03h-1.94v-10.04h1.94v3.56c.28-.43,.61-.73,.98-.91,.37-.17,.76-.26,1.17-.26,.46,0,.88,.08,1.25,.24,.38,.16,.69,.4,.93,.73,.21,.28,.33,.56,.38,.86,.05,.29,.07,.77,.07,1.44Z"/>
    <path class="cls-2" d="M374.4,405.14c.63,.79,.94,1.72,.94,2.8s-.31,2.03-.94,2.81c-.63,.78-1.58,1.17-2.86,1.17s-2.24-.39-2.86-1.17c-.63-.78-.94-1.71-.94-2.81s.31-2.01,.94-2.8,1.58-1.18,2.86-1.18,2.24,.39,2.86,1.18Zm-2.87,.46c-.57,0-1.01,.2-1.32,.61-.31,.4-.46,.98-.46,1.73s.15,1.32,.46,1.73c.31,.41,.75,.61,1.32,.61s1.01-.2,1.31-.61,.46-.98,.46-1.73-.15-1.32-.46-1.73c-.31-.4-.74-.61-1.31-.61Z"/>
    <path class="cls-2" d="M380.15,410.26v1.46l-.92,.03c-.92,.03-1.55-.13-1.89-.48-.22-.22-.33-.57-.33-1.03v-4.59h-1.04v-1.39h1.04v-2.08h1.93v2.08h1.21v1.39h-1.21v3.94c0,.31,.04,.5,.12,.57,.08,.07,.31,.11,.71,.11,.06,0,.12,0,.19,0,.07,0,.13,0,.2-.01Z"/>
    <path class="cls-2" d="M387.61,405.14c.63,.79,.94,1.72,.94,2.8s-.31,2.03-.94,2.81c-.63,.78-1.58,1.17-2.86,1.17s-2.24-.39-2.86-1.17c-.63-.78-.94-1.71-.94-2.81s.31-2.01,.94-2.8,1.58-1.18,2.86-1.18,2.24,.39,2.86,1.18Zm-2.87,.46c-.57,0-1.01,.2-1.32,.61-.31,.4-.46,.98-.46,1.73s.15,1.32,.46,1.73c.31,.41,.75,.61,1.32,.61s1.01-.2,1.31-.61,.46-.98,.46-1.73-.15-1.32-.46-1.73c-.31-.4-.74-.61-1.31-.61Z"/>
    <path class="cls-2" d="M389.22,404.2h2.19l1.55,5.5,1.59-5.5h2.09l-2.69,7.45h-2.06l-2.67-7.45Z"/>
    <path class="cls-2" d="M403.95,405.14c.63,.79,.94,1.72,.94,2.8s-.31,2.03-.94,2.81c-.63,.78-1.58,1.17-2.86,1.17s-2.24-.39-2.86-1.17c-.63-.78-.94-1.71-.94-2.81s.31-2.01,.94-2.8,1.58-1.18,2.86-1.18,2.24,.39,2.86,1.18Zm-2.87,.46c-.57,0-1.01,.2-1.32,.61-.31,.4-.46,.98-.46,1.73s.15,1.32,.46,1.73c.31,.41,.75,.61,1.32,.61s1.01-.2,1.31-.61,.46-.98,.46-1.73-.15-1.32-.46-1.73c-.31-.4-.74-.61-1.31-.61Z"/>
    <path class="cls-2" d="M406.33,401.57h1.95v10.08h-1.95v-10.08Z"/>
    <path class="cls-2" d="M413.59,410.26v1.46l-.92,.03c-.92,.03-1.55-.13-1.89-.48-.22-.22-.33-.57-.33-1.03v-4.59h-1.04v-1.39h1.04v-2.08h1.93v2.08h1.21v1.39h-1.21v3.94c0,.31,.04,.5,.12,.57,.08,.07,.31,.11,.71,.11,.06,0,.12,0,.19,0,.07,0,.13,0,.2-.01Z"/>
    <path class="cls-2" d="M415.12,405c.51-.66,1.4-.98,2.65-.98,.82,0,1.54,.16,2.17,.49s.95,.93,.95,1.83v3.42c0,.24,0,.52,.01,.86,.01,.25,.05,.43,.12,.52s.16,.17,.29,.23v.29h-2.12c-.06-.15-.1-.29-.12-.42s-.04-.28-.05-.45c-.27,.29-.58,.54-.93,.75-.42,.24-.89,.36-1.42,.36-.67,0-1.23-.19-1.67-.58-.44-.38-.66-.93-.66-1.64,0-.92,.35-1.58,1.06-1.99,.39-.22,.96-.38,1.71-.48l.66-.08c.36-.05,.62-.1,.77-.17,.28-.12,.42-.3,.42-.55,0-.31-.11-.52-.32-.63-.21-.12-.52-.17-.93-.17-.46,0-.79,.11-.98,.34-.14,.17-.23,.4-.27,.68h-1.88c.04-.65,.22-1.19,.55-1.61Zm1.45,5.24c.18,.15,.41,.23,.67,.23,.42,0,.81-.12,1.16-.37,.35-.25,.54-.7,.55-1.35v-.72c-.12,.08-.25,.14-.37,.19-.12,.05-.3,.09-.52,.13l-.44,.08c-.41,.07-.7,.16-.88,.27-.3,.18-.45,.45-.45,.83,0,.33,.09,.57,.28,.72Z"/>
    <path class="cls-2" d="M424.63,401.51v1.8h-1.98v-1.8h1.98Zm0,2.69v7.45h-1.98v-7.45h1.98Z"/>
    <path class="cls-2" d="M432.96,406.87h-2c-.04-.28-.13-.53-.28-.75-.22-.3-.56-.45-1.02-.45-.66,0-1.11,.33-1.35,.98-.13,.35-.19,.81-.19,1.38s.06,.99,.19,1.32c.23,.62,.67,.93,1.31,.93,.46,0,.78-.12,.97-.37s.31-.57,.35-.96h1.99c-.05,.59-.26,1.15-.64,1.68-.61,.85-1.52,1.28-2.71,1.28s-2.08-.36-2.65-1.07-.85-1.63-.85-2.77c0-1.28,.31-2.28,.94-2.99s1.49-1.07,2.58-1.07c.93,0,1.7,.21,2.29,.63,.6,.42,.95,1.16,1.06,2.22Z"/>
    <path class="cls-2" d="M439.43,404.54c.58,.37,.92,1.02,1,1.93h-1.95c-.03-.25-.1-.45-.21-.59-.21-.26-.58-.4-1.09-.4-.42,0-.73,.07-.91,.2-.18,.13-.27,.29-.27,.46,0,.22,.1,.38,.29,.49,.19,.1,.87,.29,2.03,.54,.77,.18,1.36,.46,1.74,.83,.38,.37,.57,.84,.57,1.4,0,.74-.27,1.34-.82,1.81-.55,.47-1.4,.7-2.55,.7s-2.04-.25-2.59-.74c-.56-.5-.84-1.12-.84-1.89h1.98c.04,.35,.13,.59,.27,.74,.24,.26,.69,.39,1.34,.39,.38,0,.69-.06,.91-.17,.23-.11,.34-.29,.34-.51s-.09-.38-.27-.5-.86-.31-2.03-.59c-.84-.21-1.44-.47-1.78-.79-.35-.31-.52-.76-.52-1.34,0-.69,.27-1.28,.81-1.77,.54-.49,1.3-.74,2.28-.74s1.69,.18,2.28,.55Z"/>
  </g>
  <g>
    <path class="cls-2" d="M225.15,378.07h2.14l-2.84,10.08h-2.01l-1.22-5.89-.36-1.95-.36,1.95-1.22,5.89h-1.96l-2.86-10.08h2.24l1.33,5.77,.29,1.61,.29-1.57,1.13-5.8h2.22l1.2,5.77,.31,1.61,.31-1.54,1.35-5.83Z"/>
    <path class="cls-2" d="M234.53,385.96c-.05,.44-.28,.89-.69,1.35-.64,.72-1.53,1.09-2.68,1.09-.95,0-1.78-.31-2.51-.92s-1.09-1.6-1.09-2.98c0-1.29,.33-2.28,.98-2.97,.65-.69,1.5-1.03,2.55-1.03,.62,0,1.18,.12,1.67,.35s.91,.6,1.23,1.1c.29,.44,.48,.96,.57,1.54,.05,.34,.07,.83,.06,1.48h-5.1c.03,.75,.26,1.27,.7,1.57,.27,.19,.59,.28,.97,.28,.4,0,.73-.11,.98-.34,.14-.12,.26-.29,.36-.51h1.99Zm-1.93-2.28c-.03-.51-.19-.91-.47-1.17-.28-.27-.63-.4-1.04-.4-.45,0-.8,.14-1.05,.42-.25,.28-.4,.67-.47,1.15h3.03Z"/>
    <path class="cls-2" d="M242.32,385.96c-.05,.44-.28,.89-.69,1.35-.64,.72-1.53,1.09-2.68,1.09-.95,0-1.78-.31-2.51-.92s-1.09-1.6-1.09-2.98c0-1.29,.33-2.28,.98-2.97,.65-.69,1.5-1.03,2.55-1.03,.62,0,1.18,.12,1.67,.35s.91,.6,1.23,1.1c.29,.44,.48,.96,.57,1.54,.05,.34,.07,.83,.06,1.48h-5.1c.03,.75,.26,1.27,.7,1.57,.27,.19,.59,.28,.97,.28,.4,0,.73-.11,.98-.34,.14-.12,.26-.29,.36-.51h1.99Zm-1.93-2.28c-.03-.51-.19-.91-.47-1.17-.28-.27-.63-.4-1.04-.4-.45,0-.8,.14-1.05,.42-.25,.28-.4,.67-.47,1.15h3.03Z"/>
    <path class="cls-2" d="M250.56,388.15h-2.35l-1.78-3.19-.81,.84v2.34h-1.91v-10.04h1.91v5.43l2.43-2.8h2.41l-2.6,2.85,2.71,4.57Z"/>
    <path class="cls-2" d="M258.29,378.09v10.06h-1.89v-1.03c-.28,.44-.59,.76-.95,.96s-.8,.3-1.33,.3c-.87,0-1.6-.35-2.2-1.06-.59-.7-.89-1.61-.89-2.71,0-1.27,.29-2.27,.88-3,.59-.73,1.37-1.09,2.35-1.09,.45,0,.85,.1,1.2,.3,.35,.2,.64,.47,.85,.82v-3.55h1.98Zm-5.25,6.38c0,.69,.14,1.24,.41,1.65,.27,.42,.68,.62,1.23,.62s.97-.21,1.26-.62,.43-.94,.43-1.59c0-.91-.23-1.56-.69-1.96-.28-.24-.61-.36-.98-.36-.57,0-.99,.22-1.25,.65-.27,.43-.4,.97-.4,1.6Z"/>
    <path class="cls-2" d="M260.34,381.5c.51-.66,1.4-.98,2.65-.98,.82,0,1.54,.16,2.17,.49s.95,.93,.95,1.83v3.42c0,.24,0,.52,.01,.86,.01,.25,.05,.43,.12,.52s.16,.17,.29,.23v.29h-2.12c-.06-.15-.1-.29-.12-.42s-.04-.28-.05-.45c-.27,.29-.58,.54-.93,.75-.42,.24-.89,.36-1.42,.36-.67,0-1.23-.19-1.67-.58-.44-.38-.66-.93-.66-1.64,0-.92,.35-1.58,1.06-1.99,.39-.22,.96-.38,1.71-.48l.66-.08c.36-.05,.62-.1,.77-.17,.28-.12,.42-.3,.42-.55,0-.31-.11-.52-.32-.63-.21-.12-.52-.17-.93-.17-.46,0-.79,.11-.98,.34-.14,.17-.23,.4-.27,.68h-1.88c.04-.65,.22-1.19,.55-1.61Zm1.45,5.24c.18,.15,.41,.23,.67,.23,.42,0,.81-.12,1.16-.37,.35-.25,.54-.7,.55-1.35v-.72c-.12,.08-.25,.14-.37,.19-.12,.05-.3,.09-.52,.13l-.44,.08c-.41,.07-.7,.16-.88,.27-.3,.18-.45,.45-.45,.83,0,.33,.09,.57,.28,.72Z"/>
    <path class="cls-2" d="M270.88,386.19l1.54-5.5h2.07l-2.56,7.33c-.49,1.41-.88,2.29-1.17,2.63-.29,.34-.86,.51-1.72,.51-.17,0-.31,0-.42,0-.1,0-.26-.01-.47-.02v-1.56h.25c.19,.02,.37,.02,.55,0s.32-.08,.44-.16c.11-.08,.22-.24,.32-.49,.1-.25,.14-.4,.12-.45l-2.73-7.78h2.17l1.63,5.5Z"/>
    <path class="cls-2" d="M241.86,405.23c-1.44,0-2.54-.39-3.3-1.18-1.02-.96-1.53-2.35-1.53-4.16s.51-3.23,1.53-4.16c.76-.78,1.86-1.18,3.3-1.18s2.54,.39,3.3,1.18c1.02,.92,1.52,2.31,1.52,4.16s-.51,3.19-1.52,4.16c-.76,.78-1.86,1.18-3.3,1.18Zm1.99-2.71c.49-.62,.73-1.49,.73-2.62s-.25-2-.73-2.62c-.49-.62-1.15-.93-1.99-.93s-1.5,.31-2,.92-.75,1.49-.75,2.62,.25,2.01,.75,2.62,1.16,.92,2,.92,1.5-.31,1.99-.92Z"/>
    <path class="cls-2" d="M251.88,399.3c-.78,0-1.31,.25-1.58,.77-.15,.29-.23,.73-.23,1.33v3.56h-1.96v-7.45h1.86v1.3c.3-.5,.56-.84,.79-1.02,.36-.31,.84-.46,1.42-.46,.04,0,.07,0,.09,0,.02,0,.08,0,.17,0v2c-.12-.01-.23-.02-.33-.03s-.17,0-.23,0Z"/>
    <path class="cls-2" d="M224.76,411.67h2.14l-2.84,10.08h-2.01l-1.22-5.89-.36-1.95-.36,1.95-1.22,5.89h-1.96l-2.86-10.08h2.24l1.33,5.77,.29,1.61,.29-1.57,1.13-5.8h2.22l1.2,5.77,.31,1.61,.31-1.54,1.35-5.83Z"/>
    <path class="cls-2" d="M234.15,419.56c-.05,.44-.28,.89-.69,1.35-.64,.72-1.53,1.09-2.68,1.09-.95,0-1.78-.31-2.51-.92s-1.09-1.6-1.09-2.98c0-1.29,.33-2.28,.98-2.97,.65-.69,1.5-1.03,2.55-1.03,.62,0,1.18,.12,1.67,.35s.91,.6,1.23,1.1c.29,.44,.48,.96,.57,1.54,.05,.34,.07,.83,.06,1.48h-5.1c.03,.75,.26,1.27,.7,1.57,.27,.19,.59,.28,.97,.28,.4,0,.73-.11,.98-.34,.14-.12,.26-.29,.36-.51h1.99Zm-1.93-2.28c-.03-.51-.19-.91-.47-1.17-.28-.27-.63-.4-1.04-.4-.45,0-.8,.14-1.05,.42-.25,.28-.4,.67-.47,1.15h3.03Z"/>
    <path class="cls-2" d="M241.94,419.56c-.05,.44-.28,.89-.69,1.35-.64,.72-1.53,1.09-2.68,1.09-.95,0-1.78-.31-2.51-.92s-1.09-1.6-1.09-2.98c0-1.29,.33-2.28,.98-2.97,.65-.69,1.5-1.03,2.55-1.03,.62,0,1.18,.12,1.67,.35s.91,.6,1.23,1.1c.29,.44,.48,.96,.57,1.54,.05,.34,.07,.83,.06,1.48h-5.1c.03,.75,.26,1.27,.7,1.57,.27,.19,.59,.28,.97,.28,.4,0,.73-.11,.98-.34,.14-.12,.26-.29,.36-.51h1.99Zm-1.93-2.28c-.03-.51-.19-.91-.47-1.17-.28-.27-.63-.4-1.04-.4-.45,0-.8,.14-1.05,.42-.25,.28-.4,.67-.47,1.15h3.03Z"/>
    <path class="cls-2" d="M250.18,421.75h-2.35l-1.78-3.19-.81,.84v2.34h-1.91v-10.04h1.91v5.43l2.43-2.8h2.41l-2.6,2.85,2.71,4.57Z"/>
    <path class="cls-2" d="M257.51,419.56c-.05,.44-.28,.89-.69,1.35-.64,.72-1.53,1.09-2.68,1.09-.95,0-1.78-.31-2.51-.92s-1.09-1.6-1.09-2.98c0-1.29,.33-2.28,.98-2.97,.65-.69,1.5-1.03,2.55-1.03,.62,0,1.18,.12,1.67,.35s.91,.6,1.23,1.1c.29,.44,.48,.96,.57,1.54,.05,.34,.07,.83,.06,1.48h-5.1c.03,.75,.26,1.27,.7,1.57,.27,.19,.59,.28,.97,.28,.4,0,.73-.11,.98-.34,.14-.12,.26-.29,.36-.51h1.99Zm-1.93-2.28c-.03-.51-.19-.91-.47-1.17-.28-.27-.63-.4-1.04-.4-.45,0-.8,.14-1.05,.42-.25,.28-.4,.67-.47,1.15h3.03Z"/>
    <path class="cls-2" d="M262.42,415.74c-.66,0-1.11,.28-1.36,.84-.13,.3-.19,.67-.19,1.13v4.03h-1.94v-7.44h1.88v1.09c.25-.38,.49-.66,.71-.83,.4-.3,.91-.45,1.52-.45,.77,0,1.4,.2,1.89,.61,.49,.4,.74,1.07,.74,2.01v5.02h-2v-4.53c0-.39-.05-.69-.16-.9-.19-.38-.56-.57-1.09-.57Z"/>
    <path class="cls-2" d="M274.25,411.69v10.06h-1.89v-1.03c-.28,.44-.59,.76-.95,.96s-.8,.3-1.33,.3c-.87,0-1.6-.35-2.2-1.06-.59-.7-.89-1.61-.89-2.71,0-1.27,.29-2.27,.88-3,.59-.73,1.37-1.09,2.35-1.09,.45,0,.85,.1,1.2,.3,.35,.2,.64,.47,.85,.82v-3.55h1.98Zm-5.25,6.38c0,.69,.14,1.24,.41,1.65,.27,.42,.68,.62,1.23,.62s.97-.21,1.26-.62,.43-.94,.43-1.59c0-.91-.23-1.56-.69-1.96-.28-.24-.61-.36-.98-.36-.57,0-.99,.22-1.25,.65-.27,.43-.4,.97-.4,1.6Z"/>
  </g>
  <text class="cls-1" transform="translate(539.12 46.35)"><tspan x="0" y="0">4</tspan></text>
  <path class="cls-6" d="M529.08,38.4c-24.44,7.1-42.31,29.64-42.31,56.37,0,32.42,26.28,58.71,58.71,58.71s58.71-26.28,58.71-58.71c0-26.73-17.87-49.27-42.31-56.37"/>
  <path class="cls-6" d="M378.98,38.4c-24.44,7.1-42.31,29.64-42.31,56.37,0,32.42,26.28,58.71,58.71,58.71s58.71-26.28,58.71-58.71c0-26.73-17.87-49.27-42.31-56.37"/>
  <path class="cls-6" d="M228.88,38.4c-24.44,7.1-42.31,29.64-42.31,56.37,0,32.42,26.28,58.71,58.71,58.71s58.71-26.28,58.71-58.71c0-26.73-17.87-49.27-42.31-56.37"/>
  <path class="cls-6" d="M78.77,38.4c-24.44,7.1-42.31,29.64-42.31,56.37,0,32.42,26.28,58.71,58.71,58.71s58.71-26.28,58.71-58.71c0-26.73-17.87-49.27-42.31-56.37"/>
  <path class="cls-6" d="M679.18,38.4c-24.44,7.1-42.31,29.64-42.31,56.37,0,32.42,26.28,58.71,58.71,58.71s58.71-26.28,58.71-58.71c0-26.73-17.87-49.27-42.31-56.37"/>
  <text class="cls-1" transform="translate(389.28 46.35)"><tspan x="0" y="0">3</tspan></text>
  <text class="cls-1" transform="translate(238.3 46.35)"><tspan x="0" y="0">2</tspan></text>
  <text class="cls-1" transform="translate(87.61 46.35)"><tspan x="0" y="0">1</tspan></text>
  <text class="cls-1" transform="translate(690.72 46.35)"><tspan x="0" y="0">5</tspan></text>
  <text class="cls-1" transform="translate(539.43 199.11)"><tspan x="0" y="0">9</tspan></text>
  <path class="cls-6" d="M529.1,191.16c-24.44,7.1-42.31,29.64-42.31,56.37,0,32.42,26.28,58.71,58.71,58.71s58.71-26.28,58.71-58.71c0-26.73-17.87-49.27-42.31-56.37"/>
  <path class="cls-6" d="M379,191.16c-24.44,7.1-42.31,29.64-42.31,56.37,0,32.42,26.28,58.71,58.71,58.71s58.71-26.28,58.71-58.71c0-26.73-17.87-49.27-42.31-56.37"/>
  <path class="cls-6" d="M228.89,191.16c-24.44,7.1-42.31,29.64-42.31,56.37,0,32.42,26.28,58.71,58.71,58.71s58.71-26.28,58.71-58.71c0-26.73-17.87-49.27-42.31-56.37"/>
  <path class="cls-6" d="M78.79,191.16c-24.44,7.1-42.31,29.64-42.31,56.37,0,32.42,26.28,58.71,58.71,58.71s58.71-26.28,58.71-58.71c0-26.73-17.87-49.27-42.31-56.37"/>
  <path class="cls-6" d="M679.2,191.16c-24.44,7.1-42.31,29.64-42.31,56.37,0,32.42,26.28,58.71,58.71,58.71s58.71-26.28,58.71-58.71c0-26.73-17.87-49.27-42.31-56.37"/>
  <text class="cls-1" transform="translate(389.3 199.11)"><tspan x="0" y="0">8</tspan></text>
  <text class="cls-1" transform="translate(238.32 199.11)"><tspan x="0" y="0">7</tspan></text>
  <text class="cls-1" transform="translate(87.63 199.11)"><tspan x="0" y="0">6</tspan></text>
  <text class="cls-1" transform="translate(682.07 199.11)"><tspan x="0" y="0">10</tspan></text>
  <text class="cls-1" transform="translate(531.77 349.78)"><tspan x="0" y="0">14</tspan></text>
  <path class="cls-6" d="M529.26,341.83c-24.44,7.1-42.31,29.64-42.31,56.37,0,32.42,26.28,58.71,58.71,58.71s58.71-26.28,58.71-58.71c0-26.73-17.87-49.27-42.31-56.37"/>
  <path class="cls-6" d="M379.16,341.83c-24.44,7.1-42.31,29.64-42.31,56.37,0,32.42,26.28,58.71,58.71,58.71s58.71-26.28,58.71-58.71c0-26.73-17.87-49.27-42.31-56.37"/>
  <path class="cls-6" d="M229.05,341.83c-24.44,7.1-42.31,29.64-42.31,56.37,0,32.42,26.28,58.71,58.71,58.71s58.71-26.28,58.71-58.71c0-26.73-17.87-49.27-42.31-56.37"/>
  <path class="cls-6" d="M78.95,341.83c-24.44,7.1-42.31,29.64-42.31,56.37,0,32.42,26.28,58.71,58.71,58.71s58.71-26.28,58.71-58.71c0-26.73-17.87-49.27-42.31-56.37"/>
  <path class="cls-6" d="M679.36,341.83c-24.44,7.1-42.31,29.64-42.31,56.37,0,32.42,26.28,58.71,58.71,58.71s58.71-26.28,58.71-58.71c0-26.73-17.87-49.27-42.31-56.37"/>
  <text class="cls-1" transform="translate(381.92 349.78)"><tspan x="0" y="0">13</tspan></text>
  <text class="cls-1" transform="translate(231.51 349.78)"><tspan x="0" y="0">12</tspan></text>
  <text class="cls-1" transform="translate(82.52 349.78)"><tspan x="0" y="0">11</tspan></text>
  <text class="cls-1" transform="translate(682.8 349.78)"><tspan x="0" y="0">15</tspan></text>
</svg>