<?xml version="1.0" encoding="UTF-8"?>
<svg id="Layer_1" data-name="Layer 1" xmlns="http://www.w3.org/2000/svg" viewBox="0 0 790.64 495.4">
  <defs>
    <style>
      .cls-1 {
        font-size: 27.27px;
      }

      .cls-1, .cls-2, .cls-3, .cls-4, .cls-5, .cls-6 {
        fill: #656eee;
      }

      .cls-1, .cls-7, .cls-8, .cls-3, .cls-9, .cls-4, .cls-10, .cls-11, .cls-12, .cls-13, .cls-5, .cls-14, .cls-6 {
        font-family: Helvetica-Bold, Helvetica;
        font-weight: 700;
      }

      .cls-15 {
        letter-spacing: -.02em;
      }

      .cls-16, .cls-13, .cls-17, .cls-18, .cls-14 {
        fill: #fff;
      }

      .cls-19, .cls-9, .cls-10 {
        fill: #ef573b;
      }

      .cls-20 {
        fill: #101218;
      }

      .cls-7, .cls-8, .cls-3, .cls-9 {
        font-size: 28px;
      }

      .cls-7, .cls-12 {
        fill: #4646b0;
      }

      .cls-8, .cls-11, .cls-21 {
        fill: #b53726;
      }

      .cls-4, .cls-10, .cls-11, .cls-12 {
        font-size: 18px;
      }

      .cls-13 {
        font-size: 22px;
      }

      .cls-17 {
        font-family: Helvetica, Helvetica;
      }

      .cls-17, .cls-6 {
        font-size: 20px;
      }

      .cls-18, .cls-22, .cls-21 {
        font-family: Helvetica-Light, Helvetica;
        font-size: 15px;
        font-weight: 300;
      }

      .cls-5 {
        font-size: 30px;
      }

      .cls-23 {
        letter-spacing: -.05em;
      }

      .cls-14 {
        font-size: 19.88px;
      }

      .cls-22 {
        fill: #1a1a1a;
      }

      .cls-24 {
        stroke: #656eee;
      }

      .cls-24, .cls-25 {
        fill: none;
        stroke-miterlimit: 10;
        stroke-width: 8px;
      }

      .cls-25 {
        stroke: #ef573b;
      }
    </style>
  </defs>
  <rect class="cls-20" width="790.64" height="498.31"/>
  <text transform="translate(507.13 104.67)"><tspan class="cls-17"><tspan x="0" y="0">Electricity consumption in </tspan></tspan><tspan><tspan class="cls-17" x="0" y="36">2021 is</tspan><tspan class="cls-14" x="64.49" y="36"> </tspan><tspan class="cls-5" x="70.02" y="36">9.0%</tspan><tspan class="cls-1" x="138.39" y="36"> </tspan><tspan class="cls-6" x="145.97" y="36">lower</tspan><tspan class="cls-1" x="198.21" y="36"> </tspan></tspan><tspan class="cls-17"><tspan x="0" y="60">than in 2020.</tspan></tspan></text>
  <text class="cls-3" transform="translate(250.11 40.21)"><tspan x="0" y="0">ELECTRICIT</tspan><tspan class="cls-15" x="164.88" y="0">Y</tspan><tspan x="183.07" y="0" xml:space="preserve"> USAGE </tspan></text>
  <text class="cls-9" transform="translate(311.31 288.93)"><tspan x="0" y="0">GAS USAGE </tspan></text>
  <text transform="translate(235.94 101.09)"><tspan class="cls-18"><tspan x="0" y="0">That could charge a Tesla </tspan></tspan><tspan><tspan class="cls-18" x="0" y="21.6">model 3 for</tspan><tspan class="cls-22" x="75.85" y="21.6"> </tspan><tspan class="cls-12" x="80.02" y="21.6">52.50</tspan><tspan class="cls-22" x="125.07" y="21.6"> </tspan><tspan class="cls-18" x="129.24" y="21.6">times.</tspan></tspan></text>
  <text transform="translate(235.94 347.27)"><tspan class="cls-18"><tspan x="0" y="0">That could charge a Tesla </tspan></tspan><tspan><tspan class="cls-18" x="0" y="21.6">model 3 for</tspan><tspan class="cls-22" x="75.85" y="21.6"> </tspan><tspan class="cls-11" x="80.02" y="21.6">188.23</tspan><tspan class="cls-21" x="135.08" y="21.6"> </tspan><tspan class="cls-18" x="139.25" y="21.6">times.</tspan></tspan></text>
  <g>
    <path class="cls-16" d="M518.27,336.91c1.41,.75,2.26,2.06,2.58,3.94h-1.92c-.23-1.05-.7-1.81-1.42-2.29s-1.63-.72-2.73-.72c-1.3,0-2.4,.5-3.29,1.49s-1.33,2.48-1.33,4.45c0,1.71,.37,3.09,1.1,4.17s1.93,1.61,3.59,1.61c1.27,0,2.32-.38,3.15-1.13s1.26-1.97,1.28-3.65h-4.49v-1.61h6.3v7.68h-1.25l-.47-1.85c-.65,.72-1.22,1.22-1.72,1.5-.84,.48-1.91,.72-3.2,.72-1.67,0-3.11-.55-4.31-1.65-1.31-1.38-1.97-3.27-1.97-5.68s.64-4.31,1.92-5.73c1.22-1.35,2.8-2.03,4.74-2.03,1.33,0,2.48,.26,3.45,.78Z"/>
    <path class="cls-16" d="M529.65,344.52c.4-.05,.67-.22,.81-.51,.08-.16,.12-.38,.12-.68,0-.6-.21-1.04-.64-1.31-.43-.27-1.03-.41-1.83-.41-.92,0-1.57,.25-1.95,.75-.21,.27-.35,.68-.42,1.23h-1.64c.03-1.29,.45-2.19,1.25-2.7,.8-.51,1.74-.76,2.79-.76,1.23,0,2.23,.23,2.99,.7,.76,.47,1.14,1.2,1.14,2.19v6.03c0,.18,.04,.33,.11,.44s.23,.17,.47,.17c.08,0,.17,0,.26-.01s.2-.02,.31-.04v1.3c-.27,.08-.48,.13-.62,.15s-.34,.03-.59,.03c-.61,0-1.04-.21-1.32-.64-.14-.23-.24-.55-.3-.97-.36,.47-.87,.88-1.54,1.22s-1.41,.52-2.22,.52c-.97,0-1.76-.29-2.38-.88-.62-.59-.92-1.32-.92-2.21,0-.97,.3-1.72,.91-2.25s1.4-.86,2.38-.99l2.8-.35Zm-3.7,4.75c.37,.29,.81,.44,1.32,.44,.62,0,1.22-.14,1.8-.43,.98-.47,1.46-1.25,1.46-2.33v-1.41c-.21,.14-.49,.25-.83,.34s-.67,.16-.99,.2l-1.06,.14c-.64,.08-1.12,.22-1.44,.4-.54,.31-.82,.79-.82,1.46,0,.51,.19,.91,.56,1.2Z"/>
    <path class="cls-16" d="M536.21,347.57c.05,.59,.2,1.04,.45,1.35,.45,.57,1.24,.85,2.35,.85,.66,0,1.25-.14,1.75-.42s.76-.72,.76-1.31c0-.45-.2-.79-.61-1.03-.26-.14-.77-.31-1.53-.5l-1.42-.35c-.91-.22-1.58-.47-2-.74-.77-.48-1.15-1.13-1.15-1.97,0-.99,.36-1.79,1.08-2.4,.72-.61,1.69-.92,2.91-.92,1.6,0,2.75,.46,3.45,1.39,.44,.59,.66,1.22,.64,1.89h-1.66c-.03-.39-.18-.75-.43-1.08-.41-.46-1.13-.69-2.15-.69-.68,0-1.19,.13-1.54,.38-.35,.25-.52,.59-.52,1,0,.45,.23,.82,.69,1.09,.27,.16,.66,.3,1.17,.43l1.18,.28c1.29,.31,2.15,.6,2.59,.89,.68,.45,1.03,1.16,1.03,2.12s-.36,1.74-1.07,2.41c-.71,.68-1.8,1.02-3.27,1.02-1.58,0-2.69-.35-3.35-1.06-.66-.71-1.01-1.58-1.05-2.62h1.69Z"/>
    <path class="cls-16" d="M557.63,340.95c.74,.57,1.18,1.56,1.33,2.96h-1.71c-.1-.64-.34-1.18-.71-1.61s-.97-.64-1.79-.64c-1.12,0-1.92,.55-2.4,1.64-.31,.71-.47,1.58-.47,2.62s.22,1.93,.66,2.64c.44,.72,1.14,1.07,2.09,1.07,.73,0,1.31-.22,1.73-.67s.72-1.05,.88-1.82h1.71c-.2,1.39-.68,2.4-1.46,3.04s-1.78,.96-3,.96c-1.37,0-2.46-.5-3.27-1.5s-1.22-2.25-1.22-3.75c0-1.84,.45-3.26,1.34-4.29s2.03-1.53,3.41-1.53c1.18,0,2.14,.29,2.88,.86Z"/>
    <path class="cls-16" d="M568.3,341.44c.92,.9,1.39,2.22,1.39,3.96s-.41,3.08-1.22,4.18c-.81,1.1-2.08,1.65-3.79,1.65-1.43,0-2.56-.49-3.4-1.46-.84-.97-1.26-2.28-1.26-3.92,0-1.76,.44-3.16,1.33-4.2,.89-1.04,2.08-1.56,3.57-1.56,1.34,0,2.47,.45,3.39,1.35Zm-1.09,6.95c.43-.88,.64-1.86,.64-2.94,0-.97-.15-1.77-.46-2.38-.49-.96-1.33-1.44-2.53-1.44-1.06,0-1.83,.41-2.32,1.23-.48,.82-.72,1.81-.72,2.96s.24,2.04,.72,2.78c.48,.74,1.25,1.11,2.3,1.11,1.15,0,1.94-.44,2.37-1.32Z"/>
    <path class="cls-16" d="M571.85,340.39h1.67v1.48c.5-.61,1.02-1.05,1.57-1.32s1.17-.4,1.85-.4c1.48,0,2.49,.52,3.01,1.55,.29,.57,.43,1.38,.43,2.43v6.71h-1.79v-6.59c0-.64-.09-1.15-.28-1.54-.31-.65-.88-.98-1.7-.98-.42,0-.76,.04-1.03,.13-.48,.14-.91,.43-1.27,.86-.29,.34-.48,.7-.57,1.07s-.13,.89-.13,1.58v5.48h-1.76v-10.46Z"/>
    <path class="cls-16" d="M584.01,347.57c.05,.59,.2,1.04,.45,1.35,.45,.57,1.24,.85,2.35,.85,.66,0,1.25-.14,1.75-.42s.76-.72,.76-1.31c0-.45-.2-.79-.61-1.03-.26-.14-.77-.31-1.53-.5l-1.42-.35c-.91-.22-1.58-.47-2-.74-.77-.48-1.15-1.13-1.15-1.97,0-.99,.36-1.79,1.08-2.4,.72-.61,1.69-.92,2.91-.92,1.6,0,2.75,.46,3.45,1.39,.44,.59,.66,1.22,.64,1.89h-1.66c-.03-.39-.18-.75-.43-1.08-.41-.46-1.13-.69-2.15-.69-.68,0-1.19,.13-1.54,.38-.35,.25-.52,.59-.52,1,0,.45,.23,.82,.69,1.09,.27,.16,.66,.3,1.17,.43l1.18,.28c1.29,.31,2.15,.6,2.59,.89,.68,.45,1.03,1.16,1.03,2.12s-.36,1.74-1.07,2.41c-.71,.68-1.8,1.02-3.27,1.02-1.58,0-2.69-.35-3.35-1.06-.66-.71-1.01-1.58-1.05-2.62h1.69Z"/>
    <path class="cls-16" d="M594.73,340.39v6.94c0,.53,.08,.97,.25,1.31,.3,.62,.87,.94,1.7,.94,1.19,0,2-.55,2.43-1.64,.23-.59,.35-1.39,.35-2.41v-5.14h1.76v10.46h-1.66l.02-1.54c-.22,.4-.5,.73-.83,1.01-.66,.55-1.46,.82-2.4,.82-1.46,0-2.46-.5-2.99-1.49-.29-.53-.43-1.25-.43-2.14v-7.11h1.8Z"/>
    <path class="cls-16" d="M604.09,340.39h1.74v1.48c.42-.51,.79-.89,1.13-1.12,.58-.4,1.24-.6,1.97-.6,.83,0,1.5,.21,2.01,.62,.29,.23,.55,.58,.78,1.04,.39-.56,.85-.97,1.38-1.25s1.12-.41,1.78-.41c1.41,0,2.36,.51,2.87,1.52,.27,.55,.41,1.28,.41,2.21v6.96h-1.83v-7.27c0-.7-.17-1.17-.52-1.44s-.77-.39-1.27-.39c-.69,0-1.28,.23-1.78,.69s-.75,1.23-.75,2.31v6.08h-1.79v-6.83c0-.71-.08-1.23-.25-1.55-.27-.49-.76-.73-1.49-.73-.66,0-1.27,.26-1.81,.77s-.82,1.45-.82,2.79v5.55h-1.76v-10.46Z"/>
    <path class="cls-16" d="M620.61,340.44h1.72v1.39c.35-.48,.74-.84,1.16-1.1,.59-.39,1.29-.59,2.1-.59,1.19,0,2.2,.45,3.03,1.36,.83,.91,1.24,2.21,1.24,3.89,0,2.28-.6,3.91-1.79,4.88-.76,.62-1.64,.93-2.65,.93-.79,0-1.45-.17-1.99-.52-.31-.2-.66-.53-1.05-1.01v5.34h-1.76v-14.58Zm6.61,8.2c.55-.69,.82-1.71,.82-3.08,0-.83-.12-1.55-.36-2.15-.46-1.15-1.29-1.73-2.51-1.73s-2.06,.61-2.51,1.83c-.24,.65-.36,1.48-.36,2.48,0,.81,.12,1.49,.36,2.06,.46,1.08,1.29,1.62,2.51,1.62,.82,0,1.51-.34,2.05-1.03Z"/>
    <path class="cls-16" d="M632.23,337.47h1.78v2.92h1.67v1.44h-1.67v6.83c0,.36,.12,.61,.37,.73,.14,.07,.36,.11,.68,.11,.08,0,.18,0,.27,0,.1,0,.21-.01,.34-.03v1.4c-.2,.06-.41,.1-.63,.13s-.45,.04-.71,.04c-.82,0-1.38-.21-1.67-.63s-.44-.96-.44-1.64v-6.92h-1.42v-1.44h1.42v-2.92Z"/>
    <path class="cls-16" d="M637.43,336.5h1.79v1.99h-1.79v-1.99Zm0,3.94h1.79v10.41h-1.79v-10.41Z"/>
    <path class="cls-16" d="M649.45,341.44c.92,.9,1.39,2.22,1.39,3.96s-.41,3.08-1.22,4.18c-.81,1.1-2.08,1.65-3.79,1.65-1.43,0-2.56-.49-3.4-1.46-.84-.97-1.26-2.28-1.26-3.92,0-1.76,.44-3.16,1.33-4.2,.89-1.04,2.08-1.56,3.57-1.56,1.34,0,2.47,.45,3.39,1.35Zm-1.09,6.95c.43-.88,.64-1.86,.64-2.94,0-.97-.15-1.77-.46-2.38-.49-.96-1.33-1.44-2.53-1.44-1.06,0-1.83,.41-2.32,1.23-.48,.82-.72,1.81-.72,2.96s.24,2.04,.72,2.78c.48,.74,1.25,1.11,2.3,1.11,1.15,0,1.94-.44,2.37-1.32Z"/>
    <path class="cls-16" d="M653,340.39h1.67v1.48c.5-.61,1.02-1.05,1.57-1.32s1.17-.4,1.85-.4c1.48,0,2.49,.52,3.01,1.55,.29,.57,.43,1.38,.43,2.43v6.71h-1.79v-6.59c0-.64-.09-1.15-.28-1.54-.31-.65-.88-.98-1.7-.98-.42,0-.76,.04-1.03,.13-.48,.14-.91,.43-1.27,.86-.29,.34-.48,.7-.57,1.07s-.13,.89-.13,1.58v5.48h-1.76v-10.46Z"/>
    <path class="cls-16" d="M508.68,372.5h1.79v1.99h-1.79v-1.99Zm0,3.94h1.79v10.41h-1.79v-10.41Z"/>
    <path class="cls-16" d="M513.12,376.39h1.67v1.48c.5-.61,1.02-1.05,1.57-1.32s1.17-.4,1.85-.4c1.48,0,2.49,.52,3.01,1.55,.29,.57,.43,1.38,.43,2.43v6.71h-1.79v-6.59c0-.64-.09-1.15-.28-1.54-.31-.65-.88-.98-1.7-.98-.42,0-.76,.04-1.03,.13-.48,.14-.91,.43-1.27,.86-.29,.34-.48,.7-.57,1.07s-.13,.89-.13,1.58v5.48h-1.76v-10.46Z"/>
    <path class="cls-16" d="M529.88,383.71c.43-.89,1.28-1.7,2.53-2.43l1.88-1.08c.84-.49,1.43-.91,1.77-1.25,.53-.54,.8-1.16,.8-1.86,0-.82-.24-1.46-.73-1.94s-1.14-.72-1.95-.72c-1.2,0-2.04,.46-2.5,1.37-.25,.49-.38,1.17-.41,2.04h-1.79c.02-1.22,.24-2.21,.67-2.98,.76-1.35,2.11-2.03,4.03-2.03,1.6,0,2.77,.43,3.51,1.3s1.11,1.83,1.11,2.89c0,1.12-.39,2.08-1.18,2.87-.46,.46-1.27,1.02-2.45,1.68l-1.34,.74c-.64,.35-1.14,.69-1.5,1.01-.65,.57-1.06,1.19-1.23,1.88h7.64v1.66h-9.6c.07-1.2,.31-2.25,.75-3.14Z"/>
    <path class="cls-16" d="M548.97,375.1c.62,1.15,.94,2.73,.94,4.74,0,1.9-.28,3.47-.85,4.72-.82,1.78-2.16,2.68-4.02,2.68-1.68,0-2.93-.73-3.75-2.19-.68-1.22-1.03-2.85-1.03-4.9,0-1.59,.21-2.95,.62-4.09,.77-2.12,2.16-3.18,4.17-3.18,1.81,0,3.12,.75,3.93,2.24Zm-1.77,9.32c.54-.81,.81-2.31,.81-4.51,0-1.59-.2-2.9-.59-3.92s-1.15-1.54-2.28-1.54c-1.04,0-1.79,.49-2.27,1.46s-.72,2.41-.72,4.3c0,1.43,.15,2.57,.46,3.44,.47,1.32,1.27,1.98,2.41,1.98,.91,0,1.64-.4,2.18-1.21Z"/>
    <path class="cls-16" d="M552.13,383.71c.43-.89,1.28-1.7,2.53-2.43l1.88-1.08c.84-.49,1.43-.91,1.77-1.25,.53-.54,.8-1.16,.8-1.86,0-.82-.24-1.46-.73-1.94s-1.14-.72-1.95-.72c-1.2,0-2.04,.46-2.5,1.37-.25,.49-.38,1.17-.41,2.04h-1.79c.02-1.22,.24-2.21,.67-2.98,.76-1.35,2.11-2.03,4.03-2.03,1.6,0,2.77,.43,3.51,1.3s1.11,1.83,1.11,2.89c0,1.12-.39,2.08-1.18,2.87-.46,.46-1.27,1.02-2.45,1.68l-1.34,.74c-.64,.35-1.14,.69-1.5,1.01-.65,.57-1.06,1.19-1.23,1.88h7.64v1.66h-9.6c.07-1.2,.31-2.25,.75-3.14Z"/>
    <path class="cls-16" d="M563.79,376.95v-1.35c1.27-.12,2.16-.33,2.66-.62s.88-.97,1.12-2.06h1.39v13.93h-1.88v-9.9h-3.29Z"/>
    <path class="cls-16" d="M579.85,372.5h1.79v1.99h-1.79v-1.99Zm0,3.94h1.79v10.41h-1.79v-10.41Z"/>
    <path class="cls-16" d="M585.34,383.57c.05,.59,.2,1.04,.45,1.35,.45,.57,1.24,.85,2.35,.85,.66,0,1.25-.14,1.75-.42s.76-.72,.76-1.31c0-.45-.2-.79-.61-1.03-.26-.14-.77-.31-1.53-.5l-1.42-.35c-.91-.22-1.58-.47-2-.74-.77-.48-1.15-1.13-1.15-1.97,0-.99,.36-1.79,1.08-2.4,.72-.61,1.69-.92,2.91-.92,1.6,0,2.75,.46,3.45,1.39,.44,.59,.66,1.22,.64,1.89h-1.66c-.03-.39-.18-.75-.43-1.08-.41-.46-1.13-.69-2.15-.69-.68,0-1.19,.13-1.54,.38-.35,.25-.52,.59-.52,1,0,.45,.23,.82,.69,1.09,.27,.16,.66,.3,1.17,.43l1.18,.28c1.29,.31,2.15,.6,2.59,.89,.68,.45,1.03,1.16,1.03,2.12s-.36,1.74-1.07,2.41c-.71,.68-1.8,1.02-3.27,1.02-1.58,0-2.69-.35-3.35-1.06-.66-.71-1.01-1.58-1.05-2.62h1.69Z"/>
    <path class="cls-19" d="M614.25,379.01v3.27h-2.4v4.57h-4.09v-4.57h-8.41v-3.65l7.81-12.89h4.69v13.27h2.4Zm-11.81,0h5.32v-9.17l-5.32,9.17Z"/>
    <path class="cls-19" d="M617.12,382.49h4.44v4.37h-4.44v-4.37Z"/>
    <path class="cls-19" d="M636.79,372.44c-1.11,1.58-2.05,3.21-2.8,4.89-.6,1.32-1.13,2.93-1.61,4.83s-.72,3.47-.72,4.69h-4.34c.13-3.81,1.38-7.77,3.75-11.88,1.53-2.55,2.82-4.33,3.85-5.33h-10.59l.06-3.75h15v3.27c-.62,.62-1.49,1.71-2.61,3.28Z"/>
    <path class="cls-19" d="M642.55,375.01c-1.06-1.06-1.6-2.35-1.6-3.85s.53-2.79,1.6-3.85,2.35-1.6,3.85-1.6,2.79,.53,3.85,1.6,1.6,2.35,1.6,3.85-.53,2.79-1.59,3.85c-1.06,1.06-2.35,1.6-3.86,1.6s-2.79-.53-3.85-1.6Zm2.21-2.21c.45,.46,1,.69,1.64,.69s1.19-.23,1.65-.68c.46-.45,.68-1,.68-1.65s-.23-1.19-.68-1.65c-.45-.46-1-.68-1.65-.68s-1.19,.23-1.65,.68c-.46,.45-.68,1-.68,1.65s.23,1.19,.69,1.64Zm3.94,14.6h-2.27l11.88-21.8h2.23l-11.84,21.8Zm6.49-5.58c0-1.51,.53-2.8,1.6-3.87,1.06-1.05,2.35-1.58,3.85-1.58s2.79,.53,3.85,1.6,1.6,2.35,1.6,3.85-.53,2.79-1.6,3.85-2.35,1.6-3.85,1.6-2.79-.53-3.85-1.6-1.6-2.35-1.6-3.85Zm3.81,1.64c.45,.46,1,.69,1.64,.69s1.19-.23,1.65-.68c.46-.45,.68-1,.68-1.65s-.23-1.19-.68-1.65c-.45-.46-1-.68-1.65-.68s-1.19,.23-1.65,.68c-.46,.45-.68,1-.68,1.65s.23,1.19,.69,1.64Z"/>
    <path class="cls-19" d="M675.92,372.46h2.78v14.39h-2.78v-14.39Z"/>
    <path class="cls-19" d="M690.3,377.55c.9,1.13,1.35,2.46,1.35,3.99s-.45,2.9-1.35,4.01-2.26,1.67-4.09,1.67-3.19-.55-4.09-1.67-1.35-2.45-1.35-4.01,.45-2.87,1.35-3.99,2.26-1.69,4.09-1.69,3.19,.56,4.09,1.69Zm-4.1,.66c-.81,0-1.44,.29-1.88,.86s-.66,1.4-.66,2.47,.22,1.89,.66,2.47,1.07,.87,1.88,.87,1.44-.29,1.88-.87,.65-1.4,.65-2.47-.22-1.89-.65-2.47-1.06-.86-1.88-.86Z"/>
    <path class="cls-19" d="M701.71,386.85l-1.67-7.75-1.69,7.75h-2.89l-2.99-10.64h2.99l1.66,7.64,1.53-7.64h2.82l1.62,7.67,1.66-7.67h2.9l-3.09,10.64h-2.86Z"/>
    <path class="cls-19" d="M718.3,383.73c-.07,.63-.4,1.27-.99,1.92-.91,1.04-2.19,1.55-3.83,1.55-1.35,0-2.55-.44-3.58-1.31s-1.55-2.29-1.55-4.26c0-1.84,.47-3.25,1.4-4.24s2.15-1.47,3.64-1.47c.89,0,1.68,.17,2.39,.5s1.3,.86,1.76,1.57c.42,.63,.69,1.36,.81,2.2,.07,.49,.1,1.19,.09,2.11h-7.29c.04,1.07,.37,1.82,1.01,2.25,.38,.27,.85,.4,1.39,.4,.57,0,1.04-.16,1.4-.49,.2-.18,.37-.42,.52-.73h2.84Zm-2.75-3.26c-.05-.74-.27-1.29-.67-1.67s-.9-.57-1.49-.57c-.64,0-1.14,.2-1.5,.61s-.58,.95-.67,1.64h4.33Z"/>
    <path class="cls-19" d="M725.67,378.77c-1.12,0-1.87,.36-2.26,1.09-.21,.41-.32,1.04-.32,1.89v5.09h-2.8v-10.64h2.66v1.86c.43-.71,.8-1.19,1.12-1.46,.52-.44,1.2-.65,2.03-.65,.05,0,.1,0,.13,0s.12,0,.24,.01v2.85c-.18-.02-.33-.03-.47-.04s-.25,0-.33,0Z"/>
    <path class="cls-16" d="M509.15,397.47h1.78v2.92h1.67v1.44h-1.67v6.83c0,.36,.12,.61,.37,.73,.14,.07,.36,.11,.68,.11,.08,0,.18,0,.27,0,.1,0,.21-.01,.34-.03v1.4c-.2,.06-.41,.1-.63,.13s-.45,.04-.71,.04c-.82,0-1.38-.21-1.67-.63s-.44-.96-.44-1.64v-6.92h-1.42v-1.44h1.42v-2.92Z"/>
    <path class="cls-16" d="M514.36,396.46h1.76v5.35c.42-.53,.79-.9,1.12-1.11,.57-.37,1.27-.56,2.12-.56,1.52,0,2.55,.53,3.09,1.59,.29,.58,.44,1.38,.44,2.41v6.71h-1.81v-6.59c0-.77-.1-1.33-.29-1.69-.32-.57-.92-.86-1.8-.86-.73,0-1.39,.25-1.98,.75s-.89,1.45-.89,2.84v5.55h-1.76v-14.39Z"/>
    <path class="cls-16" d="M531.09,404.52c.4-.05,.67-.22,.81-.51,.08-.16,.12-.38,.12-.68,0-.6-.21-1.04-.64-1.31-.43-.27-1.03-.41-1.83-.41-.92,0-1.57,.25-1.95,.75-.21,.27-.35,.68-.42,1.23h-1.64c.03-1.29,.45-2.19,1.25-2.7,.8-.51,1.74-.76,2.79-.76,1.23,0,2.23,.23,2.99,.7,.76,.47,1.14,1.2,1.14,2.19v6.03c0,.18,.04,.33,.11,.44s.23,.17,.47,.17c.08,0,.17,0,.26-.01s.2-.02,.31-.04v1.3c-.27,.08-.48,.13-.62,.15s-.34,.03-.59,.03c-.61,0-1.04-.21-1.32-.64-.14-.23-.24-.55-.3-.97-.36,.47-.87,.88-1.54,1.22s-1.41,.52-2.22,.52c-.97,0-1.76-.29-2.38-.88-.62-.59-.92-1.32-.92-2.21,0-.97,.3-1.72,.91-2.25s1.4-.86,2.38-.99l2.8-.35Zm-3.7,4.75c.37,.29,.81,.44,1.32,.44,.62,0,1.22-.14,1.8-.43,.98-.47,1.46-1.25,1.46-2.33v-1.41c-.21,.14-.49,.25-.83,.34s-.67,.16-.99,.2l-1.06,.14c-.64,.08-1.12,.22-1.44,.4-.54,.31-.82,.79-.82,1.46,0,.51,.19,.91,.56,1.2Z"/>
    <path class="cls-16" d="M536.61,400.39h1.67v1.48c.5-.61,1.02-1.05,1.57-1.32s1.17-.4,1.85-.4c1.48,0,2.49,.52,3.01,1.55,.29,.57,.43,1.38,.43,2.43v6.71h-1.79v-6.59c0-.64-.09-1.15-.28-1.54-.31-.65-.88-.98-1.7-.98-.42,0-.76,.04-1.03,.13-.48,.14-.91,.43-1.27,.86-.29,.34-.48,.7-.57,1.07s-.13,.89-.13,1.58v5.48h-1.76v-10.46Z"/>
    <path class="cls-16" d="M553.29,396.5h1.79v1.99h-1.79v-1.99Zm0,3.94h1.79v10.41h-1.79v-10.41Z"/>
    <path class="cls-16" d="M557.73,400.39h1.67v1.48c.5-.61,1.02-1.05,1.57-1.32s1.17-.4,1.85-.4c1.48,0,2.49,.52,3.01,1.55,.29,.57,.43,1.38,.43,2.43v6.71h-1.79v-6.59c0-.64-.09-1.15-.28-1.54-.31-.65-.88-.98-1.7-.98-.42,0-.76,.04-1.03,.13-.48,.14-.91,.43-1.27,.86-.29,.34-.48,.7-.57,1.07s-.13,.89-.13,1.58v5.48h-1.76v-10.46Z"/>
    <path class="cls-16" d="M574.49,407.71c.43-.89,1.28-1.7,2.53-2.43l1.88-1.08c.84-.49,1.43-.91,1.77-1.25,.53-.54,.8-1.16,.8-1.86,0-.82-.24-1.46-.73-1.94s-1.14-.72-1.95-.72c-1.2,0-2.04,.46-2.5,1.37-.25,.49-.38,1.17-.41,2.04h-1.79c.02-1.22,.24-2.21,.67-2.98,.76-1.35,2.11-2.03,4.03-2.03,1.6,0,2.77,.43,3.51,1.3s1.11,1.83,1.11,2.89c0,1.12-.39,2.08-1.18,2.87-.46,.46-1.27,1.02-2.45,1.68l-1.34,.74c-.64,.35-1.14,.69-1.5,1.01-.65,.57-1.06,1.19-1.23,1.88h7.64v1.66h-9.6c.07-1.2,.31-2.25,.75-3.14Z"/>
    <path class="cls-16" d="M593.58,399.1c.62,1.15,.94,2.73,.94,4.74,0,1.9-.28,3.47-.85,4.72-.82,1.78-2.16,2.68-4.02,2.68-1.68,0-2.93-.73-3.75-2.19-.68-1.22-1.03-2.85-1.03-4.9,0-1.59,.21-2.95,.62-4.09,.77-2.12,2.16-3.18,4.17-3.18,1.81,0,3.12,.75,3.93,2.24Zm-1.77,9.32c.54-.81,.81-2.31,.81-4.51,0-1.59-.2-2.9-.59-3.92s-1.15-1.54-2.28-1.54c-1.04,0-1.79,.49-2.27,1.46s-.72,2.41-.72,4.3c0,1.43,.15,2.57,.46,3.44,.47,1.32,1.27,1.98,2.41,1.98,.91,0,1.64-.4,2.18-1.21Z"/>
    <path class="cls-16" d="M596.74,407.71c.43-.89,1.28-1.7,2.53-2.43l1.88-1.08c.84-.49,1.43-.91,1.77-1.25,.53-.54,.8-1.16,.8-1.86,0-.82-.24-1.46-.73-1.94s-1.14-.72-1.95-.72c-1.2,0-2.04,.46-2.5,1.37-.25,.49-.38,1.17-.41,2.04h-1.79c.02-1.22,.24-2.21,.67-2.98,.76-1.35,2.11-2.03,4.03-2.03,1.6,0,2.77,.43,3.51,1.3s1.11,1.83,1.11,2.89c0,1.12-.39,2.08-1.18,2.87-.46,.46-1.27,1.02-2.45,1.68l-1.34,.74c-.64,.35-1.14,.69-1.5,1.01-.65,.57-1.06,1.19-1.23,1.88h7.64v1.66h-9.6c.07-1.2,.31-2.25,.75-3.14Z"/>
    <path class="cls-16" d="M615.82,399.1c.62,1.15,.94,2.73,.94,4.74,0,1.9-.28,3.47-.85,4.72-.82,1.78-2.16,2.68-4.02,2.68-1.68,0-2.93-.73-3.75-2.19-.68-1.22-1.03-2.85-1.03-4.9,0-1.59,.21-2.95,.62-4.09,.77-2.12,2.16-3.18,4.17-3.18,1.81,0,3.12,.75,3.93,2.24Zm-1.77,9.32c.54-.81,.81-2.31,.81-4.51,0-1.59-.2-2.9-.59-3.92s-1.15-1.54-2.28-1.54c-1.04,0-1.79,.49-2.27,1.46s-.72,2.41-.72,4.3c0,1.43,.15,2.57,.46,3.44,.47,1.32,1.27,1.98,2.41,1.98,.91,0,1.64-.4,2.18-1.21Z"/>
    <path class="cls-16" d="M619.32,408.72h2.04v2.13h-2.04v-2.13Z"/>
  </g>
  <g>
    <line class="cls-24" x1="477" y1="71.74" x2="477" y2="200.65"/>
    <polygon class="cls-2" points="463.44 184.72 477 198.29 490.56 184.72 490.56 196.23 477 209.8 463.44 196.23 463.44 184.72"/>
  </g>
  <text class="cls-7" transform="translate(55.06 90.29)"><tspan x="0" y="0">2020: </tspan></text>
  <text class="cls-3" transform="translate(55.5 166.46)"><tspan x="0" y="0">2021: </tspan></text>
  <text transform="translate(235.94 177.32)"><tspan class="cls-18"><tspan x="0" y="0">That could charge a Tesla </tspan></tspan><tspan><tspan class="cls-18" x="0" y="21.6">model 3 for </tspan><tspan class="cls-4" x="80.02" y="21.6">47.80</tspan><tspan class="cls-18" x="125.07" y="21.6" xml:space="preserve"> times.</tspan></tspan></text>
  <text class="cls-13" transform="translate(55.94 123.18)"><tspan x="0" y="0">3937.62 kWh</tspan></text>
  <text class="cls-13" transform="translate(55.94 199.04)"><tspan x="0" y="0">3585.40 kWh</tspan></text>
  <text class="cls-13" transform="translate(55.61 365.48)"><tspan x="0" y="0">14</tspan><tspan class="cls-23" x="24.47" y="0">1</tspan><tspan x="35.5" y="0">17.</tspan><tspan class="cls-23" x="66.09" y="0">1</tspan><tspan x="77.12" y="0">1 kWh </tspan></text>
  <text class="cls-8" transform="translate(56.26 336.47)"><tspan x="0" y="0">2020: </tspan></text>
  <text class="cls-13" transform="translate(55.5 445.9)"><tspan x="0" y="0">13449.88 kWh </tspan></text>
  <text class="cls-9" transform="translate(55.83 413.83)"><tspan x="0" y="0">2021:</tspan></text>
  <text transform="translate(235.94 424.44)"><tspan class="cls-18"><tspan x="0" y="0">That could charge a Tesla </tspan></tspan><tspan><tspan class="cls-18" x="0" y="21.6">model 3 for</tspan><tspan class="cls-22" x="75.85" y="21.6"> </tspan><tspan class="cls-10" x="80.02" y="21.6">179.33</tspan><tspan class="cls-22" x="135.08" y="21.6"> </tspan><tspan class="cls-18" x="139.25" y="21.6">times.</tspan></tspan></text>
  <g>
    <line class="cls-25" x1="477" y1="315.62" x2="477" y2="444.54"/>
    <polygon class="cls-19" points="463.44 428.6 477 442.17 490.56 428.6 490.56 440.12 477 453.68 463.44 440.12 463.44 428.6"/>
  </g>
</svg>