<?xml version="1.0" encoding="UTF-8"?>
<svg id="Layer_1" data-name="Layer 1" xmlns="http://www.w3.org/2000/svg" viewBox="0 0 790.64 495.4">
  <defs>
    <style>
      .cls-1 {
        font-size: 27.27px;
      }

      .cls-1, .cls-2, .cls-3, .cls-4, .cls-5, .cls-6, .cls-7, .cls-8, .cls-9, .cls-10, .cls-11, .cls-12, .cls-13 {
        font-family: Helvetica-Bold, Helvetica;
        font-weight: 700;
      }

      .cls-1, .cls-3, .cls-14, .cls-8, .cls-11, .cls-13 {
        fill: #656eee;
      }

      .cls-2, .cls-3, .cls-4, .cls-5, .cls-15, .cls-16, .cls-17 {
        font-size: 19px;
      }

      .cls-2, .cls-6 {
        fill: #4646b0;
      }

      .cls-4, .cls-7, .cls-17 {
        fill: #b53726;
      }

      .cls-5, .cls-18, .cls-9 {
        fill: #ef573b;
      }

      .cls-19 {
        letter-spacing: -.02em;
      }

      .cls-20, .cls-21, .cls-10, .cls-22, .cls-12, .cls-23 {
        fill: #fff;
      }

      .cls-24 {
        fill: #101218;
      }

      .cls-6, .cls-7, .cls-8, .cls-9 {
        font-size: 28px;
      }

      .cls-25, .cls-21, .cls-26 {
        font-size: 17px;
      }

      .cls-25, .cls-21, .cls-22, .cls-16, .cls-17 {
        font-family: Helvetica-Light, Helvetica;
        font-weight: 300;
      }

      .cls-25, .cls-16 {
        fill: #1a1a1a;
      }

      .cls-10, .cls-11, .cls-23 {
        font-size: 22px;
      }

      .cls-27 {
        letter-spacing: -.05em;
      }

      .cls-12 {
        font-size: 19.88px;
      }

      .cls-28 {
        stroke: #656eee;
      }

      .cls-28, .cls-29 {
        fill: none;
        stroke-miterlimit: 10;
        stroke-width: 8px;
      }

      .cls-29 {
        stroke: #ef573b;
      }

      .cls-23 {
        font-family: Helvetica, Helvetica;
      }

      .cls-13 {
        font-size: 32px;
      }
    </style>
  </defs>
  <rect class="cls-24" width="790.64" height="498.31"/>
  <text transform="translate(526.12 106.11)"><tspan class="cls-23"><tspan x="0" y="0">Electricity consumption </tspan></tspan><tspan><tspan class="cls-23" x="0" y="38.4">in 2021 is</tspan><tspan class="cls-12" x="94.18" y="38.4"> </tspan><tspan class="cls-13" x="99.7" y="38.4">9.0%</tspan><tspan class="cls-1" x="172.64" y="38.4"> </tspan><tspan class="cls-11" x="180.21" y="38.4">lower</tspan><tspan class="cls-1" x="237.67" y="38.4"> </tspan></tspan><tspan class="cls-23"><tspan x="0" y="64.8">than in 2020.</tspan></tspan></text>
  <text class="cls-8" transform="translate(250.11 40.21)"><tspan x="0" y="0">ELECTRICIT</tspan><tspan class="cls-19" x="164.88" y="0">Y</tspan><tspan x="183.07" y="0" xml:space="preserve"> USAGE </tspan></text>
  <text class="cls-9" transform="translate(311.31 288.93)"><tspan x="0" y="0">GAS USAGE </tspan></text>
  <text transform="translate(222.33 102.53)"><tspan class="cls-21"><tspan x="0" y="0">That could charge an iPhone 14 </tspan></tspan><tspan><tspan class="cls-21" x="0" y="22.8">Pro Max for</tspan><tspan class="cls-25" x="86.9" y="22.8"> </tspan><tspan class="cls-2" x="91.63" y="22.8">235,081.79</tspan><tspan class="cls-25" x="186.72" y="22.8"> </tspan><tspan class="cls-21" x="191.45" y="22.8">times.</tspan></tspan></text>
  <text transform="translate(222.33 350.15)"><tspan class="cls-22"><tspan class="cls-26" x="0" y="0">That could charge an iPhone </tspan><tspan class="cls-15" x="223.96" y="0">14 </tspan></tspan><tspan><tspan class="cls-21" x="0" y="22.8">Pro Max for</tspan><tspan class="cls-16" x="86.9" y="22.8"> </tspan><tspan class="cls-4" x="92.19" y="22.8">842,812.53</tspan><tspan class="cls-17" x="187.28" y="22.8"> </tspan><tspan class="cls-21" x="192.56" y="22.8">times.</tspan></tspan></text>
  <g>
    <path class="cls-20" d="M538.38,336.96c1.55,.82,2.49,2.27,2.84,4.33h-2.12c-.25-1.15-.78-1.99-1.57-2.52-.79-.53-1.79-.79-3-.79-1.43,0-2.64,.55-3.61,1.64-.98,1.1-1.47,2.73-1.47,4.9,0,1.88,.4,3.4,1.21,4.58,.81,1.18,2.12,1.77,3.95,1.77,1.4,0,2.55-.41,3.47-1.24,.92-.83,1.38-2.17,1.41-4.01h-4.94v-1.77h6.93v8.44h-1.38l-.52-2.03c-.71,.79-1.34,1.35-1.89,1.65-.92,.53-2.1,.79-3.52,.79-1.84,0-3.42-.61-4.75-1.82-1.44-1.52-2.17-3.6-2.17-6.25s.71-4.74,2.12-6.31c1.34-1.49,3.08-2.23,5.21-2.23,1.46,0,2.72,.29,3.79,.86Z"/>
    <path class="cls-20" d="M550.9,345.32c.44-.06,.74-.24,.89-.56,.09-.17,.13-.42,.13-.74,0-.66-.23-1.14-.7-1.44-.47-.3-1.14-.45-2.01-.45-1.01,0-1.72,.27-2.14,.82-.24,.3-.39,.75-.46,1.35h-1.8c.04-1.42,.5-2.41,1.38-2.97,.88-.56,1.91-.83,3.07-.83,1.35,0,2.45,.26,3.29,.77,.84,.52,1.25,1.32,1.25,2.41v6.63c0,.2,.04,.36,.12,.48,.08,.12,.26,.18,.52,.18,.09,0,.18,0,.29-.02,.11-.01,.22-.03,.34-.05v1.43c-.3,.09-.53,.14-.69,.16s-.37,.03-.64,.03c-.67,0-1.15-.24-1.45-.71-.16-.25-.27-.6-.33-1.06-.39,.52-.96,.96-1.7,1.34-.74,.38-1.55,.57-2.44,.57-1.07,0-1.94-.32-2.62-.97-.68-.65-1.02-1.46-1.02-2.43,0-1.07,.33-1.89,1-2.48,.67-.59,1.54-.95,2.62-1.08l3.08-.39Zm-4.07,5.22c.41,.32,.89,.48,1.45,.48,.68,0,1.34-.16,1.98-.47,1.07-.52,1.61-1.38,1.61-2.56v-1.55c-.24,.15-.54,.28-.91,.38-.37,.1-.74,.17-1.09,.21l-1.17,.15c-.7,.09-1.23,.24-1.58,.44-.6,.34-.9,.87-.9,1.61,0,.56,.2,1,.61,1.32Z"/>
    <path class="cls-20" d="M558.12,348.68c.06,.64,.22,1.14,.49,1.48,.5,.62,1.36,.93,2.59,.93,.73,0,1.37-.16,1.93-.47,.56-.31,.83-.79,.83-1.44,0-.49-.22-.87-.67-1.13-.28-.16-.84-.34-1.68-.55l-1.56-.39c-1-.24-1.73-.52-2.21-.82-.84-.52-1.27-1.25-1.27-2.17,0-1.09,.4-1.97,1.19-2.64,.79-.67,1.86-1.01,3.21-1.01,1.76,0,3.02,.51,3.8,1.53,.49,.64,.72,1.34,.71,2.08h-1.83c-.04-.43-.19-.83-.47-1.19-.46-.51-1.24-.76-2.36-.76-.75,0-1.31,.14-1.7,.42s-.58,.65-.58,1.1c0,.5,.25,.9,.76,1.2,.29,.18,.72,.34,1.29,.47l1.3,.31c1.42,.34,2.36,.66,2.85,.98,.75,.49,1.13,1.27,1.13,2.33s-.39,1.91-1.18,2.65c-.79,.75-1.99,1.12-3.59,1.12-1.73,0-2.96-.39-3.68-1.17-.72-.78-1.11-1.74-1.16-2.88h1.86Z"/>
    <path class="cls-20" d="M581.68,341.4c.81,.63,1.3,1.71,1.47,3.25h-1.88c-.11-.71-.38-1.3-.78-1.77-.41-.47-1.06-.7-1.97-.7-1.23,0-2.11,.6-2.64,1.8-.34,.78-.52,1.74-.52,2.89s.24,2.12,.73,2.91c.49,.79,1.25,1.18,2.3,1.18,.8,0,1.44-.24,1.91-.73,.47-.49,.79-1.16,.97-2.01h1.88c-.21,1.53-.75,2.64-1.61,3.35-.86,.71-1.96,1.06-3.3,1.06-1.5,0-2.7-.55-3.6-1.65-.9-1.1-1.34-2.47-1.34-4.12,0-2.02,.49-3.59,1.47-4.72s2.23-1.69,3.75-1.69c1.3,0,2.35,.32,3.16,.95Z"/>
    <path class="cls-20" d="M593.42,341.93c1.02,.99,1.53,2.44,1.53,4.36s-.45,3.38-1.34,4.59c-.9,1.21-2.29,1.81-4.17,1.81-1.57,0-2.82-.54-3.74-1.6s-1.39-2.51-1.39-4.31c0-1.93,.49-3.47,1.46-4.62,.97-1.14,2.28-1.72,3.93-1.72,1.47,0,2.72,.49,3.73,1.48Zm-1.2,7.65c.47-.97,.71-2.05,.71-3.23,0-1.07-.17-1.95-.51-2.62-.54-1.06-1.47-1.59-2.78-1.59-1.17,0-2.02,.45-2.55,1.35s-.8,1.99-.8,3.26,.27,2.24,.8,3.06,1.37,1.22,2.53,1.22c1.27,0,2.14-.48,2.61-1.45Z"/>
    <path class="cls-20" d="M597.32,340.78h1.84v1.63c.54-.67,1.12-1.16,1.73-1.45s1.29-.44,2.03-.44c1.63,0,2.74,.57,3.31,1.71,.32,.62,.47,1.51,.47,2.67v7.38h-1.97v-7.25c0-.7-.1-1.27-.31-1.7-.34-.72-.97-1.07-1.87-1.07-.46,0-.83,.05-1.13,.14-.53,.16-1,.47-1.4,.95-.32,.38-.53,.77-.63,1.18-.1,.41-.14,.98-.14,1.74v6.03h-1.93v-11.5Z"/>
    <path class="cls-20" d="M610.7,348.68c.06,.64,.22,1.14,.49,1.48,.5,.62,1.36,.93,2.59,.93,.73,0,1.37-.16,1.93-.47,.56-.31,.83-.79,.83-1.44,0-.49-.22-.87-.67-1.13-.28-.16-.84-.34-1.68-.55l-1.56-.39c-1-.24-1.73-.52-2.21-.82-.84-.52-1.27-1.25-1.27-2.17,0-1.09,.4-1.97,1.19-2.64,.79-.67,1.86-1.01,3.21-1.01,1.76,0,3.02,.51,3.8,1.53,.49,.64,.72,1.34,.71,2.08h-1.83c-.04-.43-.19-.83-.47-1.19-.46-.51-1.24-.76-2.36-.76-.75,0-1.31,.14-1.7,.42s-.58,.65-.58,1.1c0,.5,.25,.9,.76,1.2,.29,.18,.72,.34,1.29,.47l1.3,.31c1.42,.34,2.36,.66,2.85,.98,.75,.49,1.13,1.27,1.13,2.33s-.39,1.91-1.18,2.65c-.79,.75-1.99,1.12-3.59,1.12-1.73,0-2.96-.39-3.68-1.17-.72-.78-1.11-1.74-1.16-2.88h1.86Z"/>
    <path class="cls-20" d="M622.49,340.78v7.64c0,.59,.09,1.07,.27,1.44,.33,.69,.96,1.03,1.87,1.03,1.31,0,2.2-.6,2.68-1.8,.26-.64,.39-1.53,.39-2.65v-5.65h1.93v11.5h-1.83l.02-1.7c-.25,.44-.55,.81-.92,1.11-.72,.6-1.6,.9-2.64,.9-1.61,0-2.71-.55-3.29-1.64-.32-.59-.47-1.37-.47-2.35v-7.82h1.98Z"/>
    <path class="cls-20" d="M632.79,340.78h1.91v1.63c.46-.57,.87-.98,1.25-1.24,.64-.44,1.36-.66,2.17-.66,.92,0,1.65,.23,2.21,.68,.32,.26,.6,.64,.86,1.14,.43-.62,.93-1.07,1.51-1.37,.58-.3,1.23-.45,1.96-.45,1.55,0,2.6,.56,3.16,1.68,.3,.6,.45,1.41,.45,2.43v7.66h-2.01v-7.99c0-.77-.19-1.29-.57-1.58-.38-.29-.85-.43-1.4-.43-.76,0-1.41,.25-1.96,.76-.55,.51-.82,1.36-.82,2.55v6.69h-1.97v-7.51c0-.78-.09-1.35-.28-1.71-.29-.54-.84-.81-1.64-.81-.73,0-1.39,.28-1.99,.85-.6,.57-.9,1.59-.9,3.07v6.1h-1.93v-11.5Z"/>
    <path class="cls-20" d="M650.95,340.84h1.89v1.53c.39-.52,.81-.93,1.27-1.21,.65-.43,1.42-.64,2.3-.64,1.31,0,2.42,.5,3.33,1.5,.91,1,1.37,2.43,1.37,4.28,0,2.51-.66,4.3-1.97,5.37-.83,.68-1.8,1.02-2.91,1.02-.87,0-1.6-.19-2.19-.57-.35-.21-.73-.58-1.15-1.11v5.88h-1.93v-16.04Zm7.27,9.02c.6-.75,.9-1.88,.9-3.39,0-.92-.13-1.7-.4-2.36-.5-1.27-1.42-1.9-2.76-1.9s-2.26,.67-2.76,2.01c-.27,.72-.4,1.63-.4,2.73,0,.89,.13,1.64,.4,2.27,.5,1.19,1.42,1.78,2.76,1.78,.91,0,1.66-.38,2.26-1.13Z"/>
    <path class="cls-20" d="M663.74,337.57h1.96v3.21h1.84v1.58h-1.84v7.51c0,.4,.14,.67,.41,.81,.15,.08,.4,.12,.75,.12,.09,0,.19,0,.3,0s.23-.02,.38-.04v1.54c-.22,.06-.45,.11-.69,.14-.24,.03-.5,.04-.78,.04-.9,0-1.51-.23-1.84-.69-.32-.46-.48-1.06-.48-1.8v-7.62h-1.56v-1.58h1.56v-3.21Z"/>
    <path class="cls-20" d="M669.46,336.51h1.97v2.19h-1.97v-2.19Zm0,4.33h1.97v11.45h-1.97v-11.45Z"/>
    <path class="cls-20" d="M682.69,341.93c1.02,.99,1.53,2.44,1.53,4.36s-.45,3.38-1.34,4.59c-.9,1.21-2.29,1.81-4.17,1.81-1.57,0-2.82-.54-3.74-1.6s-1.39-2.51-1.39-4.31c0-1.93,.49-3.47,1.46-4.62,.97-1.14,2.28-1.72,3.93-1.72,1.47,0,2.72,.49,3.73,1.48Zm-1.2,7.65c.47-.97,.71-2.05,.71-3.23,0-1.07-.17-1.95-.51-2.62-.54-1.06-1.47-1.59-2.78-1.59-1.17,0-2.02,.45-2.55,1.35s-.8,1.99-.8,3.26,.27,2.24,.8,3.06,1.37,1.22,2.53,1.22c1.27,0,2.14-.48,2.61-1.45Z"/>
    <path class="cls-20" d="M686.58,340.78h1.84v1.63c.54-.67,1.12-1.16,1.73-1.45s1.29-.44,2.03-.44c1.63,0,2.74,.57,3.31,1.71,.32,.62,.47,1.51,.47,2.67v7.38h-1.97v-7.25c0-.7-.1-1.27-.31-1.7-.34-.72-.97-1.07-1.87-1.07-.46,0-.83,.05-1.13,.14-.53,.16-1,.47-1.4,.95-.32,.38-.53,.77-.63,1.18-.1,.41-.14,.98-.14,1.74v6.03h-1.93v-11.5Z"/>
    <path class="cls-20" d="M527.84,374.91h1.97v2.19h-1.97v-2.19Zm0,4.33h1.97v11.45h-1.97v-11.45Z"/>
    <path class="cls-20" d="M532.73,379.18h1.84v1.63c.54-.67,1.12-1.16,1.73-1.45s1.29-.44,2.03-.44c1.63,0,2.74,.57,3.31,1.71,.32,.62,.47,1.51,.47,2.67v7.38h-1.97v-7.25c0-.7-.1-1.27-.31-1.7-.34-.72-.97-1.07-1.87-1.07-.46,0-.83,.05-1.13,.14-.53,.16-1,.47-1.4,.95-.32,.38-.53,.77-.63,1.18-.1,.41-.14,.98-.14,1.74v6.03h-1.93v-11.5Z"/>
    <path class="cls-20" d="M551.17,387.23c.48-.98,1.41-1.87,2.79-2.67l2.06-1.19c.92-.54,1.57-1,1.94-1.38,.59-.6,.88-1.28,.88-2.04,0-.9-.27-1.61-.81-2.14s-1.25-.79-2.15-.79c-1.33,0-2.24,.5-2.75,1.51-.27,.54-.42,1.29-.45,2.24h-1.97c.02-1.34,.27-2.43,.74-3.28,.84-1.49,2.32-2.23,4.44-2.23,1.76,0,3.05,.48,3.86,1.43,.81,.95,1.22,2.01,1.22,3.18,0,1.23-.43,2.28-1.3,3.16-.5,.51-1.4,1.12-2.7,1.85l-1.47,.82c-.7,.39-1.25,.76-1.65,1.11-.72,.62-1.17,1.31-1.35,2.07h8.4v1.83h-10.56c.07-1.33,.35-2.48,.82-3.46Z"/>
    <path class="cls-20" d="M572.16,377.77c.69,1.27,1.03,3,1.03,5.21,0,2.09-.31,3.82-.93,5.19-.9,1.96-2.38,2.94-4.43,2.94-1.85,0-3.22-.8-4.12-2.41-.75-1.34-1.13-3.14-1.13-5.39,0-1.75,.23-3.25,.68-4.5,.84-2.33,2.37-3.5,4.59-3.5,1.99,0,3.43,.82,4.32,2.46Zm-1.95,10.25c.6-.89,.89-2.54,.89-4.96,0-1.75-.22-3.18-.65-4.31-.43-1.13-1.27-1.69-2.51-1.69-1.14,0-1.97,.54-2.5,1.61-.53,1.07-.79,2.65-.79,4.73,0,1.57,.17,2.83,.51,3.78,.52,1.45,1.4,2.18,2.65,2.18,1,0,1.8-.44,2.4-1.33Z"/>
    <path class="cls-20" d="M575.64,387.23c.48-.98,1.41-1.87,2.79-2.67l2.06-1.19c.92-.54,1.57-1,1.94-1.38,.59-.6,.88-1.28,.88-2.04,0-.9-.27-1.61-.81-2.14s-1.25-.79-2.15-.79c-1.33,0-2.24,.5-2.75,1.51-.27,.54-.42,1.29-.45,2.24h-1.97c.02-1.34,.27-2.43,.74-3.28,.84-1.49,2.32-2.23,4.44-2.23,1.76,0,3.05,.48,3.86,1.43,.81,.95,1.22,2.01,1.22,3.18,0,1.23-.43,2.28-1.3,3.16-.5,.51-1.4,1.12-2.7,1.85l-1.47,.82c-.7,.39-1.25,.76-1.65,1.11-.72,.62-1.17,1.31-1.35,2.07h8.4v1.83h-10.56c.07-1.33,.35-2.48,.82-3.46Z"/>
    <path class="cls-20" d="M588.47,379.8v-1.48c1.4-.14,2.37-.36,2.92-.68,.55-.32,.96-1.07,1.24-2.26h1.53v15.32h-2.06v-10.89h-3.62Z"/>
    <path class="cls-20" d="M606.13,374.91h1.97v2.19h-1.97v-2.19Zm0,4.33h1.97v11.45h-1.97v-11.45Z"/>
    <path class="cls-20" d="M612.17,387.08c.06,.64,.22,1.14,.49,1.48,.5,.62,1.36,.93,2.59,.93,.73,0,1.37-.16,1.93-.47,.56-.31,.83-.79,.83-1.44,0-.49-.22-.87-.67-1.13-.28-.16-.84-.34-1.68-.55l-1.56-.39c-1-.24-1.73-.52-2.21-.82-.84-.52-1.27-1.25-1.27-2.17,0-1.09,.4-1.97,1.19-2.64,.79-.67,1.86-1.01,3.21-1.01,1.76,0,3.02,.51,3.8,1.53,.49,.64,.72,1.34,.71,2.08h-1.83c-.04-.43-.19-.83-.47-1.19-.46-.51-1.24-.76-2.36-.76-.75,0-1.31,.14-1.7,.42s-.58,.65-.58,1.1c0,.5,.25,.9,.76,1.2,.29,.18,.72,.34,1.29,.47l1.3,.31c1.42,.34,2.36,.66,2.85,.98,.75,.49,1.13,1.27,1.13,2.33s-.39,1.91-1.18,2.65c-.79,.75-1.99,1.12-3.59,1.12-1.73,0-2.96-.39-3.68-1.17-.72-.78-1.11-1.74-1.16-2.88h1.86Z"/>
    <path class="cls-18" d="M642.89,382.33v3.48h-2.56v4.88h-4.36v-4.88h-8.97v-3.89l8.33-13.75h5v14.16h2.56Zm-12.59,0h5.67v-9.78l-5.67,9.78Z"/>
    <path class="cls-18" d="M645.95,386.03h4.73v4.66h-4.73v-4.66Z"/>
    <path class="cls-18" d="M666.94,375.31c-1.19,1.69-2.18,3.43-2.98,5.22-.64,1.41-1.21,3.12-1.72,5.16-.51,2.03-.77,3.7-.77,5h-4.62c.13-4.06,1.47-8.29,4-12.67,1.63-2.72,3-4.61,4.11-5.69h-11.3l.06-4h16v3.48c-.67,.66-1.59,1.82-2.78,3.5Z"/>
    <path class="cls-18" d="M673.08,378.06c-1.14-1.13-1.7-2.5-1.7-4.11s.57-2.97,1.7-4.11,2.5-1.7,4.11-1.7,2.97,.57,4.11,1.7c1.13,1.14,1.7,2.51,1.7,4.11s-.57,2.97-1.7,4.11c-1.13,1.14-2.5,1.7-4.12,1.7s-2.97-.57-4.11-1.7Zm2.36-2.36c.48,.49,1.06,.73,1.75,.73s1.27-.24,1.76-.73,.73-1.07,.73-1.76-.24-1.27-.73-1.76-1.07-.73-1.76-.73-1.27,.24-1.76,.73-.73,1.07-.73,1.76,.24,1.27,.73,1.75Zm4.2,15.58h-2.42l12.67-23.25h2.38l-12.62,23.25Zm6.92-5.95c0-1.61,.57-2.99,1.7-4.12,1.13-1.12,2.5-1.69,4.11-1.69s2.97,.57,4.11,1.7c1.13,1.14,1.7,2.51,1.7,4.11s-.57,2.97-1.7,4.11-2.51,1.7-4.11,1.7-2.97-.57-4.11-1.7c-1.14-1.13-1.7-2.5-1.7-4.11Zm4.06,1.75c.48,.49,1.06,.73,1.75,.73s1.27-.24,1.76-.73,.73-1.07,.73-1.76-.24-1.27-.73-1.76-1.07-.73-1.76-.73-1.27,.24-1.76,.73-.73,1.07-.73,1.76,.24,1.27,.73,1.75Z"/>
    <path class="cls-18" d="M708.21,374.85h3.06v15.83h-3.06v-15.83Z"/>
    <path class="cls-18" d="M724.02,380.46c.99,1.24,1.48,2.7,1.48,4.39s-.49,3.19-1.48,4.41c-.99,1.22-2.49,1.83-4.5,1.83s-3.51-.61-4.5-1.83c-.99-1.22-1.48-2.69-1.48-4.41s.49-3.15,1.48-4.39,2.49-1.86,4.5-1.86,3.51,.62,4.5,1.86Zm-4.51,.73c-.9,0-1.58,.32-2.07,.95-.48,.63-.72,1.54-.72,2.71s.24,2.08,.72,2.72c.48,.64,1.17,.96,2.07,.96s1.58-.32,2.06-.96,.72-1.54,.72-2.72-.24-2.08-.72-2.71c-.48-.63-1.17-.95-2.06-.95Z"/>
    <path class="cls-18" d="M736.58,390.69l-1.84-8.53-1.86,8.53h-3.18l-3.29-11.71h3.29l1.83,8.4,1.69-8.4h3.1l1.78,8.43,1.83-8.43h3.19l-3.39,11.71h-3.15Z"/>
    <path class="cls-18" d="M754.83,387.25c-.08,.69-.44,1.4-1.08,2.12-1,1.14-2.41,1.71-4.21,1.71-1.49,0-2.8-.48-3.94-1.44s-1.71-2.52-1.71-4.68c0-2.03,.51-3.58,1.54-4.66,1.03-1.08,2.36-1.62,4-1.62,.97,0,1.85,.18,2.63,.55s1.42,.94,1.93,1.73c.46,.69,.76,1.5,.89,2.42,.08,.54,.11,1.31,.1,2.32h-8.01c.04,1.17,.41,2,1.11,2.47,.42,.29,.93,.44,1.53,.44,.63,0,1.14-.18,1.54-.54,.21-.19,.4-.46,.57-.81h3.13Zm-3.03-3.59c-.05-.81-.29-1.42-.74-1.84-.44-.42-.99-.63-1.64-.63-.71,0-1.26,.22-1.65,.67-.39,.44-.63,1.05-.74,1.8h4.76Z"/>
    <path class="cls-18" d="M762.93,381.8c-1.23,0-2.06,.4-2.48,1.2-.24,.45-.35,1.15-.35,2.08v5.6h-3.08v-11.71h2.92v2.04c.47-.78,.88-1.31,1.24-1.6,.57-.48,1.32-.72,2.23-.72,.06,0,.11,0,.15,0,.04,0,.13,0,.26,.02v3.14c-.19-.02-.37-.04-.52-.04s-.27-.01-.37-.01Z"/>
    <path class="cls-20" d="M528.38,402.37h1.96v3.21h1.84v1.58h-1.84v7.51c0,.4,.14,.67,.41,.81,.15,.08,.4,.12,.75,.12,.09,0,.19,0,.3,0s.23-.02,.38-.04v1.54c-.22,.06-.45,.11-.69,.14-.24,.03-.5,.04-.78,.04-.9,0-1.51-.23-1.84-.69-.32-.46-.48-1.06-.48-1.8v-7.62h-1.56v-1.58h1.56v-3.21Z"/>
    <path class="cls-20" d="M534.1,401.25h1.93v5.89c.46-.58,.87-.99,1.24-1.22,.62-.41,1.4-.61,2.33-.61,1.67,0,2.8,.58,3.39,1.75,.32,.64,.48,1.52,.48,2.65v7.38h-1.99v-7.25c0-.84-.11-1.46-.32-1.86-.35-.63-1.01-.95-1.98-.95-.8,0-1.53,.28-2.18,.83s-.98,1.59-.98,3.13v6.1h-1.93v-15.83Z"/>
    <path class="cls-20" d="M552.5,410.13c.44-.06,.74-.24,.89-.56,.09-.17,.13-.42,.13-.74,0-.66-.23-1.14-.7-1.44-.47-.3-1.14-.45-2.01-.45-1.01,0-1.72,.27-2.14,.82-.24,.3-.39,.75-.46,1.35h-1.8c.04-1.42,.5-2.41,1.38-2.97,.88-.56,1.91-.83,3.07-.83,1.35,0,2.45,.26,3.29,.77,.84,.52,1.25,1.32,1.25,2.41v6.63c0,.2,.04,.36,.12,.48,.08,.12,.26,.18,.52,.18,.09,0,.18,0,.29-.02,.11-.01,.22-.03,.34-.05v1.43c-.3,.09-.53,.14-.69,.16s-.37,.03-.64,.03c-.67,0-1.15-.24-1.45-.71-.16-.25-.27-.6-.33-1.06-.39,.52-.96,.96-1.7,1.34-.74,.38-1.55,.57-2.44,.57-1.07,0-1.94-.32-2.62-.97-.68-.65-1.02-1.46-1.02-2.43,0-1.07,.33-1.89,1-2.48,.67-.59,1.54-.95,2.62-1.08l3.08-.39Zm-4.07,5.22c.41,.32,.89,.48,1.45,.48,.68,0,1.34-.16,1.98-.47,1.07-.52,1.61-1.38,1.61-2.56v-1.55c-.24,.15-.54,.28-.91,.38-.37,.1-.74,.17-1.09,.21l-1.17,.15c-.7,.09-1.23,.24-1.58,.44-.6,.34-.9,.87-.9,1.61,0,.56,.2,1,.61,1.32Z"/>
    <path class="cls-20" d="M558.57,405.58h1.84v1.63c.54-.67,1.12-1.16,1.73-1.45s1.29-.44,2.03-.44c1.63,0,2.74,.57,3.31,1.71,.32,.62,.47,1.51,.47,2.67v7.38h-1.97v-7.25c0-.7-.1-1.27-.31-1.7-.34-.72-.97-1.07-1.87-1.07-.46,0-.83,.05-1.13,.14-.53,.16-1,.47-1.4,.95-.32,.38-.53,.77-.63,1.18-.1,.41-.14,.98-.14,1.74v6.03h-1.93v-11.5Z"/>
    <path class="cls-20" d="M576.92,401.31h1.97v2.19h-1.97v-2.19Zm0,4.33h1.97v11.45h-1.97v-11.45Z"/>
    <path class="cls-20" d="M581.81,405.58h1.84v1.63c.54-.67,1.12-1.16,1.73-1.45s1.29-.44,2.03-.44c1.63,0,2.74,.57,3.31,1.71,.32,.62,.47,1.51,.47,2.67v7.38h-1.97v-7.25c0-.7-.1-1.27-.31-1.7-.34-.72-.97-1.07-1.87-1.07-.46,0-.83,.05-1.13,.14-.53,.16-1,.47-1.4,.95-.32,.38-.53,.77-.63,1.18-.1,.41-.14,.98-.14,1.74v6.03h-1.93v-11.5Z"/>
    <path class="cls-20" d="M600.25,413.63c.48-.98,1.41-1.87,2.79-2.67l2.06-1.19c.92-.54,1.57-1,1.94-1.38,.59-.6,.88-1.28,.88-2.04,0-.9-.27-1.61-.81-2.14s-1.25-.79-2.15-.79c-1.33,0-2.24,.5-2.75,1.51-.27,.54-.42,1.29-.45,2.24h-1.97c.02-1.34,.27-2.43,.74-3.28,.84-1.49,2.32-2.23,4.44-2.23,1.76,0,3.05,.48,3.86,1.43,.81,.95,1.22,2.01,1.22,3.18,0,1.23-.43,2.28-1.3,3.16-.5,.51-1.4,1.12-2.7,1.85l-1.47,.82c-.7,.39-1.25,.76-1.65,1.11-.72,.62-1.17,1.31-1.35,2.07h8.4v1.83h-10.56c.07-1.33,.35-2.48,.82-3.46Z"/>
    <path class="cls-20" d="M621.24,404.17c.69,1.27,1.03,3,1.03,5.21,0,2.09-.31,3.82-.93,5.19-.9,1.96-2.38,2.94-4.43,2.94-1.85,0-3.22-.8-4.12-2.41-.75-1.34-1.13-3.14-1.13-5.39,0-1.75,.23-3.25,.68-4.5,.84-2.33,2.37-3.5,4.59-3.5,1.99,0,3.43,.82,4.32,2.46Zm-1.95,10.25c.6-.89,.89-2.54,.89-4.96,0-1.75-.22-3.18-.65-4.31-.43-1.13-1.27-1.69-2.51-1.69-1.14,0-1.97,.54-2.5,1.61-.53,1.07-.79,2.65-.79,4.73,0,1.57,.17,2.83,.51,3.78,.52,1.45,1.4,2.18,2.65,2.18,1,0,1.8-.44,2.4-1.33Z"/>
    <path class="cls-20" d="M624.72,413.63c.48-.98,1.41-1.87,2.79-2.67l2.06-1.19c.92-.54,1.57-1,1.94-1.38,.59-.6,.88-1.28,.88-2.04,0-.9-.27-1.61-.81-2.14s-1.25-.79-2.15-.79c-1.33,0-2.24,.5-2.75,1.51-.27,.54-.42,1.29-.45,2.24h-1.97c.02-1.34,.27-2.43,.74-3.28,.84-1.49,2.32-2.23,4.44-2.23,1.76,0,3.05,.48,3.86,1.43,.81,.95,1.22,2.01,1.22,3.18,0,1.23-.43,2.28-1.3,3.16-.5,.51-1.4,1.12-2.7,1.85l-1.47,.82c-.7,.39-1.25,.76-1.65,1.11-.72,.62-1.17,1.31-1.35,2.07h8.4v1.83h-10.56c.07-1.33,.35-2.48,.82-3.46Z"/>
    <path class="cls-20" d="M645.71,404.17c.69,1.27,1.03,3,1.03,5.21,0,2.09-.31,3.82-.93,5.19-.9,1.96-2.38,2.94-4.43,2.94-1.85,0-3.22-.8-4.12-2.41-.75-1.34-1.13-3.14-1.13-5.39,0-1.75,.23-3.25,.68-4.5,.84-2.33,2.37-3.5,4.59-3.5,1.99,0,3.43,.82,4.32,2.46Zm-1.95,10.25c.6-.89,.89-2.54,.89-4.96,0-1.75-.22-3.18-.65-4.31-.43-1.13-1.27-1.69-2.51-1.69-1.14,0-1.97,.54-2.5,1.61-.53,1.07-.79,2.65-.79,4.73,0,1.57,.17,2.83,.51,3.78,.52,1.45,1.4,2.18,2.65,2.18,1,0,1.8-.44,2.4-1.33Z"/>
    <path class="cls-20" d="M649.56,414.75h2.25v2.34h-2.25v-2.34Z"/>
  </g>
  <g>
    <line class="cls-28" x1="507.05" y1="71.74" x2="507.05" y2="200.65"/>
    <polygon class="cls-14" points="493.49 184.72 507.05 198.29 520.61 184.72 520.61 196.23 507.05 209.8 493.49 196.23 493.49 184.72"/>
  </g>
  <text class="cls-6" transform="translate(45.99 90.29)"><tspan x="0" y="0">2020: </tspan></text>
  <text class="cls-8" transform="translate(45.99 166.46)"><tspan x="0" y="0">2021: </tspan></text>
  <text transform="translate(222.33 179.04)"><tspan class="cls-21"><tspan x="0" y="0">That could charge an iPhone 14 </tspan></tspan><tspan><tspan class="cls-21" x="0" y="22.8">Pro Max for </tspan><tspan class="cls-3" x="91.63" y="22.8">214,053.73</tspan><tspan class="cls-21" x="186.72" y="22.8" xml:space="preserve"> times.</tspan></tspan></text>
  <text class="cls-10" transform="translate(46.29 123.18)"><tspan x="0" y="0">3,937.62 kWh</tspan></text>
  <text class="cls-10" transform="translate(46.29 199.04)"><tspan x="0" y="0">3,585.40 kWh</tspan></text>
  <text class="cls-10" transform="translate(45.34 365.48)"><tspan x="0" y="0">14,</tspan><tspan class="cls-27" x="30.58" y="0">1</tspan><tspan x="41.62" y="0">17.</tspan><tspan class="cls-27" x="72.2" y="0">1</tspan><tspan x="83.23" y="0">1 kWh </tspan></text>
  <text class="cls-7" transform="translate(45.99 336.47)"><tspan x="0" y="0">2020: </tspan></text>
  <text class="cls-10" transform="translate(45.34 445.9)"><tspan x="0" y="0">13,449.88 kWh </tspan></text>
  <text class="cls-9" transform="translate(45.99 413.83)"><tspan x="0" y="0">2021:</tspan></text>
  <text transform="translate(222.33 426.16)"><tspan class="cls-21"><tspan x="0" y="0">That could charge an iPhone 14 </tspan></tspan><tspan><tspan class="cls-21" x="0" y="22.8">Pro Max for</tspan><tspan class="cls-25" x="86.9" y="22.8"> </tspan><tspan class="cls-5" x="91.63" y="22.8">802,977.91</tspan><tspan class="cls-25" x="186.72" y="22.8"> </tspan><tspan class="cls-21" x="191.45" y="22.8">times.</tspan></tspan></text>
  <g>
    <line class="cls-29" x1="507.05" y1="315.62" x2="507.05" y2="444.54"/>
    <polygon class="cls-18" points="493.49 428.6 507.05 442.17 520.61 428.6 520.61 440.12 507.05 453.68 493.49 440.12 493.49 428.6"/>
  </g>
</svg>